<svg width="58" height="50" viewBox="0 0 58 50" fill="none" xmlns="http://www.w3.org/2000/svg">
<path d="M48.6242 20.0411H46.9024C46.9433 19.5502 46.9653 19.0539 46.9653 18.5523C46.9653 8.76475 39.0309 0.830322 29.2433 0.830322C21.0379 0.830322 14.1361 6.40738 12.1188 13.9773C6.32238 14.3825 1.74585 19.2123 1.74585 25.1117C1.74585 31.2766 6.74353 36.2743 12.9084 36.2743H29.2433H48.6242C53.1069 36.2743 56.7408 32.6404 56.7408 28.1577C56.7408 23.675 53.1069 20.0411 48.6242 20.0411Z" fill="#9DC6FB"/>
<path d="M14.6979 25.1118C14.6979 28.1946 15.9472 30.9853 17.9677 33.0047C19.9882 35.0253 22.7789 36.2746 25.8606 36.2746H12.9086C9.82579 36.2746 7.0351 35.0253 5.01456 33.0047C2.99513 30.9853 1.74585 28.1946 1.74585 25.1118C1.74585 19.2129 6.32249 14.3828 12.1185 13.9778C14.1357 6.40801 21.0383 0.829956 29.2433 0.829956C31.5294 0.829956 33.7137 1.26261 35.7199 2.05157C30.5247 4.09203 26.5268 8.51707 25.0717 13.9778C19.2745 14.3828 14.6979 19.2129 14.6979 25.1118Z" fill="#80B4FB"/>
<path d="M37.5897 31.4538H35.6513V18.6312C35.6513 16.5504 33.9644 14.8635 31.8835 14.8635H26.6033C24.5224 14.8635 22.8355 16.5504 22.8355 18.6312V31.4538H20.8971C17.5349 31.4538 15.7136 35.3903 17.8902 37.9529L26.2366 47.7796C27.812 49.6346 30.6749 49.6346 32.2504 47.7796L40.5968 37.9529C42.7732 35.3903 40.952 31.4538 37.5897 31.4538Z" fill="#F9F6F9"/>
<path d="M31.5979 48.393C29.9735 49.6047 27.6133 49.4011 26.2368 47.78L17.8902 37.9528C15.7136 35.3901 17.535 31.4541 20.8966 31.4541H22.8353V18.6308C22.8353 16.5505 24.5216 14.863 26.603 14.863H31.3135C29.2322 14.863 27.5458 16.5505 27.5458 18.6308V31.4541H25.6071C22.2444 31.4541 20.423 35.3901 22.5996 37.9528L30.9462 47.78C31.1442 48.0135 31.3633 48.2182 31.5979 48.393Z" fill="#DDDAEC"/>
<path d="M54.9506 21.8319C53.26 20.1425 51.0134 19.2121 48.6244 19.2121H47.7834C47.7915 18.9903 47.7955 18.7701 47.7955 18.5526C47.7955 8.32292 39.473 0.000427246 29.2433 0.000427246C24.1349 0.000427246 19.201 2.1397 15.7067 5.86972C15.3933 6.20423 15.4104 6.72939 15.7449 7.04276C16.0793 7.35613 16.6046 7.33898 16.918 7.00448C20.1466 3.55817 24.5239 1.66023 29.2434 1.66023C38.5579 1.66023 46.1358 9.23813 46.1358 18.5526C46.1358 19.0157 46.1154 19.4936 46.0756 19.9731C46.0562 20.2044 46.1347 20.4332 46.2918 20.6039C46.449 20.7748 46.6705 20.8719 46.9026 20.8719H48.6245C50.5703 20.8719 52.4003 21.6298 53.7769 23.0055C55.153 24.3826 55.9109 26.2126 55.9109 28.1585C55.9109 32.1763 52.6422 35.445 48.6244 35.445H42.3703C42.3752 34.754 42.2295 34.0556 41.9232 33.3935C41.1327 31.6851 39.4724 30.6238 37.59 30.6238H36.4812V18.6312C36.4812 16.096 34.4188 14.0335 31.8836 14.0335H26.6032C24.068 14.0335 22.0055 16.096 22.0055 18.6312V30.6238H20.8968C19.0144 30.6238 17.354 31.6851 16.5636 33.3935C16.2573 34.0554 16.1115 34.754 16.1164 35.445H12.9087C10.1483 35.445 7.55325 34.3701 5.60143 32.4183C3.65038 30.4672 2.57582 27.8724 2.57582 25.1122C2.57582 19.7093 6.79295 15.1822 12.1765 14.8061C12.5301 14.7814 12.829 14.5348 12.9205 14.1922C13.3627 12.5351 14.0548 10.9579 14.978 9.5047C15.2238 9.11785 15.1094 8.60497 14.7225 8.35921C14.3357 8.11356 13.8228 8.22787 13.577 8.61471C12.6672 10.0468 11.9616 11.5886 11.4754 13.2056C8.67727 13.5388 6.0955 14.8434 4.15308 16.9177C2.0656 19.1467 0.916016 22.0569 0.916016 25.1122C0.916016 28.3158 2.16319 31.3274 4.42783 33.5919C6.69314 35.8572 9.70502 37.1048 12.9087 37.1048H16.4334C16.6244 37.5982 16.8985 38.0668 17.2577 38.4897L25.6042 48.3167C26.5127 49.3867 27.8391 50.0004 29.2434 50.0004C30.6476 50.0004 31.974 49.3867 32.8824 48.3167L34.9661 45.8624C35.2627 45.513 35.2199 44.9893 34.8704 44.6926C34.521 44.3959 33.9973 44.4387 33.7007 44.7882L31.6171 47.2425C31.0247 47.9404 30.1595 48.3406 29.2434 48.3406C28.3273 48.3406 27.4621 47.9404 26.8694 47.2424L18.5228 37.4152C17.7157 36.4648 17.5464 35.222 18.0699 34.0905C18.5934 32.9591 19.6501 32.2837 20.8968 32.2837H22.8354C23.2937 32.2837 23.6653 31.9121 23.6653 31.4538V18.6312C23.6653 17.0112 24.9832 15.6933 26.6032 15.6933H31.8836C33.5035 15.6933 34.8214 17.0112 34.8214 18.6312V31.4538C34.8214 31.9121 35.1929 32.2837 35.6513 32.2837H37.59C38.8366 32.2837 39.8932 32.9591 40.4169 34.0905C40.9404 35.222 40.7711 36.4649 39.964 37.4152L35.8498 42.2585C35.5531 42.6079 35.5957 43.1316 35.945 43.4284C36.2942 43.7251 36.8181 43.6824 37.1147 43.3331L41.2289 38.4897C41.5881 38.0668 41.8622 37.5981 42.0532 37.1048H48.6244C53.5574 37.1048 57.5707 33.0915 57.5707 28.1585C57.5707 25.7696 56.6404 23.5229 54.9506 21.8319Z" fill="black"/>
</svg>
