<svg width="42" height="50" viewBox="0 0 42 50" fill="none" xmlns="http://www.w3.org/2000/svg">
<path d="M31.7726 14.0735V8.32337C31.7726 4.21258 28.4402 0.880188 24.3294 0.880188H18.1702C14.0594 0.880188 10.7271 4.21258 10.7271 8.32337V14.0735H31.7726Z" fill="#D5985C"/>
<path d="M25.7134 29.6113H16.7863L7.61745 32.102C4.21458 33.0263 1.85254 36.1156 1.85254 39.6418V45.4742C1.85254 47.4883 3.48532 49.121 5.49943 49.121H37.0003C39.0144 49.121 40.6472 47.4883 40.6472 45.4742V39.6418C40.6472 36.1156 38.2851 33.0263 34.8823 32.1019L25.7134 29.6113Z" fill="#95D6A4"/>
<path d="M34.8822 32.1019L25.7134 29.6112H18.2947L27.4635 32.1019C30.8665 33.0263 33.2284 36.1155 33.2284 39.6418V45.4741C33.2284 47.4883 31.5956 49.121 29.5815 49.121H37.0002C39.0143 49.121 40.6471 47.4883 40.6471 45.4741V39.6418C40.6471 36.1156 38.2852 33.0263 34.8822 32.1019Z" fill="#78C2A4"/>
<path d="M25.7133 29.6113V24.9103H16.7861V29.6113C16.7861 32.0764 21.2498 33.0571 21.2498 33.0571C21.2498 33.0571 25.7133 32.0764 25.7133 29.6113Z" fill="#FFDDCE"/>
<path d="M25.4487 0.964111V14.0736H31.7728V8.32345C31.7728 4.59295 29.0284 1.50399 25.4487 0.964111Z" fill="#C38959"/>
<path d="M21.2498 33.0569L23.4954 34.9992C24.193 35.6025 25.2285 35.5993 25.9222 34.9917L30.5619 30.9282L29.1781 28.859C28.6996 28.1436 27.7137 27.9864 27.0365 28.5176L21.2498 33.0569Z" fill="#B3E59F"/>
<path d="M21.2501 33.057L19.0045 34.9992C18.3069 35.6025 17.2714 35.5994 16.5776 34.9917L11.938 30.9283L13.3218 28.8591C13.8002 28.1436 14.7862 27.9865 15.4634 28.5177L21.2501 33.057Z" fill="#B3E59F"/>
<path d="M14.361 13.4695H11.0027C10.2461 13.4695 9.63281 14.0828 9.63281 14.8394V16.4139C9.63281 17.1705 10.2461 17.7838 11.0027 17.7838H14.361V13.4695Z" fill="#FFDDCE"/>
<path d="M31.4977 13.4695H28.1394V17.7838H31.4977C32.2543 17.7838 32.8676 17.1705 32.8676 16.4139V14.8394C32.8676 14.0828 32.2542 13.4695 31.4977 13.4695Z" fill="#FFCBBE"/>
<path d="M28.1778 11.6656V9.81064C28.1778 8.83489 27.3869 8.04395 26.4111 8.04395C26.1618 8.04395 25.9153 8.09671 25.6878 8.19885C22.8648 9.46577 19.6349 9.46577 16.8119 8.19885C16.5844 8.09671 16.3379 8.04395 16.0886 8.04395C15.1129 8.04395 14.3219 8.83489 14.3219 9.81064V11.6656C14.3219 12.6619 13.5143 13.4695 12.5181 13.4695V17.6496C12.5181 22.4721 16.4274 26.3814 21.2499 26.3814C26.0723 26.3814 29.9817 22.4721 29.9817 17.6496V13.4695C28.9854 13.4695 28.1778 12.6618 28.1778 11.6656Z" fill="#FFDDCE"/>
<path d="M28.1778 11.6656V9.81064C28.1778 8.83489 27.3869 8.04395 26.4111 8.04395C26.1618 8.04395 25.9153 8.09671 25.6878 8.19885C25.6084 8.2345 25.5287 8.26874 25.4487 8.3024V17.6497C25.4487 21.688 22.7068 25.0843 18.9834 26.0827C19.7064 26.2765 20.4657 26.3815 21.2499 26.3815C26.0723 26.3815 29.9817 22.4721 29.9817 17.6497V13.4696C28.9854 13.4695 28.1778 12.6618 28.1778 11.6656Z" fill="#FFCBBE"/>
<path d="M35.1129 31.2532L31.1102 30.1659L29.9093 28.37C29.1877 27.2911 27.7009 26.9764 26.593 27.7559V25.6345C28.9 24.0857 30.5019 21.5648 30.8075 18.663H31.4975C32.7378 18.663 33.7469 17.6541 33.7469 16.4137V14.8392C33.7469 14.0214 33.3068 13.3062 32.6524 12.9125V8.32321C32.6524 3.73398 28.9188 0.000427246 24.3296 0.000427246H18.1704C13.5813 0.000427246 9.84777 3.73398 9.84777 8.32321V12.9125C9.19332 13.3063 8.75323 14.0214 8.75323 14.8392V16.4137C8.75323 17.654 9.76228 18.663 11.0026 18.663H11.6927C11.9983 21.5648 13.6001 24.0857 15.9071 25.6345V27.7559C14.8007 26.9769 13.3131 27.2899 12.5908 28.37L11.3897 30.1659L7.38711 31.2532C3.61064 32.2789 0.973145 35.7284 0.973145 39.6417V40.5056C0.973145 40.9914 1.36692 41.3851 1.85262 41.3851C2.33833 41.3851 2.7321 40.9914 2.7321 40.5056V39.6417C2.7321 36.5203 4.83592 33.7688 7.84807 32.9504L11.7131 31.9006L15.9979 35.6531C17.0161 36.5449 18.5561 36.5497 19.5796 35.6644L21.2499 34.2198L22.9202 35.6644C23.9459 36.5516 25.4859 36.5431 26.5018 35.6532L30.7867 31.9006L34.6517 32.9504C37.664 33.7688 39.7677 36.5202 39.7677 39.6417V45.4739C39.7677 47 38.5262 48.2415 37.0001 48.2415H35.0765V44.0224C35.0765 43.5366 34.6828 43.143 34.1971 43.143C33.7114 43.143 33.3176 43.5366 33.3176 44.0224V48.2415H9.18206V44.0224C9.18206 43.5366 8.78829 43.143 8.30259 43.143C7.81688 43.143 7.42311 43.5366 7.42311 44.0224V48.2415H5.49963C3.97357 48.2415 2.7321 47 2.7321 45.4739V44.6171C2.7321 44.1313 2.33833 43.7376 1.85262 43.7376C1.36692 43.7376 0.973145 44.1313 0.973145 44.6171V45.4739C0.973145 47.9698 3.00368 50.0004 5.49963 50.0004H37.0004C39.4963 50.0004 41.5269 47.9699 41.5269 45.4739V39.6417C41.5268 35.7284 38.8893 32.279 35.1129 31.2532ZM31.9879 14.8393V16.4138C31.9879 16.6842 31.768 16.9042 31.4975 16.9042H30.8613V14.349H31.4975C31.768 14.349 31.9879 14.569 31.9879 14.8393ZM11.6387 16.9042H11.0025C10.7321 16.9042 10.5121 16.6842 10.5121 16.4138V14.8393C10.5121 14.5689 10.7321 14.3489 11.0025 14.3489H11.6387V16.9042ZM12.5182 12.5901H11.6066V8.32332C11.6066 4.7041 14.5511 1.7595 18.1703 1.7595H24.3295C27.9487 1.7595 30.8933 4.70398 30.8933 8.32332V12.5901H29.9818C29.4721 12.5901 29.0574 12.1754 29.0574 11.6657V9.81069C29.0574 8.3517 27.8704 7.16464 26.4112 7.16464C26.0351 7.16464 25.6705 7.24274 25.3278 7.39659C22.7363 8.55973 19.7636 8.55961 17.1723 7.39671C16.8294 7.24286 16.4648 7.16464 16.0886 7.16464C14.6295 7.16464 13.4425 8.3517 13.4425 9.81069V11.6657C13.4425 12.1754 13.0278 12.5901 12.5182 12.5901ZM13.3977 17.6496V14.2009C14.4467 13.8361 15.2016 12.8374 15.2016 11.6657V9.81069C15.2016 9.32147 15.5995 8.9236 16.0888 8.9236C16.2149 8.9236 16.3371 8.94975 16.4521 9.00134C19.5011 10.3696 22.9989 10.3697 26.0483 9.00122C26.1631 8.94975 26.2852 8.9236 26.4114 8.9236C26.9006 8.9236 27.2986 9.32159 27.2986 9.81069V11.6657C27.2986 12.8374 28.0534 13.8361 29.1024 14.2009V17.6496C29.1024 21.9681 25.5875 25.502 21.2501 25.502C16.9141 25.502 13.3977 21.9696 13.3977 17.6496ZM18.429 34.3339C18.0654 34.6485 17.5184 34.6469 17.1568 34.3299L13.098 30.7754L14.0526 29.348C14.2476 29.0561 14.6472 28.9956 14.9202 29.2096L19.8671 33.0901L18.429 34.3339ZM21.25 31.9391L17.666 29.1278V26.5651C18.7743 27.0123 19.9834 27.2609 21.2501 27.2609C22.5168 27.2609 23.7258 27.0123 24.8342 26.5651V29.1278L21.25 31.9391ZM25.343 34.33C24.9814 34.6468 24.4347 34.6485 24.0709 34.3339L22.6327 33.0901L27.5797 29.2095C27.8522 28.9959 28.2518 29.0554 28.4473 29.3479L29.4019 30.7754L25.343 34.33Z" fill="black"/>
</svg>
