<svg width="51" height="50" viewBox="0 0 51 50" fill="none" xmlns="http://www.w3.org/2000/svg">
<g clip-path="url(#clip0)">
<path d="M30.5362 40.2909L19.5087 29.2634C18.8175 28.5722 18.8167 27.4541 19.5064 26.7644C19.7791 26.4916 20.1198 26.3264 20.4742 26.2707C21.014 26.1834 21.5881 26.3486 22.0058 26.7663L19.1661 23.927C18.8209 23.5814 18.6473 23.1293 18.6477 22.6777C18.6477 22.5838 18.6553 22.4892 18.6702 22.395C18.7271 22.0402 18.8915 21.7004 19.1642 21.4276C19.4343 21.1575 19.7688 20.9939 20.1183 20.9359C20.5943 20.8565 21.0956 20.9725 21.4954 21.2842L20.4147 20.2035C20.0694 19.8582 19.8959 19.4043 19.8959 18.9526C19.8955 18.8569 19.9035 18.76 19.9195 18.6654C19.976 18.3133 20.1404 17.9749 20.412 17.7033C20.6848 17.4306 21.025 17.2658 21.3809 17.2097C21.9207 17.1227 22.4948 17.2879 22.9125 17.7056L24.15 18.9431C23.7327 18.5258 23.5671 17.9513 23.6541 17.4115C23.7102 17.0571 23.8742 16.7172 24.1477 16.4437C24.8371 15.7548 25.9563 15.7551 26.6471 16.446L33.8134 23.6127L33.8336 23.5841C34.1968 23.2209 34.6248 22.9626 35.0814 22.8085C36.2087 22.429 37.5053 22.6884 38.4044 23.5875L41.7461 26.9292C42.3885 27.5716 42.7486 28.4417 42.7501 29.3488L42.752 31.4393C42.7528 32.4162 43.1415 33.3535 43.8335 34.0455L44.5789 34.7905L36.0557 43.3133L35.1035 42.3611C34.4703 41.7279 33.628 41.3464 32.735 41.2881C31.9053 41.2335 31.1244 40.8795 30.5362 40.2909Z" fill="#FECBAA"/>
<path d="M35.5016 43.8667L45.1753 34.193C45.4942 33.8741 46.0111 33.8741 46.3297 34.193L49.7751 37.6381C50.0936 37.957 50.0936 38.4735 49.7751 38.7924L40.101 48.4665C39.7821 48.785 39.2656 48.785 38.9467 48.4665L35.5016 45.0211C35.1827 44.7025 35.1827 44.1856 35.5016 43.8667Z" fill="#FDD559"/>
<path d="M20.9582 40.292L31.9857 29.2645C32.6769 28.5733 32.6773 27.4552 31.9876 26.7655C31.7149 26.4923 31.3742 26.3275 31.0202 26.2715C30.4801 26.1845 29.9063 26.3497 29.4882 26.7674L32.3279 23.9277C32.6731 23.5825 32.8467 23.1301 32.8463 22.6784C32.8463 22.5846 32.8391 22.49 32.8238 22.3961C32.767 22.0414 32.6026 21.7015 32.3298 21.4287C32.0601 21.1586 31.7252 20.995 31.3757 20.937C30.8997 20.8576 30.3984 20.9736 29.9986 21.2849L31.0793 20.2042C31.4246 19.859 31.5981 19.4054 31.5981 18.9537C31.5985 18.8576 31.5905 18.7611 31.5745 18.6665C31.518 18.3144 31.3536 17.9756 31.082 17.7044C30.8093 17.4317 30.469 17.2665 30.1135 17.2108C29.5733 17.1238 28.9996 17.2886 28.5815 17.7063L27.344 18.9438C27.7613 18.5269 27.9269 17.9524 27.8399 17.4122C27.7842 17.0582 27.6198 16.7183 27.3463 16.4448C26.657 15.7555 25.5377 15.7563 24.8473 16.4467L17.6806 23.6134L17.6604 23.5852C17.2972 23.222 16.8692 22.9637 16.4126 22.8096C15.2857 22.4297 13.9887 22.6895 13.0896 23.5886L9.74832 26.9303C9.10593 27.5727 8.74544 28.4428 8.74429 29.3499L8.742 31.4404C8.74162 32.4177 8.35291 33.3546 7.66092 34.0466L6.91553 34.7916L15.4383 43.3144L16.3909 42.3622C17.0241 41.729 17.8664 41.3475 18.7594 41.2892C19.5887 41.2346 20.3696 40.8802 20.9582 40.292Z" fill="#FECBAA"/>
<path d="M15.9927 43.8678L6.31864 34.1938C5.99973 33.8749 5.48284 33.8749 5.16431 34.1938L1.71888 37.6392C1.40035 37.9577 1.40035 38.4746 1.71888 38.7935L11.3929 48.4672C11.7119 48.7861 12.2284 48.7861 12.5473 48.4672L15.9927 45.0222C16.3112 44.7033 16.3112 44.1864 15.9927 43.8678Z" fill="#FF84A7"/>
<path d="M32.8003 13.8634V29.4587C32.8003 30.4364 32.0103 31.2272 31.0345 31.2272C30.6488 31.2272 30.2914 31.1032 30.0011 30.8922C29.5578 30.5718 29.2687 30.0496 29.2687 29.4587V33.4744C29.2687 33.9627 29.0715 34.4052 28.7522 34.7245C28.6858 34.7909 28.6137 34.8523 28.5363 34.908C28.2452 35.1189 27.8889 35.2429 27.5033 35.2429C27.1214 35.2429 26.7689 35.122 26.4805 34.916C26.088 34.6356 25.8156 34.1992 25.7531 33.696V35.2246C25.7531 35.7129 25.5547 36.1561 25.2354 36.4754C25.1683 36.5437 25.0939 36.6063 25.0157 36.662C24.7265 36.871 24.3714 36.9942 23.9872 36.9942C23.6016 36.9942 23.2441 36.8699 22.9531 36.6582C22.5098 36.3377 22.2207 35.8155 22.2207 35.2246V33.4744C22.2207 34.0642 21.9315 34.5879 21.4882 34.908C21.1983 35.1189 20.8416 35.2429 20.4552 35.2429C19.4806 35.2429 18.6894 34.451 18.6894 33.4744V23.3391L18.6551 23.3452C18.1416 23.3452 17.656 23.2251 17.2245 23.0111C16.1591 22.4827 15.4255 21.3822 15.4255 20.1108V15.3851C15.4255 14.4768 15.786 13.6067 16.4265 12.9639L17.9032 11.4846C18.5936 10.793 18.9812 9.85533 18.9812 8.87686V7.82324H31.0345V9.16983C31.0345 10.0655 31.3607 10.9307 31.9504 11.6036C32.4986 12.2285 32.8003 13.0314 32.8003 13.8634Z" fill="#FEDFC5"/>
<path d="M31.9877 26.7655C31.7149 26.4923 31.3743 26.3275 31.0203 26.2715C30.4801 26.1845 29.9064 26.3497 29.4887 26.7674L32.3283 23.9277C32.6736 23.5825 32.8467 23.1301 32.8467 22.6784C32.8467 22.5846 32.8391 22.49 32.8239 22.3961C32.7674 22.041 32.603 21.7015 32.3302 21.4287C32.0602 21.1586 31.7252 20.995 31.3758 20.937C30.9001 20.8576 30.3988 20.9736 29.9991 21.2849L31.0798 20.2042C31.425 19.859 31.5982 19.4054 31.5982 18.9537C31.599 18.8576 31.5906 18.7611 31.5745 18.6665C31.5181 18.3144 31.3537 17.9756 31.0824 17.7044C30.8097 17.4317 30.469 17.2665 30.1135 17.2108C29.5733 17.1238 28.9996 17.2886 28.5819 17.7063L27.3444 18.9438C27.7614 18.5269 27.9273 17.9524 27.84 17.4122C27.7843 17.0582 27.6198 16.7183 27.3463 16.4448C26.657 15.7555 25.5378 15.7563 24.8473 16.4467L17.6806 23.6134L17.6604 23.5852C17.2973 23.222 16.8693 22.9637 16.4126 22.8096C15.8721 22.6273 15.2923 22.5941 14.7361 22.7063C15.1843 23.3834 15.8103 23.9449 16.574 24.3237C16.7857 24.4286 17.0028 24.5167 17.224 24.588V33.4744C17.224 35.2574 18.6732 36.7077 20.4547 36.7077C20.6687 36.7077 20.88 36.6871 21.0856 36.6463C21.3157 37.1163 21.6582 37.5298 22.0904 37.8422C22.3586 38.0375 22.6512 38.1871 22.959 38.2908L31.9854 29.2641C32.677 28.5733 32.6777 27.4552 31.9877 26.7655Z" fill="#FFAE85"/>
<path d="M34.2639 29.4587V23.222C34.1124 23.3281 33.9678 23.449 33.8324 23.5844L33.8126 23.6127L26.6459 16.446C25.9554 15.7555 24.8358 15.7548 24.1469 16.4441C23.8734 16.7176 23.709 17.0571 23.6529 17.4115C23.5659 17.9516 23.7319 18.5261 24.1488 18.9431L22.9113 17.7056C22.4936 17.2879 21.9199 17.1231 21.3797 17.2101C21.0242 17.2658 20.6835 17.4309 20.4108 17.7037C20.1396 17.9749 19.9751 18.3137 19.9183 18.6658C19.9027 18.7604 19.8943 18.8569 19.895 18.953C19.895 19.4047 20.0682 19.8582 20.4138 20.2035L21.4945 21.2842C21.0944 20.9729 20.5931 20.8569 20.1174 20.9363C19.768 20.9942 19.4331 21.1579 19.163 21.428C18.8902 21.7007 18.7258 22.0402 18.6694 22.3954C18.6541 22.4892 18.6465 22.5838 18.6465 22.6777C18.6465 23.1293 18.8197 23.5818 19.1649 23.927L22.0046 26.7666C21.5869 26.3489 21.0131 26.1838 20.473 26.2707C20.119 26.3268 19.7783 26.4916 19.5056 26.7644C18.8159 27.4544 18.8166 28.5725 19.5078 29.2637L26.8954 36.6513C27.0938 36.6891 27.2967 36.7081 27.5023 36.7081C28.1867 36.7081 28.8413 36.496 29.3921 36.0966C29.5329 35.9952 29.6656 35.8819 29.7869 35.7606C30.3969 35.151 30.7326 34.3392 30.7326 33.4748V32.6787C30.8322 32.6878 30.9325 32.6924 31.0336 32.6924C32.8147 32.692 34.2639 31.2417 34.2639 29.4587Z" fill="#FFAE85"/>
<path d="M32.8003 13.8634V29.4587C32.8003 30.4364 32.0103 31.2272 31.0345 31.2272C31.0082 31.2272 30.98 31.2272 30.9514 31.2253C30.5989 31.2089 30.272 31.0887 30.0034 30.8934C30.0023 30.8934 30.0023 30.8922 30.0011 30.8922C29.5578 30.5718 29.2687 30.0496 29.2687 29.4587V33.4744C29.2687 33.9627 29.0715 34.4052 28.7522 34.7245C28.6858 34.7909 28.6137 34.8523 28.5363 34.908C28.2452 35.1189 27.8889 35.2429 27.5033 35.2429C27.1214 35.2429 26.7689 35.122 26.4805 34.916C26.088 34.6356 25.8156 34.1992 25.7531 33.696V35.2246C25.7531 35.7129 25.5547 36.1561 25.2354 36.4754C25.1683 36.5437 25.0939 36.6063 25.0157 36.662C24.7265 36.871 24.3714 36.9942 23.9872 36.9942C23.6016 36.9942 23.2441 36.8699 22.9531 36.6582C22.5098 36.3377 22.2207 35.8155 22.2207 35.2246V33.4744C22.2207 34.0642 21.9315 34.5879 21.4882 34.908C21.1983 35.1189 20.8416 35.2429 20.4552 35.2429C19.4806 35.2429 18.6894 34.451 18.6894 33.4744V23.3391L18.6551 23.3452C18.1416 23.3452 17.656 23.2251 17.2245 23.0111C16.1591 22.4827 15.4255 21.3822 15.4255 20.1108V15.3851C15.4255 14.4768 15.786 13.6067 16.4265 12.9639L17.9032 11.4846C18.33 11.0566 18.6417 10.5351 18.8164 9.96672C18.9259 9.61539 18.9812 9.24498 18.9812 8.87686V7.82324H31.0345V9.16983C31.0345 9.47157 31.0666 9.7901 31.1509 10.0812C31.2912 10.6408 31.5648 11.163 31.9504 11.6036C32.4936 12.2239 32.8003 13.0372 32.8003 13.8634Z" fill="#FEDFC5"/>
<path d="M32.8001 13.8634V29.4587C32.8001 30.4364 32.0101 31.2272 31.0343 31.2272C31.0079 31.2272 30.9797 31.2272 30.9511 31.2253C30.5986 31.2089 30.2717 31.0887 30.0031 30.8934L30.0333 15.8654C30.0333 15.7746 30.0127 15.6312 29.9745 15.4484C29.3009 12.1663 26.5302 9.96672 23.1794 9.96672H18.8162C18.9256 9.61539 18.981 9.24498 18.981 8.87686V7.82324H31.0343V9.16983C31.0343 9.47157 31.0663 9.7901 31.1506 10.0812C31.291 10.6408 31.5645 11.163 31.9502 11.6036C32.4934 12.2239 32.8001 13.0372 32.8001 13.8634Z" fill="#FECBAA"/>
<path d="M31.8174 7.82367H18.136C17.6855 7.82367 17.3201 7.45822 17.3201 7.00732V2.13519C17.3201 1.6843 17.6855 1.31885 18.136 1.31885H31.8174C32.268 1.31885 32.6334 1.6843 32.6334 2.13519V7.00732C32.6334 7.45822 32.268 7.82367 31.8174 7.82367Z" fill="#83D9FF"/>
<path d="M21.2909 44.3253L21.144 45.0429L21.2855 44.3246C20.8888 44.2464 20.5035 44.5046 20.4253 44.9014C20.3471 45.2985 20.6054 45.6834 21.0025 45.7616C21.0036 45.7619 21.0147 45.7639 21.0158 45.7642C21.0624 45.773 21.1085 45.7776 21.1543 45.7776C21.4988 45.7776 21.8059 45.5334 21.8726 45.1825C21.9489 44.785 21.6884 44.4012 21.2909 44.3253Z" fill="black"/>
<path d="M26.8909 44.5606L26.9637 45.2892L26.8886 44.561C26.4861 44.6022 26.1936 44.9619 26.2351 45.3644C26.2737 45.7413 26.5918 46.022 26.9626 46.022C26.9878 46.022 27.0133 46.0205 27.0385 46.0182L27.0587 46.0159C27.4593 45.969 27.7435 45.6078 27.6988 45.2072C27.6538 44.8071 27.2914 44.5187 26.8909 44.5606Z" fill="black"/>
<path d="M24.0869 44.653C24.0869 44.653 24.0766 44.6526 24.0763 44.6526C23.6727 44.6343 23.3354 44.9479 23.3171 45.3519C23.2992 45.7558 23.6166 46.098 24.0206 46.1163C24.032 46.1171 24.0431 46.1171 24.0545 46.1171C24.4436 46.1171 24.7679 45.8108 24.7854 45.4178C24.8037 45.0139 24.4913 44.6713 24.0869 44.653Z" fill="black"/>
<path d="M18.5857 43.581L18.5765 43.5776C18.1958 43.441 17.7808 43.6401 17.6442 44.0208C17.5073 44.4015 17.7095 44.8227 18.0902 44.9596C18.1722 44.989 18.2557 45.0027 18.3377 45.0027C18.638 45.0027 18.9199 44.817 19.0271 44.5179C19.164 44.1372 18.9664 43.7176 18.5857 43.581Z" fill="black"/>
<path d="M29.6549 44.048L29.8353 44.7579L29.6526 44.0487C29.2608 44.1494 29.0251 44.5488 29.1258 44.9406C29.2109 45.2709 29.5084 45.4907 29.8346 45.4907C29.8952 45.4907 29.9566 45.483 30.0181 45.467C30.0211 45.4663 30.0341 45.4628 30.0375 45.4621C30.4262 45.356 30.6536 44.9566 30.5498 44.5671C30.4461 44.178 30.0451 43.9465 29.6549 44.048Z" fill="black"/>
<path d="M32.3028 43.1244L32.5931 43.7965L32.3005 43.1252C31.9298 43.2869 31.76 43.7183 31.9214 44.0891C32.0415 44.3649 32.3108 44.5293 32.5935 44.5293C32.6908 44.5293 32.7903 44.5095 32.8853 44.4683C32.8884 44.4668 32.9002 44.4618 32.9033 44.4603C33.2706 44.2944 33.4327 43.8641 33.2687 43.4959C33.1047 43.1274 32.6721 42.9623 32.3028 43.1244Z" fill="black"/>
<path d="M15.7876 9.73669C15.9051 9.73669 16.0245 9.70846 16.1348 9.64972C16.4918 9.45936 16.6265 9.01571 16.4361 8.65866C16.2458 8.30198 15.8025 8.16656 15.4455 8.3573L15.4367 8.36187C15.08 8.55223 14.9492 8.99359 15.1395 9.35064C15.2707 9.59707 15.5256 9.73669 15.7876 9.73669Z" fill="black"/>
<path d="M7.31565 17.9173C7.42437 17.9741 7.54072 18.0012 7.65554 18.0012C7.91914 18.0012 8.17396 17.8586 8.30481 17.6087L8.31778 17.5831C8.49631 17.22 8.34677 16.7809 7.98361 16.6028C7.62312 16.425 7.18748 16.5715 7.00666 16.9297C6.81974 17.2875 6.95783 17.7296 7.31565 17.9173Z" fill="black"/>
<path d="M6.28483 20.6727C6.36265 20.699 6.44161 20.7116 6.51982 20.7116C6.82499 20.7116 7.10995 20.5189 7.21333 20.2137L7.22286 20.1848C7.34188 19.7983 7.12483 19.3882 6.73802 19.2696C6.35464 19.1514 5.94761 19.3642 5.82516 19.7457C5.6966 20.1283 5.90222 20.5433 6.28483 20.6727Z" fill="black"/>
<path d="M8.76078 15.355C8.89086 15.4496 9.04154 15.4954 9.19108 15.4954C9.41729 15.4954 9.64083 15.3905 9.78388 15.1936L9.79342 15.1807C10.0284 14.8518 9.95173 14.3956 9.62366 14.1606C9.29522 13.9252 8.83746 14.0008 8.60171 14.3288L9.19184 14.7629L8.59942 14.3319C8.36138 14.6592 8.43386 15.1173 8.76078 15.355Z" fill="black"/>
<path d="M13.3015 11.3187C13.4552 11.3187 13.6101 11.2702 13.7425 11.1695C14.069 10.9307 14.1396 10.4726 13.9008 10.146C13.6616 9.8195 13.2035 9.74893 12.8773 9.98773L12.859 10.0011C12.537 10.2456 12.473 10.706 12.7175 11.0284C12.8617 11.2184 13.0803 11.3187 13.3015 11.3187Z" fill="black"/>
<path d="M5.63099 31.7803C5.72788 32.095 6.01704 32.2968 6.32984 32.2968C6.40118 32.2968 6.47404 32.2861 6.54575 32.264C6.93027 32.1461 7.14733 31.7387 7.03212 31.3534C6.92188 30.9689 6.52325 30.743 6.13529 30.8487C5.74505 30.9551 5.51502 31.358 5.62145 31.7482C5.62374 31.7558 5.6287 31.7726 5.63099 31.7803Z" fill="black"/>
<path d="M11.089 13.2489C11.2793 13.2489 11.4697 13.1753 11.6135 13.0288C11.8992 12.7427 11.8992 12.2788 11.6135 11.9931C11.3274 11.707 10.8635 11.707 10.5774 11.9931L10.5652 12.0053C10.2822 12.2941 10.2879 12.7572 10.5766 13.0402C10.7189 13.1798 10.904 13.2489 11.089 13.2489Z" fill="black"/>
<path d="M6.4404 28.587C6.38891 28.1891 6.02537 27.9068 5.62711 27.9541C5.22581 28.0022 4.93894 28.3665 4.98663 28.7682L4.99082 28.7976C5.04423 29.1615 5.35665 29.4224 5.71409 29.4224C5.74918 29.4224 5.78504 29.4198 5.82128 29.4144C6.21992 29.3564 6.49648 28.9856 6.4404 28.587Z" fill="black"/>
<path d="M5.52013 26.4893C5.52776 26.4893 5.53501 26.4897 5.54225 26.4897C5.93669 26.4897 6.26247 26.1757 6.27391 25.7786L6.27468 25.7473C6.27468 25.3426 5.94661 25.0149 5.54225 25.0149C5.14057 25.0149 4.81479 25.3376 4.80983 25.7378C4.79915 26.1414 5.11692 26.4774 5.52013 26.4893Z" fill="black"/>
<path d="M5.68087 23.552C5.72474 23.5597 5.76785 23.5635 5.81095 23.5635C6.15885 23.5635 6.46746 23.3144 6.53117 22.96C6.53308 22.9493 6.5346 22.9386 6.53613 22.9279C6.59526 22.5278 6.31869 22.1555 5.91815 22.0967C5.52256 22.038 5.15215 22.31 5.08845 22.7044C5.01902 23.1019 5.28376 23.4807 5.68087 23.552Z" fill="black"/>
<path d="M40.2306 15.5862C40.3725 15.7922 40.6007 15.9024 40.8334 15.9024C40.9764 15.9024 41.1214 15.8605 41.248 15.7731C41.581 15.5442 41.6654 15.088 41.4365 14.7546L40.8276 15.162L41.4342 14.7511C41.2068 14.4162 40.7513 14.3289 40.4168 14.5558C40.0819 14.7828 39.9945 15.2383 40.2215 15.5732L40.2306 15.5862Z" fill="black"/>
<path d="M43.9708 22.9565C43.5688 23.0016 43.2796 23.3643 43.325 23.7664L43.3288 23.7981C43.3811 24.1631 43.6947 24.4267 44.0532 24.4267C44.0876 24.4267 44.1227 24.4244 44.1578 24.4195C44.5549 24.3626 44.8318 23.9968 44.7803 23.6001C44.7342 23.1992 44.3702 22.9115 43.9708 22.9565Z" fill="black"/>
<path d="M42.7348 20.8897L42.7378 20.8992C42.8317 21.2185 43.1235 21.4253 43.4401 21.4253C43.5084 21.4253 43.5778 21.4158 43.6469 21.3952C44.0352 21.2811 44.2572 20.8741 44.1431 20.4857L44.1401 20.4762C44.026 20.0879 43.619 19.8658 43.2307 19.9803C42.8427 20.0943 42.6207 20.5014 42.7348 20.8897Z" fill="black"/>
<path d="M41.7002 18.1512C41.828 18.411 42.0893 18.5624 42.3609 18.5624C42.4688 18.5624 42.5787 18.5384 42.6821 18.4873C43.0448 18.3087 43.1955 17.8723 43.0166 17.5092L42.3529 17.8185L43.0158 17.5077C42.8442 17.1414 42.4082 16.9839 42.042 17.1556C41.6758 17.3272 41.5178 17.7632 41.6895 18.1294L41.7002 18.1512Z" fill="black"/>
<path d="M38.3856 13.2989C38.529 13.4454 38.7186 13.5186 38.9086 13.5186C39.0936 13.5186 39.2786 13.4492 39.4213 13.3092C39.7081 13.0284 39.7146 12.5695 39.4381 12.2803C39.1638 11.9847 38.7014 11.9668 38.4047 12.2407C38.1075 12.515 38.0892 12.9784 38.3635 13.2756L38.3856 13.2989Z" fill="black"/>
<path d="M44.209 26.0148C43.8066 26.0045 43.4697 26.3199 43.4556 26.7224C43.4373 27.1233 43.7451 27.4647 44.1465 27.4873C44.1606 27.488 44.1739 27.4884 44.188 27.4884C44.5737 27.4884 44.8968 27.1867 44.9185 26.7964L44.9197 26.7663C44.9311 26.3623 44.613 26.0266 44.209 26.0148Z" fill="black"/>
<path d="M33.7018 9.70238L33.7193 9.71192C33.8284 9.7699 33.9455 9.79737 34.0607 9.79737C34.3213 9.79737 34.5734 9.65699 34.7058 9.41094C34.8965 9.05579 34.7622 8.61176 34.4082 8.4195L34.0539 9.06037L34.4059 8.41798C34.0512 8.22343 33.606 8.35351 33.4115 8.70827C33.2173 9.06266 33.347 9.50821 33.7018 9.70238Z" fill="black"/>
<path d="M36.1794 11.3087L36.1908 11.3175C36.3232 11.4178 36.4784 11.4663 36.6329 11.4663C36.8542 11.4663 37.0728 11.3663 37.217 11.1763C37.4615 10.854 37.3982 10.3947 37.0762 10.1502L37.0712 10.1468C36.7504 9.90033 36.2907 9.9606 36.0443 10.2814C35.7979 10.6022 35.8585 11.0623 36.1794 11.3087Z" fill="black"/>
<path d="M50.296 37.103L46.8578 33.6587C46.5652 33.3657 46.1765 33.2044 45.7626 33.2044C45.3491 33.2044 44.96 33.3657 44.6678 33.6587L44.5881 33.7384L44.3622 33.5126C44.0834 33.233 43.8675 32.9076 43.721 32.5532C43.708 32.5063 43.6909 32.4605 43.6687 32.4174C43.5566 32.1023 43.4982 31.767 43.4982 31.4225V30.4483C43.565 30.4834 43.6378 30.5089 43.716 30.5223C43.758 30.5295 43.7996 30.5329 43.8408 30.5329C44.1883 30.5329 44.4958 30.285 44.5602 29.9325C44.6384 29.5365 44.3817 29.1516 43.9854 29.0723C43.811 29.0376 43.6386 29.0677 43.4936 29.1463C43.4486 28.1057 43.0233 27.1337 42.2832 26.3921L38.9477 23.0508C38.1992 22.3012 37.204 21.8885 36.1454 21.8885C35.326 21.8885 34.5455 22.1368 33.8871 22.5965L33.5331 22.2406V13.8635C33.5331 12.8537 33.1665 11.8795 32.5012 11.1207C32.0278 10.5813 31.7673 9.88857 31.7673 9.16988V8.55609H31.8176C32.6713 8.55609 33.366 7.86143 33.366 7.00732V2.13519C33.366 1.28108 32.6713 0.586426 31.8176 0.586426H18.1362C17.2825 0.586426 16.5878 1.28108 16.5878 2.13519V7.00732C16.5878 7.86143 17.2825 8.55609 18.1362 8.55609H18.2491V8.87729C18.2491 9.66693 17.942 10.4093 17.3847 10.9674L15.908 12.4467C15.1245 13.2318 14.6931 14.2751 14.6931 15.3852V20.1104C14.6931 20.7524 14.8472 21.3586 15.1184 21.8957C14.1472 21.9518 13.2419 22.3565 12.5484 23.0508L9.21286 26.3921C8.42932 27.1772 7.99788 28.2209 7.99788 29.3306V31.4225C7.99788 32.2122 7.69118 32.9545 7.13385 33.5126L6.91069 33.7361C6.90955 33.7369 6.90878 33.7377 6.90802 33.7384L6.82867 33.6587C6.53609 33.3657 6.14737 33.2044 5.73347 33.2044C5.31996 33.2044 4.93086 33.3657 4.63866 33.6587L1.20009 37.103C0.597366 37.7069 0.597366 38.6895 1.20009 39.2934L2.37769 40.4725C2.66341 40.759 3.12727 40.7594 3.41338 40.4737C3.69948 40.1876 3.70024 39.7241 3.41414 39.4376L2.23692 38.2581C2.20374 38.2249 2.20374 38.1711 2.23692 38.1379L5.67549 34.6936C5.70753 34.6616 5.7598 34.6612 5.79184 34.6936L6.3896 35.2925H6.38998L14.5523 43.469L15.4667 44.3853C15.4999 44.4184 15.4999 44.4722 15.4667 44.5054L12.0285 47.9497C11.9961 47.9821 11.9438 47.9821 11.9118 47.9497L5.48781 41.5147C5.20209 41.2282 4.73822 41.2278 4.45212 41.5135C4.16563 41.7997 4.16525 42.2631 4.45097 42.5496L10.8753 48.9846C11.1675 49.2776 11.5566 49.439 11.9705 49.439C12.384 49.439 12.7727 49.2776 13.0653 48.9846L16.5035 45.5403C17.1062 44.9369 17.1062 43.9542 16.5035 43.3503L16.4661 43.3129L16.8999 42.8784C17.4064 42.3707 18.0794 42.0655 18.7946 42.0194C19.8013 41.9541 20.7485 41.5246 21.4615 40.8101L24.62 37.6447C25.531 37.4055 26.2401 36.6635 26.4328 35.7343C26.7574 35.8888 27.1202 35.9758 27.5032 35.9758C28.8807 35.9758 30.0014 34.8539 30.0014 33.4745V31.7353C30.3165 31.8792 30.6663 31.96 31.0348 31.96C32.4123 31.96 33.5327 30.8381 33.5327 29.4587V24.3173L35.7857 26.5813C35.9287 26.7251 36.1168 26.7968 36.3048 26.7968C36.4918 26.7968 36.6787 26.7259 36.8217 26.5836C37.1082 26.2982 37.1094 25.8348 36.824 25.5479L34.9457 23.6604C35.3092 23.4601 35.7189 23.3533 36.1454 23.3533C36.8122 23.3533 37.4393 23.6135 37.9108 24.0861L41.2464 27.427C41.7538 27.9355 42.0334 28.6115 42.0334 29.3306V31.4225C42.0334 32.6032 42.4923 33.7129 43.3254 34.5475L43.5528 34.7753L42.4904 35.8396L36.0649 42.2761L35.7067 41.9171C35.7029 41.9137 35.6994 41.9099 35.6956 41.9065L35.6327 41.8431C34.8743 41.0836 33.8669 40.627 32.7965 40.5576C32.1453 40.5152 31.5327 40.2375 31.0692 39.7737L28.6625 37.3799C28.3756 37.0946 27.9117 37.0957 27.6264 37.3826C27.3414 37.6695 27.3426 38.1333 27.6295 38.4183L30.0346 40.8101C30.7476 41.5246 31.6948 41.9541 32.7019 42.0194C33.4167 42.0655 34.0896 42.3707 34.5962 42.8781L34.6317 42.9135C34.6508 42.9353 34.671 42.9555 34.6924 42.9746L35.03 43.3126L34.9926 43.3503C34.3899 43.9542 34.3899 44.9365 34.9926 45.5403L38.4308 48.9846C38.7234 49.2776 39.1121 49.439 39.526 49.439C39.9395 49.439 40.3286 49.2776 40.6212 48.9846L50.296 39.293C50.8987 38.6891 50.8987 37.7069 50.296 37.103ZM43.9892 29.82L43.9754 29.8177L43.8419 29.7906L43.9892 29.82ZM20.4246 39.7752C19.9634 40.2375 19.3508 40.5152 18.7 40.5576C17.6292 40.627 16.6218 41.0836 15.8634 41.8431L15.4312 42.2761L15.0421 41.8862C15.0371 41.8813 15.0322 41.8759 15.0272 41.8714L7.94333 34.7753L8.17068 34.5475C9.00381 33.7129 9.46272 32.6032 9.46272 31.4225V29.3306C9.46272 28.6115 9.74196 27.9355 10.2497 27.427L13.5853 24.0861C14.0568 23.6135 14.6839 23.3533 15.3507 23.3533C15.7783 23.3533 16.1896 23.4609 16.5542 23.6627L14.6728 25.5471C14.3871 25.8332 14.3875 26.2971 14.6736 26.5828C14.8167 26.7255 15.004 26.7968 15.1913 26.7968C15.3789 26.7968 15.5666 26.7251 15.7097 26.5821L17.9569 24.3306V33.4745C17.9569 34.8539 19.0777 35.9758 20.4552 35.9758C20.8435 35.9758 21.2112 35.8865 21.5393 35.7278C21.6881 36.4537 22.1519 37.0656 22.7806 37.4143L20.4246 39.7752ZM32.0682 29.4591C32.0682 30.0305 31.6044 30.4956 31.0348 30.4956C30.4649 30.4956 30.0014 30.0305 30.0014 29.4591V21.2892C30.0014 20.8848 29.6738 20.5567 29.269 20.5567C28.8643 20.5567 28.5366 20.8848 28.5366 21.2892V33.4748C28.5366 34.0463 28.0731 34.5109 27.5032 34.5109C26.9916 34.5109 26.5671 34.1363 26.485 33.6461V21.2808C26.485 20.876 26.1574 20.5484 25.7526 20.5484C25.6225 20.5484 25.5001 20.5827 25.394 20.6422C25.1625 20.7654 25.0049 21.0088 25.0049 21.2892V33.4745C25.0049 33.5675 25.0103 33.6587 25.0202 33.7491V35.225C25.0202 35.7965 24.5567 36.2615 23.9868 36.2615C23.4173 36.2615 22.9538 35.7965 22.9538 35.225V21.272C22.9538 20.8676 22.6257 20.5396 22.2214 20.5396C21.8166 20.5396 21.4886 20.8676 21.4886 21.272V33.4745C21.4886 34.0459 21.0251 34.5109 20.4555 34.5109C19.8856 34.5109 19.4221 34.0459 19.4221 33.4745V19.8503C19.4221 19.4455 19.0941 19.1175 18.6897 19.1175C18.285 19.1175 17.9573 19.4455 17.9573 19.8503V22.3703C17.8959 22.3901 17.8364 22.4179 17.7811 22.4546C16.8339 22.0986 16.1579 21.1824 16.1579 20.1104V15.3852C16.1579 14.6661 16.4375 13.9901 16.9449 13.4816L18.4215 12.0023C19.2551 11.1676 19.714 10.0579 19.714 8.87729V8.55609H21.1864C21.5912 8.55609 21.9189 8.22803 21.9189 7.82367C21.9189 7.41893 21.5912 7.09125 21.1864 7.09125H18.1362C18.09 7.09125 18.0527 7.05348 18.0527 7.00732V2.13519C18.0527 2.08904 18.09 2.05127 18.1362 2.05127H31.8172C31.8638 2.05127 31.9012 2.08904 31.9012 2.13519V7.00732C31.9012 7.05386 31.8638 7.09125 31.8172 7.09125H24.625C24.2206 7.09125 23.8926 7.41893 23.8926 7.82367C23.8926 8.22803 24.2206 8.55609 24.625 8.55609H30.3024V9.16988C30.3024 10.2441 30.6919 11.2798 31.3995 12.087C31.8306 12.5783 32.0682 13.2093 32.0682 13.8635V29.4591ZM49.2592 38.2581L39.5843 47.9497C39.5683 47.9661 39.5489 47.9741 39.526 47.9741C39.5035 47.9741 39.484 47.9661 39.4676 47.9497L36.0294 44.5054C35.9962 44.4722 35.9962 44.4184 36.0294 44.3853L36.5829 43.8306L36.5833 43.8302L42.1997 38.2043L45.7043 34.6936C45.7363 34.6612 45.7886 34.6612 45.8206 34.6936L49.2592 38.1379C49.2924 38.1711 49.2924 38.2249 49.2592 38.2581Z" fill="black"/>
<path d="M20.455 3.78998C20.0251 3.78998 19.6753 4.14055 19.6753 4.57123C19.6753 5.00229 20.0251 5.35248 20.455 5.35248C20.8853 5.35248 21.2351 5.00229 21.2351 4.57123C21.2351 4.14055 20.8853 3.78998 20.455 3.78998Z" fill="black"/>
<path d="M46.002 37.1769C45.5717 37.1769 45.2219 37.5275 45.2219 37.9582C45.2219 38.3889 45.5717 38.7394 46.002 38.7394C46.4319 38.7394 46.7818 38.3889 46.7818 37.9582C46.7818 37.5275 46.4319 37.1769 46.002 37.1769Z" fill="black"/>
<path d="M12.9536 44.6492C12.9536 44.2185 12.6038 43.8679 12.1739 43.8679C11.7436 43.8679 11.3938 44.2185 11.3938 44.6492C11.3938 45.0798 11.7436 45.4304 12.1739 45.4304C12.6038 45.4304 12.9536 45.0798 12.9536 44.6492Z" fill="black"/>
</g>
<defs>
<clipPath id="clip0">
<rect width="50" height="50" fill="white" transform="translate(0.748047 0.000427246)"/>
</clipPath>
</defs>
</svg>
