<svg width="51" height="50" viewBox="0 0 51 50" fill="none" xmlns="http://www.w3.org/2000/svg">
<g clip-path="url(#clip0)">
<path d="M25.0817 36.9133L26.5934 41.5661H31.4858L27.5278 44.4418L29.0396 49.0947L25.0817 46.219L21.1237 49.0947L22.6355 44.4418L18.6775 41.5661H23.5699L25.0817 36.9133Z" fill="#FBA761"/>
<path d="M42.9437 36.9133L44.4555 41.5661H49.3479L45.3898 44.4418L46.9017 49.0947L42.9437 46.219L38.9857 49.0947L40.4975 44.4418L36.5396 41.5661H41.4318L42.9437 36.9133Z" fill="#FBA761"/>
<path d="M7.21978 36.9133L5.70796 41.5661H0.815674L4.77358 44.4418L3.26177 49.0947L7.21978 46.219L11.1778 49.0947L9.66597 44.4418L13.6239 41.5661H8.73159L7.21978 36.9133Z" fill="#FBA761"/>
<path d="M44.6513 15.8754C44.6513 14.4441 43.491 13.2837 42.0597 13.2837H28.9957C28.9957 13.2837 30.1048 11.9283 30.5612 8.73333C31.344 3.25393 29.3789 1.14934 27.4301 0.911649C26.9451 0.852469 26.5187 1.23362 26.5187 1.7222C26.5187 1.7222 26.0267 6.84349 25.0817 8.73333C22.7334 13.43 16.6616 15.7783 16.6616 15.7783V32.4718C16.6616 32.4718 18.0367 34.0168 20.8082 34.0168C27.4301 34.0168 39.9862 34.0168 39.9862 34.0168C41.4176 34.0168 42.5778 32.8566 42.5778 31.4252C42.5778 29.9939 41.4176 28.8335 39.9862 28.8335H41.0229C42.4543 28.8335 43.6145 27.6733 43.6145 26.2418C43.6145 24.8105 42.4543 23.6502 41.0229 23.6502H42.0597C43.491 23.6502 44.6513 22.49 44.6513 21.0585C44.6513 19.6272 43.491 18.4668 42.0597 18.4668C43.4909 18.467 44.6513 17.3067 44.6513 15.8754Z" fill="#FCE780"/>
<path d="M44.6513 15.8754C44.6513 14.4441 43.491 13.2837 42.0597 13.2837H28.9957C28.9957 13.2837 30.1048 11.9283 30.5612 8.73333C31.344 3.25393 29.3789 1.14934 27.4301 0.911649C26.9451 0.852469 26.5187 1.23362 26.5187 1.7222C26.5187 1.7222 26.0267 6.84349 25.0817 8.73333C22.7334 13.43 16.6616 15.7783 16.6616 15.7783V32.4718C16.6616 32.4718 18.0367 34.0168 20.8082 34.0168C27.4301 34.0168 39.9862 34.0168 39.9862 34.0168C41.4176 34.0168 42.5778 32.8566 42.5778 31.4252C42.5778 29.9939 41.4176 28.8335 39.9862 28.8335H41.0229C42.4543 28.8335 43.6145 27.6733 43.6145 26.2418C43.6145 24.8105 42.4543 23.6502 41.0229 23.6502H42.0597C43.491 23.6502 44.6513 22.49 44.6513 21.0585C44.6513 19.6272 43.491 18.4668 42.0597 18.4668C43.4909 18.467 44.6513 17.3067 44.6513 15.8754Z" fill="#FEE2CA"/>
<path d="M39.9865 32.4512C39.9865 32.4512 27.4303 32.4512 20.8084 32.4512C18.0371 32.4512 16.6619 30.9062 16.6619 30.9062V32.4717C16.6619 32.4717 18.037 34.0168 20.8084 34.0168C27.4303 34.0168 39.9865 34.0168 39.9865 34.0168C41.4178 34.0168 42.5781 32.8565 42.5781 31.4251C42.5781 31.1523 42.5356 30.8893 42.4575 30.6423C42.1256 31.691 41.1449 32.4512 39.9865 32.4512Z" fill="#FDD0AB"/>
<path d="M42.0599 16.3937H38.979V18.4669H42.0599C43.4912 18.4669 44.6516 17.3067 44.6516 15.8753C44.6516 15.5065 44.5733 15.1564 44.4345 14.8386C44.0344 15.7538 43.1223 16.3937 42.0599 16.3937Z" fill="#FDD0AB"/>
<path d="M42.0599 21.577H38.979V23.6502H42.0599C43.4912 23.6502 44.6516 22.49 44.6516 21.0586C44.6516 20.6898 44.5733 20.3397 44.4345 20.0219C44.0344 20.937 43.1223 21.577 42.0599 21.577Z" fill="#FDD0AB"/>
<path d="M41.0232 26.7603H38.3918V28.8336H41.0232C42.4545 28.8336 43.6148 27.6733 43.6148 26.2419C43.6148 25.873 43.5366 25.5229 43.3977 25.2051C42.9977 26.1203 42.0857 26.7603 41.0232 26.7603Z" fill="#FDD0AB"/>
<path d="M15.0326 33.888H9.06655C7.96821 33.888 7.07788 32.9976 7.07788 31.8994V16.9842C7.07788 15.8859 7.96831 14.9955 9.06655 14.9955H15.0326C16.1309 14.9955 17.0212 15.886 17.0212 16.9842V31.8993C17.0212 32.9976 16.1309 33.888 15.0326 33.888Z" fill="#7FDECF"/>
<path d="M10.209 31.4973C9.77671 31.4973 9.42622 31.1468 9.42622 30.7145V14.9956H9.06655C7.96821 14.9956 7.07788 15.886 7.07788 16.9843V31.8993C7.07788 32.9977 7.96821 33.888 9.06655 33.888H15.0326C16.1309 33.888 17.0212 32.9977 17.0212 31.8993V31.4974H10.209V31.4973Z" fill="#24BFB2"/>
<path d="M12.0499 30.9047C12.8736 30.9047 13.5414 30.2369 13.5414 29.4132C13.5414 28.5895 12.8736 27.9217 12.0499 27.9217C11.2261 27.9217 10.5583 28.5895 10.5583 29.4132C10.5583 30.2369 11.2261 30.9047 12.0499 30.9047Z" fill="#F2EDEC"/>
<path d="M12.0496 27.1882C10.8225 27.1882 9.82422 28.1864 9.82422 29.4135C9.82422 30.6406 10.8226 31.6388 12.0496 31.6388C13.2767 31.6388 14.2749 30.6405 14.2749 29.4135C14.2749 28.1864 13.2766 27.1882 12.0496 27.1882ZM12.0496 30.1713C11.6318 30.1713 11.2919 29.8313 11.2919 29.4137C11.2919 28.996 11.6318 28.656 12.0496 28.656C12.4674 28.656 12.8072 28.996 12.8072 29.4137C12.8072 29.8313 12.4673 30.1713 12.0496 30.1713Z" fill="black"/>
<path d="M31.4861 40.8324H27.1269L25.7798 36.6866C25.6828 36.3877 25.3961 36.1795 25.0819 36.1795C24.7676 36.1795 24.4811 36.3876 24.3839 36.6866L23.0369 40.8324H18.6778C18.3599 40.8324 18.0781 41.0371 17.9798 41.3396C17.8816 41.6419 17.9892 41.9733 18.2464 42.16L21.773 44.7223L20.4259 48.8681C20.3319 49.1572 20.4307 49.4829 20.6696 49.6711C20.9247 49.8722 21.2923 49.8795 21.5552 49.6885L25.0818 47.1262L28.6083 49.6885C28.8841 49.8889 29.2718 49.8696 29.5267 49.6436C29.7428 49.4519 29.8269 49.1429 29.7375 48.8682L28.3905 44.7224L31.917 42.1601C32.1743 41.9733 32.2819 41.642 32.1836 41.3397C32.0858 41.037 31.804 40.8324 31.4861 40.8324ZM27.0967 43.8482C26.8395 44.035 26.7319 44.3662 26.8301 44.6686L27.644 47.1735L25.5131 45.6254C25.2588 45.4405 24.9047 45.4405 24.6505 45.6254L22.5197 47.1735L23.3335 44.6686C23.4318 44.3662 23.3242 44.0349 23.0669 43.8482L20.9362 42.3001H23.57C23.8878 42.3001 24.1697 42.0954 24.2679 41.793L25.0818 39.2881L25.8956 41.793C25.9939 42.0954 26.2757 42.3001 26.5936 42.3001H29.2274L27.0967 43.8482Z" fill="black"/>
<path d="M50.046 41.3394C49.9478 41.037 49.6659 40.8323 49.348 40.8323H44.989L43.6419 36.6865C43.5448 36.3876 43.2582 36.1794 42.9439 36.1794C42.6297 36.1794 42.3432 36.3875 42.246 36.6865L40.8989 40.8323H36.5398C36.222 40.8323 35.9401 41.037 35.8419 41.3394C35.7436 41.6418 35.8513 41.9731 36.1085 42.1599L39.635 44.7222L38.288 48.868C38.1939 49.1571 38.2928 49.4828 38.5316 49.671C38.7868 49.8721 39.1544 49.8794 39.4173 49.6884L42.9438 47.1261L46.4704 49.6884C46.7462 49.8888 47.1339 49.8695 47.3889 49.6435C47.605 49.4518 47.6891 49.1428 47.5997 48.8681L46.2526 44.7223L49.7792 42.16C50.0367 41.9731 50.1443 41.6418 50.046 41.3394ZM44.9588 43.8481C44.7016 44.035 44.5939 44.3662 44.6922 44.6686L45.5059 47.1734L43.3753 45.6254C43.118 45.4385 42.7697 45.4384 42.5126 45.6254L40.3817 47.1734L41.1956 44.6686C41.2938 44.3662 41.1862 44.0349 40.929 43.8481L38.7982 42.3001H41.4321C41.75 42.3001 42.0318 42.0954 42.1301 41.793L42.9439 39.2881L43.7578 41.793C43.856 42.0954 44.1379 42.3001 44.4558 42.3001H47.0895L44.9588 43.8481Z" fill="black"/>
<path d="M13.6244 40.8324H9.26531L7.91824 36.6866C7.82 36.3842 7.53816 36.1795 7.22029 36.1795C6.90242 36.1795 6.62059 36.3842 6.52234 36.6866L5.17527 40.8324H0.816192C0.498321 40.8324 0.216485 41.0371 0.118243 41.3396C0.0200005 41.6419 0.127618 41.9732 0.384844 42.16L3.91141 44.7223L2.56434 48.8681C2.46609 49.1704 2.57371 49.5017 2.83094 49.6885C3.08807 49.8754 3.43641 49.8754 3.69363 49.6885L7.2202 47.1262L10.7468 49.6885C11.0226 49.8889 11.4102 49.8696 11.6651 49.6435C11.8812 49.4518 11.9653 49.1429 11.876 48.8682L10.5289 44.7224L14.0555 42.1601C14.3127 41.9732 14.4203 41.642 14.3221 41.3397C14.2241 41.037 13.9423 40.8324 13.6244 40.8324ZM9.23514 43.8481C8.97791 44.035 8.87029 44.3662 8.96854 44.6686L9.7824 47.1734L7.65164 45.6254C7.39734 45.4405 7.04324 45.4405 6.78895 45.6254L4.65828 47.1733L5.47205 44.6685C5.57029 44.3661 5.46268 44.0348 5.20545 43.848L3.07469 42.3H5.70848C6.02635 42.3 6.30818 42.0953 6.40643 41.7929L7.22029 39.288L8.03416 41.7929C8.1324 42.0953 8.41424 42.3 8.73211 42.3H11.3659L9.23514 43.8481Z" fill="black"/>
<path d="M20.8084 34.7506H39.9864C41.8201 34.7506 43.3118 33.2588 43.3118 31.4252C43.3118 30.5847 42.9983 29.8159 42.4821 29.2298C43.5864 28.6883 44.3483 27.5523 44.3483 26.2418C44.3483 25.4013 44.0349 24.6326 43.5186 24.0464C44.6229 23.505 45.3849 22.369 45.3849 21.0585C45.3849 20.0121 44.8989 19.0769 44.141 18.4669C44.899 17.857 45.3849 16.9217 45.3849 15.8753C45.3849 14.0416 43.8931 12.5498 42.0595 12.5498H30.2554C30.6223 11.7498 31.0458 10.5312 31.2879 8.83713C31.8502 4.9007 31.0005 2.81125 30.1887 1.75158C29.5016 0.854704 28.5784 0.312321 27.5192 0.183219C26.6255 0.0734538 25.8094 0.783317 25.7855 1.68117C25.6481 3.09269 25.1455 6.96506 24.4256 8.4051C22.5761 12.1041 18.1665 14.3095 16.8046 14.9196C16.3279 14.5101 15.7091 14.2617 15.0329 14.2617H9.0667C7.56553 14.2617 6.34424 15.4829 6.34424 16.9842V31.8993C6.34424 33.4006 7.56553 34.6218 9.0667 34.6218H15.0327C15.8359 34.6218 16.5588 34.2719 17.0575 33.7168C17.8321 34.2059 19.0821 34.7506 20.8084 34.7506ZM25.7383 9.06154C26.7329 7.07238 27.2288 2.00695 27.2494 1.7923C27.2516 1.76906 27.2527 1.74552 27.2527 1.72218C27.2527 1.69709 27.2623 1.6759 27.2811 1.65929C27.3075 1.63615 27.3329 1.63908 27.3414 1.64015C27.8008 1.69621 28.4655 1.91593 29.0236 2.64425C29.6644 3.48058 30.3252 5.19787 29.835 8.6297C29.4194 11.5386 28.4342 12.8111 28.428 12.8191C28.0434 13.2892 28.3897 14.0177 28.9959 14.0177H42.0599C43.0842 14.0177 43.9176 14.8512 43.9176 15.8755C43.9176 16.8998 43.0842 17.7332 42.0599 17.7332H38.9763C38.571 17.7332 38.2424 18.0617 38.2424 18.4671C38.2424 18.8725 38.571 19.201 38.9763 19.201H42.0599C43.0842 19.201 43.9176 20.0345 43.9176 21.0587C43.9176 22.0829 43.0842 22.9164 42.0599 22.9164H38.9763C38.571 22.9164 38.2424 23.2449 38.2424 23.6503C38.2424 24.0557 38.571 24.3842 38.9763 24.3842H41.0231C42.0475 24.3842 42.8809 25.2177 42.8809 26.2419C42.8809 27.2661 42.0475 28.0996 41.0231 28.0996H38.4137C38.0084 28.0996 37.6798 28.4281 37.6798 28.8335C37.6798 29.2389 38.0084 29.5674 38.4137 29.5674H39.9864C41.0107 29.5674 41.8441 30.4009 41.8441 31.4252C41.8441 32.4495 41.0107 33.2829 39.9864 33.2829H20.8085C19.2938 33.2829 18.267 32.7755 17.7095 32.3945C17.7392 32.2338 17.7555 32.0685 17.7555 31.8993V16.9842C17.7555 16.6973 17.7105 16.4208 17.6279 16.1611C19.3475 15.3719 23.7497 13.0385 25.7383 9.06154ZM15.0327 33.1541H9.0667C8.3748 33.1541 7.81191 32.5912 7.81191 31.8993V16.9842C7.81191 16.2923 8.3748 15.7294 9.0667 15.7294H15.0327C15.3831 15.7294 15.7 15.8741 15.9278 16.1066V32.4718C15.9278 32.5596 15.9437 32.6456 15.9738 32.7266C15.7437 32.988 15.4076 33.1541 15.0327 33.1541Z" fill="black"/>
</g>
<defs>
<clipPath id="clip0">
<rect width="50" height="50" fill="white" transform="translate(0.0820312 0.000427246)"/>
</clipPath>
</defs>
</svg>
