<svg width="54" height="61" viewBox="0 0 54 61" fill="none" xmlns="http://www.w3.org/2000/svg">
<path d="M53.6437 10.7395C53.508 9.21772 52.2536 8.07014 50.7257 8.07014H43.1463V6.95315H43.2939C44.3762 6.95315 45.2567 6.07264 45.2567 4.99045V2.26934C45.2567 1.18715 44.3762 0.306641 43.2939 0.306641H20.9857C20.5003 0.306641 20.1068 0.700024 20.1068 1.18551C20.1068 1.671 20.5003 2.06439 20.9857 2.06439H43.2939C43.407 2.06439 43.4989 2.15626 43.4989 2.26934V4.99045C43.4989 5.10353 43.407 5.19541 43.2939 5.19541H10.435C10.3219 5.19541 10.2299 5.10353 10.2299 4.99045V2.26934C10.2299 2.15626 10.3219 2.06439 10.435 2.06439H16.865C17.3503 2.06439 17.7438 1.671 17.7438 1.18551C17.7438 0.700024 17.3503 0.306641 16.865 0.306641H10.435C9.35271 0.306641 8.47219 1.18715 8.47219 2.26934V4.99045C8.47219 6.07264 9.35271 6.95315 10.435 6.95315H10.5825V8.07014H3.00313C1.4753 8.07014 0.220855 9.21772 0.0851569 10.7395C0.0673451 10.9384 -0.327562 15.6753 1.61217 20.9216C3.38691 25.7217 7.45856 31.8506 16.7875 34.2559C18.2893 35.4425 20.0042 36.371 21.8647 36.9728L22.3071 37.7029C23.1432 39.0833 23.5851 40.715 23.5851 42.4218C23.5851 43.4644 23.4189 44.4829 23.0913 45.4489L22.477 47.2591H20.4332C18.3358 47.2591 16.6294 48.9655 16.6294 51.063V52.9041H13.4308C12.5281 52.9041 11.7937 53.6386 11.7937 54.5412V58.6696C11.7937 59.5723 12.5281 60.3066 13.4308 60.3066H40.2982C41.2009 60.3066 41.9353 59.5723 41.9353 58.6696V54.5412C41.9353 53.6386 41.2009 52.9041 40.2982 52.9041H37.0996V51.063C37.0996 48.9655 35.3932 47.2591 33.2958 47.2591H31.252L30.6377 45.4489C30.31 44.4831 30.1438 43.4645 30.1438 42.4218C30.1438 40.7151 30.5857 39.0834 31.4218 37.7029L31.8642 36.9728C33.7247 36.371 35.4394 35.4426 36.9414 34.2559C46.2703 31.8506 50.342 25.7217 52.1167 20.9216C54.0564 15.6753 53.6615 10.9386 53.6437 10.7395ZM10.908 24.7222C9.26927 23.1881 8.01389 21.2849 7.15529 19.0166C6.55871 17.4405 6.16825 15.7292 5.99447 13.9293H10.5825V21.4773C10.5825 22.5882 10.6949 23.6733 10.908 24.7222ZM3.26094 20.3121C1.4569 15.4329 1.8197 11.0786 1.83599 10.8957C1.89025 10.287 2.39202 9.82801 3.00313 9.82801H10.5825V12.1717H5.9217C5.44687 12.1717 4.99126 12.3729 4.67159 12.7237C4.35156 13.075 4.19336 13.548 4.23754 14.0214C4.42257 16.0045 4.85111 17.8945 5.51132 19.6389C6.81522 23.0839 8.92581 25.7738 11.8148 27.6888C12.3833 29.0608 13.1341 30.3388 14.0371 31.4925C7.6696 28.8532 4.67077 24.1251 3.26094 20.3121ZM40.1775 54.6618V58.5489H13.5514V54.6618H40.1775ZM33.2958 49.0169C34.4239 49.0169 35.3418 49.9348 35.3418 51.063V52.9041H18.3872V51.063C18.3872 49.9348 19.3051 49.0169 20.4332 49.0169H33.2958ZM28.9733 46.0137L29.3958 47.2591H24.3329L24.7556 46.0136C25.1451 44.8653 25.3427 43.6569 25.3427 42.4218C25.3427 40.693 24.9563 39.024 24.2216 37.5436C25.0821 37.6847 25.9646 37.7592 26.8644 37.7592C27.7642 37.7592 28.6468 37.6847 29.5072 37.5436C28.7724 39.024 28.3861 40.693 28.3861 42.4218C28.3862 43.657 28.5836 44.8654 28.9733 46.0137ZM26.8644 36.0013C18.8558 36.0013 12.3403 29.4858 12.3403 21.4773V6.95315H41.3886V21.4773C41.3886 29.4859 34.8731 36.0013 26.8644 36.0013ZM50.4681 20.3121C49.0582 24.1252 46.0593 28.8537 39.6914 31.4931C40.5961 30.3373 41.348 29.0568 41.917 27.682C44.3976 26.0348 46.3081 23.8163 47.6236 21.0383C47.8313 20.5997 47.6441 20.0756 47.2054 19.8679C46.7669 19.6603 46.2429 19.8473 46.035 20.286C45.2206 22.0059 44.1465 23.4877 42.8202 24.7276C43.034 23.6771 43.1466 22.5902 43.1466 21.4774V13.9294H47.7346C47.6472 14.8337 47.5019 15.7305 47.3026 16.5963C47.1937 17.0693 47.4889 17.5411 47.962 17.6499C48.4346 17.7593 48.9067 17.4637 49.0156 16.9906C49.2375 16.0263 49.3976 15.0273 49.4916 14.0214C49.5358 13.548 49.3776 13.075 49.0575 12.7237C48.7379 12.3729 48.2822 12.1717 47.8074 12.1717H43.1466V9.82801H50.726C51.3371 9.82801 51.8389 10.287 51.8931 10.8958C51.9092 11.0786 52.272 15.4329 50.4681 20.3121Z" fill="#D2B999"/>
<path d="M32.6436 17.3768L30.1234 17.0106C30.0136 16.9946 29.9188 16.9257 29.8697 16.8263L28.7426 14.5426C28.3872 13.8224 27.6675 13.375 26.8643 13.375C26.0611 13.375 25.3414 13.8224 24.986 14.5426L23.8589 16.8263C23.8098 16.9258 23.715 16.9947 23.6052 17.0106L21.0851 17.3768C20.2902 17.4922 19.6423 18.0384 19.3941 18.8023C19.1459 19.5663 19.349 20.389 19.9241 20.9497L21.7478 22.7272C21.8272 22.8046 21.8634 22.9161 21.8447 23.0255L21.4141 25.5356C21.2783 26.3271 21.5976 27.112 22.2474 27.5842C22.8971 28.0561 23.7424 28.1174 24.4535 27.7437L26.7075 26.5586C26.8057 26.5069 26.9229 26.5069 27.0211 26.5586L29.2752 27.7437C29.5845 27.9062 29.919 27.9865 30.2518 27.9865C30.6844 27.9865 31.1141 27.8509 31.4812 27.5841C32.131 27.1119 32.4503 26.3269 32.3145 25.5355L31.884 23.0254C31.8652 22.9159 31.9014 22.8045 31.9809 22.7272L33.8046 20.9495C34.3797 20.3889 34.5828 19.566 34.3346 18.8022C34.0864 18.0384 33.4383 17.4922 32.6436 17.3768ZM32.5776 19.6909L30.7539 21.4686C30.2602 21.9499 30.0349 22.6429 30.1514 23.3226L30.582 25.8326C30.6128 26.0123 30.5112 26.1162 30.4479 26.1623C30.3847 26.2083 30.2544 26.273 30.0931 26.1879L27.8389 25.0029C27.5338 24.8424 27.199 24.7622 26.8642 24.7622C26.5294 24.7622 26.1946 24.8424 25.8895 25.0029L23.6355 26.1879C23.4742 26.2729 23.3439 26.2082 23.2805 26.1623C23.2172 26.1162 23.1157 26.0124 23.1464 25.8326L23.577 23.3226C23.6936 22.6429 23.4684 21.9499 22.9745 21.4685L21.1509 19.6911C21.0204 19.5638 21.0414 19.42 21.0656 19.3456C21.0898 19.2712 21.1573 19.1425 21.3376 19.1163L23.8578 18.7501C24.5402 18.6508 25.1298 18.2225 25.4349 17.6043L26.562 15.3206C26.6426 15.1571 26.7859 15.1327 26.8641 15.1327C26.9422 15.1327 27.0856 15.1571 27.1662 15.3206L28.2933 17.6043C28.5984 18.2225 29.1879 18.6509 29.8704 18.7501L32.3907 19.1163C32.571 19.1425 32.6385 19.2712 32.6627 19.3456C32.687 19.42 32.708 19.5638 32.5776 19.6909Z" fill="#D2B999"/>
</svg>
