<svg width="15" height="16" viewBox="0 0 15 16" fill="none" xmlns="http://www.w3.org/2000/svg">
<path d="M12.1875 2.84827H2.8125C2.03585 2.84827 1.40625 3.47787 1.40625 4.25452V12.692C1.40625 13.4687 2.03585 14.0983 2.8125 14.0983H12.1875C12.9642 14.0983 13.5938 13.4687 13.5938 12.692V4.25452C13.5938 3.47787 12.9642 2.84827 12.1875 2.84827Z" stroke="#848D95" stroke-linejoin="round"/>
<path d="M8.67188 8.00452C9.0602 8.00452 9.375 7.68972 9.375 7.30139C9.375 6.91307 9.0602 6.59827 8.67188 6.59827C8.28355 6.59827 7.96875 6.91307 7.96875 7.30139C7.96875 7.68972 8.28355 8.00452 8.67188 8.00452Z" fill="#848D95"/>
<path d="M11.0156 8.00452C11.404 8.00452 11.7188 7.68972 11.7188 7.30139C11.7188 6.91307 11.404 6.59827 11.0156 6.59827C10.6273 6.59827 10.3125 6.91307 10.3125 7.30139C10.3125 7.68972 10.6273 8.00452 11.0156 8.00452Z" fill="#848D95"/>
<path d="M8.67188 10.3483C9.0602 10.3483 9.375 10.0335 9.375 9.64514C9.375 9.25682 9.0602 8.94202 8.67188 8.94202C8.28355 8.94202 7.96875 9.25682 7.96875 9.64514C7.96875 10.0335 8.28355 10.3483 8.67188 10.3483Z" fill="#848D95"/>
<path d="M11.0156 10.3483C11.404 10.3483 11.7188 10.0335 11.7188 9.64514C11.7188 9.25682 11.404 8.94202 11.0156 8.94202C10.6273 8.94202 10.3125 9.25682 10.3125 9.64514C10.3125 10.0335 10.6273 10.3483 11.0156 10.3483Z" fill="#848D95"/>
<path d="M3.98438 10.3483C4.3727 10.3483 4.6875 10.0335 4.6875 9.64514C4.6875 9.25682 4.3727 8.94202 3.98438 8.94202C3.59605 8.94202 3.28125 9.25682 3.28125 9.64514C3.28125 10.0335 3.59605 10.3483 3.98438 10.3483Z" fill="#848D95"/>
<path d="M6.32812 10.3483C6.71645 10.3483 7.03125 10.0335 7.03125 9.64514C7.03125 9.25682 6.71645 8.94202 6.32812 8.94202C5.9398 8.94202 5.625 9.25682 5.625 9.64514C5.625 10.0335 5.9398 10.3483 6.32812 10.3483Z" fill="#848D95"/>
<path d="M3.98438 12.692C4.3727 12.692 4.6875 12.3772 4.6875 11.9889C4.6875 11.6006 4.3727 11.2858 3.98438 11.2858C3.59605 11.2858 3.28125 11.6006 3.28125 11.9889C3.28125 12.3772 3.59605 12.692 3.98438 12.692Z" fill="#848D95"/>
<path d="M6.32812 12.692C6.71645 12.692 7.03125 12.3772 7.03125 11.9889C7.03125 11.6006 6.71645 11.2858 6.32812 11.2858C5.9398 11.2858 5.625 11.6006 5.625 11.9889C5.625 12.3772 5.9398 12.692 6.32812 12.692Z" fill="#848D95"/>
<path d="M8.67188 12.692C9.0602 12.692 9.375 12.3772 9.375 11.9889C9.375 11.6006 9.0602 11.2858 8.67188 11.2858C8.28355 11.2858 7.96875 11.6006 7.96875 11.9889C7.96875 12.3772 8.28355 12.692 8.67188 12.692Z" fill="#848D95"/>
<path d="M11.25 1.91077V2.84827M3.75 1.91077V2.84827V1.91077Z" stroke="#848D95" stroke-linecap="round" stroke-linejoin="round"/>
<path d="M13.5938 5.19202H1.40625" stroke="#848D95" stroke-linejoin="round"/>
</svg>
