<svg width="30" height="30" viewBox="0 0 30 30" fill="none" xmlns="http://www.w3.org/2000/svg">
<g clip-path="url(#clip0)">
<path d="M5.5 18.375C5.5 18.1679 5.66789 18 5.875 18H9.625C9.83211 18 10 18.1679 10 18.375C10 18.5821 9.83211 18.75 9.625 18.75H5.875C5.66789 18.75 5.5 18.5821 5.5 18.375Z" fill="#BE63F9"/>
<path d="M5.5 21.375C5.5 21.1679 5.66789 21 5.875 21H9.57812C9.78522 21 9.95312 21.1679 9.95312 21.375C9.95312 21.5821 9.78522 21.75 9.57812 21.75H5.875C5.66789 21.75 5.5 21.5821 5.5 21.375Z" fill="#BE63F9"/>
<path d="M5.5 24.375C5.5 24.1679 5.66789 24 5.875 24H9.57811C9.78522 24 9.95312 24.1679 9.95312 24.375C9.95312 24.5821 9.78522 24.75 9.57812 24.75H5.875C5.66789 24.75 5.5 24.5821 5.5 24.375Z" fill="#BE63F9"/>
<path d="M20 14.6591C20 14.452 20.1679 14.2841 20.375 14.2841H24.0781C24.2852 14.2841 24.4531 14.452 24.4531 14.6591C24.4531 14.8662 24.2852 15.0341 24.0781 15.0341H20.375C20.1679 15.0341 20 14.8662 20 14.6591Z" fill="#BE63F9"/>
<path d="M11.4844 14.3476C11.4844 14.1405 11.6523 13.9726 11.8594 13.9726H18.1406C18.3477 13.9726 18.5156 14.1405 18.5156 14.3476C18.5156 14.5547 18.3477 14.7226 18.1406 14.7226H11.8594C11.6523 14.7226 11.4844 14.5547 11.4844 14.3476Z" fill="#BE63F9"/>
<path d="M11.4844 11.5976C11.4844 11.3905 11.6523 11.2226 11.8594 11.2226H18.1406C18.3477 11.2226 18.5156 11.3905 18.5156 11.5976C18.5156 11.8047 18.3477 11.9726 18.1406 11.9726H11.8594C11.6523 11.9726 11.4844 11.8047 11.4844 11.5976Z" fill="#BE63F9"/>
<path d="M11.4844 8.84763C11.4844 8.64052 11.6523 8.47263 11.8594 8.47263H18.1406C18.3477 8.47263 18.5156 8.64052 18.5156 8.84763C18.5156 9.05473 18.3477 9.22263 18.1406 9.22263H11.8594C11.6523 9.22263 11.4844 9.05473 11.4844 8.84763Z" fill="#BE63F9"/>
<path d="M11.4844 17.0976C11.4844 16.8905 11.6523 16.7226 11.8594 16.7226H18.1406C18.3477 16.7226 18.5156 16.8905 18.5156 17.0976C18.5156 17.3047 18.3477 17.4726 18.1406 17.4726H11.8594C11.6523 17.4726 11.4844 17.3047 11.4844 17.0976Z" fill="#BE63F9"/>
<path d="M11.4844 19.8476C11.4844 19.6405 11.6523 19.4726 11.8594 19.4726H18.1406C18.3477 19.4726 18.5156 19.6405 18.5156 19.8476C18.5156 20.0547 18.3477 20.2226 18.1406 20.2226H11.8594C11.6523 20.2226 11.4844 20.0547 11.4844 19.8476Z" fill="#BE63F9"/>
<path d="M20 17.875C20 17.6679 20.1679 17.5 20.375 17.5H24.0781C24.2852 17.5 24.4531 17.6679 24.4531 17.875C24.4531 18.0821 24.2852 18.25 24.0781 18.25H20.375C20.1679 18.25 20 18.0821 20 17.875Z" fill="#BE63F9"/>
<path d="M20 20.875C20 20.6679 20.1679 20.5 20.375 20.5H24.0781C24.2852 20.5 24.4531 20.6679 24.4531 20.875C24.4531 21.0821 24.2852 21.25 24.0781 21.25H20.375C20.1679 21.25 20 21.0821 20 20.875Z" fill="#BE63F9"/>
<path d="M20 23.875C20 23.6679 20.1679 23.5 20.375 23.5H24.0781C24.2852 23.5 24.4531 23.6679 24.4531 23.875C24.4531 24.0821 24.2852 24.25 24.0781 24.25H20.375C20.1679 24.25 20 24.0821 20 23.875Z" fill="#BE63F9"/>
<path d="M27.3392 4.10156C27.3392 4.91066 26.6832 5.5664 25.8744 5.5664C25.0653 5.5664 24.4095 4.91066 24.4095 4.10156C24.4095 3.29269 25.0653 2.63672 25.8744 2.63672C26.6832 2.63672 27.3392 3.29269 27.3392 4.10156Z" fill="#BE63F9"/>
<path d="M6.37939 4.36682C6.13678 4.36682 5.93994 4.16998 5.93994 3.92737V3.5758C5.93994 3.33296 6.13678 3.13635 6.37939 3.13635C6.62201 3.13635 6.81885 3.33296 6.81885 3.5758V3.92737C6.81885 4.16998 6.62201 4.36682 6.37939 4.36682Z" fill="#BE63F9"/>
<path d="M6.37939 6.10977C6.13678 6.10977 5.93994 5.91293 5.93994 5.67032V5.31876C5.93994 5.07591 6.13678 4.8793 6.37939 4.8793C6.62201 4.8793 6.81885 5.07591 6.81885 5.31876V5.67032C6.81885 5.91293 6.62201 6.10977 6.37939 6.10977Z" fill="#BE63F9"/>
<path d="M6.37939 7.85269C6.13678 7.85269 5.93994 7.65585 5.93994 7.41324V7.06167C5.93994 6.81906 6.13678 6.62222 6.37939 6.62222C6.62201 6.62222 6.81885 6.81906 6.81885 7.06167V7.41324C6.81885 7.65585 6.62201 7.85269 6.37939 7.85269Z" fill="#BE63F9"/>
<path d="M28.6816 27.3632H26.9238V26.2451C26.9238 26.0025 26.7269 25.8057 26.4843 25.8057C26.2417 25.8057 26.0449 26.0025 26.0449 26.2451V27.3632H20.7129V12.1875H26.0449V24.3653C26.0449 24.608 26.2417 24.8048 26.4843 24.8048C26.7269 24.8048 26.9238 24.608 26.9238 24.3653V11.748C26.9238 11.5054 26.7269 11.3086 26.4843 11.3086H20.7129V10.8009C20.7129 10.5581 20.516 10.3615 20.2734 10.3615C20.0308 10.3615 19.8339 10.5581 19.8339 10.8009V27.3632H18.955V24.298C18.955 24.0554 18.7582 23.8586 18.5156 23.8586H11.4844C11.2417 23.8586 11.0449 24.0554 11.0449 24.298V27.3632H10.166V5.74218H19.8339V8.90623C19.8339 9.14907 20.0308 9.34568 20.2734 9.34568C20.516 9.34568 20.7129 9.14907 20.7129 8.90623V5.30272C20.7129 5.06011 20.516 4.86327 20.2734 4.86327H18.9573V3.54491C18.9573 3.3023 18.7605 3.10546 18.5179 3.10546H15.0023C14.7596 3.10546 14.5628 3.3023 14.5628 3.54491V4.86327H10.166V1.91207C10.166 1.66923 9.96916 1.47262 9.72654 1.47262H9.28709V0.439452C9.28709 0.196838 9.09025 0 8.84764 0H6.75772C6.51511 0 6.31827 0.196838 6.31827 0.439452V1.47262H4.96146C4.71885 1.47262 4.52201 1.66923 4.52201 1.91207V11.3086H3.51562C3.273 11.3086 3.07617 11.5054 3.07617 11.748V12.8467C3.07617 13.0895 3.273 13.2861 3.51562 13.2861C3.75823 13.2861 3.95507 13.0895 3.95507 12.8467V12.1875L9.28709 12.1921V27.3632H3.95507V14.7216C3.95507 14.479 3.75823 14.2822 3.51562 14.2822C3.273 14.2822 3.07617 14.479 3.07617 14.7216V27.3632H1.31836C0.591429 27.3632 0 27.9547 0 28.6816C0 29.4085 0.591429 29.9999 1.31836 29.9999H28.6816C29.4085 29.9999 29.9999 29.4085 29.9999 28.6816C29.9999 27.9547 29.4085 27.3632 28.6816 27.3632ZM15.4417 3.98437H18.0784V4.86327H15.4417V3.98437ZM7.19718 0.878904H8.40819V1.47262H7.19718V0.878904ZM5.40091 2.35153H9.28709V11.3086H5.40091V2.35153ZM11.9238 24.7375H18.0761V27.3632H11.9238V24.7375ZM28.6816 29.121H1.31836C1.07597 29.121 0.878905 28.924 0.878905 28.6816C0.878905 28.4392 1.07597 28.2421 1.31836 28.2421H28.6816C28.924 28.2421 29.121 28.4392 29.121 28.6816C29.121 28.924 28.924 29.121 28.6816 29.121Z" fill="#BE63F9"/>
<path d="M25.475 10.1225C25.5945 10.2106 25.7343 10.2546 25.8744 10.2546C26.0142 10.2546 26.1541 10.2106 26.2735 10.1225C27.1419 9.48233 29.9759 7.15758 29.9759 4.11712C29.9759 1.84684 28.136 0 25.8744 0C23.6128 0 21.7728 1.84684 21.7728 4.11712C21.7728 7.15758 24.6066 9.48256 25.475 10.1225ZM25.8744 0.878905C27.6512 0.878905 29.097 2.33161 29.097 4.11712C29.097 6.6529 26.6322 8.74121 25.8744 9.32303C25.1166 8.74121 22.6517 6.6529 22.6517 4.11712C22.6517 2.33161 24.0973 0.878905 25.8744 0.878905Z" fill="#BE63F9"/>
</g>
<defs>
<clipPath id="clip0">
<rect width="29.9999" height="30" fill="white"/>
</clipPath>
</defs>
</svg>
