<svg width="30" height="30" viewBox="0 0 30 30" fill="none" xmlns="http://www.w3.org/2000/svg">
<path d="M22.6469 22.9561C22.5359 22.9561 22.4248 22.9143 22.3393 22.8305L21.3087 21.8204C21.1354 21.6505 21.1326 21.3723 21.3025 21.1989C21.4724 21.0256 21.7506 21.0228 21.924 21.1926L22.6479 21.9021L24.3756 20.218C24.5496 20.0485 24.8277 20.0521 24.9971 20.2259C25.1665 20.3997 25.163 20.6779 24.9892 20.8474L22.9538 22.8312C22.8684 22.9146 22.7576 22.9561 22.6469 22.9561Z" fill="#29CC25"/>
<path d="M24.0217 15.5132C23.7833 15.4694 23.554 15.6274 23.5102 15.8662C23.4664 16.1049 23.6245 16.3339 23.8632 16.3777C26.347 16.8331 28.1497 18.9977 28.1497 21.5246C28.1497 24.0591 26.3386 26.1784 23.9427 26.6565C23.9327 26.6577 23.9227 26.6592 23.9127 26.6612C23.5929 26.723 23.2685 26.7553 22.9482 26.7573C22.9378 26.7574 22.9274 26.7574 22.917 26.7574C22.297 26.7574 21.702 26.6491 21.1496 26.4503C21.1296 26.4431 21.1095 26.4357 21.0896 26.4283C21.0496 26.4134 21.01 26.3979 20.9705 26.3821C20.9507 26.3742 20.931 26.3661 20.9115 26.3579C20.8624 26.3375 20.8137 26.3163 20.7655 26.2944C20.7462 26.2857 20.727 26.2768 20.7078 26.2678C20.679 26.2544 20.6504 26.2406 20.6219 26.2267C20.6029 26.2174 20.584 26.2079 20.5651 26.1984C20.5462 26.1889 20.5274 26.1793 20.5087 26.1695C20.4619 26.1451 20.4154 26.12 20.3694 26.0943C20.3602 26.0892 20.351 26.084 20.3419 26.0788C20.3235 26.0684 20.3053 26.0579 20.2871 26.0473C20.278 26.042 20.2689 26.0366 20.2598 26.0313C20.2236 26.0098 20.1877 25.9879 20.152 25.9656C20.1163 25.9434 20.0809 25.9206 20.0458 25.8975C18.6243 24.961 17.6842 23.3505 17.6842 21.5245V21.5241C17.6842 21.5147 17.6842 21.5053 17.6843 21.4959C17.6843 21.4934 17.6844 21.4909 17.6844 21.4884C17.6844 21.4811 17.6845 21.4737 17.6845 21.4663C17.6845 21.4647 17.6846 21.463 17.6846 21.4614C17.6847 21.453 17.6848 21.4447 17.6849 21.4364C17.6849 21.4358 17.6849 21.4351 17.685 21.4345C17.6955 20.8146 17.8145 20.2177 18.0251 19.6637C18.2107 19.1789 18.4704 18.7207 18.8006 18.3003C18.8137 18.2835 18.8255 18.266 18.836 18.2479C19.6004 17.2956 20.6959 16.6114 21.9708 16.3777C22.2095 16.3339 22.3676 16.105 22.3238 15.8662C22.28 15.6274 22.0508 15.4693 21.8123 15.5132C20.4114 15.77 19.196 16.4923 18.3135 17.5029L15.5825 16.4452V14.9213C16.5731 14.1632 17.2569 13.0233 17.4118 11.7234C17.9044 11.7013 18.362 11.5238 18.7326 11.2049C19.1971 10.8054 19.4636 10.2241 19.4636 9.61008C19.4636 9.09105 19.2734 8.59553 18.9342 8.21355V6.28594C18.9343 2.81988 16.1144 0 12.6483 0C9.18229 0 6.3624 2.81988 6.3624 6.28594V8.26371C6.01945 8.64252 5.83324 9.11215 5.83324 9.61008C5.83324 10.2243 6.09967 10.8056 6.56426 11.2052C6.93469 11.5238 7.39207 11.7013 7.88473 11.7234C8.00607 12.7514 8.4583 13.7058 9.18826 14.4555C9.38268 14.6552 9.5932 14.8356 9.81762 14.9958V16.4454L3.64213 18.8394C3.63937 18.8405 3.63662 18.8416 3.63387 18.8427C3.52518 18.8874 0.971191 19.9717 0.971191 22.9568V29.0045C0.971191 29.5535 1.41773 30 1.9667 30H23.4449C23.9912 30 24.4356 29.5556 24.4356 29.0093V27.4454C27.0734 26.7684 29.0287 24.3706 29.0287 21.5246C29.0288 18.5733 26.923 16.0452 24.0217 15.5132ZM16.8679 17.8856L15.2848 21.0584L13.3364 19.6745C13.3351 19.6736 13.3358 19.674 13.3364 19.6745L14.8276 17.8338L15.283 17.2717L16.8679 17.8856ZM12.7018 20.3021L13.8337 21.106L13.3811 21.7873H12.0225L11.5699 21.106L12.7018 20.3021ZM12.7018 19.0616L10.6966 16.5864V15.4898C11.275 15.7381 11.9101 15.876 12.5751 15.8925L12.5786 15.8926C12.5879 15.8928 12.5973 15.893 12.6067 15.8931C12.6083 15.8931 12.61 15.8932 12.6117 15.8933C12.6195 15.8934 12.6272 15.8935 12.635 15.8936C12.6385 15.8937 12.642 15.8937 12.6454 15.8937C12.6523 15.8938 12.6592 15.8938 12.6662 15.8939C12.6701 15.8939 12.6741 15.894 12.678 15.894C12.6889 15.8941 12.6997 15.8941 12.7106 15.8941C12.7212 15.8941 12.7318 15.8941 12.7424 15.894C12.7458 15.894 12.7494 15.894 12.7528 15.894C12.7597 15.8939 12.7665 15.8938 12.7734 15.8937C12.7778 15.8937 12.7823 15.8936 12.7868 15.8935C12.7931 15.8934 12.7995 15.8933 12.8058 15.8932C12.8094 15.8931 12.8131 15.893 12.8167 15.893C12.8236 15.8929 12.8304 15.8927 12.8373 15.8925C12.8413 15.8924 12.8453 15.8923 12.8494 15.8921C12.8559 15.892 12.8624 15.8918 12.8688 15.8916C12.8729 15.8914 12.8771 15.8913 12.8812 15.8911C12.8877 15.8909 12.8942 15.8906 12.9007 15.8904C12.9046 15.8902 12.9084 15.89 12.9123 15.8899C12.9192 15.8896 12.926 15.8893 12.9329 15.889C12.9364 15.8888 12.9398 15.8887 12.9434 15.8885C12.9507 15.8882 12.9579 15.8878 12.9653 15.8874C12.9683 15.8872 12.9714 15.887 12.9745 15.8869C12.9822 15.8865 12.99 15.886 12.9977 15.8855C13.0004 15.8854 13.0031 15.8852 13.0058 15.8851C13.0139 15.8845 13.0221 15.884 13.0302 15.8835C13.0325 15.8834 13.0348 15.8832 13.0372 15.883C13.0467 15.8824 13.0562 15.8817 13.0657 15.881C13.0663 15.8809 13.067 15.8808 13.0676 15.8808C13.1645 15.8736 13.2605 15.8634 13.3556 15.8504C13.3557 15.8504 13.3557 15.8504 13.3558 15.8504C13.8309 15.7853 14.2839 15.6496 14.7035 15.454V16.5906L12.7018 19.0616ZM18.205 8.72279C18.447 8.95271 18.5846 9.27281 18.5846 9.61014C18.5846 9.96779 18.4297 10.3062 18.1595 10.5386C17.9597 10.7104 17.7139 10.8128 17.4452 10.8394V8.38096C17.6462 8.40094 17.8345 8.46322 18.0003 8.56523C18.0013 8.56588 18.0023 8.56647 18.0034 8.56711C18.0089 8.57057 18.0144 8.57402 18.0199 8.57754C18.0819 8.61738 18.1406 8.66297 18.1956 8.71412C18.1987 8.71717 18.2019 8.71998 18.205 8.72279ZM7.85162 10.8395C7.58297 10.8129 7.33705 10.7106 7.13736 10.5388C6.86719 10.3065 6.71221 9.96797 6.71221 9.61014C6.71221 9.3027 6.84451 9.00996 7.08604 8.77986C7.09096 8.7757 7.09582 8.77137 7.10057 8.76697C7.30875 8.57397 7.57705 8.44594 7.85156 8.40094V10.8396H7.85162V10.8395ZM8.15607 7.02088C8.14383 7.03102 8.13182 7.04145 8.1201 7.05234C8.08699 7.08299 8.0567 7.11621 8.02928 7.15137C8.02922 7.15143 8.02916 7.15154 8.02904 7.15166C8.02231 7.16033 8.01574 7.16912 8.0093 7.17803C8.00918 7.1782 8.009 7.17838 8.00889 7.17855C8.00268 7.18723 7.99658 7.19607 7.99072 7.20498C7.99043 7.20545 7.99008 7.20592 7.98979 7.20639C7.98686 7.21084 7.98398 7.21529 7.98117 7.21975C7.98111 7.21986 7.98105 7.21998 7.98094 7.2201C7.97818 7.22443 7.97555 7.22883 7.97285 7.23316C7.97256 7.23363 7.97232 7.2341 7.97203 7.23451C7.96939 7.23891 7.96676 7.2433 7.96424 7.24775C7.96389 7.24834 7.96354 7.24898 7.96324 7.24957C7.9609 7.25367 7.95856 7.25777 7.95627 7.26193C7.95604 7.2624 7.95574 7.26287 7.95551 7.26334C7.95311 7.26768 7.95076 7.27207 7.94848 7.27646C7.94801 7.2774 7.94754 7.27828 7.94701 7.27922C7.9449 7.28326 7.94285 7.2873 7.9408 7.29141C7.94057 7.29188 7.94033 7.29234 7.9401 7.29281C7.93799 7.29709 7.93588 7.30143 7.93383 7.3057C7.9333 7.30687 7.93272 7.30805 7.93219 7.30916C7.93014 7.31344 7.92814 7.31771 7.92621 7.32205C7.92586 7.32281 7.92557 7.32357 7.92522 7.32428C7.92352 7.32803 7.92188 7.33172 7.92029 7.33553C7.91971 7.33682 7.91918 7.33816 7.91859 7.33945C7.91678 7.34367 7.91502 7.34795 7.91332 7.35217C7.91285 7.35328 7.91244 7.35439 7.91197 7.35551C7.91051 7.35914 7.9091 7.36277 7.90769 7.36641C7.90723 7.36758 7.90682 7.36875 7.90635 7.36986C7.90471 7.37414 7.90313 7.37842 7.9016 7.3827C7.90107 7.3841 7.90061 7.38551 7.90008 7.38691C7.89885 7.39031 7.89768 7.39371 7.8965 7.39711C7.89604 7.39846 7.89557 7.39981 7.89516 7.40115C7.89375 7.40531 7.8924 7.40953 7.89105 7.41369C7.89053 7.41533 7.89 7.41697 7.88953 7.41861C7.88848 7.42207 7.88742 7.42559 7.88637 7.42904C7.88602 7.43027 7.88561 7.4315 7.88525 7.43273C7.88402 7.43689 7.88285 7.44105 7.88174 7.44527C7.88127 7.44691 7.88086 7.44855 7.88039 7.4502C7.87922 7.45447 7.87811 7.45875 7.87705 7.46303C7.87682 7.46396 7.87658 7.4649 7.87635 7.46584C7.87535 7.46977 7.87441 7.47369 7.87354 7.47762C7.87318 7.47908 7.87283 7.48061 7.87248 7.48207C7.87148 7.48652 7.87049 7.49103 7.86955 7.49549C7.86932 7.49654 7.86914 7.4976 7.86891 7.49865C7.86809 7.50252 7.86732 7.50639 7.86662 7.51025C7.86645 7.51107 7.86627 7.51195 7.86615 7.51277C7.65322 7.53223 7.44258 7.58232 7.24148 7.66066V6.28576C7.24148 3.30434 9.66709 0.87873 12.6485 0.87873C15.6298 0.87873 18.0555 3.30434 18.0555 6.28576V7.62135C17.8617 7.55244 17.6569 7.51113 17.4454 7.49854V7.38088C17.4455 7.04391 17.3963 6.99146 16.5742 6.11496C16.5489 6.08801 16.5227 6.06018 16.4958 6.03135C16.3498 5.87566 16.178 5.69238 15.976 5.47564C15.9351 5.43176 15.893 5.38652 15.8496 5.33988C15.5797 5.04984 15.1482 4.98932 14.8106 5.18912C14.7997 5.19557 14.7888 5.2023 14.7782 5.20928C14.179 5.60063 13.5362 5.92717 12.8702 6.18334C12.8589 6.18768 12.8475 6.19207 12.8361 6.19641C12.7007 6.24797 12.5643 6.29666 12.427 6.34236C12.4264 6.3426 12.4257 6.34283 12.425 6.34301C11.2345 6.73939 9.98648 6.91324 8.79486 6.83414C8.78039 6.8332 8.76592 6.83221 8.75145 6.83115C8.53688 6.81516 8.32207 6.88383 8.15607 7.02088ZM8.7327 11.2825C8.73311 11.2727 8.73322 11.2629 8.73299 11.253L8.73176 11.2129C8.73117 11.1951 8.73053 11.1774 8.73053 11.1596V7.71105C9.81059 7.78348 10.9318 7.66641 12.0234 7.37871C13.1274 7.08779 14.201 6.62232 15.171 6.00211C15.1906 5.98963 15.2101 5.97709 15.2296 5.96443C15.2675 6.00521 15.3045 6.04488 15.3404 6.08344C15.3507 6.09445 15.3609 6.10535 15.371 6.11619C15.3834 6.12961 15.3959 6.14291 15.4082 6.15604C15.4109 6.15897 15.4136 6.16189 15.4164 6.16482C15.4245 6.1735 15.4325 6.18205 15.4404 6.19061C15.6019 6.36357 15.7424 6.51352 15.8647 6.64395C15.888 6.66873 15.9105 6.69281 15.9325 6.71625C15.9874 6.77479 16.0395 6.83033 16.0887 6.88277C16.0927 6.88711 16.0968 6.89145 16.1008 6.89572C16.1119 6.90762 16.1229 6.91928 16.1337 6.93082C16.3482 7.16016 16.4989 7.32369 16.562 7.40367C16.5635 7.40549 16.5649 7.4073 16.5662 7.40906V11.1596C16.5662 11.1768 16.5655 11.1938 16.565 11.2109L16.5637 11.2529C16.5635 11.2639 16.5637 11.2749 16.5642 11.2857C16.5237 12.5404 15.8807 13.6455 14.9159 14.3206C14.9083 14.3252 14.9008 14.33 14.8935 14.335C14.3196 14.7309 13.6587 14.9607 12.9683 15.0066C12.9672 15.0066 12.9662 15.0067 12.965 15.0068C12.942 15.0083 12.9189 15.0096 12.8958 15.0107C12.8945 15.0108 12.8932 15.0108 12.8919 15.0109C12.8803 15.0114 12.8687 15.012 12.8572 15.0124C12.857 15.0124 12.8568 15.0124 12.8566 15.0124C12.8459 15.0128 12.8351 15.0131 12.8243 15.0134C12.822 15.0135 12.8196 15.0135 12.8173 15.0136C12.8064 15.0139 12.7955 15.0142 12.7846 15.0144C12.7835 15.0144 12.7823 15.0144 12.7812 15.0144C12.7713 15.0146 12.7614 15.0148 12.7514 15.0148C12.7487 15.0148 12.746 15.0149 12.7433 15.0149C12.7324 15.015 12.7215 15.0151 12.7106 15.0151C12.6988 15.0151 12.687 15.015 12.6753 15.0149C12.673 15.0149 12.6707 15.0149 12.6684 15.0149C12.1043 15.0097 11.5627 14.9 11.0714 14.6937C9.62344 14.0794 8.77975 12.6752 8.7327 11.2825ZM10.118 17.2728L12.065 19.676C12.0656 19.6755 12.0663 19.6751 12.065 19.676L10.1187 21.0584L8.53553 17.8856L10.118 17.2728ZM5.9185 29.121V23.8935C5.9185 23.6508 5.7218 23.4541 5.47904 23.4541C5.23629 23.4541 5.03959 23.6508 5.03959 23.8935V29.121H1.96676C1.90248 29.121 1.85021 29.0687 1.85021 29.0045V22.9569C1.85021 20.5925 3.84721 19.7071 3.96545 19.6569L7.71229 18.2043L9.36053 21.5075C9.36053 21.5075 9.36053 21.5075 9.36059 21.5076C9.46834 21.7235 9.6644 21.8809 9.89848 21.9394C9.96475 21.956 10.032 21.9642 10.0989 21.9642C10.2683 21.9642 10.4351 21.9119 10.5762 21.8118L10.8529 21.6152L11.3244 22.325L10.1742 29.1211L5.9185 29.121ZM19.4886 29.121H15.2294L14.8349 26.7903C14.7945 26.5511 14.5683 26.3902 14.3283 26.4304C14.089 26.4708 13.9279 26.6977 13.9683 26.937L14.338 29.121H11.0657L12.1582 22.6662H13.2455L13.6212 24.8861C13.6617 25.1254 13.8883 25.2865 14.1279 25.2461C14.3672 25.2056 14.5283 24.9787 14.4878 24.7394L14.0792 22.3249L14.5508 21.6151L14.8275 21.8116C14.9685 21.9118 15.1354 21.9641 15.3048 21.9641C15.3717 21.9641 15.439 21.956 15.5053 21.9394C15.7393 21.8808 15.9353 21.7235 16.0431 21.5075C16.0432 21.5075 16.0432 21.5075 16.0432 21.5075L17.6913 18.2044L17.7662 18.2334C17.5723 18.5367 17.4046 18.858 17.2662 19.1936C17.2658 19.1946 17.2653 19.1957 17.2649 19.1967C17.2631 19.2009 17.2614 19.2052 17.2596 19.2096C16.9786 19.8917 16.8251 20.6214 16.8073 21.3755C16.8071 21.3838 16.8069 21.3922 16.8067 21.4005C16.8066 21.4068 16.8065 21.413 16.8064 21.4192C16.8062 21.4339 16.806 21.4487 16.8058 21.4635C16.8057 21.4677 16.8057 21.4719 16.8057 21.4761C16.8056 21.4922 16.8054 21.5084 16.8054 21.5246C16.8054 23.3807 17.6372 25.0463 18.9475 26.1681C18.9568 26.1761 18.9662 26.184 18.9755 26.1919C18.9942 26.2078 19.0129 26.2235 19.0318 26.239C19.0506 26.2545 19.0696 26.27 19.0887 26.2854C19.1173 26.3084 19.146 26.3312 19.1751 26.3538C19.1848 26.3613 19.1944 26.3688 19.2042 26.3762C19.2236 26.3911 19.2431 26.4059 19.2628 26.4206C19.302 26.4499 19.3416 26.4788 19.3815 26.5072C19.417 26.5324 19.4527 26.5573 19.4887 26.5818V29.121H19.4886V29.121ZM23.5568 29.0093C23.5568 29.0709 23.5067 29.121 23.4451 29.121H20.3675V27.079L20.3704 27.0803C20.5053 27.1424 20.6428 27.1997 20.7827 27.252C20.8061 27.2607 20.8294 27.2693 20.8529 27.2777C20.8881 27.2904 20.9234 27.3028 20.9589 27.3148C21.0062 27.3308 21.0538 27.3463 21.1016 27.3612C21.6754 27.54 22.2851 27.6364 22.9171 27.6364C23.133 27.6364 23.3464 27.6251 23.5568 27.6031V29.0093Z" fill="#29CC25"/>
<path d="M13.3364 19.6745C13.3382 19.6757 13.3373 19.6751 13.3364 19.6745V19.6745Z" fill="#29CC25"/>
<path d="M12.0653 19.676C12.0643 19.6766 12.0635 19.6773 12.0653 19.676V19.676Z" fill="#29CC25"/>
</svg>
