<svg width="30" height="30" viewBox="0 0 30 30" fill="none" xmlns="http://www.w3.org/2000/svg">
<g clip-path="url(#clip0)">
<path d="M29.8789 15.4692L27.8016 10.8572C27.6206 10.4556 27.5125 10.0335 27.4803 9.60274C27.3084 7.31415 26.286 5.18898 24.6014 3.61908C22.9083 2.04094 20.7005 1.17188 18.3849 1.17188C17.2092 1.17188 16.0641 1.39366 14.9957 1.8219C13.9497 1.40282 12.8091 1.17188 11.6153 1.17188C9.2997 1.17188 7.09191 2.04094 5.39864 3.61908C3.71429 5.18898 2.69188 7.31415 2.51999 9.60274C2.48749 10.0337 2.37945 10.4556 2.19864 10.8572L0.121076 15.4692C-0.0700403 15.8936 -0.0331903 16.3802 0.219495 16.7711C0.471952 17.1618 0.900419 17.395 1.36574 17.395H2.05879V21.0304C2.05879 22.4613 3.22266 23.6254 4.6534 23.6254H6.77605V28.1937C6.77605 28.4084 6.88202 28.6084 7.05918 28.7295C7.16835 28.8039 7.29584 28.8421 7.42424 28.8421C7.50412 28.8421 7.58469 28.8272 7.66136 28.797L15 25.912L18.2829 27.2026C18.3357 27.2232 18.3902 27.2331 18.4435 27.2331C18.6191 27.2331 18.7846 27.1275 18.8528 26.9543C18.9416 26.7286 18.8303 26.4734 18.6044 26.3846L16.2012 25.4398L16.726 25.2335C17.0199 25.118 17.2103 24.8394 17.2115 24.524L17.2163 23.1292C17.2268 20.2183 17.9981 17.4037 19.4467 14.9902C20.2904 13.5844 20.7365 11.9611 20.7365 10.2958C20.7365 6.90331 18.8757 3.93768 16.1218 2.36572C16.8507 2.15813 17.6102 2.05078 18.3849 2.05078C20.4774 2.05078 22.4721 2.83608 24.0022 4.26201C25.5245 5.68085 26.4485 7.60094 26.6036 9.66866C26.6437 10.2017 26.7771 10.7231 27.0001 11.2182L29.0774 15.8302C29.1465 15.9835 29.1337 16.1527 29.0424 16.2939C28.9511 16.4351 28.8025 16.5161 28.6343 16.5161H27.7062C27.3512 16.5161 27.0621 16.805 27.0621 17.1602V21.0304C27.0621 21.9766 26.2926 22.7465 25.3466 22.7465H22.7845C22.5417 22.7465 22.3451 22.9431 22.3451 23.186V27.8552L20.2242 27.0213C19.9983 26.9328 19.7434 27.0438 19.6543 27.2697C19.5655 27.4956 19.6768 27.7506 19.9027 27.8394L22.3387 28.7972C22.4153 28.8272 22.4957 28.8421 22.5758 28.8421C22.7042 28.8421 22.8314 28.8039 22.9408 28.7295C23.118 28.6086 23.224 28.4084 23.224 28.1937V23.6254H25.3466C26.7774 23.6254 27.941 22.4613 27.941 21.0304V17.395H28.6343C29.0994 17.395 29.5281 17.1618 29.7805 16.7711C30.0332 16.3802 30.0701 15.8936 29.8789 15.4692ZM19.8576 10.2958C19.8576 11.8018 19.4547 13.2685 18.693 14.5377C17.1632 17.0872 16.3484 20.0569 16.3374 23.1262L16.3328 24.4437L15 24.9676L13.6672 24.4437L13.6627 23.126C13.6517 20.0569 12.8371 17.0872 11.307 14.5377C10.5453 13.2685 10.1424 11.8018 10.1424 10.2958C10.1424 8.20359 10.9271 6.20865 12.3514 4.67835C12.5169 4.50073 12.5068 4.22264 12.3292 4.05716C12.1516 3.89168 11.8735 3.90175 11.7082 4.07936C10.1317 5.77286 9.26354 7.98066 9.26354 10.2958C9.26354 11.9611 9.70963 13.5844 10.5533 14.9902C12.0021 17.4037 12.7732 20.2183 12.7837 23.1292L12.7886 24.5238C12.7897 24.8396 12.9804 25.118 13.2738 25.2335L13.7988 25.4398L7.65496 27.8552V23.186C7.65496 22.9431 7.45812 22.7465 7.2155 22.7465H4.6534C3.70743 22.7465 2.9377 21.9766 2.9377 21.0304V17.1602C2.9377 16.805 2.64885 16.5161 2.29385 16.5161H1.36574C1.19751 16.5161 1.04896 16.4351 0.95764 16.2939C0.866316 16.1524 0.853498 15.9835 0.922621 15.8299L2.99995 11.218C3.22288 10.7229 3.35632 10.2017 3.39638 9.66866C3.55156 7.60094 4.47556 5.68085 5.99785 4.26201C7.5277 2.83608 9.52263 2.05078 11.6151 2.05078C12.3974 2.05078 13.1543 2.16042 13.8718 2.36481C13.6107 2.51404 13.3557 2.67677 13.1078 2.85278C12.9101 2.99332 12.8636 3.26775 13.0042 3.46573C13.1447 3.66348 13.4191 3.70995 13.6169 3.56918C14.054 3.25882 14.5155 2.994 14.9961 2.7768C17.8597 4.07021 19.8576 6.95389 19.8576 10.2958Z" fill="#FC573B"/>
<path d="M10.8273 10.0708C10.8273 12.3722 12.6993 14.2445 15 14.2445C17.301 14.2445 19.1728 12.3722 19.1728 10.0708C19.1728 7.76938 17.301 5.89713 15 5.89713C12.6993 5.89713 10.8273 7.76938 10.8273 10.0708ZM15 6.77603C16.8162 6.77603 18.2939 8.25392 18.2939 10.0708C18.2939 11.8874 16.8162 13.3655 15 13.3655C13.1838 13.3655 11.7062 11.8874 11.7062 10.0708C11.7062 8.25392 13.1838 6.77603 15 6.77603Z" fill="#FC573B"/>
<path d="M15 10.5103C15.2644 10.5103 15.4793 10.7254 15.4793 10.9898C15.4793 11.2541 15.2644 11.4693 15 11.4693C14.8412 11.4693 14.6929 11.3906 14.6032 11.2587C14.4667 11.058 14.1935 11.0058 13.9927 11.1422C13.792 11.2784 13.7398 11.5517 13.8762 11.7526C14.0442 11.9998 14.2857 12.1807 14.5606 12.2747V12.4398C14.5606 12.6824 14.7574 12.8792 15 12.8792C15.2429 12.8792 15.4395 12.6824 15.4395 12.4398V12.275C15.9735 12.0916 16.3582 11.5851 16.3582 10.9898C16.3582 10.2409 15.7492 9.63137 15 9.63137C14.7359 9.63137 14.5208 9.41622 14.5208 9.15186C14.5208 8.8875 14.7359 8.67235 15 8.67235C15.1596 8.67235 15.3081 8.75154 15.3976 8.88407C15.5336 9.08525 15.8066 9.1379 16.0078 9.0024C16.209 8.86644 16.2619 8.59339 16.1261 8.3922C15.9579 8.14317 15.7155 7.96144 15.4395 7.86691V7.70212C15.4395 7.45927 15.2429 7.26266 15 7.26266C14.7574 7.26266 14.5606 7.45927 14.5606 7.70212V7.86668C14.0268 8.05002 13.6418 8.55654 13.6418 9.15186C13.6418 9.90076 14.2511 10.5103 15 10.5103Z" fill="#FC573B"/>
</g>
<defs>
<clipPath id="clip0">
<rect width="30" height="30" fill="white"/>
</clipPath>
</defs>
</svg>
