<svg width="30" height="30" viewBox="0 0 30 30" fill="none" xmlns="http://www.w3.org/2000/svg">
<path d="M29.9365 9.86889L27.1171 4.31277V2.10929C27.1171 1.78573 26.8549 1.52335 26.5312 1.52335H3.46865C3.14509 1.52335 2.88271 1.78573 2.88271 2.10929V4.31306L0.0633987 9.86889C0.0217384 9.95103 0 10.0419 0 10.134V11.5755C0 13.2883 1.24829 14.7143 2.88271 14.9937V27.3046H2.28311C1.9595 27.3046 1.69717 27.567 1.69717 27.8905C1.69717 28.2141 1.9595 28.4765 2.28311 28.4765H3.46413C3.4656 28.4765 3.46712 28.4767 3.46865 28.4767H19.5H24.1875H26.5313H27.7168C28.0404 28.4767 28.3028 28.2143 28.3028 27.8908C28.3028 27.5672 28.0404 27.3048 27.7168 27.3048H27.1172V14.9937C28.7517 14.7143 30 13.2884 30 11.5755V10.134C30 10.0419 29.9783 9.95103 29.9365 9.86889ZM4.05459 2.69523H25.9452V3.86728H21.9188H17.3063H12.6938H8.08116H4.05459V2.69523ZM18.4657 10.0748L17.9547 5.03916H21.4848L23.0625 10.2212V11.5755C23.0625 12.8419 22.0322 13.8723 20.7656 13.8723C19.4991 13.8723 18.4687 12.8419 18.4687 11.5755V10.134C18.4687 10.1143 18.4677 10.0945 18.4657 10.0748ZM17.2968 10.1637V11.5755H17.2968C17.2968 12.8419 16.2665 13.8723 15.0001 13.8723C13.7336 13.8723 12.7031 12.8419 12.7031 11.5755V10.1637L13.2233 5.03916H16.7768L17.2968 10.1637ZM12.0455 5.03922L11.5343 10.0749C11.5322 10.0945 11.5312 10.1143 11.5312 10.134V11.5755C11.5312 12.8419 10.5009 13.8723 9.23441 13.8723C7.9679 13.8723 6.93759 12.8419 6.93759 11.5755V10.2213L8.5154 5.03922H12.0455ZM1.17188 11.5755V10.2742L3.82841 5.03916H7.29032L5.79108 9.96334C5.77426 10.0187 5.76565 10.0762 5.76565 10.134V11.5755C5.76565 12.8419 4.73521 13.8723 3.46865 13.8723C2.2022 13.8723 1.17188 12.8419 1.17188 11.5755ZM23.6016 27.3048H20.0859V25.5469V23.2031H20.6719C20.9955 23.2031 21.2578 22.9408 21.2578 22.6172C21.2578 22.2936 20.9955 22.0312 20.6719 22.0312H20.0859V17.9298H23.6016V27.3048ZM25.9452 27.3048H24.7734V17.3438C24.7734 17.0203 24.511 16.7579 24.1874 16.7579H19.4998H5.81246C5.48879 16.7579 5.22652 17.0203 5.22652 17.3438V25.5469C5.22652 25.8705 5.48879 26.1328 5.81246 26.1328H18.914V27.3048H4.05459V14.9937C5.00932 14.8305 5.83227 14.2766 6.35159 13.5022C6.97456 14.4312 8.03411 15.0441 9.23435 15.0441C10.4346 15.0441 11.4941 14.4312 12.1171 13.5022C12.7401 14.4312 13.7998 15.0441 15 15.0441C16.2001 15.0441 17.2597 14.4312 17.8827 13.5022C18.5057 14.4312 19.5653 15.0441 20.7655 15.0441C21.9658 15.0441 23.0254 14.4312 23.6484 13.5022C24.1676 14.2766 24.9906 14.8305 25.9452 14.9937V27.3048ZM12.1131 17.9298H14.1545L13.0404 19.0438C12.8116 19.2725 12.8116 19.6435 13.0403 19.8724C13.1548 19.9868 13.3047 20.0441 13.4547 20.0441C13.6046 20.0441 13.7545 19.9868 13.869 19.8725L15.8119 17.9298H18.914V24.9609H6.3984V23.6445L12.1131 17.9298ZM6.3984 21.9872V17.9298H10.4558L6.3984 21.9872ZM28.8281 11.5755C28.8281 12.8419 27.7977 13.8723 26.5313 13.8723C25.2648 13.8723 24.2344 12.8419 24.2344 11.5755V10.134C24.2344 10.0762 24.2259 10.0187 24.209 9.96334L22.7097 5.03916H26.1716L28.8281 10.2742V11.5755Z" fill="#26C6DA"/>
<path d="M12.2545 21.2443C12.4039 21.2443 12.5533 21.1875 12.6676 21.0739L12.6774 21.0641C12.9069 20.836 12.908 20.465 12.6799 20.2355C12.4517 20.006 12.0806 20.0049 11.8512 20.2331L11.8414 20.2428C11.6119 20.4709 11.6109 20.842 11.8389 21.0715C11.9535 21.1867 12.104 21.2443 12.2545 21.2443Z" fill="#26C6DA"/>
<path d="M0.599768 27.3046H0.58594C0.262325 27.3046 0 27.567 0 27.8905C0 28.2141 0.262325 28.4765 0.58594 28.4765H0.599768C0.923324 28.4765 1.18571 28.2141 1.18571 27.8905C1.18571 27.567 0.923383 27.3046 0.599768 27.3046Z" fill="#26C6DA"/>
<path d="M29.4141 27.3048H29.4003C29.0767 27.3048 28.8143 27.5672 28.8143 27.8907C28.8143 28.2143 29.0767 28.4767 29.4003 28.4767H29.4141C29.7377 28.4767 30 28.2143 30 27.8907C30 27.5672 29.7377 27.3048 29.4141 27.3048Z" fill="#26C6DA"/>
</svg>
