<svg width="55" height="49" viewBox="0 0 55 49" fill="none" xmlns="http://www.w3.org/2000/svg">
<path d="M51.8639 40.6452H49.1637C48.9591 40.6452 48.7628 40.5467 48.6181 40.3713C48.4735 40.1959 48.3922 39.958 48.3922 39.71C48.3922 39.462 48.4735 39.2241 48.6181 39.0487C48.7628 38.8733 48.9591 38.7748 49.1637 38.7748H51.8639C52.0258 38.7757 52.1851 38.726 52.3265 38.6305C52.4679 38.535 52.5867 38.3969 52.6713 38.2296C52.7559 38.0623 52.8035 37.8714 52.8095 37.6753C52.8155 37.4792 52.7797 37.2845 52.7056 37.1101C52.6789 37.0467 52.6582 36.9799 52.6439 36.9109L50.2144 25.3139C50.0586 24.9817 49.8328 24.7055 49.5601 24.5137C49.2874 24.322 48.9775 24.2215 48.6622 24.2225H6.04483C5.72962 24.2214 5.41981 24.3217 5.14708 24.5133C4.87435 24.7049 4.64849 24.9809 4.49259 25.313L2.06315 36.9099C2.04881 36.9789 2.02811 37.0457 2.00143 37.1091C1.92714 37.2836 1.89122 37.4784 1.89714 37.6746C1.90306 37.8708 1.95063 38.0619 2.03524 38.2294C2.11985 38.3968 2.23866 38.535 2.38018 38.6305C2.5217 38.726 2.68115 38.7757 2.84313 38.7748H21.7602C21.9648 38.7748 22.161 38.8733 22.3057 39.0487C22.4504 39.2241 22.5317 39.462 22.5317 39.71C22.5317 39.958 22.4504 40.1959 22.3057 40.3713C22.161 40.5467 21.9648 40.6452 21.7602 40.6452H2.84313C2.42456 40.6462 2.01258 40.5189 1.64541 40.2753C1.27824 40.0317 0.967782 39.6796 0.742843 39.2517C0.517905 38.8238 0.385775 38.3339 0.358715 37.8276C0.331654 37.3213 0.410541 36.8148 0.588053 36.3553L3.02135 24.7407C3.0353 24.6722 3.05575 24.606 3.08229 24.5433C3.36108 23.8821 3.78544 23.3274 4.30834 22.9406C4.83125 22.5539 5.43228 22.3501 6.04483 22.3521H48.6622C49.2748 22.3501 49.8758 22.5539 50.3987 22.9406C50.9216 23.3274 51.3459 23.8821 51.6247 24.5433C51.6513 24.606 51.6717 24.6722 51.6857 24.7407L54.119 36.3553C54.2965 36.8148 54.3754 37.3213 54.3483 37.8276C54.3213 38.3339 54.1891 38.8238 53.9642 39.2517C53.7392 39.6796 53.4288 40.0317 53.0616 40.2753C52.6944 40.5189 52.2825 40.6462 51.8639 40.6452Z" fill="#6A737C"/>
<path d="M39.9823 40.6455H32.9463C32.7417 40.6455 32.5455 40.547 32.4008 40.3716C32.2561 40.1962 32.1748 39.9583 32.1748 39.7103C32.1748 39.4622 32.2561 39.2243 32.4008 39.0489C32.5455 38.8736 32.7417 38.775 32.9463 38.775H39.9823C40.187 38.775 40.3832 38.8736 40.5279 39.0489C40.6726 39.2243 40.7538 39.4622 40.7538 39.7103C40.7538 39.9583 40.6726 40.1962 40.5279 40.3716C40.3832 40.547 40.187 40.6455 39.9823 40.6455Z" fill="#6A737C"/>
<path d="M45.2285 40.6455H43.917C43.7124 40.6455 43.5162 40.547 43.3715 40.3716C43.2268 40.1962 43.1455 39.9583 43.1455 39.7103C43.1455 39.4622 43.2268 39.2243 43.3715 39.0489C43.5162 38.8736 43.7124 38.775 43.917 38.775H45.2285C45.4332 38.775 45.6294 38.8736 45.7741 39.0489C45.9188 39.2243 46 39.4622 46 39.7103C46 39.9583 45.9188 40.1962 45.7741 40.3716C45.6294 40.547 45.4332 40.6455 45.2285 40.6455Z" fill="#6A737C"/>
<path d="M41.3948 24.2244H34.4961C34.2915 24.2244 34.0953 24.1259 33.9506 23.9505C33.8059 23.7751 33.7246 23.5373 33.7246 23.2892V20.2338C33.7246 19.9858 33.8059 19.7479 33.9506 19.5725C34.0953 19.3971 34.2915 19.2986 34.4961 19.2986C34.7007 19.2986 34.897 19.3971 35.0416 19.5725C35.1863 19.7479 35.2676 19.9858 35.2676 20.2338V22.354H40.6233V20.2338C40.6233 19.9858 40.7046 19.7479 40.8493 19.5725C40.994 19.3971 41.1902 19.2986 41.3948 19.2986C41.5994 19.2986 41.7957 19.3971 41.9404 19.5725C42.085 19.7479 42.1663 19.9858 42.1663 20.2338V23.2892C42.1663 23.5373 42.085 23.7751 41.9404 23.9505C41.7957 24.1259 41.5994 24.2244 41.3948 24.2244Z" fill="#6A737C"/>
<path d="M45.3681 24.2246H30.5215C30.3169 24.2246 30.1207 24.1261 29.976 23.9507C29.8313 23.7753 29.75 23.5374 29.75 23.2894V19.496C29.7516 17.8799 30.2821 16.3305 31.225 15.1878C32.1679 14.0452 33.4461 13.4026 34.7794 13.4011H41.1103C42.4435 13.4026 43.7218 14.0452 44.6647 15.1878C45.6075 16.3305 46.138 17.8799 46.1396 19.496V23.2894C46.1396 23.5374 46.0584 23.7753 45.9137 23.9507C45.769 24.1261 45.5728 24.2246 45.3681 24.2246V24.2246ZM31.293 22.3541H44.5966V19.496C44.5954 18.3758 44.2277 17.3019 43.5741 16.5099C42.9205 15.7179 42.0344 15.2726 41.1103 15.2716H34.7794C33.8552 15.2726 32.9692 15.7179 32.3156 16.5099C31.662 17.3019 31.2942 18.3758 31.293 19.496V22.3541Z" fill="#6A737C"/>
<path d="M37.9454 11.4382C37.0671 11.4384 36.2084 11.1228 35.4781 10.5314C34.7477 9.93999 34.1784 9.09931 33.8422 8.11567C33.5059 7.13204 33.4179 6.04962 33.5891 5.00532C33.7604 3.96102 34.1833 3.00174 34.8043 2.24879C35.4253 1.49584 36.2166 0.983049 37.078 0.775261C37.9394 0.567473 38.8324 0.674023 39.6438 1.08144C40.4553 1.48885 41.1489 2.17883 41.6369 3.06412C42.1249 3.9494 42.3853 4.99022 42.3853 6.05496C42.3841 7.48206 41.916 8.85029 41.0836 9.85949C40.2512 10.8687 39.1226 11.4364 37.9454 11.4382V11.4382ZM37.9454 2.54222C37.3722 2.54204 36.8119 2.7479 36.3353 3.13377C35.8587 3.51964 35.4871 4.06819 35.2677 4.71005C35.0483 5.3519 34.9908 6.05822 35.1025 6.73969C35.2142 7.42115 35.4901 8.04715 35.8954 8.53851C36.3006 9.02987 36.8169 9.36452 37.379 9.50013C37.9412 9.63575 38.5238 9.56624 39.0534 9.3004C39.5829 9.03456 40.0355 8.58432 40.354 8.00663C40.6724 7.42895 40.8424 6.74976 40.8424 6.05496C40.8417 5.12372 40.5364 4.23081 39.9932 3.57223C39.4501 2.91365 38.7136 2.54321 37.9454 2.54222V2.54222Z" fill="#6A737C"/>
<path d="M30.8036 48.6713H23.9033C23.6987 48.6713 23.5025 48.5728 23.3578 48.3974C23.2131 48.222 23.1318 47.9841 23.1318 47.7361V44.6797C23.1318 44.4317 23.2131 44.1938 23.3578 44.0184C23.5025 43.843 23.6987 43.7445 23.9033 43.7445C24.1079 43.7445 24.3042 43.843 24.4489 44.0184C24.5935 44.1938 24.6748 44.4317 24.6748 44.6797V46.8008H30.0321V44.6797C30.0321 44.4317 30.1134 44.1938 30.2581 44.0184C30.4027 43.843 30.599 43.7445 30.8036 43.7445C31.0082 43.7445 31.2044 43.843 31.3491 44.0184C31.4938 44.1938 31.5751 44.4317 31.5751 44.6797V47.7361C31.5751 47.9841 31.4938 48.222 31.3491 48.3974C31.2044 48.5728 31.0082 48.6713 30.8036 48.6713Z" fill="#6A737C"/>
<path d="M34.7758 48.6718H19.9307C19.7261 48.6718 19.5298 48.5733 19.3851 48.3979C19.2405 48.2225 19.1592 47.9846 19.1592 47.7366V43.9433C19.1606 42.3266 19.6912 40.7767 20.6344 39.6338C21.5777 38.4909 22.8565 37.8484 24.1901 37.8474H30.5163C31.8494 37.8494 33.1275 38.4923 34.07 39.6351C35.0126 40.7779 35.5427 42.3272 35.5442 43.9433V47.7366C35.5442 47.984 35.4633 48.2213 35.3193 48.3966C35.1753 48.5718 34.9798 48.6708 34.7758 48.6718V48.6718ZM20.7022 46.8013H34.0043V43.9433C34.0032 42.8225 33.6354 41.7481 32.9814 40.9558C32.3274 40.1636 31.4409 39.7184 30.5163 39.7179H24.1901C23.2661 39.7194 22.3803 40.165 21.727 40.9572C21.0737 41.7493 20.7063 42.8232 20.7053 43.9433L20.7022 46.8013Z" fill="#6A737C"/>
<path d="M27.3538 35.8841C26.4755 35.8841 25.6169 35.5684 24.8866 34.9768C24.1563 34.3852 23.5871 33.5444 23.251 32.5607C22.915 31.577 22.8271 30.4946 22.9985 29.4503C23.1699 28.4061 23.5929 27.4469 24.214 26.6941C24.8351 25.9412 25.6265 25.4286 26.4879 25.221C27.3494 25.0134 28.2423 25.1201 29.0537 25.5277C29.8651 25.9353 30.5586 26.6254 31.0465 27.5108C31.5344 28.3962 31.7947 29.4371 31.7945 30.5018C31.7931 31.9289 31.3247 33.2971 30.4922 34.3061C29.6597 35.3151 28.531 35.8826 27.3538 35.8841V35.8841ZM27.3538 26.9891C26.7807 26.9891 26.2204 27.1951 25.7439 27.5811C25.2674 27.9671 24.896 28.5157 24.6766 29.1576C24.4573 29.7994 24.3999 30.5057 24.5118 31.1871C24.6236 31.8685 24.8995 32.4944 25.3048 32.9857C25.7101 33.477 26.2264 33.8115 26.7885 33.9471C27.3506 34.0826 27.9332 34.013 28.4627 33.7472C28.9922 33.4813 29.4448 33.0311 29.7632 32.4534C30.0816 31.8757 30.2515 31.1966 30.2515 30.5018C30.2507 29.5705 29.9452 28.6776 29.4019 28.019C28.8586 27.3605 28.1221 26.9901 27.3538 26.9891V26.9891Z" fill="#6A737C"/>
<path d="M20.2112 24.2244H13.3125C13.1079 24.2244 12.9117 24.1259 12.767 23.9505C12.6223 23.7751 12.541 23.5373 12.541 23.2892V20.2338C12.541 19.9858 12.6223 19.7479 12.767 19.5725C12.9117 19.3971 13.1079 19.2986 13.3125 19.2986C13.5171 19.2986 13.7134 19.3971 13.858 19.5725C14.0027 19.7479 14.084 19.9858 14.084 20.2338V22.354H19.4397V20.2338C19.4397 19.9858 19.521 19.7479 19.6657 19.5725C19.8104 19.3971 20.0066 19.2986 20.2112 19.2986C20.4158 19.2986 20.6121 19.3971 20.7568 19.5725C20.9014 19.7479 20.9827 19.9858 20.9827 20.2338V23.2892C20.9827 23.5373 20.9014 23.7751 20.7568 23.9505C20.6121 24.1259 20.4158 24.2244 20.2112 24.2244Z" fill="#6A737C"/>
<path d="M24.1845 24.2246H9.3379C9.13329 24.2246 8.93706 24.1261 8.79237 23.9507C8.64769 23.7753 8.56641 23.5374 8.56641 23.2894V19.496C8.56804 17.8799 9.09849 16.3305 10.0414 15.1878C10.9843 14.0452 12.2625 13.4026 13.5958 13.4011H19.9267C21.2599 13.4026 22.5382 14.0452 23.4811 15.1878C24.424 16.3305 24.9544 17.8799 24.956 19.496V23.2894C24.956 23.5374 24.8748 23.7753 24.7301 23.9507C24.5854 24.1261 24.3892 24.2246 24.1845 24.2246ZM10.1094 22.3541H23.413V19.496C23.4118 18.3758 23.0441 17.3019 22.3905 16.5099C21.7369 15.7179 20.8508 15.2726 19.9267 15.2716H13.5958C12.6717 15.2726 11.7856 15.7179 11.132 16.5099C10.4784 17.3019 10.1106 18.3758 10.1094 19.496V22.3541Z" fill="#6A737C"/>
<path d="M16.7618 11.4382C15.8835 11.4384 15.0248 11.1228 14.2945 10.5314C13.5641 9.93999 12.9948 9.09931 12.6586 8.11567C12.3223 7.13204 12.2343 6.04962 12.4055 5.00532C12.5768 3.96102 12.9997 3.00174 13.6207 2.24879C14.2417 1.49584 15.033 0.983049 15.8944 0.775261C16.7559 0.567473 17.6488 0.674023 18.4603 1.08144C19.2717 1.48885 19.9653 2.17883 20.4533 3.06412C20.9413 3.9494 21.2018 4.99022 21.2018 6.05496C21.2005 7.48206 20.7324 8.85029 19.9 9.85949C19.0677 10.8687 17.9391 11.4364 16.7618 11.4382V11.4382ZM16.7618 2.54222C16.1887 2.54204 15.6283 2.7479 15.1517 3.13377C14.6751 3.51964 14.3035 4.06819 14.0841 4.71005C13.8647 5.3519 13.8072 6.05822 13.9189 6.73969C14.0306 7.42115 14.3065 8.04715 14.7118 8.53851C15.117 9.02987 15.6333 9.36452 16.1954 9.50013C16.7576 9.63575 17.3402 9.56624 17.8698 9.3004C18.3993 9.03456 18.8519 8.58432 19.1704 8.00663C19.4888 7.42895 19.6588 6.74976 19.6588 6.05496C19.6582 5.12372 19.3528 4.23081 18.8096 3.57223C18.2665 2.91365 17.53 2.54321 16.7618 2.54222V2.54222Z" fill="#6A737C"/>
</svg>
