<svg width="50" height="48" viewBox="0 0 50 48" fill="none" xmlns="http://www.w3.org/2000/svg">
<path d="M46.5288 0.793945H28.5483C28.1437 0.793945 27.8159 1.12176 27.8159 1.52633C27.8159 1.9309 28.1437 2.25871 28.5483 2.25871H46.5288C47.6353 2.25871 48.5356 3.15896 48.5356 4.26545V23.1249C48.5356 24.2314 47.6353 25.1317 46.5288 25.1317H43.6569C43.5026 25.1317 43.3522 25.1804 43.2273 25.2709L38.2334 28.888V25.8641C38.2334 25.4595 37.9055 25.1317 37.501 25.1317H21.6043C20.4977 25.1317 19.5976 24.2314 19.5976 23.1249V4.26545C19.5976 3.15896 20.4978 2.25871 21.6043 2.25871H25.3571C25.7616 2.25871 26.0894 1.9309 26.0894 1.52633C26.0894 1.12176 25.7616 0.793945 25.3571 0.793945H21.6043C19.6901 0.793945 18.1328 2.35119 18.1328 4.26545V23.1249C18.1328 25.0392 19.6902 26.5964 21.6043 26.5964H36.7686V30.3228C36.7686 30.598 36.9229 30.8499 37.168 30.9751C37.4277 31.0989 37.6819 31.0792 37.9306 30.916L43.8943 26.5965H46.5288C48.4431 26.5965 50.0003 25.0393 50.0003 23.125V4.26545C50.0003 2.35129 48.443 0.793945 46.5288 0.793945Z" fill="#6A737C"/>
<path d="M42.5364 39.5053C42.3837 38.4138 41.7412 37.4858 40.7719 36.9576L37.515 35.1832C37.1598 34.9893 36.715 35.1206 36.5215 35.476C36.3281 35.8312 36.4592 36.276 36.8144 36.4694L40.0709 38.2438C40.6281 38.5473 40.9973 39.0802 41.0856 39.7071C41.0861 39.7111 41.0866 39.7151 41.0872 39.719C41.1726 40.3521 40.9571 40.9698 40.4962 41.4129L40.0161 41.8738L27.9927 35.1085L29.4057 33.8656C30.0085 33.3352 30.886 33.2373 31.59 33.6218L33.6221 34.7293C33.9773 34.9227 34.4221 34.7919 34.6157 34.4366C34.8092 34.0815 34.6783 33.6367 34.3231 33.443L32.2914 32.3359C31.0499 31.658 29.5012 31.8305 28.4384 32.7656L25.1455 35.6621C24.471 36.2553 23.4866 36.3104 22.7518 35.7956C17.7919 32.3209 14.19 28.4983 11.7403 24.1097C11.3272 23.3687 11.4427 22.4549 12.0273 21.8359L14.6338 19.0791C15.6057 18.0501 15.8336 16.5084 15.2008 15.2429L10.8145 6.47027C10.3258 5.49171 9.42842 4.81762 8.3524 4.62076C7.27569 4.4235 6.19713 4.73667 5.39288 5.47931L3.72695 7.01839C1.88544 8.71948 0.66675 10.9194 0.202711 13.38C-0.262207 15.8447 0.0761548 18.331 1.18108 20.5709C1.18596 20.5813 1.19055 20.5903 1.19436 20.5977C1.89452 22.0136 2.65161 23.3982 3.44317 24.7108C3.57529 24.9316 3.71777 25.165 3.86639 25.4046C4.07976 25.7481 4.5312 25.8538 4.87494 25.6405C5.21857 25.4271 5.32423 24.9756 5.11096 24.632C4.96653 24.3993 4.82826 24.1727 4.69887 23.9565C3.92782 22.6779 3.19133 21.3311 2.50982 19.9534C2.50601 19.9454 2.50211 19.9376 2.4981 19.9297C0.572809 16.0341 1.43302 11.2542 4.57905 8.23083L11.1839 20.596L10.9627 20.83C9.9365 21.9163 9.73485 23.5211 10.4611 24.8234C13.021 29.4096 16.7663 33.3911 21.9114 36.9955C22.502 37.409 23.1841 37.6131 23.8638 37.6131C24.6692 37.6131 25.4711 37.3264 26.1129 36.7619L26.8274 36.1334L38.9126 42.9335L38.9004 42.9452C35.7853 45.938 31.1188 46.6191 27.2887 44.6399C18.9868 40.3487 12.2379 34.6762 7.2295 27.7802C6.99172 27.4529 6.53374 27.3801 6.20651 27.618C5.87918 27.8558 5.80663 28.3137 6.04431 28.641C11.1882 35.7235 18.1095 41.5442 26.616 45.9414C28.2905 46.8066 30.1036 47.2281 31.9049 47.2281C34.8232 47.2281 37.7092 46.121 39.9149 44.0019L41.5109 42.4693C42.3069 41.7038 42.6819 40.6399 42.5418 39.5468C42.5404 39.5329 42.5386 39.5192 42.5364 39.5053ZM5.68896 7.19993L6.38677 6.55533C6.84925 6.1283 7.46934 5.94852 8.08874 6.0616C8.70726 6.17478 9.22315 6.56226 9.5042 7.12512L13.8907 15.8981C14.2495 16.6157 14.1202 17.4898 13.5692 18.0731L12.245 19.4737L5.68896 7.19993Z" fill="#6A737C"/>
<path d="M44.0961 14.3893C44.0961 12.9786 42.9484 11.8309 41.5378 11.8309C40.1272 11.8309 38.9795 12.9786 38.9795 14.3893C38.9795 15.7999 40.1272 16.9476 41.5378 16.9476C42.9484 16.9476 44.0961 15.7999 44.0961 14.3893ZM40.4442 14.3893C40.4442 13.7863 40.9347 13.2957 41.5377 13.2957C42.1407 13.2957 42.6313 13.7863 42.6313 14.3893C42.6313 14.9923 42.1407 15.4828 41.5377 15.4828C40.9347 15.4828 40.4442 14.9923 40.4442 14.3893Z" fill="#6A737C"/>
<path d="M36.6244 14.3893C36.6244 12.9786 35.4767 11.8309 34.0662 11.8309C32.6555 11.8309 31.5078 12.9786 31.5078 14.3893C31.5078 15.7999 32.6555 16.9476 34.0662 16.9476C35.4767 16.9476 36.6244 15.7999 36.6244 14.3893ZM32.9725 14.3893C32.9725 13.7863 33.4631 13.2957 34.0661 13.2957C34.6691 13.2957 35.1596 13.7863 35.1596 14.3893C35.1596 14.9923 34.6691 15.4828 34.0661 15.4828C33.4631 15.4828 32.9725 14.9923 32.9725 14.3893Z" fill="#6A737C"/>
<path d="M24.0361 14.3893C24.0361 15.7999 25.1837 16.9476 26.5945 16.9476C28.0053 16.9476 29.1529 15.7999 29.1529 14.3893C29.1529 12.9786 28.0052 11.8309 26.5945 11.8309C25.1838 11.8309 24.0361 12.9786 24.0361 14.3893ZM26.5945 13.2957C27.1975 13.2957 27.6881 13.7863 27.6881 14.3893C27.6881 14.9923 27.1975 15.4828 26.5945 15.4828C25.9915 15.4828 25.501 14.9923 25.501 14.3893C25.501 13.7863 25.9915 13.2957 26.5945 13.2957Z" fill="#6A737C"/>
</svg>
