<svg width="50" height="48" viewBox="0 0 50 48" fill="none" xmlns="http://www.w3.org/2000/svg">
<path d="M35.549 19.4206C35.6715 19.6538 35.913 19.8 36.1767 19.8H39.8027C39.2229 23.3075 37.3577 26.4896 34.5028 28.8165C31.7388 31.069 28.2669 32.3607 24.9776 32.3607C20.5338 32.3607 15.8201 29.9702 12.9683 26.2695C12.7296 25.9596 12.2849 25.9023 11.975 26.141C11.6652 26.3797 11.6079 26.8244 11.8466 27.1343C13.4553 29.203 15.5118 30.8801 17.8615 32.0393C20.1552 33.1761 22.616 33.7769 24.9776 33.7769C28.5875 33.7769 32.3854 32.369 35.3976 29.9141C38.5849 27.3165 40.645 23.7395 41.2367 19.7992H45.2437C45.507 19.7992 45.7485 19.6534 45.871 19.4202C45.9935 19.187 45.9761 18.9056 45.8267 18.6886L41.2932 12.1183C41.1608 11.9266 40.943 11.8124 40.7098 11.8124C40.477 11.8124 40.2592 11.9266 40.1268 12.1183L35.5933 18.6886C35.4435 18.9056 35.4269 19.1874 35.549 19.4206ZM40.7102 13.7681L43.8947 18.383H37.5257L40.7102 13.7681Z" fill="#6A737C"/>
<path d="M8.72158 21.7611C8.85359 21.9528 9.07177 22.067 9.30458 22.067C9.53738 22.067 9.75516 21.9528 9.88757 21.7611L14.4215 15.1908C14.5709 14.9742 14.5879 14.6924 14.4658 14.4592C14.3432 14.226 14.1017 14.0802 13.8385 14.0802H10.2121C10.7923 10.5727 12.6571 7.39055 15.5124 5.0637C18.276 2.81077 21.7479 1.51909 25.0372 1.51909C29.4814 1.51909 34.1951 3.90997 37.0465 7.61031C37.2852 7.92018 37.7303 7.97789 38.0401 7.73916C38.3496 7.50003 38.4073 7.05537 38.1686 6.7455C36.5599 4.67715 34.5034 3.0001 32.1537 1.84043C29.86 0.703687 27.3992 0.102905 25.0372 0.102905C21.4277 0.102905 17.6298 1.51079 14.6171 3.96609C11.4298 6.56329 9.37019 10.1403 8.7785 14.0806H4.77065C4.50741 14.0806 4.26591 14.2264 4.14378 14.4596C4.02125 14.6928 4.03825 14.9746 4.18805 15.1912L8.72158 21.7611ZM12.4891 15.4968L9.30458 20.1117L6.12004 15.4968H12.4891Z" fill="#6A737C"/>
<path d="M18.7125 17.094C18.6757 18.7324 19.2884 20.3185 20.4168 21.507C21.1089 22.2371 21.5061 23.1979 21.5318 24.2038C21.1599 24.2481 20.8868 24.5742 20.9081 24.9477C20.9295 25.3216 21.2382 25.6141 21.6125 25.6157H28.4013C28.7922 25.618 29.1116 25.303 29.1139 24.9117C29.1167 24.5208 28.8017 24.2015 28.4104 24.1991C28.4266 23.2145 28.8143 22.2999 29.5562 21.5236C30.6578 20.3525 31.2732 18.8067 31.2779 17.1988C31.2689 13.7558 28.4902 10.9613 25.0472 10.9325C21.6042 10.9036 18.7793 13.651 18.7121 17.0937L18.7125 17.094ZM24.9235 12.321C26.2278 12.3044 27.4843 12.8111 28.4124 13.7277C29.3404 14.6443 29.8622 15.8949 29.8614 17.1992C29.8566 18.4458 29.3792 19.6438 28.5258 20.5521C27.5677 21.5272 27.0199 22.8323 26.9954 24.1987H22.9472C22.9192 22.8307 22.3824 21.5224 21.4417 20.5292C20.5706 19.6094 20.0986 18.3826 20.1287 17.1162C20.1694 14.5581 22.3662 12.3621 24.9235 12.321Z" fill="#6A737C"/>
<path d="M22.9329 26.5558C22.542 26.5558 22.2246 26.8728 22.2246 27.2641C22.2246 27.6554 22.542 27.9724 22.9329 27.9724H27.0815C27.4728 27.9724 27.7898 27.6554 27.7898 27.2641C27.7898 26.8728 27.4728 26.5558 27.0815 26.5558H22.9329Z" fill="#6A737C"/>
<path d="M25.5738 8.92588V6.61564C25.5738 6.22473 25.2568 5.90735 24.8655 5.90735C24.4742 5.90735 24.1572 6.22473 24.1572 6.61564V8.92588C24.1572 9.31718 24.4742 9.63417 24.8655 9.63417C25.2568 9.63417 25.5738 9.31718 25.5738 8.92588Z" fill="#6A737C"/>
<path d="M31.0337 11.9155L32.7305 10.3127C33.0151 10.044 33.0278 9.59574 32.759 9.31156C32.4906 9.02697 32.0424 9.01433 31.7578 9.2827L30.0606 10.8858C29.7764 11.1542 29.7638 11.6028 30.0321 11.887C30.3009 12.1716 30.7491 12.1842 31.0337 11.9155Z" fill="#6A737C"/>
<path d="M18.2757 9.04123C18.0006 8.76613 17.5547 8.76455 17.2777 9.03767C17.0002 9.31079 16.9954 9.75663 17.267 10.0357L18.8935 11.6859C19.0705 11.8681 19.3318 11.9416 19.578 11.8779C19.8243 11.8147 20.0175 11.6242 20.0843 11.3787C20.1515 11.1337 20.082 10.8712 19.9021 10.6914L18.2757 9.04123Z" fill="#6A737C"/>
<path d="M26.1919 39.8807C25.9152 39.604 25.4666 39.604 25.19 39.8807L24.4295 40.6408L23.669 39.8807C23.3924 39.604 22.9441 39.604 22.6675 39.8807C22.3908 40.157 22.3908 40.6056 22.6675 40.8823L23.4279 41.6428L22.6675 42.4032C22.3908 42.6799 22.3908 43.1285 22.6675 43.4052C22.9441 43.6815 23.3924 43.6815 23.669 43.4052L24.4295 42.6447L25.19 43.4052C25.4666 43.6815 25.9152 43.6815 26.1919 43.4052C26.4682 43.1285 26.4682 42.6799 26.1919 42.4032L25.4311 41.6428L26.1919 40.8823C26.4682 40.6056 26.4682 40.157 26.1919 39.8807Z" fill="#6A737C"/>
<path d="M7.90083 39.8689L5.68861 41.8954L4.7242 40.8496C4.45898 40.5618 4.01077 40.5436 3.72342 40.8088C3.43568 41.0741 3.41749 41.5223 3.68271 41.81L5.12617 43.3748C5.39059 43.6618 5.83722 43.6803 6.12497 43.4167L8.85773 40.9136C9.14627 40.6496 9.16603 40.2013 8.90161 39.9128C8.63758 39.6243 8.18936 39.6049 7.90083 39.8689Z" fill="#6A737C"/>
<path d="M43.7241 35.3667C40.7281 35.3711 38.1511 37.4888 37.5669 40.4271L30.5907 40.4524C30.0215 37.505 27.4449 35.3734 24.443 35.3667C21.4414 35.3604 18.8553 37.4801 18.2727 40.4251H12.4475C11.8052 37.156 8.72262 34.9568 5.42266 35.413C2.12231 35.8691 -0.24801 38.822 0.0207606 42.1429C0.289136 45.4634 3.10293 47.9974 6.43372 47.9171C9.76411 47.8373 12.4534 45.1713 12.5621 41.8417H18.1581C18.2644 45.2231 21.0327 47.9116 24.4161 47.9191C27.7994 47.9262 30.5792 45.2496 30.6998 41.8682L37.4531 41.8441C37.5641 45.282 40.4214 47.9899 43.8601 47.9156C47.2988 47.8416 50.0371 45.0132 49.9999 41.5737C49.9624 38.1347 47.1636 35.3663 43.7241 35.3667ZM6.29103 46.5025C3.60727 46.5025 1.43141 44.3267 1.43141 41.6429C1.43141 38.9592 3.60727 36.7833 6.29103 36.7833C8.97479 36.7833 11.1507 38.9592 11.1507 41.6429C11.1475 44.3255 8.9736 46.4994 6.29103 46.5025ZM24.4295 46.5025C21.7454 46.5025 19.5699 44.3267 19.5699 41.6429C19.5699 38.9592 21.7454 36.7833 24.4295 36.7833C27.1133 36.7833 29.2887 38.9592 29.2887 41.6429C29.2856 44.3255 27.1117 46.4994 24.4295 46.5025ZM43.7241 46.5025C41.0404 46.5025 38.8645 44.3267 38.8645 41.6429C38.8645 38.9592 41.0404 36.7833 43.7241 36.7833C46.4079 36.7833 48.5833 38.9592 48.5833 41.6429C48.5806 44.3255 46.4067 46.4994 43.7241 46.5025Z" fill="#6A737C"/>
<path d="M45.3335 39.8689L43.1213 41.8954L42.1569 40.8496C41.8916 40.5618 41.4434 40.5436 41.1557 40.8088C40.8683 41.0741 40.8502 41.5223 41.1154 41.81L42.5584 43.3748C42.8228 43.6618 43.2699 43.6803 43.5576 43.4167L46.2904 40.9136C46.5789 40.6496 46.5983 40.2013 46.3343 39.9128C46.0698 39.6243 45.622 39.6049 45.3335 39.8689Z" fill="#6A737C"/>
</svg>
