<svg width="50" height="51" viewBox="0 0 50 51" fill="none" xmlns="http://www.w3.org/2000/svg">
<path d="M16.7969 39.3508H29.6584C30.063 39.3508 30.3908 39.0229 30.3908 38.6184C30.3908 38.2139 30.063 37.886 29.6584 37.886H16.7969C16.3923 37.886 16.0645 38.2139 16.0645 38.6184C16.0645 39.0229 16.3923 39.3508 16.7969 39.3508Z" fill="#6A737C"/>
<path d="M16.7969 34.9695H29.6584C30.063 34.9695 30.3908 34.6416 30.3908 34.2371C30.3908 33.8326 30.063 33.5046 29.6584 33.5046H16.7969C16.3923 33.5046 16.0645 33.8326 16.0645 34.2371C16.0645 34.6416 16.3923 34.9695 16.7969 34.9695Z" fill="#6A737C"/>
<path d="M21.7527 20.0347H20.0702C18.8009 20.0347 18.2227 18.756 18.2227 17.568C18.2227 16.8872 18.4086 16.2358 18.733 15.781C19.0638 15.317 19.5137 15.0818 20.0702 15.0818H21.4606C21.8652 15.0818 22.1931 14.7539 22.1931 14.3494C22.1931 13.9449 21.8652 13.6169 21.4606 13.6169H20.0702C19.0428 13.6169 18.1441 14.0834 17.5402 14.9306C17.0357 15.6382 16.7578 16.5749 16.7578 17.568C16.7578 19.5217 17.8956 21.4996 20.0702 21.4996H21.7527C22.1573 21.4996 22.4852 21.1716 22.4852 20.7671C22.4852 20.3626 22.1572 20.0347 21.7527 20.0347Z" fill="#6A737C"/>
<path d="M29.0477 13.6577C28.6652 13.525 28.2482 13.7273 28.1155 14.1095L26.4507 18.9073L24.786 14.1095C24.6533 13.7274 24.2363 13.5252 23.8538 13.6577C23.4717 13.7903 23.2694 14.2076 23.402 14.5897L25.571 20.8406C25.5757 20.854 25.5807 20.8671 25.5861 20.8801C25.7425 21.2586 26.0696 21.4965 26.4402 21.5009C26.4438 21.5009 26.4475 21.501 26.4511 21.501C26.8209 21.501 27.1408 21.2756 27.3083 20.8963C27.3164 20.878 27.3238 20.8594 27.3304 20.8405L29.4994 14.5896C29.6321 14.2076 29.4298 13.7903 29.0477 13.6577Z" fill="#6A737C"/>
<path d="M48.285 33.8849L42.2485 28.5677V19.5071C42.2485 19.1026 41.9207 18.7747 41.5161 18.7747C41.1115 18.7747 40.7837 19.1026 40.7837 19.5071V27.2774L39.2537 25.9296C38.8179 25.5444 38.2559 25.3526 37.6728 25.3892C37.0883 25.4259 36.5542 25.6875 36.1693 26.1252L35.414 26.9834L32.9526 24.815C36.8673 19.7928 36.2371 12.503 31.3971 8.24194C28.964 6.09722 25.8416 5.02905 22.6055 5.23472C19.3696 5.44019 16.4075 6.89399 14.2646 9.32837L14.2648 9.32817C9.84004 14.3514 10.3272 22.0406 15.3508 26.4689C17.5867 28.4385 20.4039 29.4996 23.3567 29.4996C23.6176 29.4996 23.8799 29.4913 24.1426 29.4746C27.1342 29.2846 29.8916 28.027 31.985 25.9147L34.4462 28.0831L33.689 28.9433C33.6889 28.9434 33.6889 28.9435 33.6888 28.9435C32.8932 29.8482 32.9814 31.2316 33.8853 32.027L40.7839 38.1056V44.3457H7.0873V1.47583H33.5109L33.5062 5.27788C33.5062 7.00708 34.9139 8.41382 36.6441 8.41382H40.7838V16.1104C40.7838 16.5149 41.1116 16.8428 41.5162 16.8428C41.9208 16.8428 42.2486 16.5149 42.2486 16.1104V7.81489C42.2486 7.78726 42.2477 7.7605 42.246 7.73442C42.2473 7.71685 42.2486 7.69927 42.2486 7.6814C42.2486 7.44946 42.1405 7.24311 41.9724 7.10894C41.9199 7.05122 41.8655 6.99985 41.8144 6.95181C41.779 6.9186 41.7377 6.87983 41.6895 6.83267C41.6872 6.83042 41.6849 6.82808 41.6825 6.82583L35.1339 0.581006L35.0355 0.486475C34.9178 0.372705 34.8021 0.262842 34.6673 0.176904C34.6021 0.130615 34.5292 0.0947754 34.4507 0.0717285C34.3453 0.0345215 34.2278 0.0109863 34.0885 0.0109863H6.95283C6.21924 0.0109863 5.62246 0.607861 5.62246 1.34155V4.20884H2.30596C1.57246 4.20884 0.975684 4.80698 0.975684 5.54214V24.2057C0.975684 24.6102 1.30352 24.9381 1.70811 24.9381C2.1127 24.9381 2.44053 24.6102 2.44053 24.2057V5.67368H5.62246V44.4798C5.62246 45.2135 6.21924 45.8104 6.95283 45.8104H36.137V48.5461H2.4707C2.45771 48.5181 2.44756 48.4888 2.446 48.4716L2.44043 27.6049C2.44033 27.2004 2.1124 26.8726 1.70781 26.8727C1.30322 26.8728 0.975488 27.2008 0.975586 27.6053L0.981152 48.4718C0.981152 49.1146 1.48516 50.011 2.30586 50.011H36.2714C37.005 50.011 37.6018 49.4141 37.6018 48.6804V45.8103H40.9183C41.6518 45.8103 42.2485 45.2134 42.2485 44.4797V39.3961L42.9148 39.9833C43.3165 40.3367 43.8231 40.5271 44.3547 40.5271C44.402 40.5271 44.4495 40.5255 44.4972 40.5226C45.0804 40.4855 45.6135 40.224 45.998 39.7867L48.4777 36.9696C49.2749 36.0673 49.1889 34.6838 48.285 33.8849ZM24.0497 28.0125C21.2039 28.1932 18.4588 27.2546 16.3191 25.3698C11.9015 21.4755 11.4729 14.7136 15.364 10.2963C15.3641 10.2963 15.3641 10.2962 15.3642 10.2961C17.2484 8.15561 19.853 6.8772 22.6983 6.69653C22.9295 6.68188 23.1597 6.67456 23.3892 6.67456C25.9855 6.67456 28.463 7.60815 30.4288 9.34097C34.8471 13.2308 35.2769 19.9909 31.3871 24.4107C31.3869 24.4109 31.3867 24.4111 31.3865 24.4113C31.3863 24.4115 31.3861 24.4118 31.3859 24.412C29.5007 26.5533 26.8953 27.8319 24.0497 28.0125ZM39.6891 6.94897H36.6441C35.7217 6.94897 34.9711 6.19927 34.9711 5.27876L34.9746 2.45249L39.6891 6.94897ZM47.3791 36.0008L44.8984 38.8191C44.7722 38.9626 44.5966 39.0485 44.4041 39.0608C44.2112 39.0734 44.0264 39.0101 43.883 38.884L34.8532 30.9276C34.5553 30.6654 34.5263 30.2095 34.7885 29.9112L37.2691 27.0928C37.3955 26.9492 37.5716 26.8633 37.7648 26.8511C37.9582 26.8396 38.1414 26.9016 38.2845 27.028L47.3157 34.9833C47.6086 35.2421 47.638 35.7078 47.3791 36.0008Z" fill="#6A737C"/>
</svg>
