<svg width="18" height="19" viewBox="0 0 18 19" fill="none" xmlns="http://www.w3.org/2000/svg">
<path d="M14.8009 12.9644C14.3285 12.4885 13.1844 11.7939 12.6294 11.514C11.9065 11.1499 11.8471 11.1201 11.2789 11.5422C10.8999 11.8239 10.648 12.0756 10.2045 11.981C9.76094 11.8864 8.79716 11.353 7.95326 10.5118C7.10936 9.6706 6.54507 8.67886 6.45018 8.23683C6.35529 7.7948 6.61111 7.54582 6.89013 7.16596C7.28337 6.63052 7.25363 6.54129 6.91749 5.81845C6.65543 5.25624 5.94063 4.12291 5.4629 3.65292C4.95186 3.14812 4.95186 3.23736 4.62257 3.37419C4.35448 3.48699 4.09729 3.6241 3.85422 3.7838C3.37828 4.10001 3.11413 4.36266 2.92941 4.7574C2.74468 5.15213 2.66169 6.07754 3.61565 7.81056C4.56962 9.54358 5.23891 10.4297 6.6242 11.8111C8.00948 13.1926 9.0747 13.9353 10.6319 14.8087C12.5583 15.8876 13.2972 15.6773 13.6931 15.4928C14.089 15.3084 14.3529 15.0467 14.6697 14.5707C14.8298 14.328 14.9672 14.0711 15.0802 13.8033C15.2173 13.4752 15.3066 13.4752 14.8009 12.9644Z" stroke="#0050B3" stroke-miterlimit="10"/>
</svg>
