<svg width="70" height="71" viewBox="0 0 70 71" fill="none" xmlns="http://www.w3.org/2000/svg">
<g clip-path="url(#clip0)">
<path d="M11.4285 22.2583H38.4932C44.2386 22.2583 48.8962 26.9159 48.8962 32.6614V46.17C48.8962 51.9155 44.2386 56.5731 38.4932 56.5731H24.8929L18.3825 64.0124C16.4515 66.2189 12.817 64.8532 12.817 61.921V56.5731H11.4285C5.68299 56.5731 1.02539 51.9155 1.02539 46.17V32.6614C1.02539 26.9159 5.68299 22.2583 11.4285 22.2583Z" fill="#B3E59F"/>
<path d="M18.2588 64.1473C16.2996 66.1598 12.8174 64.7913 12.8174 61.9215V56.5731H11.4283C5.6834 56.5731 1.02539 51.9151 1.02539 46.1702V32.661C1.02539 26.9161 5.6834 22.2581 11.4283 22.2581H15.9701C10.2238 22.2581 5.56719 26.9161 5.56719 32.661V46.1702C5.56719 51.9151 10.2238 56.5731 15.9701 56.5731H17.3592V61.9215C17.3592 62.8362 17.7133 63.5991 18.2588 64.1473Z" fill="#95D6A4"/>
<path d="M58.5715 5.26422H31.5067C25.7612 5.26422 21.1036 9.92182 21.1036 15.6673V29.1759C21.1036 34.9214 25.7612 39.579 31.5067 39.579H45.1069L51.6173 47.0183C53.5483 49.2248 57.1828 47.8591 57.1828 44.9269V39.579H58.5715C64.317 39.579 68.9746 34.9214 68.9746 29.1759V15.6673C68.9746 9.92182 64.317 5.26422 58.5715 5.26422Z" fill="#F9F6F9"/>
<path d="M36.4503 39.5789H31.5065C25.7616 39.5789 21.1036 34.9209 21.1036 29.176V15.6668C21.1036 9.92192 25.7616 5.26392 31.5065 5.26392H36.4503C30.7053 5.26392 26.0473 9.92192 26.0473 15.6668V29.176C26.0473 34.9209 30.7053 39.5789 36.4503 39.5789Z" fill="#DDDAEC"/>
<path d="M55.8464 24.3421L54.4314 23.5259C54.4656 23.2018 54.482 22.8737 54.482 22.5428C54.482 22.2106 54.4656 21.8825 54.4314 21.5598L55.8464 20.7423C56.9197 20.1229 57.2861 18.7516 56.6667 17.6784L55.0644 14.9044C54.4451 13.8311 53.0738 13.4634 52.0019 14.0827L50.5869 14.9003C50.0578 14.5147 49.4876 14.1839 48.8847 13.9145V12.2835C48.8847 11.0448 47.8798 10.0399 46.6412 10.0399H43.4365C42.1978 10.0399 41.1943 11.0448 41.1943 12.2835V13.9145C40.5914 14.1839 40.0212 14.5147 39.4921 14.9003L38.0771 14.0827C37.0039 13.4634 35.6326 13.8311 35.0132 14.9044L33.4109 17.6784C32.7916 18.7516 33.1593 20.1229 34.2326 20.7423L35.6462 21.5598C35.6134 21.8825 35.5957 22.2106 35.5957 22.5428C35.5957 22.8737 35.6134 23.2018 35.6462 23.5259L34.2326 24.3421C33.1593 24.9614 32.7916 26.3327 33.4109 27.4059L35.0132 30.1813C35.6326 31.2532 37.0039 31.621 38.0771 31.0016L39.4921 30.1854C40.0212 30.5696 40.5914 30.9005 41.1943 31.1698V32.8022C41.1943 34.0409 42.1978 35.0444 43.4365 35.0444H46.6412C47.8798 35.0444 48.8847 34.0409 48.8847 32.8022V31.1698C49.4876 30.9005 50.0578 30.5696 50.5869 30.1854L52.0019 31.0016C53.0738 31.621 54.4451 31.2532 55.0644 30.1813L56.6667 27.4059C57.2861 26.3327 56.9197 24.9614 55.8464 24.3421ZM45.0388 27.812C42.1294 27.812 39.7697 25.4522 39.7697 22.5428C39.7697 19.6321 42.1294 17.2737 45.0388 17.2737C47.9496 17.2737 50.308 19.6321 50.308 22.5428C50.308 25.4522 47.9496 27.812 45.0388 27.812Z" fill="#6B61B1"/>
<path d="M36.5938 30.1806L34.9914 27.4055C34.3721 26.3329 34.7399 24.9609 35.8124 24.3416L37.2272 23.5251C37.1934 23.2022 37.1763 22.8741 37.1763 22.5421C37.1763 22.21 37.1934 21.882 37.2272 21.5591L35.8124 20.7426C34.7399 20.1233 34.3721 18.7513 34.9914 17.6787L36.5938 14.9036C36.8638 14.4359 37.2768 14.1025 37.7456 13.9261C36.7362 13.5446 35.5704 13.9387 35.0132 14.9036L33.4108 17.6787C32.7915 18.7513 33.1592 20.1233 34.2318 20.7426L35.6466 21.5591C35.6128 21.882 35.5957 22.2102 35.5957 22.5421C35.5957 22.8742 35.6128 23.2022 35.6466 23.5251L34.2318 24.3416C33.1592 24.9609 32.7915 26.3329 33.4108 27.4055L35.0132 30.1806C35.5703 31.1455 36.7362 31.5396 37.7456 31.1581C37.2768 30.9819 36.8638 30.6483 36.5938 30.1806Z" fill="#5E54AC"/>
<path d="M45.017 35.0443H43.4368C42.1982 35.0443 41.194 34.0401 41.194 32.8015V31.1695C40.5908 30.9003 40.0208 30.5693 39.4919 30.185L40.3332 29.6995C40.862 30.0838 42.1709 30.9004 42.7743 31.1695V32.8015C42.7743 34.0401 43.7783 35.0443 45.017 35.0443Z" fill="#5E54AC"/>
<path d="M45.017 10.0402H43.4368C42.1982 10.0402 41.194 11.0444 41.194 12.2831V13.9151C40.5908 14.1843 40.0208 14.5153 39.4919 14.8996L40.3332 15.3851C40.862 15.0008 42.1709 14.1842 42.7743 13.9151V12.283C42.7743 11.0444 43.7783 10.0402 45.017 10.0402Z" fill="#5E54AC"/>
<path d="M67.3921 8.40125C67.0317 7.96457 66.3854 7.90263 65.9485 8.26289C65.5117 8.62328 65.4497 9.26955 65.8101 9.7065C67.1896 11.3782 67.9492 13.495 67.9492 15.6669V29.1761C67.9492 34.3468 63.7425 38.5536 58.5717 38.5536H57.1826C56.6163 38.5536 56.1572 39.0127 56.1572 39.579V44.9274C56.1572 46.0246 55.4374 46.6862 54.7639 46.9394C54.0899 47.1927 53.1119 47.1689 52.3884 46.3426L45.8793 38.9037C45.6846 38.6813 45.4033 38.5536 45.1076 38.5536H31.5068C26.336 38.5536 22.1293 34.3468 22.1293 29.1761V15.6669C22.1293 10.4961 26.3361 6.28935 31.5068 6.28935H58.5717C60.1091 6.28935 61.6321 6.66916 62.9758 7.38775C63.475 7.65476 64.0964 7.4665 64.3635 6.96707C64.6305 6.46763 64.4422 5.84638 63.9428 5.57937C62.3025 4.70232 60.4451 4.23871 58.5715 4.23871H31.5068C25.2052 4.23871 20.0785 9.36539 20.0785 15.667V21.2328H11.4283C5.12668 21.2328 0 26.3595 0 32.6612V46.1703C0 52.472 5.12668 57.5987 11.4283 57.5987H11.792V61.9203C11.792 63.6877 12.8609 65.2314 14.515 65.8532C15.0056 66.0376 15.5105 66.127 16.0088 66.127C17.1913 66.127 18.3358 65.6231 19.1548 64.6874L25.3576 57.5987H27.7088C28.2751 57.5987 28.7342 57.1396 28.7342 56.5733C28.7342 56.007 28.2751 55.5479 27.7088 55.5479H24.8924C24.5967 55.5479 24.3154 55.6756 24.1207 55.898L17.6117 63.3366C16.8882 64.1629 15.9104 64.187 15.2365 63.9335C14.5627 63.6803 13.8428 63.0185 13.8428 61.9203V56.5733C13.8428 56.007 13.3837 55.5479 12.8174 55.5479H11.4283C6.25748 55.5479 2.05078 51.341 2.05078 46.1703V32.6612C2.05078 27.4903 6.25748 23.2836 11.4283 23.2836H20.0785V29.1762C20.0785 35.4778 25.2053 40.6045 31.5068 40.6045H44.6424L47.8707 44.294V46.1703C47.8707 51.3412 43.6639 55.5479 38.4932 55.5479H31.8076C31.2413 55.5479 30.7822 56.007 30.7822 56.5733C30.7822 57.1396 31.2413 57.5987 31.8076 57.5987H38.4932C44.6425 57.5987 49.6703 52.7162 49.91 46.6245L50.8453 47.6934C51.6645 48.6291 52.8087 49.1329 53.9913 49.1329C54.4897 49.1329 54.995 49.0434 55.4854 48.8591C57.1393 48.2374 58.208 46.6941 58.208 44.9274V40.6044H58.5717C64.8733 40.6044 70 35.4777 70 29.1761V15.6669C70 13.0197 69.0739 10.4394 67.3921 8.40125Z" fill="#171D24"/>
<path d="M19.1378 44.2227V44.2871C19.1378 44.8533 19.5969 45.3124 20.1631 45.3124C20.7294 45.3124 21.1885 44.8533 21.1885 44.2871V44.2227C21.1885 43.6564 20.7294 43.1973 20.1631 43.1973C19.5969 43.1973 19.1378 43.6564 19.1378 44.2227Z" fill="#171D24"/>
<path d="M24.0811 44.2227V44.2871C24.0811 44.8533 24.5402 45.3124 25.1065 45.3124C25.6728 45.3124 26.1319 44.8533 26.1319 44.2871V44.2227C26.1319 43.6564 25.6728 43.1973 25.1065 43.1973C24.5402 43.1973 24.0811 43.6564 24.0811 44.2227Z" fill="#171D24"/>
<path d="M30.7841 44.2227C30.7841 43.6564 30.325 43.1973 29.7587 43.1973C29.1924 43.1973 28.7333 43.6564 28.7333 44.2227V44.2871C28.7333 44.8533 29.1924 45.3124 29.7587 45.3124C30.325 45.3124 30.7841 44.8533 30.7841 44.2871V44.2227Z" fill="#171D24"/>
<path d="M57.8819 19.6463C58.1079 18.8031 57.992 17.9224 57.5554 17.1663L55.9532 14.3912C55.5168 13.6352 54.812 13.0944 53.9688 12.8684C53.1253 12.6425 52.2447 12.7584 51.4888 13.1949L50.6298 13.6908C50.3952 13.5425 50.1548 13.4033 49.9097 13.2741V12.283C49.9097 10.4809 48.4435 9.01489 46.6414 9.01489H43.4369C41.6348 9.01489 40.1686 10.4811 40.1686 12.283V13.2741C39.9235 13.4033 39.683 13.5423 39.4485 13.6908L38.5895 13.1949C37.0289 12.294 35.0261 12.8304 34.1251 14.3912L32.5229 17.1663C32.0865 17.9224 31.9704 18.8031 32.1964 19.6463C32.4224 20.4894 32.9631 21.1942 33.7192 21.6308L34.5786 22.1269C34.5731 22.2658 34.5704 22.4044 34.5704 22.5425C34.5704 22.6805 34.5731 22.8193 34.5786 22.958L33.7192 23.4542C32.1586 24.3553 31.6219 26.3579 32.5229 27.9186L34.1251 30.6938C35.0262 32.2542 37.0289 32.791 38.5895 31.89L39.4485 31.3941C39.6831 31.5426 39.9235 31.6816 40.1688 31.8108V32.8018C40.1688 34.6039 41.6349 36.07 43.437 36.07H46.6414C48.4435 36.07 49.9097 34.6039 49.9097 32.8018V31.8108C50.1548 31.6816 50.3952 31.5426 50.6298 31.3941L51.4888 31.89C53.0496 32.7908 55.0521 32.2543 55.9532 30.6937L57.5554 27.9186C57.992 27.1625 58.1079 26.2818 57.8819 25.4386C57.6561 24.5955 57.1152 23.8907 56.3591 23.4542L55.4996 22.958C55.5051 22.8193 55.5078 22.6806 55.5078 22.5425C55.5078 22.4044 55.5051 22.2658 55.4996 22.127L56.3591 21.6308C57.1152 21.1942 57.6559 20.4894 57.8819 19.6463ZM55.901 19.1155C55.8168 19.4296 55.6154 19.6921 55.3337 19.8548L53.919 20.6717C53.5687 20.8739 53.3701 21.263 53.4118 21.6652C53.4418 21.9556 53.457 22.2508 53.457 22.5425C53.457 22.8343 53.4418 23.1296 53.4118 23.4199C53.3701 23.8221 53.5687 24.2112 53.919 24.4134L55.3337 25.2301C55.6154 25.3927 55.8168 25.6553 55.901 25.9694C55.9852 26.2834 55.942 26.6116 55.7793 26.8932L54.1771 29.6683C53.8415 30.2495 53.0954 30.4495 52.5141 30.1139L51.0987 29.2967C50.7479 29.0942 50.3107 29.1172 49.983 29.3554C49.5087 29.7002 48.9983 29.9955 48.4661 30.2331C48.0965 30.398 47.8587 30.7648 47.8587 31.1695V32.8016C47.8587 33.4729 47.3125 34.0191 46.6412 34.0191H43.4369C42.7656 34.0191 42.2194 33.4729 42.2194 32.8016V31.1695C42.2194 30.7649 41.9815 30.398 41.612 30.2331C41.0795 29.9955 40.5692 29.7002 40.0949 29.3554C39.916 29.2252 39.7043 29.1593 39.4919 29.1593C39.3154 29.1593 39.1385 29.2048 38.9792 29.2967L37.564 30.1139C36.9824 30.4495 36.2366 30.2496 35.901 29.6683L34.2987 26.8932C33.9631 26.3119 34.1631 25.5658 34.7444 25.2301L36.1592 24.4134C36.5095 24.2112 36.7081 23.8221 36.6664 23.4199C36.6364 23.1292 36.6211 22.8339 36.6211 22.5425C36.6211 22.2512 36.6364 21.9559 36.6664 21.6651C36.7081 21.2628 36.5095 20.8737 36.1592 20.6715L34.7444 19.8548C34.4628 19.6922 34.2614 19.4297 34.1772 19.1155C34.093 18.8014 34.1362 18.4734 34.2987 18.1917L35.901 15.4166C36.2366 14.8353 36.9827 14.6351 37.564 14.971L38.9793 15.7882C39.3301 15.9908 39.7675 15.9677 40.0951 15.7296C40.5691 15.3849 41.0795 15.0894 41.612 14.8518C41.9814 14.6868 42.2193 14.3201 42.2193 13.9154V12.2832C42.2193 11.6119 42.7655 11.0658 43.4368 11.0658H46.6412C47.3125 11.0658 47.8587 11.612 47.8587 12.2832V13.9153C47.8587 14.3199 48.0965 14.6867 48.466 14.8517C48.9985 15.0893 49.5087 15.3848 49.983 15.7294C50.3107 15.9677 50.7479 15.9908 51.0987 15.7881L52.5141 14.9709C52.7957 14.8084 53.1237 14.7651 53.4379 14.8492C53.7519 14.9334 54.0144 15.1348 54.1771 15.4165L55.7793 18.1916C55.942 18.4734 55.9852 18.8014 55.901 19.1155Z" fill="#171D24"/>
<path d="M45.0391 16.2476C41.5682 16.2476 38.7445 19.0714 38.7445 22.5423C38.7445 26.0132 41.5682 28.837 45.0391 28.837C48.51 28.837 51.3338 26.0132 51.3338 22.5423C51.3338 19.0714 48.51 16.2476 45.0391 16.2476ZM45.0391 26.7862C42.699 26.7862 40.7952 24.8824 40.7952 22.5423C40.7952 20.2022 42.699 18.2984 45.0391 18.2984C47.3792 18.2984 49.283 20.2022 49.283 22.5423C49.283 24.8824 47.3792 26.7862 45.0391 26.7862Z" fill="#171D24"/>
</g>
<defs>
<clipPath id="clip0">
<rect width="70" height="70" fill="white" transform="translate(0 0.182861)"/>
</clipPath>
</defs>
</svg>
