<svg width="70" height="71" viewBox="0 0 70 71" fill="none" xmlns="http://www.w3.org/2000/svg">
<g clip-path="url(#clip0)">
<path d="M32.4483 36.9656C33.5458 37.7587 34.8953 38.2264 36.3544 38.2264H48.8359V44.2784L56.7479 38.2264H60.1611C63.8406 38.2264 66.8235 35.2527 66.8235 31.5844V7.85031C66.8235 4.18203 63.8406 1.20837 60.1611 1.20837H36.3544C32.6749 1.20837 29.6921 4.18203 29.6921 7.85031V36.9656H32.4483Z" fill="#F7F3F1"/>
<path d="M60.1611 1.20837H54.4547C58.1342 1.20837 61.117 4.18216 61.117 7.85031V31.5844C61.117 35.2527 58.1342 38.2264 54.4547 38.2264H51.0415L48.8359 39.9134V44.2784L56.7478 38.2264H60.1611C63.8406 38.2264 66.8234 35.2527 66.8234 31.5844V7.85031C66.8235 4.18216 63.8407 1.20837 60.1611 1.20837Z" fill="#EBE1DC"/>
<path d="M43.1241 28.491L43.8108 29.0468C44.8995 29.9281 46.2578 30.409 47.6584 30.409H57.4068C58.3309 30.409 59.075 29.6381 59.031 28.7043C58.9898 27.8297 59.0329 19.8648 59.0329 18.9669C59.0329 18.0689 58.3049 17.3408 57.4068 17.3408L50.7965 17.3208L51.6058 15.404C52.4467 13.4123 52.3108 11.1421 51.2381 9.265C50.9348 8.73418 50.2524 8.55997 49.7317 8.88035C49.4117 9.07726 49.2167 9.42608 49.2167 9.80183C49.2167 11.5208 48.5891 13.1805 47.4518 14.4694L43.2367 19.239H41.7001V28.4908H43.1241V28.491Z" fill="#FFD36C"/>
<path d="M42.466 29.9577H38.0153C37.7212 29.9577 37.4826 29.7193 37.4826 29.425V18.0792C37.4826 17.785 37.7211 17.5465 38.0153 17.5465H42.466C42.7603 17.5465 42.9988 17.785 42.9988 18.0792V29.425C42.9986 29.7191 42.7602 29.9577 42.466 29.9577Z" fill="#8EE6F3"/>
<path d="M32.4579 48.8599V24.9058C32.4579 22.0131 30.1057 19.668 27.204 19.668H8.43033C5.52874 19.668 3.17642 22.0131 3.17642 24.9058V43.6221C3.17642 46.5148 5.5286 48.8599 8.43033 48.8599H18.7438V53.6772L24.9831 48.8599H32.4579Z" fill="#4ED5EA"/>
<path d="M27.2041 19.668H19.7643C22.6659 19.668 25.0182 22.0131 25.0182 24.9058V48.8599H32.458V24.9058C32.4579 22.0131 30.1057 19.668 27.2041 19.668Z" fill="#42C7DB"/>
<path d="M42.621 45.0328H29.2983C27.2391 45.0328 25.5698 46.6969 25.5698 48.7498V62.0318C25.5698 64.0846 27.2391 65.7487 29.2983 65.7487H36.6172V69.1675L41.0449 65.7489H42.621C44.6801 65.7489 46.3494 64.0848 46.3494 62.0319V48.7499C46.3493 46.6971 44.68 45.0328 42.621 45.0328Z" fill="#FA9084"/>
<path d="M42.621 45.0328H36.878C38.9371 45.0328 40.6064 46.6969 40.6064 48.7498V62.0319C40.6064 64.0848 38.9371 65.7489 36.878 65.7489H36.6172V69.1675L41.045 65.7489H42.621C44.6802 65.7489 46.3495 64.0848 46.3495 62.0319V48.7498C46.3493 46.6971 44.6802 45.0328 42.621 45.0328Z" fill="#E67E73"/>
<path d="M35.9595 59.9038C39.1655 58.2042 40.8264 56.7581 40.8264 54.5178C40.8264 51.4276 37.041 50.655 35.9595 52.9728C34.7234 50.5779 31.0926 51.4277 31.0926 54.5178C31.0926 56.7581 32.7535 58.2041 35.9595 59.9038Z" fill="#F7F3F1"/>
<path d="M60.1613 0.182861H57.1517C55.8287 0.182861 55.8287 2.23394 57.1517 2.23394H60.1613C63.2694 2.23394 65.7981 4.75348 65.7981 7.85034V31.5843C65.7981 34.6813 63.2695 37.2009 60.1613 37.2009H56.7479C56.5227 37.2009 56.3038 37.275 56.1248 37.4118L49.8613 42.2029V38.2264C49.8613 37.66 49.4023 37.2009 48.8358 37.2009H36.3543C35.3322 37.2009 34.3498 36.9311 33.4834 36.4182V24.9059C33.4834 22.7495 32.3852 20.8443 30.7174 19.7172V7.85034C30.7174 4.75348 33.2461 2.23394 36.3543 2.23394H50.725C52.0478 2.23394 52.0478 0.182861 50.725 0.182861H36.3543C32.1151 0.182861 28.6663 3.62252 28.6663 7.85034V18.8158C28.1967 18.7037 27.7075 18.6426 27.204 18.6426H8.43034C4.96798 18.6426 2.15103 21.4523 2.15103 24.9059V27.1203C2.15103 28.4432 4.20211 28.4432 4.20211 27.1203V24.9059C4.20211 22.5832 6.09881 20.6936 8.43034 20.6936H27.2041C29.5357 20.6936 31.4325 22.5832 31.4325 24.9059V36.8265C31.4202 36.917 31.4207 37.0082 31.4325 37.098V43.6221C31.4325 43.751 31.4247 43.8794 31.4131 44.0071H29.2982C26.9677 44.0071 25.0249 45.6892 24.6221 47.8998C24.5288 47.935 24.4393 47.9841 24.3563 48.048L19.7694 51.5897V48.8599C19.7694 48.2935 19.3104 47.8343 18.7438 47.8343H8.43034C6.09881 47.8343 4.20211 45.9447 4.20211 43.6221V33.2736C4.20211 31.9508 2.15103 31.9508 2.15103 33.2736V43.6222C2.15103 47.0758 4.96798 49.8855 8.43034 49.8855H17.7184V53.6773C17.7184 54.4999 18.7173 54.9934 19.3708 54.4891L24.5443 50.4946V62.0319C24.5443 64.647 26.677 66.7744 29.2983 66.7744H35.5917V69.1674C35.5917 69.9898 36.5906 70.4838 37.2439 69.9793L41.3947 66.7744H42.621C45.2423 66.7744 47.375 64.6469 47.375 62.0319V60.2111C47.375 58.8883 45.3239 58.8883 45.3239 60.2111V62.0319C45.3239 63.516 44.1115 64.7233 42.621 64.7233H41.0448C40.818 64.7233 40.5975 64.7985 40.4181 64.937L37.6426 67.0799V65.7487C37.6426 65.1823 37.1836 64.7232 36.6171 64.7232H29.2982C27.8078 64.7232 26.5952 63.5158 26.5952 62.0317V48.7498C26.5952 47.2656 27.8077 46.0584 29.2982 46.0584H42.621C44.1113 46.0584 45.3239 47.2658 45.3239 48.7498V53.7844C45.3239 55.1072 47.375 55.1072 47.375 53.7844V48.7499C47.375 46.1348 45.2423 44.0074 42.621 44.0074H33.4718C33.4796 43.8793 33.4836 38.6995 33.4836 38.6995C34.3878 39.0631 35.3573 39.2521 36.3544 39.2521H47.8104V44.2786C47.8104 45.0991 48.805 45.5932 49.459 45.0931L57.0953 39.2521H60.1614C64.4005 39.2521 67.8493 35.8124 67.8493 31.5845V7.85034C67.8491 3.62252 64.4003 0.182861 60.1613 0.182861V0.182861Z" fill="#171D24"/>
<path d="M50.8202 7.75969C49.5181 7.42728 48.1912 8.4561 48.1912 9.80161C48.1912 11.2717 47.6554 12.6884 46.6834 13.7901L43.8578 16.9875C43.6748 16.7068 43.3587 16.5209 42.9987 16.5209H37.4826C36.9161 16.5209 36.4571 16.9801 36.4571 17.5465V29.9576C36.4571 30.5239 36.9161 30.9831 37.4826 30.9831H42.9987C43.4131 30.9831 43.7692 30.7368 43.9309 30.3832C45.0477 31.0655 46.3418 31.4345 47.6584 31.4345H57.4068C58.8964 31.4345 60.1253 30.1419 60.0554 28.6561C60.0244 27.9981 60.0583 19.163 60.0583 18.9668C60.0583 17.5048 58.8688 16.3151 57.4098 16.3151L52.3405 16.3L52.5504 15.8029C53.5096 13.5313 53.3517 10.8972 52.1284 8.75624C51.8429 8.25605 51.3781 7.90231 50.8202 7.75969C51.3781 7.90231 50.2621 7.61721 50.8202 7.75969C51.3781 7.90231 49.5182 7.42728 50.8202 7.75969ZM41.9731 28.932H38.5082V18.572H41.9731V28.932ZM57.4068 18.3661C57.738 18.3661 58.0074 18.6355 58.0074 18.9666C58.0074 19.1618 58.0053 19.6914 58.0026 20.4094C57.9874 24.3737 57.9773 28.1283 58.0065 28.7523C58.0172 28.9775 57.9077 29.1277 57.8415 29.1971C57.7269 29.3172 57.5725 29.3832 57.4068 29.3832H47.6584C46.4964 29.3832 45.3592 28.9806 44.4559 28.2494L44.0242 27.8999V19.8965L48.2208 15.1477C49.5244 13.6704 50.2423 11.7717 50.2423 9.80147C50.2423 9.7435 50.3214 9.72845 50.3477 9.77358C51.2559 11.3629 51.3729 13.3184 50.6609 15.0048L49.8516 16.9217C49.718 17.238 49.7516 17.5999 49.9407 17.8863C50.1301 18.1726 50.4501 18.3452 50.7932 18.3463L57.4068 18.3661Z" fill="#171D24"/>
<path d="M10.9324 35.8028C10.3659 35.8028 9.90686 36.262 9.90686 36.8284C9.90686 37.3947 10.3659 37.8539 10.9324 37.8539H13.9554L13.3907 41.2695C13.2982 41.8282 13.6765 42.3562 14.2352 42.4486C14.2919 42.458 14.3481 42.4626 14.4036 42.4626C14.8964 42.4626 15.3311 42.1063 15.4143 41.6041L16.0343 37.8541H18.5083L17.9435 41.2696C17.8511 41.8284 18.2293 42.3563 18.788 42.4487C18.8448 42.4582 18.901 42.4627 18.9565 42.4627C19.4493 42.4627 19.884 42.1065 19.9671 41.6042L20.5871 37.8542H24.702C25.2685 37.8542 25.7275 37.395 25.7275 36.8287C25.7275 36.2623 25.2685 35.8031 24.702 35.8031H20.9262L21.3398 33.3013H24.702C25.2685 33.3013 25.7275 32.8422 25.7275 32.2758C25.7275 31.7094 25.2685 31.2503 24.702 31.2503H21.679L22.2437 27.8347C22.3361 27.276 21.9579 26.748 21.3992 26.6556C20.8398 26.5629 20.3125 26.9414 20.2201 27.5001L19.6001 31.2501H17.1261L17.6908 27.8345C17.7833 27.2758 17.4051 26.7479 16.8463 26.6555C16.2863 26.5627 15.7598 26.9412 15.6672 27.4999L15.0473 31.25H10.9324C10.3659 31.25 9.90686 31.7092 9.90686 32.2755C9.90686 32.8419 10.3659 33.3011 10.9324 33.3011H14.7082L14.2945 35.8028H10.9324ZM16.7871 33.3011H19.2611L18.8475 35.8028H16.3735L16.7871 33.3011Z" fill="#171D24"/>
<path d="M35.9472 51.3498C35.1191 50.668 34.0174 50.3991 32.9123 50.6677C31.4961 51.0116 30.067 52.3356 30.067 54.5178C30.067 55.876 30.5627 57.0549 31.5824 58.1221C32.4152 58.9938 33.6172 59.8227 35.4793 60.8099C35.6296 60.8897 35.7946 60.9294 35.9596 60.9294C36.1247 60.9294 36.2897 60.8897 36.44 60.8099C39.6886 59.0877 41.8521 57.3586 41.8521 54.5178C41.8521 52.3237 40.3723 51.0133 38.9057 50.688C37.8038 50.4435 36.7356 50.703 35.9472 51.3498ZM39.8009 54.5178C39.8009 56.0501 38.7845 57.1832 35.9595 58.7383C33.1345 57.1831 32.118 56.0499 32.118 54.5178C32.118 53.3776 32.7781 52.811 33.3961 52.6609C33.51 52.6332 33.6319 52.6176 33.7573 52.6176C34.2221 52.6176 34.7331 52.8323 35.0481 53.4431C35.2277 53.7907 35.5906 54.0062 35.9799 53.9982C36.3708 53.9904 36.7235 53.7609 36.8888 53.4065C37.2206 52.6952 37.9186 52.5701 38.4611 52.6905C39.109 52.834 39.8009 53.3895 39.8009 54.5178Z" fill="#171D24"/>
</g>
<defs>
<clipPath id="clip0">
<rect width="70" height="70" fill="white" transform="translate(0 0.182861)"/>
</clipPath>
</defs>
</svg>
