<svg width="70" height="71" viewBox="0 0 70 71" fill="none" xmlns="http://www.w3.org/2000/svg">
<g clip-path="url(#clip0)">
<path d="M49.0279 1.20825H8.12917H8.12056C5.74179 1.20825 3.81323 3.13667 3.81323 5.51544V5.52405V59.0775V59.0861C3.81323 61.465 5.74165 63.3934 8.12056 63.3934H8.12917H49.0279C51.0738 63.3934 52.7323 61.7349 52.7323 59.689V4.91265C52.7323 2.86679 51.0738 1.20825 49.0279 1.20825Z" fill="#EBB044"/>
<path d="M49.028 1.20825H40.0974C42.1432 1.20825 43.8017 2.86679 43.8017 4.91265V59.689C43.8017 61.7349 42.1432 63.3934 40.0974 63.3934H49.028C51.0738 63.3934 52.7324 61.7349 52.7324 59.689V4.91265C52.7324 2.86679 51.0738 1.20825 49.028 1.20825Z" fill="#E29624"/>
<path d="M45.1171 6.97223H13.8932C11.5096 6.97223 9.57724 8.90447 9.57724 11.2882V64.8502C9.57724 67.229 11.5057 69.1575 13.8846 69.1575H54.7919C56.8378 69.1575 58.4963 67.499 58.4963 65.4531V20.3513C58.4963 19.3688 58.106 18.4265 57.4113 17.7319L47.7365 8.05709C47.0419 7.36242 46.0996 6.97223 45.1171 6.97223Z" fill="#FFFBE4"/>
<path d="M57.4113 17.7318L49.4756 9.79614V65.4528C49.4756 67.4987 47.817 69.1572 45.7712 69.1572H54.7917C56.8376 69.1572 58.4961 67.4987 58.4961 65.4528V20.3512C58.4963 19.3688 58.1059 18.4265 57.4113 17.7318Z" fill="#FBF4C6"/>
<path d="M57.4113 17.7319L47.7365 8.0571C47.4197 7.74032 47.0516 7.48698 46.6515 7.30487V16.5203C46.6515 17.7886 47.6798 18.8169 48.9481 18.8169H58.1634C57.9814 18.4168 57.7281 18.0486 57.4113 17.7319Z" fill="#EABC6B"/>
<path d="M62.596 30.5086L65.8741 27.2305C66.2922 26.8124 66.2922 26.1346 65.8741 25.7165L63.9094 23.7519C63.4913 23.3338 62.8135 23.3338 62.3953 23.7519L59.1171 27.0298L62.596 30.5086Z" fill="#5766CB"/>
<path d="M31.9489 61.8101L26.5524 63.8894C26.0421 64.086 25.5405 63.5844 25.7371 63.0742L27.8165 57.6776C28.1609 56.7839 28.6886 55.9723 29.3659 55.2951L57.9818 26.6792C58.5786 26.0824 59.5463 26.0824 60.1431 26.6792L62.9475 29.4836C63.5442 30.0804 63.5442 31.0481 62.9475 31.6448L34.3314 60.2608C33.6542 60.9379 32.8425 61.4657 31.9489 61.8101Z" fill="#DD636E"/>
<path d="M49.4756 45.1156L62.9473 31.6439C63.5441 31.0471 63.5441 30.0794 62.9473 29.4826L60.143 26.6782C59.5462 26.0815 58.5785 26.0815 57.9817 26.6782L49.4758 35.1842V45.1156H49.4756Z" fill="#DA4A54"/>
<path d="M31.949 61.8092L26.5524 63.8886C26.0421 64.0852 25.5405 63.5836 25.7371 63.0733L27.8165 57.6768C28.1609 56.783 28.6886 55.9715 29.3659 55.2943L34.3316 60.2599C33.6543 60.9371 32.8426 61.4648 31.949 61.8092Z" fill="#938BC6"/>
<path d="M20.9524 15.2975H15.165C14.5986 15.2975 14.1396 15.7566 14.1396 16.3229C14.1396 16.8892 14.5986 17.3483 15.165 17.3483H17.0216V26.8027C17.0216 27.369 17.4806 27.8281 18.047 27.8281C18.6134 27.8281 19.0724 27.369 19.0724 26.8027V17.3483H20.9524C21.5188 17.3483 21.9778 16.8892 21.9778 16.3229C21.9778 15.7566 21.5187 15.2975 20.9524 15.2975Z" fill="#171D24"/>
<path d="M26.3575 17.3483H40.7039C41.2704 17.3483 41.7293 16.8892 41.7293 16.3229C41.7293 15.7566 41.2704 15.2975 40.7039 15.2975H26.3575C25.7911 15.2975 25.3321 15.7566 25.3321 16.3229C25.3321 16.8892 25.7911 17.3483 26.3575 17.3483Z" fill="#171D24"/>
<path d="M26.3575 22.5881H40.7039C41.2704 22.5881 41.7293 22.129 41.7293 21.5627C41.7293 20.9965 41.2704 20.5374 40.7039 20.5374H26.3575C25.7911 20.5374 25.3321 20.9965 25.3321 21.5627C25.3321 22.129 25.7911 22.5881 26.3575 22.5881Z" fill="#171D24"/>
<path d="M26.3575 27.8281H40.7039C41.2704 27.8281 41.7293 27.369 41.7293 26.8027C41.7293 26.2364 41.2704 25.7773 40.7039 25.7773H26.3575C25.7911 25.7773 25.3321 26.2364 25.3321 26.8027C25.3321 27.369 25.7911 27.8281 26.3575 27.8281Z" fill="#171D24"/>
<path d="M66.5992 24.9914L64.6345 23.0269C63.8154 22.2076 62.4897 22.2074 61.6702 23.0268L59.5218 25.1752V20.3513C59.5218 19.0879 59.0297 17.9002 58.1366 17.0069L53.7577 12.6281V4.91265C53.7577 2.3046 51.6359 0.182861 49.0279 0.182861H8.1206C5.18019 0.182861 2.78802 2.57503 2.78802 5.52405V19.1556C2.78802 19.7219 3.24699 20.181 3.81342 20.181C4.37984 20.181 4.83881 19.7219 4.83881 19.1556V5.51544C4.83881 3.70597 6.31113 2.23364 8.12935 2.23364H49.0281C50.5053 2.23364 51.7071 3.4354 51.7071 4.91265V10.5773L48.4619 7.33216C47.5686 6.43884 46.3808 5.94692 45.1175 5.94692H13.8933C10.9481 5.94692 8.55209 8.34292 8.55209 11.2881V62.368H8.12074C6.31127 62.368 4.83894 60.8957 4.83894 59.0775V23.9741C4.83894 23.4078 4.37998 22.9487 3.81355 22.9487C3.24713 22.9487 2.78816 23.4078 2.78816 23.9741V59.0862C2.78816 62.0266 5.18033 64.4189 8.12935 64.4189H8.55209V64.8503C8.55209 67.7907 10.9443 70.1829 13.8848 70.1829H54.7921C57.4001 70.1829 59.5219 68.0611 59.5219 65.4531V43.456L63.672 39.3058C64.7655 38.2124 64.7656 36.4429 63.6722 35.3494L62.1822 33.8594L63.6726 32.3691C64.2256 31.8159 64.5201 31.0246 64.3872 30.1677L66.5993 27.9555C67.4163 27.1385 67.4163 25.8087 66.5992 24.9914ZM47.677 9.44774L52.0068 13.7775C52.007 13.7778 52.0073 13.778 52.0076 13.7783L56.0207 17.7914H48.9481C48.2471 17.7914 47.6769 17.2212 47.6769 16.5202V9.44774H47.677ZM62.222 36.7997C62.5137 37.0915 62.5139 37.5638 62.2219 37.8557L59.5218 40.5558V36.52L60.732 35.3097L62.222 36.7997ZM62.2223 30.919L60.0069 33.1344L40.9805 52.1609C40.5801 52.5613 40.5801 53.2106 40.9805 53.6109C41.3811 54.0114 42.0303 54.0114 42.4307 53.6109L57.471 38.5706V42.6064L52.8781 47.1993C52.4776 47.5998 52.4776 48.2491 52.8781 48.6494C53.2787 49.0498 53.9278 49.0498 54.3283 48.6494L57.4709 45.5066V65.4529C57.4709 66.9302 56.2691 68.1319 54.7919 68.1319H13.8847C12.0751 68.1319 10.6027 66.6598 10.6027 64.8501V11.2881C10.6027 9.47372 12.0789 7.9977 13.8931 7.9977H45.1172C45.2901 7.9977 45.4601 8.01479 45.6262 8.04651V16.5203C45.6262 18.3521 47.1165 19.8423 48.9482 19.8423H57.4222C57.4539 20.0084 57.471 20.1785 57.471 20.3513V25.7633C57.2374 25.9504 59.0375 24.1826 28.6407 54.5693C27.8575 55.3527 27.2581 56.2742 26.8598 57.3082L24.7805 62.7048C24.5452 63.3152 24.6921 64.0086 25.1545 64.4713C25.6196 64.9363 26.3134 65.0798 26.9211 64.8456L32.3178 62.7663C33.3518 62.3679 34.2733 61.7686 35.0567 60.9851L39.049 56.9928C39.4494 56.5923 39.4494 55.9431 39.049 55.5427C38.6485 55.1424 37.9994 55.1422 37.5988 55.5427L34.3316 58.8099L30.8162 55.2945L58.7069 27.4036C58.9027 27.2076 59.2217 27.2074 59.4179 27.4036L62.2224 30.2081C62.4156 30.4014 62.4216 30.7197 62.2223 30.919ZM29.431 56.8096L32.8164 60.1949C32.4341 60.4613 32.0216 60.6824 31.5806 60.8525L27.014 62.6121L28.7735 58.0455C28.9434 57.6043 29.1644 57.1918 29.431 56.8096ZM65.149 26.5056L63.2846 28.37L61.2559 26.3413L63.1204 24.4768C63.1376 24.4593 63.166 24.4585 63.1844 24.4768L65.149 26.4413C65.1666 26.4591 65.1666 26.488 65.149 26.5056Z" fill="#171D24"/>
</g>
<defs>
<clipPath id="clip0">
<rect width="70" height="70" fill="white" transform="translate(0 0.182861)"/>
</clipPath>
</defs>
</svg>
