<svg width="18" height="19" viewBox="0 0 18 19" fill="none" xmlns="http://www.w3.org/2000/svg">
<path d="M15.525 6.4881L9.38215 3.45623C9.26329 3.39759 9.13253 3.3671 9 3.3671C8.86747 3.3671 8.73671 3.39759 8.61785 3.45623L2.475 6.4881C2.2395 6.60349 2.04096 6.78243 1.90181 7.00471C1.76265 7.22699 1.68842 7.48375 1.6875 7.74599V14.2362C1.6875 15.0128 2.32523 15.6424 3.11203 15.6424H14.8894C15.6762 15.6424 16.3139 15.0128 16.3139 14.2362V7.74599C16.3129 7.4836 16.2384 7.22673 16.099 7.00444C15.9596 6.78215 15.7608 6.60329 15.525 6.4881V6.4881Z" stroke="#0050B3" stroke-linecap="round" stroke-linejoin="round"/>
<path d="M14.0625 13.3925L9.5182 9.85785C9.37009 9.74265 9.18781 9.6801 9.00018 9.6801C8.81254 9.6801 8.63026 9.74265 8.48215 9.85785L3.9375 13.3925M10.9687 10.826L15.75 7.20496M2.25 7.20496L7.13672 10.8964" stroke="#0050B3" stroke-linecap="round" stroke-linejoin="round"/>
</svg>
