<svg width="50" height="51" viewBox="0 0 50 51" fill="none" xmlns="http://www.w3.org/2000/svg">
<g clip-path="url(#clip0)">
<path d="M27.1973 47.4342H22.8027C22.3982 47.4342 22.0703 47.1063 22.0703 46.7018C22.0703 46.2973 22.3982 45.9694 22.8027 45.9694H27.1973C27.6018 45.9694 27.9297 46.2973 27.9297 46.7018C27.9297 47.1063 27.6018 47.4342 27.1973 47.4342Z" fill="#8D9CA8"/>
<path d="M34.8182 7.13773C35.5193 7.13773 36.0877 6.56934 36.0877 5.86819C36.0877 5.16705 35.5193 4.59866 34.8182 4.59866C34.117 4.59866 33.5486 5.16705 33.5486 5.86819C33.5486 6.56934 34.117 7.13773 34.8182 7.13773Z" fill="#596C76"/>
<path d="M27.2949 17.7574H22.7051C22.4354 17.7574 22.2168 17.5388 22.2168 17.2692V12.6793C22.2168 12.4097 22.4354 12.191 22.7051 12.191H27.2949C27.5646 12.191 27.7832 12.4097 27.7832 12.6793V17.2692C27.7832 17.5389 27.5646 17.7574 27.2949 17.7574Z" fill="#7BACDF"/>
<path d="M18.9904 17.7574H14.4005C14.1309 17.7574 13.9122 17.5388 13.9122 17.2692V12.6793C13.9122 12.4097 14.1309 12.191 14.4005 12.191H18.9904C19.26 12.191 19.4786 12.4097 19.4786 12.6793V17.2692C19.4786 17.5389 19.26 17.7574 18.9904 17.7574Z" fill="#FFBE8C"/>
<path d="M35.5994 17.7574H31.0096C30.74 17.7574 30.5213 17.5388 30.5213 17.2692V12.6793C30.5213 12.4097 30.74 12.191 31.0096 12.191H35.5994C35.8691 12.191 36.0877 12.4097 36.0877 12.6793V17.2692C36.0877 17.5389 35.8692 17.7574 35.5994 17.7574Z" fill="#FFBE8C"/>
<path d="M27.2949 26.8926H22.7051C22.4354 26.8926 22.2168 26.674 22.2168 26.4043V21.8145C22.2168 21.5449 22.4354 21.3262 22.7051 21.3262H27.2949C27.5646 21.3262 27.7832 21.5449 27.7832 21.8145V26.4043C27.7832 26.674 27.5646 26.8926 27.2949 26.8926Z" fill="#FFBE8C"/>
<path d="M18.9904 26.8926H14.4005C14.1309 26.8926 13.9122 26.674 13.9122 26.4043V21.8145C13.9122 21.5449 14.1309 21.3262 14.4005 21.3262H18.9904C19.26 21.3262 19.4786 21.5449 19.4786 21.8145V26.4043C19.4786 26.674 19.26 26.8926 18.9904 26.8926Z" fill="#7BACDF"/>
<path d="M35.5994 26.8926H31.0096C30.74 26.8926 30.5213 26.674 30.5213 26.4043V21.8145C30.5213 21.5449 30.74 21.3262 31.0096 21.3262H35.5994C35.8691 21.3262 36.0877 21.5449 36.0877 21.8145V26.4043C36.0877 26.674 35.8692 26.8926 35.5994 26.8926Z" fill="#7BACDF"/>
<path d="M35.6653 0.749146H14.3347C12.0037 0.749146 10.1074 2.64543 10.1074 4.97639V8.62258C10.1074 9.02707 10.4354 9.35501 10.8398 9.35501C11.2443 9.35501 11.5723 9.02707 11.5723 8.62258V4.97639C11.5723 3.45315 12.8114 2.21399 14.3347 2.21399H35.6654C37.1886 2.21399 38.4278 3.45315 38.4278 4.97639V42.5948H11.5724V12.0406C11.5724 11.6361 11.2444 11.3081 10.8399 11.3081C10.4354 11.3081 10.1075 11.6361 10.1075 12.0406V43.3273V46.5219C10.1075 48.8528 12.0038 50.7491 14.3348 50.7491H31.2062C31.6107 50.7491 31.9387 50.4212 31.9387 50.0167C31.9387 49.6122 31.6107 49.2843 31.2062 49.2843H14.3347C12.8115 49.2843 11.5723 48.0451 11.5723 46.5219V44.0597H38.4277V46.5219C38.4277 48.045 37.1886 49.2843 35.6653 49.2843H34.624C34.2195 49.2843 33.8916 49.6122 33.8916 50.0167C33.8916 50.4212 34.2195 50.7491 34.624 50.7491H35.6653C37.9962 50.7491 39.8926 48.8529 39.8926 46.5219V43.3273V4.97639C39.8926 2.64543 37.9963 0.749146 35.6653 0.749146V0.749146Z" fill="#171D24"/>
<path d="M22.8027 45.9694C22.3982 45.9694 22.0703 46.2973 22.0703 46.7018C22.0703 47.1063 22.3982 47.4342 22.8027 47.4342H27.1973C27.6018 47.4342 27.9297 47.1063 27.9297 46.7018C27.9297 46.2973 27.6018 45.9694 27.1973 45.9694H22.8027Z" fill="#171D24"/>
<path d="M22.7051 18.49H27.2949C27.9681 18.49 28.5156 17.9424 28.5156 17.2693V12.6794C28.5156 12.0063 27.9681 11.4587 27.2949 11.4587H22.7051C22.0319 11.4587 21.4844 12.0063 21.4844 12.6794V17.2693C21.4844 17.9423 22.0319 18.49 22.7051 18.49ZM22.9492 12.9236H27.0508V17.0251H22.9492V12.9236Z" fill="#171D24"/>
<path d="M14.4005 18.49H18.9903C19.6634 18.49 20.211 17.9424 20.211 17.2693V12.6794C20.211 12.0063 19.6634 11.4587 18.9903 11.4587H14.4005C13.7273 11.4587 13.1797 12.0063 13.1797 12.6794V17.2693C13.1797 17.9423 13.7274 18.49 14.4005 18.49ZM14.6446 12.9236H18.7462V17.0251H14.6446V12.9236Z" fill="#171D24"/>
<path d="M31.0098 18.49H35.5996C36.2728 18.49 36.8203 17.9424 36.8203 17.2693V12.6794C36.8203 12.0063 36.2728 11.4587 35.5996 11.4587H31.0098C30.3366 11.4587 29.7891 12.0063 29.7891 12.6794V17.2693C29.7891 17.9423 30.3366 18.49 31.0098 18.49ZM31.2539 12.9236H35.3555V17.0251H31.2539V12.9236Z" fill="#171D24"/>
<path d="M21.4844 26.4042C21.4844 27.0774 22.0319 27.6249 22.7051 27.6249H27.2949C27.9681 27.6249 28.5156 27.0774 28.5156 26.4042V21.8144C28.5156 21.1412 27.9681 20.5937 27.2949 20.5937H22.7051C22.0319 20.5937 21.4844 21.1412 21.4844 21.8144V26.4042ZM22.9492 22.0585H27.0508V26.1601H22.9492V22.0585Z" fill="#171D24"/>
<path d="M13.1797 26.4042C13.1797 27.0774 13.7273 27.6249 14.4005 27.6249H18.9903C19.6634 27.6249 20.211 27.0774 20.211 26.4042V21.8144C20.211 21.1412 19.6634 20.5937 18.9903 20.5937H14.4005C13.7273 20.5937 13.1797 21.1412 13.1797 21.8144V26.4042ZM14.6446 22.0585H18.7462V26.1601H14.6446V22.0585Z" fill="#171D24"/>
<path d="M29.7891 26.4042C29.7891 27.0774 30.3366 27.6249 31.0098 27.6249H35.5996C36.2728 27.6249 36.8203 27.0774 36.8203 26.4042V21.8144C36.8203 21.1412 36.2728 20.5937 35.5996 20.5937H31.0098C30.3366 20.5937 29.7891 21.1412 29.7891 21.8144V26.4042ZM31.2539 22.0585H35.3555V26.1601H31.2539V22.0585Z" fill="#171D24"/>
</g>
<defs>
<clipPath id="clip0">
<rect width="50" height="50" fill="white" transform="translate(0 0.749146)"/>
</clipPath>
</defs>
</svg>
