<svg width="19" height="26" viewBox="0 0 19 26" fill="none" xmlns="http://www.w3.org/2000/svg">
<path d="M16.4623 11.8527L13.7392 8.05801C14.0634 7.93662 14.2953 7.62441 14.2953 7.25835V6.28179C14.2953 5.87939 14.0154 5.54199 13.6403 5.45176L14.0434 4.62934C14.1324 4.44775 14.0574 4.22837 13.8757 4.13935C13.6942 4.05039 13.4748 4.12539 13.3857 4.30698L12.8366 5.42724H6.7208L5.06929 2.05815C4.97456 1.86489 4.9855 1.64932 5.09937 1.46665C5.21323 1.28398 5.40205 1.1792 5.61733 1.1792H13.94C14.1553 1.1792 14.3441 1.28398 14.458 1.46665C14.5718 1.64932 14.5828 1.86489 14.488 2.0582L14.1318 2.78506C14.0428 2.9667 14.1178 3.18603 14.2995 3.27505C14.4812 3.36406 14.7005 3.28896 14.7895 3.10737L15.1457 2.38057C15.3511 1.96162 15.3263 1.4751 15.0795 1.07915C14.8327 0.683203 14.4067 0.446777 13.9401 0.446777H5.61733C5.15068 0.446777 4.72476 0.683203 4.47788 1.07915C4.23101 1.4751 4.20625 1.96162 4.41167 2.38052L5.91714 5.45171C5.54204 5.54189 5.26211 5.87934 5.26211 6.28174V7.2583C5.26211 7.62441 5.49399 7.93657 5.81826 8.05796L3.58281 11.1731C3.46489 11.3374 3.50249 11.5663 3.66685 11.6842C3.7315 11.7306 3.80615 11.7529 3.88008 11.7529C3.99404 11.7529 4.1064 11.6998 4.17793 11.6002L6.68047 8.11279H12.877L15.8672 12.2797C17.6005 14.6951 18.3811 17.6533 18.0652 20.6096C17.8574 22.9168 15.9038 24.7224 13.5669 24.7143H9.80059C9.59829 24.7143 9.43437 24.8783 9.43437 25.0806C9.43437 25.2829 9.59829 25.4468 9.80059 25.4468H13.5669C16.2629 25.4518 18.545 23.388 18.7936 20.6872C19.1285 17.5519 18.3005 14.4144 16.4623 11.8527ZM6.1166 7.38037C6.04927 7.38037 5.99453 7.32563 5.99453 7.2583V6.28174C5.99453 6.2144 6.04927 6.15967 6.1166 6.15967H13.4408C13.5082 6.15967 13.5629 6.2144 13.5629 6.28174V7.2583C13.5629 7.32563 13.5082 7.38037 13.4408 7.38037H6.1166Z" fill="white"/>
<path d="M8.09575 24.7142H5.99058C3.67144 24.7193 1.70044 22.9367 1.49229 20.6092C1.20913 17.9596 1.82329 15.2514 3.22158 12.9834C3.32774 12.8112 3.27422 12.5856 3.10205 12.4795C2.92998 12.3733 2.7043 12.4268 2.5982 12.599C1.11514 15.0046 0.463724 17.8769 0.764017 20.6868C1.01158 23.3692 3.27852 25.4544 5.99063 25.4466H8.0958C8.2981 25.4466 8.46201 25.2827 8.46201 25.0804C8.46201 24.8781 8.29805 24.7142 8.09575 24.7142Z" fill="white"/>
<path d="M15.1701 17.1723C15.1701 14.1973 12.7497 11.7769 9.77468 11.7769C6.79963 11.7769 4.37927 14.1973 4.37927 17.1723C4.37927 20.1474 6.79963 22.5677 9.77468 22.5677C12.7497 22.5677 15.1701 20.1474 15.1701 17.1723ZM5.11169 17.1723C5.11169 14.6011 7.20349 12.5093 9.77468 12.5093C12.3459 12.5093 14.4377 14.6011 14.4377 17.1723C14.4377 19.7435 12.3459 21.8353 9.77468 21.8353C7.20349 21.8353 5.11169 19.7435 5.11169 17.1723Z" fill="white"/>
<path d="M13.6227 17.1724C13.6227 16.7744 13.5622 16.382 13.4426 16.0061C13.3814 15.8133 13.1753 15.7068 12.9827 15.768C12.79 15.8293 12.6834 16.0352 12.7446 16.2279C12.8413 16.532 12.8902 16.8497 12.8902 17.1724C12.8902 18.8904 11.4926 20.288 9.77471 20.288C8.05679 20.288 6.65913 18.8904 6.65913 17.1724C6.65913 15.4545 8.05679 14.0569 9.77471 14.0569C10.562 14.0569 11.3134 14.3512 11.8907 14.8857C12.0392 15.023 12.2708 15.0142 12.4083 14.8658C12.5456 14.7173 12.5367 14.4856 12.3883 14.3482C11.6753 13.688 10.7471 13.3245 9.77476 13.3245C7.65298 13.3245 5.92676 15.0507 5.92676 17.1724C5.92676 19.2942 7.65298 21.0204 9.77476 21.0204C11.8965 21.0204 13.6227 19.2942 13.6227 17.1724Z" fill="white"/>
<path d="M11.3299 15.6265C11.1868 15.4835 10.955 15.4835 10.812 15.6265L9.78139 16.6571L8.75082 15.6265C8.60776 15.4835 8.37592 15.4835 8.2329 15.6265C8.08989 15.7696 8.08989 16.0014 8.2329 16.1444L9.26347 17.175L8.2329 18.2056C8.08989 18.3486 8.08989 18.5805 8.2329 18.7235C8.30444 18.795 8.39819 18.8307 8.49189 18.8307C8.58559 18.8307 8.67934 18.795 8.75087 18.7235L9.78144 17.6929L10.812 18.7235C10.8835 18.795 10.9773 18.8307 11.071 18.8307C11.1647 18.8307 11.2584 18.795 11.33 18.7235C11.473 18.5804 11.473 18.3486 11.33 18.2056L10.2994 17.175L11.33 16.1444C11.4729 16.0014 11.4729 15.7696 11.3299 15.6265Z" fill="white"/>
</svg>
