<svg width="51" height="51" viewBox="0 0 51 51" fill="none" xmlns="http://www.w3.org/2000/svg">
<path opacity="0.15" d="M2.78034 31.4248C0.736088 36.5354 4.4839 42.9238 6.61334 45.4791C13.0016 53.1451 39.8326 51.8674 46.221 37.8131C52.6093 23.7588 50.054 10.9821 38.555 3.31614C27.056 -4.34986 11.724 3.31614 13.0016 10.9821C14.2793 18.6481 5.33567 25.0364 2.78034 31.4248Z" fill="#FF8E26"/>
<path d="M45.4478 5.60953H18.8853C17.1594 5.60953 15.7603 7.00864 15.7603 8.73453V22.797C15.7603 24.5229 17.1594 25.922 18.8853 25.922H45.4478C47.1736 25.922 48.5728 24.5229 48.5728 22.797V8.73453C48.5728 7.00864 47.1736 5.60953 45.4478 5.60953Z" fill="#FFDAAA"/>
<path d="M45.4478 5.60953H43.104C43.9328 5.60953 44.7277 5.93877 45.3137 6.52482C45.8998 7.11087 46.229 7.90573 46.229 8.73453V22.797C46.229 23.6258 45.8998 24.4207 45.3137 25.0067C44.7277 25.5928 43.9328 25.922 43.104 25.922H45.4478C46.2766 25.922 47.0714 25.5928 47.6575 25.0067C48.2435 24.4207 48.5728 23.6258 48.5728 22.797V8.73453C48.5728 7.90573 48.2435 7.11087 47.6575 6.52482C47.0714 5.93877 46.2766 5.60953 45.4478 5.60953Z" fill="#FFC477"/>
<path d="M18.4274 41.2236C18.7204 40.9305 19.1178 40.7659 19.5321 40.7658H29.7665C30.3157 40.7676 30.8554 40.6219 31.329 40.3439L43.4556 33.3439C43.9936 33.0325 44.3862 32.5204 44.5473 31.92C44.7084 31.3195 44.6248 30.6797 44.3149 30.1408C44.0876 29.7457 43.7476 29.4275 43.3384 29.2267C42.9918 29.0504 42.6069 28.9631 42.2182 28.9727C41.8295 28.9822 41.4493 29.0883 41.1118 29.2814L32.0181 34.5314C31.9078 34.856 31.7232 35.1503 31.479 35.3908C31.2618 35.6087 31.0036 35.7816 30.7194 35.8996C30.4352 36.0176 30.1305 36.0783 29.8228 36.0783C30.1305 36.0783 30.4352 36.0176 30.7194 35.8996C31.0036 35.7816 31.2618 35.6087 31.479 35.3908C31.7232 35.1503 31.9078 34.856 32.0181 34.5314C32.148 34.2042 32.1962 33.8502 32.1587 33.5001C32.1052 32.9121 31.8284 32.3669 31.3853 31.9767C30.9496 31.5984 30.3919 31.3903 29.8149 31.3908H23.4384C23.024 31.3907 22.6267 31.226 22.3337 30.933L22.1431 30.7423C21.5575 30.1574 20.7637 29.8287 19.936 29.8283H13.9321C13.8306 29.8283 13.729 29.8361 13.6196 29.8439C12.9019 29.9147 12.231 30.2322 11.7212 30.7423L9.11963 33.3439L17.7134 41.9376L18.4274 41.2236Z" fill="#FFBCAB"/>
<path d="M18.885 43.1095L17.7131 41.9377L9.11939 33.3439L7.83813 32.0627L3.41626 36.4767L14.4631 47.5314L18.885 43.1095Z" fill="#005ECE"/>
<path d="M17.7134 41.9377L9.11963 33.3439L7.83838 32.0627L7.05713 32.8439L8.33838 34.1252L16.9321 42.7189L18.104 43.8908L18.8853 43.1095L17.7134 41.9377Z" fill="#004FAC"/>
<path d="M15.7603 10.297H48.5728V13.422H15.7603V10.297Z" fill="#58595B"/>
<path d="M46.229 10.297H48.5728V13.422H46.229V10.297Z" fill="#414042"/>
<path d="M20.4478 19.672H31.3853V22.797H20.4478V19.672Z" fill="#58595B"/>
<path d="M43.104 22.797C44.3984 22.797 45.4478 21.7477 45.4478 20.4533C45.4478 19.1589 44.3984 18.1095 43.104 18.1095C41.8096 18.1095 40.7603 19.1589 40.7603 20.4533C40.7603 21.7477 41.8096 22.797 43.104 22.797Z" fill="#F7941D"/>
<path d="M39.1978 22.797C40.4922 22.797 41.5415 21.7477 41.5415 20.4533C41.5415 19.1589 40.4922 18.1095 39.1978 18.1095C37.9033 18.1095 36.854 19.1589 36.854 20.4533C36.854 21.7477 37.9033 22.797 39.1978 22.797Z" fill="#F15A29"/>
<path d="M43.6906 28.5291C43.2282 28.2948 42.7147 28.1793 42.1964 28.1929C41.6781 28.2066 41.1714 28.3489 40.7219 28.6072L32.8805 33.1306C32.754 32.4581 32.4084 31.8463 31.8977 31.3908C31.3206 30.8872 30.5807 30.6097 29.8149 30.6095H23.4391C23.3364 30.6096 23.2346 30.5894 23.1397 30.5502C23.0448 30.5109 22.9586 30.4533 22.886 30.3806L22.6953 30.19C22.3338 29.8266 21.9037 29.5384 21.4301 29.3422C20.9565 29.146 20.4486 29.0457 19.936 29.047H13.9321C13.8141 29.047 13.6977 29.0548 13.5414 29.0666C12.6441 29.1558 11.8052 29.5527 11.1672 30.19L9.11956 32.2392L8.39065 31.5103C8.24415 31.3638 8.04547 31.2816 7.83831 31.2816C7.63115 31.2816 7.43247 31.3638 7.28597 31.5103L2.86487 35.922C2.79223 35.9946 2.73461 36.0808 2.69529 36.1756C2.65598 36.2704 2.63574 36.3721 2.63574 36.4748C2.63574 36.5774 2.65598 36.6791 2.69529 36.7739C2.73461 36.8688 2.79223 36.9549 2.86487 37.0275L13.911 48.0822C13.9835 48.1548 14.0697 48.2124 14.1645 48.2518C14.2594 48.2911 14.361 48.3113 14.4637 48.3113C14.5664 48.3113 14.668 48.2911 14.7629 48.2518C14.8577 48.2124 14.9439 48.1548 15.0164 48.0822L19.4383 43.6603C19.5848 43.5138 19.667 43.3151 19.667 43.108C19.667 42.9008 19.5848 42.7021 19.4383 42.5556L18.8188 41.9361L18.9805 41.7744C19.1272 41.6284 19.3259 41.5467 19.5328 41.547H29.7672C30.4535 41.5487 31.1278 41.3669 31.7203 41.0205L43.8453 34.0205C44.3227 33.7484 44.719 33.3542 44.9936 32.8783C45.2682 32.4024 45.4111 31.8621 45.4078 31.3127C45.4078 30.7643 45.264 30.2255 44.9906 29.7502C44.688 29.2232 44.2355 28.7981 43.6906 28.5291ZM14.4633 46.4267L4.5219 36.4775L7.83753 33.1666L17.7805 43.1095L14.4633 46.4267ZM43.0649 32.6673L30.9328 39.672C30.5794 39.8783 30.1772 39.9862 29.768 39.9845H19.5336C19.2256 39.9836 18.9204 40.0437 18.6358 40.1616C18.3513 40.2795 18.0929 40.4527 17.8758 40.6713L17.7141 40.833L10.2242 33.3439L12.2735 31.2947C12.6528 30.9151 13.1514 30.6778 13.6852 30.6228C13.7711 30.6158 13.8516 30.6095 13.9321 30.6095H19.936C20.2434 30.6088 20.5478 30.669 20.8319 30.7866C21.1159 30.9042 21.3738 31.0769 21.5907 31.2947L21.7813 31.4853C21.9984 31.7038 22.2567 31.877 22.5413 31.9949C22.8259 32.1128 23.1311 32.173 23.4391 32.172H29.8149C30.2007 32.1716 30.5738 32.3103 30.8656 32.5627C31.159 32.8204 31.3431 33.1802 31.3805 33.5689C31.4066 33.8135 31.3706 34.0607 31.2758 34.2877C31.2042 34.4968 31.0846 34.6862 30.9266 34.8408C30.7819 34.986 30.6098 35.1011 30.4203 35.1794C30.2308 35.2577 30.0277 35.2977 29.8227 35.297H23.1196C22.9124 35.297 22.7136 35.3793 22.5671 35.5259C22.4206 35.6724 22.3383 35.8711 22.3383 36.0783C22.3383 36.2855 22.4206 36.4842 22.5671 36.6307C22.7136 36.7772 22.9124 36.8595 23.1196 36.8595H29.8227C30.2332 36.8602 30.6398 36.7796 31.019 36.6223C31.3982 36.465 31.7425 36.2342 32.0321 35.9431C32.2852 35.6918 32.4915 35.3973 32.6414 35.0736L41.4992 29.9595C41.7261 29.8305 41.9816 29.76 42.2425 29.7546C42.5035 29.7491 42.7617 29.8088 42.9938 29.9283C43.2636 30.0601 43.4878 30.2696 43.6375 30.5298C43.7736 30.7678 43.8454 31.037 43.8461 31.3111C43.848 31.5862 43.7767 31.8568 43.6394 32.0951C43.5021 32.3335 43.3038 32.531 43.0649 32.6673Z" fill="#231F20"/>
<path d="M45.4478 4.82828H18.8853C17.8496 4.82952 16.8568 5.24147 16.1245 5.97376C15.3922 6.70606 14.9802 7.69891 14.979 8.73453V22.797C14.9802 23.8326 15.3922 24.8255 16.1245 25.5578C16.8568 26.2901 17.8496 26.702 18.8853 26.7033H45.4478C46.4834 26.702 47.4762 26.2901 48.2085 25.5578C48.9408 24.8255 49.3528 23.8326 49.354 22.797V8.73453C49.3528 7.69891 48.9408 6.70606 48.2085 5.97376C47.4762 5.24147 46.4834 4.82952 45.4478 4.82828ZM18.8853 6.39078H45.4478C46.0694 6.39078 46.6655 6.63771 47.105 7.07725C47.5446 7.51678 47.7915 8.11293 47.7915 8.73453V9.51578H16.5415V8.73453C16.5415 8.11293 16.7884 7.51678 17.228 7.07725C17.6675 6.63771 18.2637 6.39078 18.8853 6.39078ZM47.7915 12.6408H16.5415V11.0783H47.7915V12.6408ZM45.4478 25.1408H18.8853C18.2637 25.1408 17.6675 24.8938 17.228 24.4543C16.7884 24.0148 16.5415 23.4186 16.5415 22.797V14.2033H47.7915V22.797C47.7915 23.4186 47.5446 24.0148 47.105 24.4543C46.6655 24.8938 46.0694 25.1408 45.4478 25.1408Z" fill="#231F20"/>
<path d="M43.1039 17.3283C42.3895 17.3294 41.6972 17.576 41.1429 18.0267C40.6844 17.6546 40.1299 17.4201 39.5435 17.3502C38.9572 17.2804 38.363 17.3781 37.8299 17.632C37.2968 17.8859 36.8466 18.2857 36.5314 18.785C36.2161 19.2844 36.0488 19.8628 36.0488 20.4533C36.0488 21.0438 36.2161 21.6222 36.5314 22.1215C36.8466 22.6208 37.2968 23.0206 37.8299 23.2745C38.363 23.5285 38.9572 23.6262 39.5435 23.5563C40.1299 23.4865 40.6844 23.2519 41.1429 22.8798C41.5316 23.1952 41.9904 23.4127 42.4806 23.5138C42.9708 23.6149 43.4782 23.5968 43.96 23.461C44.4417 23.3252 44.8838 23.0757 45.249 22.7334C45.6143 22.3911 45.8919 21.966 46.0586 21.4941C46.2253 21.0221 46.2762 20.517 46.207 20.0212C46.1378 19.5255 45.9506 19.0536 45.661 18.6453C45.3714 18.2371 44.988 17.9043 44.543 17.6751C44.098 17.4459 43.6044 17.327 43.1039 17.3283ZM39.1976 22.0158C38.8886 22.0158 38.5865 21.9241 38.3295 21.7524C38.0726 21.5808 37.8723 21.3367 37.7541 21.0512C37.6358 20.7657 37.6049 20.4515 37.6652 20.1484C37.7254 19.8453 37.8743 19.5669 38.0928 19.3484C38.3113 19.1299 38.5897 18.9811 38.8928 18.9208C39.1959 18.8605 39.5101 18.8914 39.7956 19.0097C40.0811 19.128 40.3251 19.3282 40.4968 19.5852C40.6685 19.8421 40.7601 20.1442 40.7601 20.4533C40.7601 20.8677 40.5955 21.2651 40.3025 21.5581C40.0095 21.8512 39.612 22.0158 39.1976 22.0158ZM43.1039 22.0158C42.7305 22.0167 42.3695 21.8818 42.0883 21.6361C42.244 21.2612 42.3242 20.8592 42.3242 20.4533C42.3242 20.0473 42.244 19.6454 42.0883 19.2705C42.3695 19.0248 42.7305 18.8898 43.1039 18.8908C43.5183 18.8908 43.9157 19.0554 44.2087 19.3484C44.5018 19.6414 44.6664 20.0389 44.6664 20.4533C44.6664 20.8677 44.5018 21.2651 44.2087 21.5581C43.9157 21.8512 43.5183 22.0158 43.1039 22.0158Z" fill="#231F20"/>
<path d="M31.3853 18.8908H20.4478C20.2406 18.8908 20.0418 18.9731 19.8953 19.1196C19.7488 19.2661 19.6665 19.4648 19.6665 19.672V22.797C19.6665 23.0042 19.7488 23.2029 19.8953 23.3495C20.0418 23.496 20.2406 23.5783 20.4478 23.5783H31.3853C31.5925 23.5783 31.7912 23.496 31.9377 23.3495C32.0842 23.2029 32.1665 23.0042 32.1665 22.797V19.672C32.1665 19.4648 32.0842 19.2661 31.9377 19.1196C31.7912 18.9731 31.5925 18.8908 31.3853 18.8908ZM30.604 22.0158H21.229V20.4533H30.604V22.0158Z" fill="#231F20"/>
</svg>
