<svg width="50" height="51" viewBox="0 0 50 51" fill="none" xmlns="http://www.w3.org/2000/svg">
<g clip-path="url(#clip0)">
<path d="M35.4839 8.00722C37.2654 8.00722 38.7097 6.56297 38.7097 4.78141C38.7097 2.99985 37.2654 1.5556 35.4839 1.5556C33.7023 1.5556 32.2581 2.99985 32.2581 4.78141C32.2581 6.56297 33.7023 8.00722 35.4839 8.00722Z" fill="#FFCB57"/>
<path d="M34.6774 33.8137C38.2406 33.8137 41.1291 30.9252 41.1291 27.3621C41.1291 23.7989 38.2406 20.9105 34.6774 20.9105C31.1143 20.9105 28.2258 23.7989 28.2258 27.3621C28.2258 30.9252 31.1143 33.8137 34.6774 33.8137Z" fill="#FFCB57"/>
<path d="M39.7378 48.3604L38.7458 47.0895C39.1031 46.8104 39.4515 46.5233 39.7934 46.2266L40.8515 47.4427C40.4894 47.758 40.1176 48.0645 39.7378 48.3604Z" fill="#E56565"/>
<path d="M41.8894 46.4903L40.7676 45.3306C45.6813 40.5782 48.387 34.1967 48.387 27.362C48.387 19.3346 44.4902 11.7411 37.9636 7.04912L38.9047 5.73944C45.8523 10.733 49.9999 18.8169 49.9999 27.362C49.9999 34.637 47.1201 41.4306 41.8894 46.4903Z" fill="#E56565"/>
<path d="M27.4194 27.3621C27.4194 31.3645 30.6758 34.6201 34.6774 34.6201C38.679 34.6201 41.9355 31.3645 41.9355 27.3621C41.9355 23.3605 38.679 20.104 34.6774 20.104C30.6758 20.104 27.4194 23.3605 27.4194 27.3621ZM34.6774 21.7169C37.7903 21.7169 40.3226 24.2492 40.3226 27.3621C40.3226 30.4742 37.7903 33.0072 34.6774 33.0072C31.5645 33.0072 29.0323 30.4742 29.0323 27.3621C29.0323 24.2492 31.5645 21.7169 34.6774 21.7169Z" fill="#3F3A34"/>
<path d="M35.4839 8.81366C37.7072 8.81366 39.5161 7.00479 39.5161 4.7814C39.5161 2.55802 37.7072 0.749146 35.4839 0.749146C33.2605 0.749146 31.4516 2.55802 31.4516 4.7814C31.4516 7.00479 33.2605 8.81366 35.4839 8.81366ZM35.4839 2.36205C36.8177 2.36205 37.9032 3.44753 37.9032 4.7814C37.9032 6.11527 36.8177 7.20076 35.4839 7.20076C34.15 7.20076 33.0645 6.11527 33.0645 4.7814C33.0645 3.44753 34.15 2.36205 35.4839 2.36205Z" fill="#3F3A34"/>
<path d="M38.2726 9.32336L37.246 10.5669C37.6444 10.8959 38.025 11.2419 38.396 11.5951C37.8048 12.4709 36.3782 14.0726 33.3177 15.2847C31.0113 10.758 27.896 7.53062 25.8742 5.74433C27.1669 5.89272 28.446 6.14191 29.6944 6.51852L30.1605 4.97498C27.9645 4.31127 25.6855 3.97498 23.3871 3.97498C10.4911 3.97498 0 14.4661 0 27.3621C0 40.2572 10.4911 50.7492 23.3871 50.7492C36.2831 50.7492 46.7742 40.2572 46.7742 27.3621C46.7742 20.3613 43.6758 13.7871 38.2726 9.32336ZM39.5484 12.779C42.9645 16.558 44.9508 21.4097 45.1395 26.5556H43.5484V28.1685H45.1411C44.9476 33.454 42.8653 38.2645 39.5452 41.9403C38.7315 40.8226 37.0992 39.1968 34.0185 37.9653C34.2323 37.4798 34.4387 36.9855 34.629 36.4742L33.1177 35.9105C32.9234 36.4306 32.7145 36.9371 32.4935 37.4298C30.3452 36.7693 27.625 36.308 24.1935 36.2451V28.1685H25.8065V26.5556H24.1935V18.479C27.625 18.4153 30.3452 17.9548 32.4935 17.2943C32.7137 17.7871 32.9234 18.2935 33.1169 18.8137L34.6282 18.25C34.4371 17.7387 34.2315 17.2443 34.0177 16.7588C37.1032 15.525 38.7347 13.8976 39.5484 12.779ZM24.1935 37.8572C27.3315 37.9185 29.8169 38.3298 31.7766 38.9113C29.35 43.5556 25.9935 46.7701 24.1935 48.2855V37.8572ZM22.5806 48.2871C20.7839 46.775 17.4403 43.5629 15.0081 38.9088C16.9661 38.3282 19.4476 37.9185 22.5806 37.8572V48.2871ZM22.5806 36.2451C19.1532 36.3088 16.4347 36.7685 14.2879 37.4282C13.0855 34.7443 12.2347 31.6427 12.1185 28.1693H22.5806V36.2451ZM12.1177 26.5556C12.2347 23.0838 13.0871 19.9822 14.2919 17.2976C16.4387 17.9564 19.1548 18.4153 22.5806 18.479V26.5556H12.1177ZM22.5806 16.8669C19.4508 16.8056 16.971 16.3967 15.0137 15.8169C17.4452 11.1693 20.7855 7.95401 22.5806 6.43949V16.8669ZM13.4306 15.275C10.3976 14.0677 8.97661 12.4798 8.38387 11.604C11.7274 8.41933 16.0766 6.28465 20.9024 5.73385C18.8694 7.52014 15.7339 10.75 13.4306 15.275ZM12.7315 16.7492C11.4895 19.5814 10.6177 22.8613 10.504 26.5556H1.63306C1.82661 21.2701 3.90887 16.4597 7.22903 12.7838C8.04113 13.8984 9.66613 15.5185 12.7315 16.7492ZM10.504 28.1685C10.6169 31.8629 11.4895 35.1427 12.7315 37.975C9.66613 39.2056 8.04113 40.8258 7.22903 41.9403C3.90887 38.2645 1.82742 33.454 1.63306 28.1685H10.504ZM13.4315 39.4492C15.7347 43.975 18.8702 47.204 20.9032 48.9903C16.0774 48.4395 11.7282 46.3048 8.38468 43.1201C8.97742 42.2443 10.3976 40.6556 13.4315 39.4492ZM33.3169 39.4395C36.3677 40.6476 37.7952 42.2427 38.3895 43.1201C35.0435 46.3072 30.6903 48.4427 25.8605 48.9919C27.8823 47.2072 31.0065 43.975 33.3169 39.4395ZM31.7774 15.8121C29.8177 16.3943 27.3323 16.8056 24.1935 16.8669V6.43627C25.9927 7.94836 29.3484 11.1588 31.7774 15.8121Z" fill="#3F3A34"/>
<path d="M33.871 31.3943V32.2007H35.4839V31.3943C36.8177 31.3943 37.9032 30.3088 37.9032 28.9749C37.9032 27.6411 36.8177 26.5556 35.4839 26.5556H33.871C33.4266 26.5556 33.0645 26.1935 33.0645 25.7491C33.0645 25.3048 33.4266 24.9427 33.871 24.9427H35.4839C35.9282 24.9427 36.2903 25.3048 36.2903 25.7491V26.5556H37.9032V25.7491C37.9032 24.4153 36.8177 23.3298 35.4839 23.3298V22.5233H33.871V23.3298C32.5371 23.3298 31.4516 24.4153 31.4516 25.7491C31.4516 27.083 32.5371 28.1685 33.871 28.1685H35.4839C35.9282 28.1685 36.2903 28.5298 36.2903 28.9749C36.2903 29.4201 35.9282 29.7814 35.4839 29.7814H33.871C33.4266 29.7814 33.0645 29.4201 33.0645 28.9749V28.1685H31.4516V28.9749C31.4516 30.3088 32.5371 31.3943 33.871 31.3943Z" fill="#3F3A34"/>
</g>
<defs>
<clipPath id="clip0">
<rect width="50" height="50" fill="white" transform="translate(0 0.749146)"/>
</clipPath>
</defs>
</svg>
