<svg width="50" height="51" viewBox="0 0 50 51" fill="none" xmlns="http://www.w3.org/2000/svg">
<path d="M11.5624 17.9162L6.9863 17.8166C5.90759 17.8166 5.03317 16.9421 5.03317 15.8634L5.23386 11.6451C5.23386 10.8083 5.26706 9.79175 6.00671 9.51372C6.03688 9.50239 6.06735 9.49175 6.09821 9.48188C6.28601 9.42183 6.4862 9.3894 6.69392 9.3894H6.93122L7.75212 9.99331L8.39148 9.3894H12.0361C13.1148 9.3894 13.9892 10.2638 13.9892 11.3425V11.5798L13.5242 12.2369L13.9892 13.0401V14.5003L13.5242 15.3037L13.9892 15.9607V16.198C13.9892 16.4402 13.9452 16.6721 13.8645 16.8861C13.5864 17.6252 12.3989 17.9162 11.5624 17.9162Z" fill="#FFD064"/>
<path d="M5.7617 17.9161C5.3369 17.6866 5.0078 17.3029 4.84862 16.84C5.00975 17.3009 5.33885 17.6847 5.7617 17.9161Z" fill="#FFC250"/>
<path d="M26.3921 13.0248L40.44 13.0351C40.7097 13.0351 40.9283 12.8165 40.9283 12.5468L41.3598 11.4268V9.86401C41.3598 9.59438 41.1411 9.37573 40.8715 9.37573H27.5977L26.602 9.7938C26.3323 9.7938 26.1137 10.0125 26.1137 10.2821L25.9038 12.5365C25.9038 12.8062 26.1225 13.0248 26.3921 13.0248Z" fill="#B3E59F"/>
<path d="M49.2676 36.7842C49.2676 31.5256 45.0047 27.2628 39.7461 27.2628C37.0873 27.2628 34.683 28.3525 32.9556 30.1098C31.2665 31.8281 30.6661 34.0854 30.6661 36.6852C30.6661 41.9438 34.4875 45.8976 39.7461 45.8976C42.1564 45.8976 44.3574 45.4102 46.0348 43.9337C48.0169 42.1887 49.2676 39.6326 49.2676 36.7842Z" fill="#DF646E"/>
<path d="M46.3378 36.7842C46.3378 33.1437 43.3866 30.1924 39.746 30.1924C38.2011 30.1924 36.7803 30.7239 35.6566 31.614C34.1322 32.8214 33.3838 34.5896 33.3838 36.6852C33.3838 40.3257 36.1182 43.1779 39.7587 43.1779C41.4119 43.1779 42.91 42.7675 44.0671 41.7623C45.4583 40.5538 46.3378 38.7717 46.3378 36.7842Z" fill="#F7F9FA"/>
<path d="M46.0938 28.737V8.61059C46.0938 6.32202 44.2319 4.46021 41.9434 4.46021H39.609C39.2045 4.46021 38.8766 4.78804 38.8766 5.19263C38.8766 5.59722 39.2045 5.92505 39.609 5.92505H41.9434C43.4242 5.92505 44.6289 7.12983 44.6289 8.61059V27.7693C43.1763 26.9793 41.5127 26.5303 39.7461 26.5303C36.7449 26.5303 34.0408 27.8264 32.1639 29.8882H29.4532C29.0487 29.8882 28.7208 30.2161 28.7208 30.6206C28.7208 31.0252 29.0487 31.3531 29.4532 31.3531H31.0526C30.5689 32.1245 30.1852 32.9644 29.9192 33.8547H23.0738C22.6693 33.8547 22.3414 34.1826 22.3414 34.5872C22.3414 34.9917 22.6693 35.3196 23.0738 35.3196H29.5972C29.5284 35.7981 29.4921 36.287 29.4921 36.7842C29.4921 42.4382 34.092 47.0381 39.746 47.0381C45.4 47.0381 49.9999 42.4382 49.9999 36.7842C50 33.525 48.4714 30.6164 46.0938 28.737ZM39.7461 45.5733C34.8998 45.5733 30.957 41.6305 30.957 36.7842C30.957 31.9379 34.8998 27.9952 39.7461 27.9952C44.5924 27.9952 48.5352 31.9379 48.5352 36.7842C48.5352 41.6305 44.5924 45.5733 39.7461 45.5733Z" fill="#171D24"/>
<path d="M46.3574 33.632C46.0314 32.9483 45.6058 32.3237 45.0926 31.7756C44.816 31.4805 44.3525 31.4652 44.0573 31.7416C43.7621 32.0182 43.7468 32.4817 44.0233 32.777C44.4335 33.215 44.7739 33.7149 45.035 34.2624C46.4256 37.1787 45.1841 40.6826 42.2678 42.0732C39.3516 43.4636 35.8476 42.2221 34.4572 39.306C33.0667 36.3897 34.3081 32.8858 37.2243 31.4952C38.5608 30.8581 40.0747 30.7493 41.4872 31.1895C41.8733 31.3099 42.284 31.0943 42.4044 30.708C42.5247 30.3219 42.3091 29.9112 41.9229 29.7909C40.1569 29.2405 38.2644 29.3764 36.5938 30.173C32.9484 31.9111 31.3967 36.2909 33.1348 39.9363C34.3894 42.5676 37.0199 44.1081 39.7575 44.1079C40.8127 44.1078 41.8841 43.8789 42.8983 43.3953C46.5438 41.6571 48.0955 37.2774 46.3574 33.632Z" fill="#171D24"/>
<path d="M41.6823 33.8297L39.7588 35.7533L37.8353 33.8297C37.5492 33.5438 37.0854 33.5438 36.7995 33.8297C36.5135 34.1159 36.5135 34.5796 36.7995 34.8656L38.723 36.789L36.7995 38.7125C36.5135 38.9986 36.5135 39.4623 36.7995 39.7483C37.0285 39.9595 37.4551 40.0804 37.8353 39.7483L39.7588 37.8248L41.6823 39.7483C41.9113 39.9595 42.3379 40.0804 42.7181 39.7483C43.0041 39.4622 43.0041 38.9985 42.7181 38.7125L40.7946 36.789L42.7181 34.8656C43.0041 34.5795 43.0041 34.1158 42.7181 33.8297C42.4321 33.5438 41.9684 33.5438 41.6823 33.8297Z" fill="#171D24"/>
<path d="M18.698 33.8547H4.15039C2.66953 33.8547 1.46484 32.6499 1.46484 31.1692V8.6106C1.46484 7.12983 2.66953 5.92505 4.15039 5.92505H36.2181C36.6226 5.92505 36.9505 5.59722 36.9505 5.19263C36.9505 4.78804 36.6226 4.46021 36.2181 4.46021H4.15039C1.86182 4.46021 0 6.32202 0 8.6106V31.1692C0 33.4578 1.86182 35.3196 4.15039 35.3196H18.698C19.1025 35.3196 19.4305 34.9917 19.4305 34.5872C19.4305 34.1826 19.1025 33.8547 18.698 33.8547Z" fill="#171D24"/>
<path d="M6.67955 18.8972H12.0506C13.5315 18.8972 14.7362 17.6924 14.7362 16.2117V11.3289C14.7362 9.8481 13.5315 8.64331 12.0506 8.64331H6.67955C5.19869 8.64331 3.994 9.8481 3.994 11.3289V16.2117C3.994 17.6924 5.19869 18.8972 6.67955 18.8972ZM6.92369 14.5027H5.45885V13.0378H6.92369V14.5027ZM5.45885 16.2117V15.9675H6.92369V17.4324H6.67955C6.00641 17.4324 5.45885 16.8848 5.45885 16.2117ZM13.2713 14.5027H11.8065V13.282C11.8065 13.1473 11.9161 13.0378 12.0506 13.0378H13.2713V14.5027ZM12.0506 17.4324H11.8065V15.9675H13.2713V16.2117C13.2713 16.8848 12.7238 17.4324 12.0506 17.4324ZM13.2713 11.3289V11.573H12.0506C11.1084 11.573 10.3417 12.3397 10.3417 13.282V17.4324H8.38854V10.1082H12.0506C12.7238 10.1082 13.2713 10.6557 13.2713 11.3289ZM6.67955 10.1082H6.92369V11.573H5.45885V11.3289C5.45885 10.6557 6.00641 10.1082 6.67955 10.1082Z" fill="#171D24"/>
<path d="M23.5089 30.6207C23.5089 30.2161 23.181 29.8882 22.7765 29.8882H20.8234C20.4189 29.8882 20.091 30.2161 20.091 30.6207C20.091 31.0253 20.4189 31.3531 20.8234 31.3531H22.7765C23.1811 31.3531 23.5089 31.0252 23.5089 30.6207Z" fill="#171D24"/>
<path d="M42.0922 9.86401C42.0922 9.19087 41.5447 8.64331 40.8715 8.64331H26.2231C25.55 8.64331 25.0024 9.19087 25.0024 9.86401V12.7937C25.0024 13.4668 25.55 14.0144 26.2231 14.0144H40.8715C41.5447 14.0144 42.0922 13.4668 42.0922 12.7937V9.86401ZM40.6274 12.5496H26.4672V10.1082H40.6274V12.5496Z" fill="#171D24"/>
<path d="M3.994 24.0401C3.994 24.6055 4.45396 25.0655 5.01939 25.0655H11.343C11.9085 25.0655 12.3684 24.6055 12.3684 24.0401V21.6964C12.3684 21.1309 11.9085 20.671 11.343 20.671H5.01939C4.45396 20.671 3.994 21.1309 3.994 21.6964V24.0401ZM5.45885 22.1358H10.9036V23.6006H5.45885V22.1358Z" fill="#171D24"/>
<path d="M32.2214 24.1378V21.5987C32.2214 21.0872 31.8052 20.671 31.2936 20.671H24.7747C24.2632 20.671 23.847 21.0872 23.847 21.5987V24.1378C23.847 24.6493 24.2632 25.0655 24.7747 25.0655H31.2936C31.8052 25.0655 32.2214 24.6493 32.2214 24.1378ZM30.7565 23.6006H25.3118V22.1358H30.7565V23.6006Z" fill="#171D24"/>
<path d="M34.6455 20.671C34.134 20.671 33.7177 21.0872 33.7177 21.5987V24.1378C33.7177 24.6493 34.134 25.0655 34.6455 25.0655H41.1644C41.6759 25.0655 42.0922 24.6493 42.0922 24.1378V21.5987C42.0922 21.0872 41.6759 20.671 41.1644 20.671H34.6455ZM40.6273 23.6006H35.1826V22.1358H40.6273V23.6006Z" fill="#171D24"/>
<path d="M22.358 24.0401V21.6964C22.358 21.1309 21.898 20.671 21.3326 20.671H15.009C14.4435 20.671 13.9836 21.1309 13.9836 21.6964V24.0401C13.9836 24.6055 14.4435 25.0655 15.009 25.0655H21.3326C21.898 25.0655 22.358 24.6055 22.358 24.0401ZM20.8932 23.6006H15.4484V22.1358H20.8932V23.6006Z" fill="#171D24"/>
<path d="M3.994 30.3277C3.994 30.8931 4.45396 31.3531 5.01939 31.3531H14.9024C15.4678 31.3531 15.9278 30.8931 15.9278 30.3277V27.9839C15.9278 27.4185 15.4678 26.9586 14.9024 26.9586H11.3354C10.9309 26.9586 10.603 27.2864 10.603 27.691C10.603 28.0956 10.9309 28.4234 11.3354 28.4234H14.4629V29.8882H5.45885V28.4234H7.91324C8.31773 28.4234 8.64566 28.0956 8.64566 27.691C8.64566 27.2864 8.31773 26.9586 7.91324 26.9586H5.01939C4.45396 26.9586 3.994 27.4185 3.994 27.9839V30.3277Z" fill="#171D24"/>
<path d="M26.4375 28.7947L24.7461 31.7244C24.5439 32.0747 24.6639 32.5226 25.0142 32.7249C25.2466 32.8804 25.7666 32.8522 26.0147 32.4568L27.7061 29.5271C27.9083 29.1768 27.7883 28.7289 27.438 28.5266C27.0877 28.3244 26.6398 28.4443 26.4375 28.7947Z" fill="#171D24"/>
</svg>
