<svg width="26" height="26" viewBox="0 0 26 26" fill="none" xmlns="http://www.w3.org/2000/svg">
<path d="M25.5407 10.3638C25.481 9.991 25.2796 9.66372 24.9737 9.44228L13.6079 1.21593C13.1122 0.857059 12.4459 0.857059 11.95 1.21593L5.54162 5.85426C5.36915 5.97911 5.33046 6.22017 5.45536 6.39269C5.58021 6.56517 5.82127 6.6039 5.99379 6.47895L12.4022 1.84063C12.6276 1.67754 12.9304 1.67754 13.1557 1.84063L24.5215 10.067C24.6606 10.1676 24.7521 10.3164 24.7793 10.4859C24.8065 10.6553 24.7659 10.8253 24.6652 10.9644C24.5447 11.1309 24.3499 11.2303 24.1438 11.2303C24.0083 11.2303 23.8783 11.1881 23.7679 11.1081L13.005 3.3181C12.8702 3.22045 12.6879 3.22045 12.553 3.3181L1.79007 11.1081C1.65104 11.2087 1.48112 11.2492 1.31164 11.222C1.14216 11.1949 0.993354 11.1033 0.892717 10.9643C0.684951 10.6772 0.749497 10.2746 1.03648 10.0669L5.04303 7.167C5.2155 7.04215 5.25419 6.80108 5.12929 6.62856C5.00449 6.45614 4.76343 6.4174 4.59086 6.5423L0.584314 9.44218C-0.0471684 9.89925 -0.18904 10.7849 0.267974 11.4164C0.489417 11.7223 0.816689 11.9236 1.18954 11.9834C1.26532 11.9955 1.34099 12.0016 1.41627 12.0016C1.71145 12.0016 1.99843 11.9092 2.24214 11.7327L12.779 4.10638L23.3158 11.7328C23.5586 11.9085 23.8449 12.0014 24.1438 12.0014C24.5965 12.0014 25.0249 11.7827 25.2899 11.4165C25.5114 11.1105 25.6004 10.7367 25.5407 10.3638Z" fill="white"/>
<path d="M22.7261 21.1346C22.5131 21.1346 22.3405 21.3072 22.3405 21.5202V24.381C22.3405 24.8191 21.984 25.1756 21.5459 25.1756H4.01177C3.57368 25.1756 3.2172 24.8191 3.2172 24.381V13.0445C3.2172 12.8315 3.04458 12.6589 2.83162 12.6589C2.61867 12.6589 2.44604 12.8315 2.44604 13.0445V24.381C2.44604 25.2444 3.14846 25.9468 4.01177 25.9468H21.5459C22.4093 25.9468 23.1117 25.2444 23.1117 24.381V21.5202C23.1117 21.3073 22.9391 21.1346 22.7261 21.1346Z" fill="white"/>
<path d="M22.7264 12.6589C22.5134 12.6589 22.3408 12.8315 22.3408 13.0445V20.2349C22.3408 20.4478 22.5134 20.6205 22.7264 20.6205C22.9394 20.6205 23.112 20.4478 23.112 20.2349V13.0444C23.112 12.8315 22.9394 12.6589 22.7264 12.6589Z" fill="white"/>
<path d="M10.3502 12.7449C9.11715 12.7449 8.11401 13.7481 8.11401 14.9811C8.11401 16.2142 9.11715 17.2173 10.3502 17.2173C11.5833 17.2173 12.5864 16.2142 12.5864 14.9811C12.5864 13.7481 11.5833 12.7449 10.3502 12.7449ZM10.3502 16.4462C9.54236 16.4462 8.88512 15.7889 8.88512 14.9811C8.88512 14.1732 9.54236 13.516 10.3502 13.516C11.1581 13.516 11.8153 14.1732 11.8153 14.9811C11.8153 15.789 11.1581 16.4462 10.3502 16.4462Z" fill="white"/>
<path d="M15.208 17.603C13.9749 17.603 12.9718 18.6061 12.9718 19.8392C12.9718 21.0722 13.9749 22.0754 15.208 22.0754C16.4411 22.0754 17.4442 21.0722 17.4442 19.8392C17.4442 18.6061 16.4411 17.603 15.208 17.603ZM15.208 21.3043C14.4001 21.3043 13.7429 20.647 13.7429 19.8392C13.7429 19.0313 14.4001 18.3741 15.208 18.3741C16.0158 18.3741 16.6731 19.0313 16.6731 19.8392C16.6731 20.647 16.0158 21.3043 15.208 21.3043Z" fill="white"/>
<path d="M16.0976 14.0914C15.947 13.9409 15.7029 13.9409 15.5523 14.0914L9.46057 20.1832C9.31002 20.3337 9.31002 20.5779 9.46057 20.7284C9.53585 20.8037 9.63454 20.8414 9.73319 20.8414C9.83183 20.8414 9.93057 20.8038 10.0058 20.7284L16.0976 14.6367C16.2482 14.4861 16.2482 14.242 16.0976 14.0914Z" fill="white"/>
<path d="M21.9857 1.72833H18.2844C18.0714 1.72833 17.8988 1.90095 17.8988 2.11391V3.50193C17.8988 3.71483 18.0714 3.88745 18.2844 3.88745C18.4974 3.88745 18.67 3.71478 18.67 3.50183V2.49944H21.6001V6.27785C21.6001 6.49081 21.7727 6.66343 21.9857 6.66343C22.1987 6.66343 22.3713 6.49081 22.3713 6.27785V2.11386C22.3713 1.90095 22.1987 1.72833 21.9857 1.72833Z" fill="white"/>
</svg>
