<svg width="26" height="26" viewBox="0 0 26 26" fill="none" xmlns="http://www.w3.org/2000/svg">
<path d="M25.5522 8.20769L17.234 2.85581C17.0679 2.74896 16.8468 2.79703 16.74 2.963C16.6332 3.12902 16.6811 3.35019 16.8472 3.45704L25.0437 8.73068H23.1329L13.8024 2.72743C13.4847 2.52308 13.0742 2.52312 12.7565 2.72743L3.42596 8.73068H1.51518L13.279 1.16128L14.9451 2.2332C15.1111 2.34 15.3323 2.29203 15.4391 2.12601C15.5459 1.95999 15.4979 1.73882 15.3319 1.63197L13.6659 0.560051C13.4311 0.409019 13.1278 0.409019 12.8931 0.560051L1.00674 8.20769C0.753632 8.37057 0.640592 8.67401 0.72547 8.9628C0.810349 9.2516 1.0696 9.44563 1.37059 9.44563H3.17353V10.6778V11.7569C3.17353 12.0414 3.37534 12.2797 3.64329 12.336V12.9652C3.64329 13.2915 3.90879 13.557 4.23513 13.557H4.28428V17.9367C4.28428 18.1341 4.4443 18.2942 4.64173 18.2942C4.83916 18.2942 4.99919 18.1341 4.99919 17.9367V13.1996C4.99919 13.0021 4.83916 12.8421 4.64173 12.8421H4.35825V12.3487H6.89001V12.842H6.60652C6.4091 12.842 6.24907 13.002 6.24907 13.1995V21.0974C6.24907 21.2948 6.4091 21.4548 6.60652 21.4548H6.89001V21.9913H4.35825V21.4548H4.64173C4.83916 21.4548 4.99919 21.2948 4.99919 21.0974V20.1837C4.99919 19.9863 4.83916 19.8263 4.64173 19.8263C4.4443 19.8263 4.28428 19.9863 4.28428 20.1837V20.7399H4.23513C3.90879 20.7399 3.64329 21.0054 3.64329 21.3317V21.9608C3.37529 22.0172 3.17353 22.2555 3.17353 22.54V23.2616H1.90728C1.51213 23.2616 1.19066 23.5831 1.19066 23.9782V24.7301C1.19066 25.1253 1.51213 25.4468 1.90728 25.4468H24.6516C25.0468 25.4468 25.3682 25.1253 25.3682 24.7301V23.9782C25.3682 23.5831 25.0468 23.2616 24.6516 23.2616H23.3854V22.54C23.3854 22.2555 23.1836 22.0172 22.9156 21.9608V21.3317C22.9156 21.0054 22.6501 20.7399 22.3238 20.7399H22.2746V13.5569H22.3238C22.6501 13.5569 22.9156 13.2914 22.9156 12.9651V12.3359C23.1836 12.2796 23.3854 12.0413 23.3854 11.7568V10.6777V9.44553H25.1883C25.4893 9.44553 25.7486 9.2515 25.8334 8.9627C25.9183 8.67401 25.8053 8.37052 25.5522 8.20769ZM13.1433 3.32866C13.226 3.27543 13.3329 3.27548 13.4156 3.32866L21.8117 8.73073H4.74725L13.1433 3.32866ZM3.88844 9.44558H22.6704V10.3203H18.8417H15.3726H11.1863H7.71722H3.88844V9.44558ZM15.2603 21.9609V21.3318C15.2603 21.0055 14.9948 20.74 14.6685 20.74H14.6193V13.557H14.6685C14.9948 13.557 15.2603 13.2915 15.2603 12.9652V12.336C15.5283 12.2797 15.7301 12.0414 15.7301 11.7569V11.0352H18.4842V11.7569C18.4842 12.0414 18.686 12.2797 18.954 12.336V12.9652C18.954 13.2915 19.2195 13.557 19.5458 13.557H19.595V20.74H19.5458C19.2195 20.74 18.954 21.0055 18.954 21.3318V21.9609C18.686 22.0173 18.4842 22.2556 18.4842 22.5401V23.2617H15.7301V22.5401C15.7301 22.2556 15.5283 22.0173 15.2603 21.9609ZM7.60492 21.9609V21.3318C7.60492 21.0055 7.33942 20.74 7.01308 20.74H6.96393V13.557H7.01308C7.33942 13.557 7.60492 13.2915 7.60492 12.9652V12.336C7.87287 12.2797 8.07467 12.0414 8.07467 11.7569V11.0352H10.8289V11.7569C10.8289 12.0414 11.0307 12.2797 11.2986 12.336V12.9652C11.2986 13.2915 11.5641 13.557 11.8905 13.557H11.9396V20.74H11.8905C11.5641 20.74 11.2986 21.0055 11.2986 21.3318V21.9609C11.0307 22.0173 10.8289 22.2556 10.8289 22.5401V23.2617H8.07467V22.5401C8.07467 22.2556 7.87287 22.0173 7.60492 21.9609ZM14.2619 21.4548H14.5454V21.9913H12.0136V21.4548H12.2971C12.4945 21.4548 12.6545 21.2948 12.6545 21.0974V13.1995C12.6545 13.0021 12.4945 12.842 12.2971 12.842H12.0136V12.3487H14.5454V12.842H14.2619C14.0644 12.842 13.9044 13.002 13.9044 13.1995V21.0974C13.9044 21.2948 14.0644 21.4548 14.2619 21.4548ZM11.6561 11.6338H11.6545H11.5438V11.0352H15.0151V11.6338H14.9028C14.9026 11.6338 14.9023 11.6338 14.902 11.6338C14.9018 11.6338 14.9015 11.6338 14.9012 11.6338H11.6561ZM11.5438 22.6886C11.5787 22.6999 11.6158 22.7063 11.6545 22.7063H14.9012C14.941 22.7063 14.9793 22.6994 15.0151 22.6874V23.2617H11.5438V22.6886ZM4.00079 11.6338H3.88849V11.0352H7.35981V11.6338H7.35977H7.24746H4.00079ZM3.88844 22.688C3.92378 22.6997 3.96147 22.7063 4.00074 22.7063H7.24746C7.28673 22.7063 7.32443 22.6997 7.35977 22.688V23.2617H3.88844V22.688ZM24.6533 23.9783L24.6524 24.7319C24.6524 24.7319 24.6522 24.7319 24.6516 24.7319L1.90556 24.7302L1.90728 23.9766L24.6533 23.9783ZM22.5571 22.7062C22.5968 22.7062 22.6348 22.6995 22.6705 22.6876V23.2617H19.1991V22.6883C19.2342 22.6998 19.2715 22.7062 19.3105 22.7062H22.5571ZM19.9524 12.8421H19.6689V12.3487H22.2007V12.842H21.9172C21.7197 12.842 21.5597 13.002 21.5597 13.1995V21.0974C21.5597 21.2948 21.7197 21.4549 21.9172 21.4549H22.2007V21.9913H19.6689V21.4549H19.9524C20.1498 21.4549 20.3098 21.2948 20.3098 21.0974V13.1995C20.3098 13.0021 20.1498 12.8421 19.9524 12.8421ZM22.6705 11.6338H22.5582C22.558 11.6338 22.5578 11.6338 22.5577 11.6338C22.5575 11.6338 22.5573 11.6338 22.5572 11.6338H19.3115H19.3105H19.1992V11.0352H22.6705V11.6338Z" fill="white"/>
<path d="M13.4307 5.92679V4.81083C13.8155 4.8383 13.9585 5.0142 14.0904 5.0142C14.2553 5.0142 14.3323 4.80533 14.3323 4.70089C14.3323 4.43156 13.8045 4.31611 13.4307 4.3051V4.15667C13.4307 4.09066 13.3483 4.03021 13.2658 4.03021C13.1723 4.03021 13.1064 4.09071 13.1064 4.15667V4.31611C12.5841 4.37105 12.0619 4.64594 12.0619 5.33858C12.0619 6.04223 12.6117 6.24015 13.1064 6.41605V7.70781C12.5457 7.66387 12.3972 7.27904 12.2158 7.27904C12.0784 7.27904 11.963 7.46045 11.963 7.59241C11.963 7.86179 12.4247 8.23011 13.1064 8.24112V8.41156C13.1064 8.47757 13.1723 8.53802 13.2658 8.53802C13.3482 8.53802 13.4307 8.47752 13.4307 8.41156V8.22465C14.0244 8.14223 14.4312 7.76841 14.4312 7.09223C14.4312 6.34459 13.909 6.10269 13.4307 5.92679ZM13.1394 5.82235C12.848 5.7124 12.6117 5.59695 12.6117 5.28359C12.6117 4.99774 12.8315 4.86032 13.1394 4.82184V5.82235ZM13.3978 7.6969V6.53696C13.6671 6.65241 13.8815 6.80634 13.8815 7.15268C13.8815 7.466 13.6946 7.64195 13.3978 7.6969Z" fill="white"/>
</svg>
