<svg width="60" height="54" viewBox="0 0 60 54" fill="none" xmlns="http://www.w3.org/2000/svg">
<path opacity="0.15" d="M6.94481 43.1802C6.94481 31.6519 0.973145 23.7352 0.973145 18.1802C0.973145 12.6252 4.16648 0.956909 29.7215 0.956909C55.2765 0.956909 59.0265 16.6519 59.0265 22.7619C59.0281 51.3736 6.94481 63.5969 6.94481 43.1802Z" fill="#4EAD4E"/>
<g clip-path="url(#clip0)">
<path d="M54.1133 19.6617L31.8039 41.9711C31.5878 42.1872 31.2374 42.1872 31.0213 41.9711L18.5312 29.4812C18.3151 29.2651 18.3151 28.9147 18.5312 28.6986L40.8407 6.38911C41.0568 6.17299 41.4072 6.17299 41.6233 6.38911L54.1133 18.879C54.3294 19.0952 54.3294 19.4456 54.1133 19.6617Z" fill="#5CC45C"/>
<path d="M54.1134 18.8791L50.749 15.5146L27.657 38.6067L31.0214 41.9711C31.2375 42.1873 31.5879 42.1873 31.8041 41.9711L54.1135 19.6617C54.3295 19.4456 54.3295 19.0952 54.1134 18.8791Z" fill="#4EAD4E"/>
<path d="M23.3255 30.5384C23.8122 29.6379 23.8122 28.5421 23.3255 27.6414C23.2602 27.5205 23.279 27.3716 23.3762 27.2745L39.4167 11.234C39.5139 11.1369 39.6627 11.118 39.7836 11.1834C40.684 11.6702 41.7799 11.6701 42.6807 11.1833C42.8016 11.1179 42.9504 11.1368 43.0476 11.2339L49.2685 17.4549C49.3657 17.5521 49.3846 17.7009 49.3192 17.8218C48.8323 18.7225 48.8324 19.8182 49.3192 20.7189C49.3846 20.8398 49.3657 20.9886 49.2685 21.0858L33.2279 37.1264C33.1308 37.2236 32.9819 37.2425 32.861 37.1771C31.9603 36.6903 30.8645 36.6904 29.9641 37.1771C29.8432 37.2425 29.6943 37.2236 29.5972 37.1264L23.3762 30.9054C23.279 30.8081 23.2602 30.6592 23.3255 30.5384Z" fill="#A0E557"/>
<path d="M49.3191 20.7188C48.8323 19.8182 48.8322 18.7224 49.3191 17.8217C49.3845 17.7008 49.3656 17.552 49.2684 17.4548L45.6864 13.8728C45.0429 14.8721 45.043 16.168 45.6864 17.1673L29.3096 33.5443C28.3102 32.9009 27.0143 32.9009 26.0151 33.5443L29.5972 37.1263C29.6943 37.2235 29.8432 37.2424 29.9641 37.177C30.8645 36.6903 31.9603 36.6903 32.861 37.1771C32.9819 37.2424 33.1308 37.2236 33.2279 37.1264L49.2684 21.0859C49.3656 20.9885 49.3845 20.8398 49.3191 20.7188Z" fill="#93CC4A"/>
<path d="M39.5385 27.3974C41.3152 25.6206 41.3152 22.7399 39.5385 20.9631C37.7617 19.1863 34.8809 19.1863 33.1041 20.9631C31.3273 22.7399 31.3273 25.6206 33.1041 27.3974C34.8809 29.1742 37.7617 29.1742 39.5385 27.3974Z" fill="#F3E8D7"/>
<path d="M30.927 34.9841L37.7915 28.1197C38.5825 27.3286 38.9189 26.3825 38.1278 25.5914C36.8811 24.0431 32.3298 25.2847 30.1709 27.4436C29.1241 28.4904 27.9354 29.6793 27.2803 30.3348C26.9597 30.6555 26.5251 30.8357 26.0661 30.8357H26.0425C25.2851 30.8357 24.398 30.1023 24.2027 29.3706L24.2023 23.0276L25.3351 21.8949L26.5796 20.6503L31.5224 15.7076C29.4889 15.4797 27.4668 15.3564 26.6824 15.2625C25.8104 15.158 25.0665 15.5487 24.3898 16.1085L18.0622 21.1007C17.1692 21.8395 16.5255 22.835 16.2171 23.9523C15.5263 26.4546 14.0712 30.8808 13.1477 32.641L8.53418 37.2545L16.5214 45.2417L18.7428 43.0203C19.1603 42.6028 19.6766 42.2976 20.2437 42.1332L24.883 40.571C26.3404 40.071 27.6234 39.1625 28.5791 37.9539L30.927 34.9841Z" fill="#FCD7C3"/>
<path d="M28.5788 37.954L30.927 34.9841L37.7915 28.1197C38.5826 27.3287 38.9189 26.3825 38.1278 25.5914C37.6695 25.0222 36.7646 24.8301 35.6963 24.922C34.1314 25.0566 32.6732 25.7719 31.5626 26.8826L27.194 31.2511L24.8458 34.2209C23.8901 35.4296 22.6071 36.338 21.1497 36.838L16.5104 38.4002C15.9433 38.5647 15.427 38.8699 15.0095 39.2874L12.7881 41.5087L16.5211 45.2417L18.7425 43.0204C19.16 42.6029 19.6763 42.2977 20.2434 42.1333L24.8827 40.571C26.3401 40.071 27.6231 39.1625 28.5788 37.954Z" fill="#FFCDAC"/>
<path d="M15.2256 47.7976L5.98105 38.5531C5.63848 38.2105 5.63848 37.655 5.98105 37.3125L7.60781 35.6857C7.95039 35.3431 8.50586 35.3431 8.84844 35.6857L18.093 44.9302C18.4355 45.2728 18.4355 45.8283 18.093 46.1709L16.4662 47.7976C16.1236 48.1402 15.5682 48.1402 15.2256 47.7976Z" fill="#464C50"/>
<path d="M18.093 44.9301L14.9576 41.7947L12.0901 44.6622L15.2255 47.7976C15.5681 48.1402 16.1236 48.1402 16.4662 47.7976L18.0929 46.1709C18.4356 45.8282 18.4356 45.2727 18.093 44.9301Z" fill="#33393A"/>
<path d="M37.5203 27.906C36.6092 26.995 35.1322 26.995 34.2211 27.906L33.1847 28.9424C32.7158 29.4114 32.7158 30.1718 33.1847 30.6408L34.2276 31.6837L37.7627 28.1485L37.5203 27.906Z" fill="#EFEFEF"/>
<path d="M54.6255 18.3669L42.1356 5.87692C41.8943 5.63561 41.5733 5.5027 41.2321 5.5027C40.8907 5.5027 40.5699 5.63571 40.3286 5.87692L33.4598 12.7456C33.177 13.0285 33.177 13.487 33.4598 13.77C33.7426 14.0526 34.2011 14.0528 34.4842 13.77L41.2321 7.02213L53.4803 19.2704L31.4125 41.3382L28.8413 38.767C28.9458 38.6484 29.0484 38.5278 29.1469 38.4033L29.5417 37.904C29.7918 37.9724 30.0652 37.9457 30.3085 37.8142C30.9895 37.4462 31.8357 37.4462 32.5167 37.8142C32.6745 37.8996 32.8451 37.9412 33.0136 37.9412C33.2798 37.9412 33.5413 37.8375 33.74 37.6385L35.4203 35.9584C35.7032 35.6756 35.7032 35.217 35.4204 34.9341C35.1375 34.6512 34.679 34.6511 34.396 34.934L32.9264 36.4035C32.3004 36.1283 31.6209 36.0325 30.9573 36.1136L31.469 35.4666L34.7391 32.1966C34.7393 32.1964 34.7395 32.1963 34.7396 32.1961L37.6531 29.2826C38.5601 29.0469 39.3857 28.5755 40.0517 27.9095C42.1079 25.8533 42.1079 22.5072 40.0516 20.4508C37.9954 18.3946 34.6494 18.3947 32.5929 20.4509C31.2214 21.8225 30.7273 23.86 31.2716 25.6929C30.6637 26.0606 30.1112 26.4792 29.6587 26.9316L26.768 29.823C26.5821 30.0091 26.3328 30.1116 26.0662 30.1116H26.0425C25.6494 30.1116 25.087 29.6722 24.927 29.2587L24.9268 26.7484L39.7181 11.957C40.6849 12.3822 41.7794 12.3821 42.7461 11.957L48.5457 17.7565C48.1207 18.7233 48.1207 19.8177 48.5457 20.7845L36.8183 32.5116C36.5355 32.7945 36.5355 33.253 36.8183 33.536C36.9598 33.6774 37.1452 33.7481 37.3305 33.7481C37.5159 33.7481 37.7012 33.6774 37.8427 33.536L49.7809 21.5977C50.1056 21.2726 50.1761 20.7811 49.9563 20.3745C49.5882 19.6935 49.5882 18.8473 49.9561 18.1668C50.1765 17.7597 50.1059 17.2677 49.7807 16.9428L43.5597 10.7218C43.2346 10.3969 42.7432 10.3263 42.3363 10.5462C41.6551 10.9142 40.809 10.9145 40.1281 10.5463C39.7215 10.3265 39.2299 10.3969 38.9045 10.7218L24.9266 24.6997L24.9265 23.3277L32.0343 16.2199C32.231 16.0231 32.2977 15.7309 32.2057 15.4682C32.1137 15.2055 31.8794 15.0188 31.6028 14.988C30.394 14.8525 29.205 14.7549 28.2497 14.6766C27.5946 14.6229 27.0771 14.5804 26.7683 14.5433C25.8169 14.4297 24.8896 14.7571 23.9345 15.5451L17.6132 20.5322C17.6088 20.5356 17.6044 20.5391 17.6001 20.5427C16.5883 21.38 15.8685 22.4923 15.5186 23.7595C14.8632 26.1332 13.4473 30.45 12.5553 32.2087L9.47563 35.2884L9.3606 35.1734C9.05806 34.871 8.65581 34.7044 8.22808 34.7044C7.80034 34.7044 7.3981 34.871 7.09565 35.1734L5.4688 36.8003C5.16636 37.1028 4.99976 37.505 4.99976 37.9327C4.99976 38.3604 5.16636 38.7627 5.4688 39.0652L14.7133 48.3097C15.0159 48.6122 15.4181 48.7788 15.8458 48.7788C16.2736 48.7788 16.6757 48.6122 16.9783 48.3097L18.605 46.6829C18.9076 46.3804 19.0742 45.9782 19.0742 45.5505C19.0742 45.1227 18.9076 44.7205 18.6051 44.4179L18.4872 44.3L19.2546 43.5326C19.5849 43.2023 19.9964 42.959 20.445 42.8289C20.4548 42.826 20.4647 42.8229 20.4744 42.8196L25.1176 41.256C26.0979 40.9197 27.0023 40.416 27.7966 39.7709L30.509 42.4833C30.7503 42.7246 31.0713 42.8575 31.4125 42.8575C31.754 42.8575 32.0748 42.7245 32.3161 42.4833L54.6255 20.174C54.8668 19.9327 54.9998 19.6117 54.9998 19.2704C54.9998 18.9292 54.8668 18.6083 54.6255 18.3669ZM34.2274 30.6594L33.6967 30.1286C33.5109 29.9428 33.5109 29.6404 33.6967 29.4546L34.7332 28.4181C35.0467 28.1046 35.4585 27.9477 35.8705 27.9477C36.1603 27.9477 36.4503 28.0255 36.706 28.1807L34.2274 30.6594ZM33.6172 21.4751C35.1088 19.9834 37.5358 19.9836 39.0274 21.475C40.4204 22.868 40.5121 25.0764 39.3033 26.5773C39.3013 26.0388 39.0858 25.5368 38.6665 25.106C38.2043 24.5544 37.4505 24.2355 36.4837 24.1836C35.3125 24.1201 33.9018 24.4426 32.5906 25.0129C32.314 23.7551 32.688 22.4044 33.6172 21.4751ZM17.5808 45.6586L15.954 47.2854C15.9169 47.3225 15.8748 47.3303 15.8458 47.3303C15.8169 47.3303 15.7747 47.3225 15.7376 47.2854L6.49312 38.0409C6.45601 38.0039 6.44819 37.9617 6.44819 37.9327C6.44819 37.9038 6.45601 37.8616 6.49312 37.8246L8.11997 36.1976C8.15698 36.1606 8.19917 36.1528 8.22808 36.1528C8.25698 36.1528 8.29927 36.1606 8.33628 36.1977L17.5808 45.4423C17.6179 45.4793 17.6257 45.5215 17.6257 45.5505C17.6257 45.5794 17.6179 45.6217 17.5808 45.6586ZM28.8308 36.4676L28.0107 37.5049C27.7986 37.7731 27.5689 38.0246 27.324 38.2586C27.3213 38.2611 27.3184 38.2633 27.3158 38.266C27.3139 38.2678 27.3124 38.2699 27.3105 38.2717C26.5525 38.9923 25.6479 39.5428 24.6514 39.8847L20.0259 41.4423C19.3496 41.6413 18.729 42.0097 18.2303 42.5083L17.4628 43.2757L10.5 36.3129L13.6594 33.1532C13.7111 33.1015 13.7546 33.0424 13.7886 32.9776C14.7358 31.1724 16.2128 26.6882 16.9148 24.1452C17.1845 23.1682 17.7386 22.3105 18.5172 21.6641L24.838 16.6775C24.8423 16.674 24.8468 16.6706 24.851 16.667C25.5041 16.1268 26.0424 15.9155 26.5958 15.9818C26.9316 16.022 27.4609 16.0655 28.1311 16.1205C28.6697 16.1647 29.2833 16.215 29.931 16.2747L23.69 22.5158C23.5541 22.6516 23.4779 22.8359 23.4779 23.0279C23.4779 23.0285 23.4779 23.0273 23.4779 23.0279L23.4783 29.3709C23.4783 29.434 23.4865 29.4967 23.5028 29.5577C23.7876 30.6245 24.9744 31.5602 26.0424 31.5602H26.0661C26.7197 31.5602 27.3329 31.3069 27.7924 30.847L30.683 27.956C31.1567 27.4823 31.7711 27.0478 32.4458 26.6857C32.4484 26.6845 32.4511 26.6838 32.4539 26.6826C32.4846 26.669 32.5134 26.6529 32.5413 26.6357C33.8075 25.9741 35.2688 25.5678 36.4058 25.6302C36.9606 25.66 37.3718 25.8077 37.5636 26.0459C37.5799 26.0661 37.5973 26.0854 37.6156 26.1038C37.8719 26.36 37.871 26.5667 37.8418 26.718C37.8192 26.8349 37.7653 26.963 37.6865 27.0963C36.4907 26.2123 34.7916 26.3114 33.7088 27.3939L32.6724 28.4303C32.3088 28.794 32.1085 29.2775 32.1085 29.7917C32.1085 30.3059 32.3088 30.7894 32.6724 31.153L33.2032 31.6838L30.4149 34.472C30.3951 34.492 30.3764 34.513 30.3589 34.535L28.8329 36.4651C28.8322 36.466 28.8315 36.4668 28.8308 36.4676Z" fill="black"/>
</g>
<defs>
<clipPath id="clip0">
<rect width="50" height="50" fill="white" transform="translate(4.99976 2.14078)"/>
</clipPath>
</defs>
</svg>
