<svg width="50" height="51" viewBox="0 0 50 51" fill="none" xmlns="http://www.w3.org/2000/svg">
<g clip-path="url(#clip0)">
<path d="M31.6959 35.5845H18.304C16.6843 35.5845 15.3714 34.2716 15.3714 32.6519V24.1475C15.3714 22.5279 16.6843 21.215 18.304 21.215H31.6959C33.3156 21.215 34.6285 22.5279 34.6285 24.1475V32.6519C34.6285 34.2716 33.3156 35.5845 31.6959 35.5845Z" fill="#FECA9C"/>
<path d="M26.9061 26.9292C26.9061 25.8393 25.9913 24.963 24.8877 25.0263C23.9532 25.0799 23.1827 25.8256 23.1012 26.7581C23.0587 27.2452 23.1997 27.6981 23.4627 28.0561C23.5102 28.1208 23.5337 28.2 23.5337 28.2803V30.3102C23.5337 31.12 24.1902 31.7765 24.9999 31.7765C25.8097 31.7765 26.4662 31.12 26.4662 30.3102V28.2804C26.4662 28.2003 26.4894 28.1211 26.5368 28.0566C26.7689 27.7408 26.9061 27.3511 26.9061 26.9292Z" fill="#685E68"/>
<path d="M42.1965 12.2129C38.8575 11.085 36.1854 8.43536 35.0487 5.125C34.892 4.6685 34.4642 4.36176 33.9842 4.36176H16.0158C15.5359 4.36176 15.1082 4.6685 14.9513 5.1251C13.8146 8.43536 11.1426 11.085 7.80369 12.2128C7.34386 12.368 7.03497 12.7966 7.03497 13.2791V21.7969C7.03497 27.6015 8.87631 33.1225 12.36 37.7628C15.4371 41.8618 19.7871 45.1018 24.6086 46.8862C24.861 46.9795 25.139 46.9795 25.3913 46.8862C29.5635 45.3421 33.3328 42.7587 36.2917 39.4154C36.56 39.1122 36.5317 38.6489 36.2285 38.3805C35.9252 38.1121 35.4618 38.1404 35.1936 38.4437C32.4222 41.5752 28.8996 44.0018 24.9999 45.4672C20.4862 43.7706 16.4175 40.7256 13.5325 36.8826C10.2409 32.498 8.50114 27.2815 8.50114 21.7969V13.5224C12.0852 12.2351 14.9593 9.38395 16.2576 5.82793H33.7421C35.0404 9.38395 37.9145 12.2351 41.4986 13.5224V21.7969C41.4986 26.7985 40.0342 31.6271 37.2637 35.7606C37.0383 36.0969 37.1281 36.5524 37.4645 36.7778C37.8008 37.0033 38.2563 36.9134 38.4817 36.577C41.4146 32.2012 42.9649 27.0903 42.9649 21.797V13.2792C42.965 12.7967 42.6561 12.3681 42.1965 12.2129ZM22.8006 30.31C22.8006 31.5229 23.7872 32.5095 25 32.5095C26.2128 32.5095 27.1994 31.5229 27.1994 30.31V28.388C27.4876 27.9549 27.6393 27.4532 27.6393 26.9291C27.6393 26.206 27.3377 25.5065 26.8119 25.0099C26.2786 24.5063 25.5803 24.2525 24.8459 24.2942C23.5481 24.3685 22.484 25.4003 22.3709 26.6941C22.3184 27.2942 22.4706 27.8909 22.8006 28.3879V30.31ZM23.8317 26.8218C23.8818 26.2484 24.3539 25.7912 24.9298 25.7581C24.9532 25.7568 24.9766 25.7561 24.9999 25.7561C25.3014 25.7561 25.5852 25.8682 25.8052 26.076C26.0424 26.3001 26.173 26.603 26.173 26.9291C26.173 27.1806 26.0945 27.4202 25.9461 27.6223C25.8068 27.8118 25.7331 28.0394 25.7331 28.2801V30.3099C25.7331 30.7143 25.4043 31.0431 25 31.0431C24.5957 31.0431 24.2668 30.7143 24.2668 30.3099V28.28C24.2668 28.0395 24.1931 27.8118 24.0536 27.622C23.9347 27.46 23.7995 27.1896 23.8317 26.8218ZM45.0686 9.16107C41.4224 8.7901 38.5029 5.89822 38.1269 2.28463C38.0357 1.40926 37.3046 0.749146 36.426 0.749146H13.574C12.6955 0.749146 11.9643 1.40926 11.8733 2.28463C11.4971 5.89812 8.57768 8.7901 4.93145 9.16107C4.05422 9.25032 3.39264 9.9816 3.39264 10.8621V21.797C3.39264 28.3283 5.4508 34.5518 9.34464 39.7946C11.2181 42.3171 13.4628 44.5306 16.0166 46.3735C18.6019 48.2393 21.4473 49.6837 24.4737 50.6665C24.8131 50.7767 25.187 50.7767 25.5264 50.6665C28.5527 49.6836 31.398 48.2392 33.9834 46.3735C36.5371 44.5305 38.7819 42.3171 40.6553 39.7946C44.5491 34.5518 46.6073 28.3283 46.6073 21.797V10.8621C46.6073 9.9816 45.9458 9.25022 45.0686 9.16107ZM45.141 21.797C45.141 28.0111 43.1829 33.9322 39.4782 38.9204C35.8454 43.8117 30.8643 47.3912 25.0734 49.2719C25.0261 49.2873 24.9739 49.2873 24.9266 49.2719C19.1356 47.3912 14.1544 43.8117 10.5218 38.9204C6.81718 33.9322 4.85891 28.0111 4.85891 21.797V10.8621C4.85891 10.7367 4.95383 10.6325 5.07983 10.6198C9.41356 10.179 12.8839 6.73732 13.3316 2.43644C13.3447 2.31044 13.4489 2.21542 13.574 2.21542H36.426C36.551 2.21542 36.6552 2.31044 36.6683 2.43644C37.116 6.73732 40.5864 10.179 44.9202 10.6198C45.0461 10.6326 45.141 10.7368 45.141 10.8621V21.797ZM19.0553 13.1458C19.2709 12.8031 19.1679 12.3505 18.8252 12.1349C18.4825 11.9191 18.0298 12.0224 17.8142 12.365C16.965 13.7148 16.5161 15.2731 16.5161 16.8713V20.949C15.3967 21.5772 14.6383 22.7751 14.6383 24.1475V32.6519C14.6383 34.6732 16.2827 36.3176 18.304 36.3176H31.696C33.7173 36.3176 35.3617 34.6732 35.3617 32.6519V24.1475C35.3617 22.7751 34.6032 21.5773 33.4838 20.949V16.8713C33.4838 12.1933 29.678 8.38746 25 8.38746C23.3843 8.38746 21.8117 8.84543 20.4521 9.7119C20.1106 9.9295 20.0102 10.3827 20.2278 10.7241C20.4455 11.0656 20.8986 11.1661 21.24 10.9484C22.3638 10.2322 23.6639 9.85374 24.9999 9.85374C28.8694 9.85374 32.0175 13.0018 32.0175 16.8713V20.4968C31.9114 20.4875 31.8043 20.4818 31.6959 20.4818H30.5512V16.8713C30.5512 15.3883 29.9737 13.994 28.9246 12.9449C27.8755 11.897 26.4817 11.3199 24.9999 11.3199C21.9389 11.3199 19.4486 13.8102 19.4486 16.8712V20.4817H18.3039C18.1955 20.4817 18.0883 20.4874 17.9823 20.4967V16.8713C17.9824 15.5497 18.3534 14.2615 19.0553 13.1458ZM20.9149 16.8713C20.9149 14.6188 22.7475 12.7863 25 12.7863C26.0905 12.7863 27.1163 13.2111 27.8882 13.9821C28.66 14.7539 29.085 15.78 29.085 16.8713V20.4818H20.9149V16.8713ZM18.304 21.9481H31.696C32.9088 21.9481 33.8954 22.9347 33.8954 24.1475V32.6519C33.8954 33.8647 32.9088 34.8513 31.696 34.8513H18.304C17.0912 34.8513 16.1046 33.8647 16.1046 32.6519V24.1475C16.1046 22.9347 17.0913 21.9481 18.304 21.9481Z" fill="#171D24"/>
</g>
<defs>
<clipPath id="clip0">
<rect width="50" height="50" fill="white" transform="translate(0 0.749146)"/>
</clipPath>
</defs>
</svg>
