<svg width="60" height="54" viewBox="0 0 60 54" fill="none" xmlns="http://www.w3.org/2000/svg">
<path opacity="0.15" d="M6.94481 43.1791C6.94481 31.6508 0.973145 23.7341 0.973145 18.1791C0.973145 12.6241 4.16648 0.957458 29.7215 0.957458C55.2765 0.957458 59.0265 16.6525 59.0265 22.7625C59.0281 51.3741 6.94481 63.5958 6.94481 43.1791Z" fill="#5C95E6"/>
<g clip-path="url(#clip0)">
<path d="M47.9012 20.5608L25.2735 43.1881C24.2511 44.2108 22.5933 44.2108 21.5705 43.1881L8.25532 29.8729C7.2326 28.8502 7.2326 27.1923 8.25532 26.17L30.8826 3.54228C31.9053 2.51994 33.5632 2.51994 34.5856 3.54228L47.9012 16.8579C48.9235 17.8802 48.9235 19.5381 47.9012 20.5608Z" fill="#8CBAFA"/>
<path d="M47.901 16.8579L46.2389 15.1958C47.1495 16.1064 47.0587 17.6735 46.0364 18.6962L23.4087 41.3235C22.3863 42.3462 20.8193 42.437 19.9087 41.5264L21.5704 43.1881C22.5931 44.2108 24.251 44.2108 25.2733 43.1881L47.901 20.5608C48.9233 19.5381 48.9233 17.8802 47.901 16.8579Z" fill="#5692D8"/>
<path d="M30.5127 8.69975L28.2956 10.9169C27.4236 11.7885 27.4236 13.2015 28.2956 14.0731C29.1673 14.9448 30.5803 14.9448 31.4519 14.0731L33.669 11.856C34.5407 10.9844 34.5407 9.57141 33.669 8.69975C32.7974 7.82809 31.3844 7.82809 30.5127 8.69975Z" fill="#FFCD34"/>
<path d="M50.0376 27.2434H18.0376C16.5914 27.2434 15.4192 28.4157 15.4192 29.8615V48.6924C15.4192 50.1385 16.5914 51.3108 18.0376 51.3108H50.0376C51.4834 51.3108 52.6557 50.1385 52.6557 48.6924V29.8615C52.6557 28.4157 51.4834 27.2434 50.0376 27.2434Z" fill="#FFCD34"/>
<path d="M50.0376 27.2434H47.6938C49.1396 27.2434 50.3119 28.4157 50.3119 29.8615V48.6924C50.3119 50.1385 49.1396 51.3108 47.6938 51.3108H50.0376C51.4834 51.3108 52.6556 50.1385 52.6556 48.6924V29.8615C52.6556 28.4157 51.4834 27.2434 50.0376 27.2434Z" fill="#E69012"/>
<path d="M15.4192 33.1589H52.6557V37.6828H15.4192V33.1589Z" fill="#575B7A"/>
<path d="M50.3118 33.1589H52.6555V37.6828H50.3118V33.1589Z" fill="#252D4C"/>
<path d="M43.5037 44.9112V47.7013C43.5037 47.9173 43.6784 48.092 43.8943 48.092H48.3323C48.5482 48.092 48.7229 47.9173 48.7229 47.7013V44.9112C48.7229 44.6953 48.5482 44.5206 48.3323 44.5206H43.8943C43.6784 44.5206 43.5037 44.6953 43.5037 44.9112Z" fill="#E9E9EA"/>
<path d="M30.123 44.9112V47.7013C30.123 47.9173 30.2981 48.092 30.5137 48.092H39.9005C40.1164 48.092 40.2911 47.9173 40.2911 47.7013V44.9112C40.2911 44.6953 40.1164 44.5206 39.9005 44.5206H30.5137C30.2981 44.5206 30.123 44.6953 30.123 44.9112Z" fill="#E9E9EA"/>
<path d="M8.77326 29.3553C8.03778 28.6198 8.03778 27.4231 8.77326 26.688L26.7211 8.7402C27.0072 8.4541 27.0072 7.99023 26.7211 7.70451C26.435 7.41803 25.9711 7.41841 25.6854 7.70451L7.73718 25.6523C6.43103 26.9585 6.43103 29.0844 7.73718 30.3909L12.258 34.9114C12.4007 35.054 12.5883 35.1258 12.7756 35.1258C12.9633 35.1258 13.1506 35.0544 13.2937 34.9114C13.5798 34.6253 13.5798 34.1614 13.2937 33.8757L8.77326 29.3553Z" fill="black"/>
<path d="M23.1716 16.6294L12.0884 27.7126C11.8023 27.9987 11.8023 28.4626 12.0884 28.7487C12.2314 28.8914 12.4187 28.9631 12.6064 28.9631C12.7937 28.9631 12.981 28.8917 13.124 28.7487L24.2073 17.6655C24.4934 17.3794 24.4934 16.9155 24.2073 16.6294C23.9216 16.3437 23.4577 16.3437 23.1716 16.6294Z" fill="black"/>
<path d="M29.8738 15.4583C30.633 15.4583 31.3921 15.1695 31.97 14.5916L34.1871 12.3745C35.343 11.2186 35.343 9.33797 34.1871 8.18211C33.0313 7.02625 31.1506 7.02625 29.9948 8.18211L27.7776 10.3992C27.2177 10.9592 26.9094 11.7035 26.9094 12.4954C26.9094 13.287 27.2177 14.0316 27.7776 14.5916C28.3556 15.1695 29.1147 15.4583 29.8738 15.4583ZM28.8133 11.4349L31.0304 9.2178C31.6152 8.63301 32.5666 8.63301 33.151 9.2178C33.7358 9.8026 33.7358 10.754 33.151 11.3384L30.9339 13.5555C30.3495 14.1403 29.3981 14.1403 28.8133 13.5555C28.5303 13.2725 28.3743 12.8959 28.3743 12.4954C28.3743 12.0949 28.5303 11.718 28.8133 11.4349Z" fill="black"/>
<path d="M50.0373 26.511H42.9869L48.4191 21.0789C49.7256 19.7723 49.7256 17.6464 48.4191 16.3399L35.1034 3.02463C34.4706 2.39177 33.6291 2.04311 32.7341 2.04311C31.8392 2.04311 30.9977 2.39177 30.3644 3.02463L27.7552 5.63389C27.4695 5.91999 27.4695 6.38348 27.7552 6.66958C28.0413 6.95568 28.5052 6.95568 28.7909 6.66958L31.4005 4.06032C31.7564 3.70403 32.2302 3.50795 32.7341 3.50795C33.2377 3.50795 33.7115 3.70403 34.0678 4.06032L47.383 17.3756C48.1185 18.111 48.1185 19.3073 47.383 20.0428L40.9152 26.5106H22.4058L27.7296 21.1868C28.0157 20.9011 28.0157 20.4372 27.7296 20.1511C27.4435 19.865 26.9797 19.865 26.6939 20.1511L20.3344 26.511H18.0376C16.1898 26.511 14.6868 28.014 14.6868 29.8615V48.6924C14.6868 50.5398 16.1898 52.0432 18.0376 52.0432H50.0373C51.8851 52.0432 53.3881 50.5398 53.3881 48.6924V45.9855C53.3881 45.5807 53.0604 45.253 52.6557 45.253C52.2513 45.253 51.9232 45.5807 51.9232 45.9855V48.6924C51.9232 49.7323 51.0775 50.5784 50.0373 50.5784H18.0376C16.9977 50.5784 16.1516 49.7323 16.1516 48.6924V38.4152H51.9232V43.0558C51.9232 43.4601 52.2509 43.7882 52.6557 43.7882C53.0604 43.7882 53.3881 43.4601 53.3881 43.0558V29.8618C53.3881 28.014 51.8851 26.511 50.0373 26.511ZM18.0376 27.9759H50.0373C51.0771 27.9759 51.9232 28.822 51.9232 29.8618V32.4269H16.1516V29.8618C16.1516 28.822 16.9977 27.9759 18.0376 27.9759ZM16.1516 36.9503V33.8917H51.9232V36.9503H16.1516Z" fill="black"/>
<path d="M43.8943 43.7882C43.2752 43.7882 42.7712 44.2921 42.7712 44.9112V47.7013C42.7712 48.3208 43.2752 48.8244 43.8943 48.8244H48.3323C48.9514 48.8244 49.4554 48.3208 49.4554 47.7013V44.9112C49.4554 44.2921 48.9514 43.7882 48.3323 43.7882H43.8943ZM47.9905 47.3595H44.2361V45.253H47.9905V47.3595Z" fill="black"/>
<path d="M30.5137 43.7882C29.8945 43.7882 29.3906 44.2921 29.3906 44.9112V47.7013C29.3906 48.3208 29.8945 48.8244 30.5137 48.8244H39.9005C40.5197 48.8244 41.0236 48.3208 41.0236 47.7013V44.9112C41.0236 44.2921 40.5197 43.7882 39.9005 43.7882H30.5137ZM39.5587 47.3595H30.8555V45.253H39.5587V47.3595Z" fill="black"/>
<path d="M21.6199 47.3595C21.2155 47.3595 20.8875 47.6876 20.8875 48.0919C20.8875 48.4967 21.2155 48.8244 21.6199 48.8244H26.2967C26.7011 48.8244 27.0291 48.4967 27.0291 48.0919C27.0291 47.6876 26.7011 47.3595 26.2967 47.3595H21.6199Z" fill="black"/>
</g>
<defs>
<clipPath id="clip0">
<rect width="50" height="50" fill="white" transform="translate(4.99976 2.14076)"/>
</clipPath>
</defs>
</svg>
