<svg width="60" height="56" viewBox="0 0 60 56" fill="none" xmlns="http://www.w3.org/2000/svg">
<path opacity="0.15" d="M6.94481 45.2524C6.94481 33.7241 0.973145 25.8074 0.973145 20.2524C0.973145 14.6974 4.16648 3.03076 29.7215 3.03076C55.2765 3.03076 59.0265 18.7258 59.0265 24.8358C59.0281 53.4474 6.94481 65.6691 6.94481 45.2524Z" fill="#4A83C9"/>
<g clip-path="url(#clip0)">
<path fill-rule="evenodd" clip-rule="evenodd" d="M30.0973 45.9002H7.94231C6.70825 45.9002 5.9724 45.2143 5.93311 44.3354V48.6262C5.93311 49.4632 6.61861 50.1487 7.4525 50.1487H52.7364C53.5703 50.1487 54.2562 49.4632 54.2562 48.6262V44.4335C54.1692 45.2647 53.4417 45.9002 52.2554 45.9002H30.0973Z" fill="#8A541E"/>
<path fill-rule="evenodd" clip-rule="evenodd" d="M7.78552 40.9854L6.36951 43.006C6.08951 43.4066 5.94989 43.8124 5.93311 44.1874V44.3358C5.9724 45.2143 6.70825 45.9002 7.94231 45.9002H52.2554C53.4417 45.9002 54.1692 45.2651 54.2562 44.4335C54.3035 43.9913 54.1692 43.4931 53.8251 43.006L52.4091 40.9854C51.7682 40.0702 50.9847 38.959 49.8876 38.8751C49.8456 38.872 49.1853 38.8694 49.1407 38.8694C47.8589 39.9779 45.2146 40.3388 42.2483 40.3388H17.5939C14.6306 40.3388 11.9832 39.9779 10.7041 38.8694C10.6511 38.8694 10.3349 38.8724 10.2845 38.8751C9.20154 38.9731 8.42372 40.0756 7.78552 40.9854Z" fill="#B5722F"/>
<path fill-rule="evenodd" clip-rule="evenodd" d="M10.4972 35.0688C9.55959 36.8403 9.76406 38.0549 10.7044 38.8694C11.9831 39.9779 14.6305 40.3388 17.5941 40.3388H18.386L21.3493 37.5514L17.826 34.7972C15.1371 32.6953 12.3554 34.0106 10.4972 35.0688Z" fill="#FFDDA6"/>
<path fill-rule="evenodd" clip-rule="evenodd" d="M42.0187 34.7972L39.8218 37.5598L41.459 40.3388H42.2483C45.2146 40.3388 47.859 39.9779 49.1407 38.8694C50.078 38.0549 50.2851 36.8403 49.3478 35.0688C47.4867 34.0106 45.3321 33.9881 42.0187 34.7972Z" fill="#FFDDA6"/>
<path fill-rule="evenodd" clip-rule="evenodd" d="M19.8887 24.2595C16.4158 24.4441 15.1036 26.364 13.4327 29.5211L10.4973 35.0688C12.3555 34.0106 14.51 33.9881 17.8261 34.7972H42.0185C45.332 33.9881 47.4865 34.0106 49.3473 35.0688L46.4093 29.5211C44.7384 26.364 43.4288 24.4468 39.9559 24.2595C39.1724 24.2202 38.5094 24.1225 37.9132 23.9123L21.8922 23.9238C21.3047 24.1279 20.6555 24.2202 19.8887 24.2595Z" fill="#64B0D9"/>
<path fill-rule="evenodd" clip-rule="evenodd" d="M38.3922 11.8548C36.0526 13.6153 36.8472 15.0622 38.2522 15.8683C39.363 15.8851 40.6028 14.7407 40.6028 13.618V12.7421C40.6028 12.2523 40.2026 11.8548 39.7159 11.8548H38.3922Z" fill="#EDA93B"/>
<path fill-rule="evenodd" clip-rule="evenodd" d="M18.6379 13.618C18.6379 14.7407 19.8773 15.8851 20.9855 15.8683L22.7654 13.6767L20.8486 11.8548H19.5249C19.0381 11.8548 18.6379 12.2523 18.6379 12.7421V13.618Z" fill="#EDA93B"/>
<path fill-rule="evenodd" clip-rule="evenodd" d="M41.7333 37.6212L41.459 40.3388H42.2482C45.2146 40.3388 47.8589 39.9779 49.1406 38.8694C49.9467 38.1698 50.2122 37.176 49.6778 35.7852C49.5744 35.9164 49.4569 36.037 49.3253 36.1518C48.0435 37.2626 45.3992 37.6212 42.4329 37.6212H41.7333Z" fill="#FCC368"/>
<path fill-rule="evenodd" clip-rule="evenodd" d="M10.1504 35.8271C9.63546 37.1959 9.90439 38.1781 10.7047 38.8694C11.9834 39.9779 14.6308 40.3388 17.5944 40.3388H18.3864L18.1064 37.5682H17.3144C14.3508 37.5682 11.7034 37.2069 10.4247 36.0988C10.324 36.0118 10.2344 35.9221 10.1504 35.8271Z" fill="#FCC368"/>
<path fill-rule="evenodd" clip-rule="evenodd" d="M36.2566 25.6419C36.7941 25.8044 37.3873 25.8826 38.0732 25.9192C41.5457 26.1039 42.8556 28.0211 44.5288 31.1782L46.1435 34.2288C47.3665 34.257 48.3965 34.5256 49.3479 35.0688L46.4094 29.5211C44.739 26.364 43.429 24.4468 39.9561 24.2595C39.1725 24.2202 38.5096 24.1225 37.9133 23.9123C37.5246 24.5841 36.9535 25.1605 36.2566 25.6419Z" fill="#4A83C9"/>
<path fill-rule="evenodd" clip-rule="evenodd" d="M22.0659 24.1671C25.0631 28.7066 35.3723 28.3038 37.9133 23.9123C37.1271 23.6323 36.4527 23.1566 35.7473 22.3422C35.4986 22.0595 34.8158 21.3878 34.7765 21.3374L30.3018 18.4993L24.7972 21.6143C24.5706 21.844 24.2513 22.166 24.0976 22.3422C23.3812 23.1681 22.6927 23.6491 21.8923 23.9238C21.94 24.0073 22.0129 24.0859 22.0659 24.1671Z" fill="#FCC368"/>
<path fill-rule="evenodd" clip-rule="evenodd" d="M20.986 15.8683C21.425 17.9088 22.8746 20.0919 24.7972 21.6143C25.4915 22.1629 26.2468 22.6249 27.0361 22.9663C27.1677 23.0224 27.302 23.0754 27.4336 23.1261C29.0285 23.7166 30.2263 23.7136 31.8159 23.1204C32.879 22.7229 33.8865 22.1015 34.7765 21.3374C36.5339 19.8344 37.8408 17.7886 38.252 15.8687C38.3444 15.4487 38.392 15.0344 38.392 14.6342V9.86775L30.3018 7.6846L20.8486 9.86775V14.6342C20.8486 15.0344 20.8963 15.4487 20.986 15.8683Z" fill="#FFDDA6"/>
<path fill-rule="evenodd" clip-rule="evenodd" d="M35.9433 10.6795V15.446C35.9433 15.8461 35.8956 16.2604 35.8064 16.68C35.3948 18.6 34.0852 20.6462 32.3304 22.1492C31.7037 22.6836 31.0208 23.1509 30.3018 23.5206C30.7801 23.4561 31.2757 23.3218 31.8158 23.1204C32.0985 23.017 32.3781 22.8938 32.6497 22.7595C33.405 22.3842 34.1245 21.8974 34.7764 21.3374C36.5338 19.8344 37.8407 17.7886 38.252 15.8687C38.3443 15.4487 38.392 15.0344 38.392 14.6342V9.86775C37.4993 10.2065 36.6876 10.4724 35.9433 10.6795Z" fill="#FCC368"/>
<path fill-rule="evenodd" clip-rule="evenodd" d="M20.8486 9.86774C28.5082 7.80209 27.8867 13.8617 38.392 9.86774C43.2474 6.33572 38.487 -0.502128 33.2906 2.26315C30.7245 3.62919 27.5202 1.63906 24.8338 2.82009C22.2002 3.979 20.8486 6.45321 20.8486 9.86774Z" fill="#808080"/>
<path fill-rule="evenodd" clip-rule="evenodd" d="M32.8875 2.44778C37.1439 2.08385 40.1495 7.62012 35.9434 10.6795C36.6876 10.4724 37.4994 10.2065 38.392 9.86774C43.2474 6.33572 38.487 -0.502128 33.2907 2.26315C33.156 2.33334 33.0217 2.39475 32.8875 2.44778Z" fill="#666666"/>
<path fill-rule="evenodd" clip-rule="evenodd" d="M34.1523 24.3182C34.7569 24.9423 35.3528 25.3287 36.0299 25.5694C36.1054 25.5946 36.1783 25.6198 36.2565 25.6419C36.9534 25.1605 37.5245 24.5841 37.9132 23.9123L37.8712 23.8955C37.1045 23.6155 36.4384 23.1425 35.7445 22.3449C35.4981 22.0595 34.8153 21.3878 34.7764 21.3374C33.8864 22.1015 32.8789 22.7229 31.8154 23.1204C30.2262 23.7136 29.0284 23.7166 27.4331 23.1257C27.3015 23.0754 27.1672 23.0224 27.0359 22.9663C26.2467 22.6249 25.491 22.1629 24.7971 21.6143C24.5705 21.844 24.2512 22.166 24.0975 22.3422C24.0136 22.4402 23.9323 22.5295 23.8484 22.6165C24.0891 22.832 24.3382 23.0391 24.5957 23.2348C25.3174 23.7834 26.1067 24.2453 26.9322 24.5868C27.0695 24.6428 27.2065 24.6962 27.3465 24.7435C29.0059 25.3371 30.2567 25.3341 31.9165 24.7409C32.3891 24.5726 32.8511 24.3628 33.2959 24.1168C33.458 24.0271 33.7075 23.8593 34.1523 24.3182Z" fill="#EDA93B"/>
<path fill-rule="evenodd" clip-rule="evenodd" d="M19.5894 42.6593L18.3858 40.3388H17.5939C14.6307 40.3388 11.9833 39.9779 10.7042 38.8694C10.6512 38.8694 10.3349 38.8724 10.2846 38.8751C9.71085 38.9281 9.22409 39.2611 8.7957 39.6979C8.77892 39.7147 8.77052 39.7231 8.77052 39.7231C8.65608 39.8463 8.54393 39.9722 8.4375 40.1065C9.35265 42.5471 17.1213 42.6593 19.5894 42.6593Z" fill="#8A541E"/>
<path fill-rule="evenodd" clip-rule="evenodd" d="M40.2554 42.6593L41.4589 40.3388H42.2482C45.2145 40.3388 47.8588 39.9806 49.1406 38.8694H49.1768C49.3252 38.8694 49.8486 38.8724 49.8879 38.8751C50.5005 38.9197 51.0155 39.2894 51.4633 39.765L51.4576 39.7624C51.4633 39.765 51.466 39.7677 51.4717 39.7734L51.4855 39.7876C51.519 39.8238 51.4687 39.9722 51.4072 40.1065C50.4894 42.5471 42.7208 42.6593 40.2554 42.6593Z" fill="#8A541E"/>
<path fill-rule="evenodd" clip-rule="evenodd" d="M17.8262 34.7972L18.3858 40.3388L18.5121 41.5816C18.5708 42.1695 18.9961 42.6562 19.5867 42.6562H40.2558C40.849 42.6562 41.2744 42.1695 41.3331 41.5816L41.459 40.3388L42.0186 34.7972L42.4413 30.6071C42.5 30.0166 41.9572 29.5298 41.3636 29.5298H18.4785C17.888 29.5298 17.3421 30.0166 17.4008 30.6071L17.8262 34.7972Z" fill="#E6E6E6"/>
<path fill-rule="evenodd" clip-rule="evenodd" d="M27.6821 36.093C27.6821 37.165 28.6842 38.0355 29.921 38.0355C31.1581 38.0355 32.1625 37.165 32.1625 36.093C32.1625 35.0211 31.1581 34.1533 29.921 34.1533C28.6842 34.1533 27.6821 35.0211 27.6821 36.093Z" fill="#FCC368"/>
<path fill-rule="evenodd" clip-rule="evenodd" d="M18.3857 40.3388L18.512 41.5816C18.5231 41.6907 18.5456 41.7998 18.5818 41.9005C18.7355 42.3373 19.1079 42.6562 19.5862 42.6562H40.2554C40.7368 42.6562 41.1061 42.3373 41.2602 41.9005C41.2964 41.7998 41.3216 41.6907 41.3331 41.5816L41.4589 40.3388H18.3857Z" fill="#C2C7CC"/>
<path d="M26.2467 16.265C25.8389 16.265 25.5085 15.9346 25.5085 15.5269V14.7014C25.5085 14.2936 25.8389 13.9632 26.2467 13.9632C26.6541 13.9632 26.9848 14.2936 26.9848 14.7014V15.5269C26.9848 15.9346 26.6545 16.265 26.2467 16.265Z" fill="black"/>
<path d="M33.0913 16.265C32.6839 16.265 32.3535 15.9346 32.3535 15.5269V14.7014C32.3535 14.2936 32.6839 13.9632 33.0913 13.9632C33.4991 13.9632 33.8294 14.2936 33.8294 14.7014V15.5269C33.8294 15.9346 33.4991 16.265 33.0913 16.265Z" fill="black"/>
<path d="M26.9443 36.093C26.9443 37.5712 28.2795 38.7736 29.9209 38.7736C31.5639 38.7736 32.9006 37.5712 32.9006 36.093C32.9006 34.6167 31.5639 33.4151 29.9209 33.4151C28.2795 33.4151 26.9443 34.6167 26.9443 36.093ZM29.9209 34.8914C30.7499 34.8914 31.4243 35.4304 31.4243 36.093C31.4243 36.7572 30.7499 37.2973 29.9209 37.2973C29.0935 37.2973 28.4202 36.7572 28.4202 36.093C28.4202 35.4304 29.0935 34.8914 29.9209 34.8914Z" fill="black"/>
<path d="M54.4296 42.5826L53.0136 40.5619C52.4204 39.7147 51.6365 38.5959 50.4848 38.243C50.877 37.2657 50.7183 36.0911 50.0103 34.7434C50.0091 34.7411 50.0076 34.7384 50.0065 34.7361C50.0042 34.7316 50.0023 34.7274 50 34.7232L47.0615 29.1762C45.38 25.9982 43.8888 23.7326 39.9948 23.5225C38.433 23.4404 37.434 23.1604 36.301 21.8543C36.1908 21.7292 36.0134 21.5449 35.836 21.3641C37.2631 19.9763 38.3545 18.2532 38.8446 16.5404C39.3993 16.4134 39.9456 16.1071 40.4041 15.6554C40.9992 15.0691 41.3406 14.3264 41.3406 13.618V12.7421C41.3406 11.8457 40.6116 11.1167 39.7155 11.1167H39.13V10.2286C40.2073 9.3501 40.8821 8.24727 41.0869 7.01894C41.2868 5.82036 41.0221 4.56151 40.3423 3.47432C38.9896 1.31215 36.0138 -0.0222298 32.9433 1.6116C31.8321 2.20326 30.4958 2.03847 29.0809 1.86414C27.5806 1.67912 26.0296 1.48801 24.5361 2.14452C23.0835 2.78386 21.9642 3.79056 21.2097 5.13715C20.4803 6.43834 20.1103 8.03021 20.1103 9.86775V11.1167H19.5247C18.6287 11.1167 17.8997 11.8457 17.8997 12.7421V13.618C17.8997 14.3268 18.2411 15.0699 18.8369 15.6562C19.2951 16.1078 19.8414 16.4142 20.3952 16.5408C20.9209 18.3787 22.1382 20.2277 23.7198 21.6624C23.6511 21.7349 23.5889 21.802 23.5397 21.8585C22.9145 22.5798 22.3285 22.9873 21.6648 23.2211C21.1307 23.4095 20.5459 23.4858 19.8494 23.5221C15.9549 23.7292 14.463 25.9963 12.7803 29.1758L9.84494 34.7228C9.84227 34.7277 9.83998 34.7327 9.83731 34.7377C9.83655 34.7392 9.83578 34.7411 9.83464 34.743C9.0984 36.1422 8.9565 37.3545 9.40778 38.354C8.42244 38.7931 7.72206 39.7902 7.18114 40.5616L5.76512 42.5826C5.42676 43.0652 5.23793 43.5851 5.20169 44.0905C5.19788 44.1222 5.19482 44.1542 5.19482 44.1874V48.6262C5.19482 49.8713 6.20763 50.8841 7.45236 50.8841H52.7362C53.9814 50.8841 54.9942 49.8713 54.9942 48.6262V44.4335C54.9942 44.4327 54.9938 44.432 54.9938 44.4312C55.0354 43.8228 54.8442 43.1746 54.4296 42.5826ZM19.8726 14.6048C19.5617 14.2981 19.376 13.9296 19.376 13.618V12.7421C19.376 12.6613 19.4442 12.593 19.5247 12.593H20.1103V14.6342C20.1103 14.6922 20.1137 14.7509 20.1152 14.8097C20.0313 14.7487 19.9497 14.6804 19.8726 14.6048ZM42.6994 35.3957C45.4876 34.7682 47.298 34.8327 48.7941 35.6082C49.2695 36.5798 49.3431 37.3496 49.0127 37.8978C48.5458 38.6733 46.9967 39.5968 42.2748 39.6006L42.6994 35.3957ZM39.7155 12.593C39.796 12.593 39.8643 12.6613 39.8643 12.7421V13.618C39.8643 13.9293 39.6789 14.2978 39.368 14.6041C39.291 14.6796 39.2093 14.7479 39.125 14.8093C39.1269 14.7509 39.13 14.6922 39.13 14.6342V12.593H39.7155ZM25.1304 3.49568C26.2523 3.00282 27.5386 3.16152 28.9001 3.32898C30.4802 3.52391 32.114 3.72533 33.6368 2.91471C36.0153 1.64937 38.1309 2.72359 39.0907 4.2571C39.9112 5.56935 40.118 7.64455 38.0348 9.21353C32.4955 11.3013 30.3493 10.4876 28.078 9.62666C26.8509 9.16165 25.5973 8.68634 23.8647 8.68634C23.1979 8.68634 22.4601 8.75691 21.6262 8.92552C21.8002 6.90602 22.6055 4.6069 25.1304 3.49568ZM21.7167 15.7706C21.7128 15.742 21.7071 15.7142 21.7003 15.6867C21.6266 15.33 21.5866 14.9772 21.5866 14.6342V10.4438C24.3755 9.80252 25.8564 10.3633 27.5547 11.0072C28.8143 11.4844 30.1643 11.996 32.1098 11.996C33.5582 11.996 35.337 11.7122 37.6537 10.9191V14.6342C37.6537 14.9665 37.6156 15.3083 37.5461 15.6543C37.5328 15.6985 37.5232 15.7439 37.5183 15.7912C36.9175 18.468 34.3895 21.3729 31.5574 22.4288C30.1304 22.9613 29.1183 22.9628 27.6905 22.4341C24.847 21.3771 22.3095 18.4573 21.7167 15.7706ZM24.6536 22.8274C24.7066 22.7668 24.786 22.6821 24.8756 22.589C25.6008 23.099 26.3755 23.5198 27.177 23.8181C28.0559 24.1435 28.8376 24.306 29.6188 24.306C30.405 24.306 31.1905 24.1412 32.0732 23.8116C33.0017 23.4656 33.8951 22.9545 34.716 22.33C34.8976 22.5146 35.091 22.7137 35.1894 22.8255C35.7208 23.4382 36.2491 23.8795 36.7954 24.198C35.5209 25.6259 33.0436 26.5651 30.1971 26.6478C27.0904 26.7386 24.4148 25.8174 23.0278 24.211C23.5813 23.8917 24.1161 23.4473 24.6536 22.8274ZM14.085 29.8663C15.7726 26.6776 16.8991 25.1574 19.9272 24.9965C20.52 24.9656 21.0701 24.9026 21.5923 24.7767C23.1113 26.8695 26.1963 28.1302 29.7878 28.1302C29.9377 28.1302 30.0888 28.1279 30.2402 28.1237C33.7764 28.0204 36.7672 26.7505 38.2293 24.771C38.7581 24.9007 39.3154 24.9648 39.9162 24.9965C42.9443 25.1601 44.0704 26.6791 45.7569 29.8667L47.7764 33.6791C46.4275 33.3796 44.8597 33.4403 42.8554 33.8519L43.1759 30.6804C43.222 30.215 43.0687 29.7614 42.744 29.4032C42.3923 29.0145 41.8892 28.7913 41.3639 28.7913H31.7959C31.3884 28.7913 31.0581 29.1221 31.0581 29.5295C31.0581 29.9373 31.3884 30.2676 31.7959 30.2676H41.3639C41.468 30.2676 41.5805 30.3172 41.65 30.3939C41.6923 30.4404 41.7114 30.4877 41.7068 30.5331L40.5986 41.508C40.5788 41.7056 40.4628 41.9181 40.2557 41.9181H19.5865C19.3668 41.9181 19.2627 41.6728 19.2463 41.5072L18.563 34.7606C18.5619 34.7331 18.5592 34.7052 18.555 34.6782L18.1354 30.5343C18.1308 30.4885 18.1499 30.4416 18.1926 30.3946C18.2625 30.3176 18.3746 30.2676 18.4784 30.2676H28.3764C28.7838 30.2676 29.1145 29.9373 29.1145 29.5295C29.1145 29.1221 28.7838 28.7913 28.3764 28.7913H18.4784C17.9535 28.7913 17.4503 29.0149 17.0982 29.404C16.7736 29.7625 16.6202 30.2157 16.6664 30.6815L16.9876 33.8515C14.983 33.4403 13.4155 33.3796 12.0674 33.6787L14.085 29.8663ZM17.5693 39.6006C13.7382 39.598 11.9953 38.9899 11.2247 38.3464C11.2049 38.3265 11.1835 38.3082 11.1614 38.2907C11.0153 38.1591 10.9077 38.0267 10.8303 37.8981C10.5003 37.35 10.5747 36.5802 11.0504 35.6082C12.5438 34.8327 14.3539 34.7682 17.1436 35.3953L17.5693 39.6006ZM31.4937 46.6384H52.2552C52.7206 46.6384 53.1463 46.5575 53.5179 46.4068V48.6262C53.5179 49.0573 53.1673 49.4078 52.7362 49.4078H7.45236C7.0213 49.4078 6.67111 49.0573 6.67111 48.6262V46.4038C7.04457 46.5564 7.47334 46.6384 7.94255 46.6384L28.0857 46.6269C28.4931 46.6269 28.8234 46.2962 28.8231 45.8884C28.8231 45.481 28.4927 45.1506 28.0853 45.1506C28.0849 45.1506 28.0849 45.1506 28.0849 45.1506L7.94217 45.1621C7.3631 45.1621 6.93051 44.9691 6.75542 44.6322C6.70621 44.5372 6.67874 44.4327 6.67111 44.3217V44.1977C6.68637 43.9586 6.7886 43.6946 6.974 43.4298L8.39001 41.4092C8.92674 40.6436 9.59431 39.6922 10.334 39.6117C10.3576 39.6113 10.4011 39.6106 10.4496 39.6098C11.7836 40.5951 14.1414 41.0769 17.5941 41.0769H17.7189L17.7776 41.6549C17.8783 42.6627 18.639 43.3944 19.5865 43.3944H40.2557C41.2044 43.3944 41.9666 42.6627 42.0673 41.6556L42.1257 41.0769H42.2481C45.7023 41.0769 48.0606 40.5948 49.3946 39.6087C49.5712 39.6098 49.7833 39.6109 49.8459 39.6121C50.5947 39.6811 51.2653 40.6386 51.8047 41.4088L53.2207 43.4298C53.5289 43.8697 53.6091 44.3084 53.4401 44.6334C53.265 44.9694 52.8331 45.1621 52.2552 45.1621H31.4937C31.0859 45.1621 30.7556 45.4924 30.7556 45.9002C30.7556 46.308 31.0859 46.6384 31.4937 46.6384Z" fill="black"/>
</g>
<defs>
<clipPath id="clip0">
<rect width="50" height="50" fill="white" transform="translate(4.99951 0.88414)"/>
</clipPath>
</defs>
</svg>
