<svg width="50" height="51" viewBox="0 0 50 51" fill="none" xmlns="http://www.w3.org/2000/svg">
<path d="M21.6714 7.55557C21.6714 8.51514 20.9912 9.19531 20.0316 9.19531C19.7917 9.19531 19.5632 9.24434 19.3554 9.15645C18.7317 8.89268 18.2942 8.2752 18.2942 7.55557C18.2942 6.83877 18.7283 6.22334 19.3479 5.95791C19.5578 5.86797 19.7889 5.91582 20.0317 5.91582C20.9912 5.91582 21.6714 6.596 21.6714 7.55557Z" fill="#6CF5C2"/>
<path d="M20.0316 5.81818C19.7888 5.81818 19.5579 5.86827 19.348 5.95822C19.9677 6.22374 20.4018 6.83878 20.4018 7.55558C20.4018 8.27237 19.9677 8.88741 19.348 9.15294C19.5579 9.24288 19.7888 9.29298 20.0316 9.29298C20.9912 9.29298 21.769 8.51515 21.769 7.55558C21.769 6.59601 20.9912 5.81818 20.0316 5.81818Z" fill="#05E39C"/>
<path d="M14.6974 7.55557C14.6974 8.51514 14.0172 9.19531 13.0576 9.19531C12.8178 9.19531 12.5892 9.24434 12.3813 9.15645C11.7577 8.89268 11.3202 8.2752 11.3202 7.55557C11.3202 6.83877 11.7543 6.22334 12.3739 5.95791C12.5838 5.86797 12.8149 5.91582 13.0577 5.91582C14.0171 5.91582 14.6974 6.596 14.6974 7.55557Z" fill="#FEE97D"/>
<path d="M13.0575 5.81818C12.8148 5.81818 12.5838 5.86827 12.3739 5.95822C12.9936 6.22374 13.4277 6.83878 13.4277 7.55558C13.4277 8.27237 12.9936 8.88741 12.3739 9.15294C12.5838 9.24288 12.8148 9.29298 13.0575 9.29298C14.0171 9.29298 14.7949 8.51515 14.7949 7.55558C14.7949 6.59601 14.0171 5.81818 13.0575 5.81818Z" fill="#FEDF30"/>
<path d="M7.72321 7.55557C7.72321 8.51514 7.04304 9.19531 6.08347 9.19531C5.84353 9.19531 5.61501 9.24434 5.4072 9.15645C4.78357 8.89268 4.34607 8.2752 4.34607 7.55557C4.34607 6.83877 4.78015 6.22334 5.39978 5.95791C5.60964 5.86797 5.84079 5.91582 6.08357 5.91582C7.04294 5.91582 7.72321 6.596 7.72321 7.55557Z" fill="#FFBE8C"/>
<path d="M6.08351 5.81818C5.84074 5.81818 5.60978 5.86827 5.39992 5.95822C6.01955 6.22374 6.45373 6.83878 6.45373 7.55558C6.45373 8.27237 6.01955 8.88741 5.39992 9.15294C5.60978 9.24288 5.84074 9.29298 6.08351 9.29298C7.04308 9.29298 7.82091 8.51515 7.82091 7.55558C7.82091 6.59601 7.04298 5.81818 6.08351 5.81818Z" fill="#E175A5"/>
<path d="M31.7887 30.6348C31.9556 30.6348 32.1252 30.6061 32.2913 30.5455C33.0511 30.268 33.4421 29.427 33.1646 28.667L29.2748 18.6362C28.9972 17.8762 28.2854 16.9591 27.5251 17.2364C27.4794 17.2531 27.3201 17.217 27.2771 17.2376C26.6056 17.56 26.2758 18.3459 26.5367 19.0601L30.4125 29.6721C30.6296 30.2661 31.1911 30.6348 31.7887 30.6348Z" fill="#FEE97D"/>
<path d="M33.1646 28.667L29.2887 18.055C29.0112 17.295 28.1704 16.9041 27.4102 17.1815C27.3645 17.1982 27.3203 17.2172 27.2774 17.2378C27.6097 17.3974 27.8828 17.6812 28.0193 18.0549L31.8952 28.6669C32.1561 29.3812 31.826 30.1672 31.1541 30.4894C31.3502 30.5836 31.567 30.6347 31.7888 30.6347C31.9557 30.6347 32.1254 30.606 32.2914 30.5454C33.0511 30.2679 33.4422 29.4269 33.1646 28.667Z" fill="#FEDF30"/>
<path d="M18.2112 30.6348C18.0443 30.6348 17.8747 30.6061 17.7088 30.5455C16.9489 30.268 16.5579 29.427 16.8355 28.667L20.7113 18.055C20.8479 17.6813 21.1205 17.3968 21.4529 17.2371C21.7964 17.0722 22.2314 17.4062 22.6177 17.5472C23.3775 17.8247 23.5455 18.3001 23.268 19.0601L19.5874 29.6721C19.3703 30.2661 18.8089 30.6348 18.2112 30.6348Z" fill="#FEE97D"/>
<path d="M22.5898 17.1816C22.2035 17.0405 21.7967 17.0729 21.4531 17.2378C22.1246 17.5602 22.4545 18.3458 22.1936 19.0601L18.3177 29.6721C18.1813 30.0456 17.9087 30.3298 17.5764 30.4895C17.6192 30.51 17.6633 30.5289 17.7087 30.5455C17.8746 30.6061 18.0443 30.6348 18.2112 30.6348C18.8089 30.6348 19.3703 30.2661 19.5873 29.6721L23.4632 19.0601C23.7407 18.3002 23.3497 17.4591 22.5898 17.1816Z" fill="#FEDF30"/>
<path d="M37.4172 27.0046L12.2528 27.9812L13.991 41.9919C14.1431 43.218 15.2111 44.1403 16.4786 44.1403H33.1913C34.459 44.1403 35.527 43.218 35.679 41.9919L37.4172 27.0046Z" fill="#FFBE8C"/>
<path d="M39.1374 24.7971H10.5215C9.62435 24.7971 8.89705 25.5099 8.89705 26.3892C8.89705 27.2685 9.62435 27.9813 10.5215 27.9813H39.1375C40.0347 27.9813 40.762 27.2685 40.762 26.3892C40.7619 25.5099 40.0346 24.7971 39.1374 24.7971Z" fill="#978ECB"/>
<path d="M17.5618 7.55558C17.5618 8.91739 18.6698 10.0254 20.0316 10.0254C21.3934 10.0254 22.5014 8.91739 22.5014 7.55558C22.5014 6.19376 21.3934 5.08575 20.0316 5.08575C18.6698 5.08575 17.5618 6.19366 17.5618 7.55558ZM21.0366 7.55558C21.0366 8.10968 20.5858 8.56056 20.0316 8.56056C19.4774 8.56056 19.0266 8.10968 19.0266 7.55558C19.0266 7.00148 19.4774 6.5506 20.0316 6.5506C20.5858 6.5506 21.0366 7.00138 21.0366 7.55558Z" fill="#171D24"/>
<path d="M10.5877 7.55558C10.5877 8.91739 11.6957 10.0254 13.0576 10.0254C14.4195 10.0254 15.5275 8.91739 15.5275 7.55558C15.5275 6.19376 14.4195 5.08575 13.0576 5.08575C11.6957 5.08575 10.5877 6.19366 10.5877 7.55558ZM14.0626 7.55558C14.0626 8.10968 13.6118 8.56056 13.0576 8.56056C12.5034 8.56056 12.0526 8.10968 12.0526 7.55558C12.0526 7.00148 12.5034 6.5506 13.0576 6.5506C13.6118 6.5506 14.0626 7.00138 14.0626 7.55558Z" fill="#171D24"/>
<path d="M3.61359 7.55558C3.61359 8.91739 4.72159 10.0254 6.08351 10.0254C7.44532 10.0254 8.55333 8.91739 8.55333 7.55558C8.55333 6.19376 7.44532 5.08575 6.08351 5.08575C4.72159 5.08575 3.61359 6.19366 3.61359 7.55558ZM7.08849 7.55558C7.08849 8.10968 6.63771 8.56056 6.08351 8.56056C5.52931 8.56056 5.07843 8.10968 5.07843 7.55558C5.07843 7.00148 5.52931 6.5506 6.08351 6.5506C6.63771 6.5506 7.08849 7.00138 7.08849 7.55558Z" fill="#171D24"/>
<path d="M47.8027 1.58957H2.19727C0.985742 1.58957 0 2.57521 0 3.78684V32.2313C0 32.6358 0.327832 32.9637 0.732422 32.9637C1.13701 32.9637 1.46484 32.6358 1.46484 32.2313V13.5216H28.8669C29.2715 13.5216 29.5993 13.1937 29.5993 12.7892C29.5993 12.3847 29.2715 12.0568 28.8669 12.0568H1.46484V3.78684C1.46484 3.38293 1.79336 3.05441 2.19727 3.05441H47.8027C48.2066 3.05441 48.5352 3.38293 48.5352 3.78684V12.0568H32.0589C31.6543 12.0568 31.3265 12.3847 31.3265 12.7892C31.3265 13.1937 31.6543 13.5216 32.0589 13.5216H48.5352V47.7115C48.5352 48.1154 48.2066 48.4439 47.8027 48.4439H2.19727C1.79336 48.4439 1.46484 48.1154 1.46484 47.7115V35.4234C1.46484 35.0189 1.13701 34.6909 0.732422 34.6909C0.327832 34.6909 0 35.0189 0 35.4234V47.7116C0 48.9232 0.985742 49.9088 2.19727 49.9088H47.8027C49.0143 49.9088 50 48.9232 50 47.7116V3.78684C50 2.57521 49.0143 1.58957 47.8027 1.58957Z" fill="#171D24"/>
<path d="M24.2676 40.4491V41.3529C24.2676 41.7574 24.5954 42.0853 25 42.0853C25.4046 42.0853 25.7324 41.7574 25.7324 41.3529V40.4979C26.9471 40.2915 27.9359 39.4219 28.1336 38.3149C28.3057 37.3507 27.8576 36.0871 26.0835 35.4327C25.1285 35.0805 24.2419 34.6961 24.0063 34.5926C23.7895 34.4307 23.6848 34.1742 23.7245 33.897C23.7757 33.5399 24.0527 33.2525 24.4655 33.1281C25.634 32.776 26.6965 33.6243 26.7201 33.6435C27.0298 33.9011 27.4896 33.8602 27.7491 33.5516C28.0094 33.2419 27.9693 32.7799 27.6598 32.5196C27.6135 32.4808 26.8416 31.8441 25.7325 31.6393V30.7686C25.7325 30.3642 25.4047 30.0362 25.0001 30.0362C24.5955 30.0362 24.2677 30.3642 24.2677 30.7686V31.6668C24.1933 31.684 24.1186 31.7028 24.0431 31.7256C23.0847 32.0144 22.4069 32.7666 22.2746 33.6889C22.1511 34.5492 22.5238 35.3767 23.2473 35.8483C23.2796 35.8694 23.3136 35.8879 23.3488 35.9037C23.392 35.9229 24.4193 36.3802 25.5766 36.8071C26.3745 37.1015 26.7809 37.5572 26.6916 38.0575C26.6018 38.5601 26.0113 39.0801 25.1785 39.0801C24.3757 39.0801 23.6012 38.7542 23.1064 38.2084C22.8348 37.9086 22.3716 37.886 22.0719 38.1575C21.7722 38.4291 21.7493 38.8923 22.021 39.1921C22.5934 39.8237 23.3953 40.2652 24.2676 40.4491Z" fill="#171D24"/>
<path d="M10.4891 27.2487C10.015 27.2487 9.62939 26.8631 9.62939 26.3891C9.62939 25.9151 10.015 25.5295 10.4891 25.5295H32.9168C33.3214 25.5295 33.6492 25.2016 33.6492 24.7971C33.6492 24.3926 33.3214 24.0647 32.9168 24.0647H32.2634L29.9767 17.8037C29.5611 16.6659 28.2974 16.0783 27.1589 16.4936C26.0209 16.9093 25.4332 18.1733 25.8488 19.3113L27.585 24.0647H22.4152L24.1514 19.3113C24.567 18.1733 23.9793 16.9093 22.8411 16.4936C21.7029 16.0782 20.439 16.666 20.0234 17.8037L17.7366 24.0647H10.4892C9.20742 24.0647 8.16464 25.1074 8.16464 26.3892C8.16464 27.6708 9.20742 28.7136 10.4892 28.7136H11.6037L13.2193 42.0798C13.4118 43.6721 14.7663 44.8727 16.3702 44.8727H33.63C35.2339 44.8727 36.5884 43.6721 36.7809 42.0798L38.3965 28.7136H39.511C40.7928 28.7136 41.8355 27.6708 41.8355 26.3891C41.8355 25.1074 40.7928 24.0647 39.511 24.0647H36.1091C35.7045 24.0647 35.3767 24.3926 35.3767 24.7971C35.3767 25.2016 35.7045 25.5295 36.1091 25.5295H39.511C39.9851 25.5295 40.3707 25.9151 40.3707 26.3892C40.3707 26.8631 39.9851 27.2487 39.511 27.2487H10.4891ZM35.3265 41.904C35.2229 42.7613 34.4935 43.4079 33.6299 43.4079H16.3701C15.5064 43.4079 14.777 42.7613 14.6735 41.904L13.0791 28.7136H36.921L35.3265 41.904ZM27.2247 18.8088C27.0861 18.4294 27.282 18.008 27.6612 17.8695C28.0409 17.7309 28.4622 17.927 28.6007 18.3063L30.7039 24.0647H29.1444L27.2247 18.8088ZM22.7753 18.8088L20.8557 24.0647H19.2961L21.3993 18.3063C21.5378 17.927 21.9593 17.7311 22.3386 17.8695C22.718 18.008 22.9139 18.4294 22.7753 18.8088Z" fill="#171D24"/>
</svg>
