<svg width="50" height="51" viewBox="0 0 50 51" fill="none" xmlns="http://www.w3.org/2000/svg">
<g clip-path="url(#clip0)">
<path d="M18.7999 32.8417C26.1695 32.8417 32.1437 26.8675 32.1437 19.498C32.1437 12.1284 26.1695 6.15424 18.7999 6.15424C11.4304 6.15424 5.45621 12.1284 5.45621 19.498C5.45621 26.8675 11.4304 32.8417 18.7999 32.8417Z" fill="#FFBE8C"/>
<path d="M20.6712 12.1118H19.777V10.7328C19.777 10.1932 19.3395 9.75574 18.8 9.75574C18.2604 9.75574 17.8229 10.1932 17.8229 10.7328V12.1118H16.9288C14.8503 12.1118 13.1593 13.8028 13.1593 15.8813V16.805C13.1593 18.8836 14.8503 20.5746 16.9288 20.5746H20.6713C21.6723 20.5746 22.4867 21.389 22.4867 22.39V23.1148C22.4867 24.1158 21.6723 24.9302 20.6713 24.9302H16.9287C15.9278 24.9302 15.1134 24.1158 15.1134 23.1148C15.1134 22.5752 14.6758 22.1377 14.1363 22.1377C13.5967 22.1377 13.1592 22.5752 13.1592 23.1148C13.1592 25.1933 14.8502 26.8844 16.9287 26.8844H17.8228V28.2634C17.8228 28.803 18.2603 29.2405 18.7999 29.2405C19.3394 29.2405 19.7769 28.803 19.7769 28.2634V26.8844H20.6711C22.7496 26.8844 24.4406 25.1933 24.4406 23.1148V22.39C24.4406 20.3115 22.7496 18.6205 20.6711 18.6205H16.9287C15.9278 18.6205 15.1134 17.8061 15.1134 16.805V15.8813C15.1134 14.8803 15.9278 14.0659 16.9287 14.0659H20.6712C21.6722 14.0659 22.4866 14.8803 22.4866 15.8813V15.9692C22.4866 16.5088 22.9241 16.9462 23.4636 16.9462C24.0032 16.9462 24.4407 16.5088 24.4407 15.9692V15.8813C24.4407 13.8027 22.7498 12.1118 20.6712 12.1118Z" fill="#171D24"/>
<path d="M48.7559 35.9036L39.1416 26.2895C38.9745 26.1223 38.7524 26.0215 38.5165 26.0056L36.4387 25.8656C37.1751 23.8316 37.5486 21.6961 37.5486 19.4984C37.5486 9.16001 29.1382 0.749146 18.8006 0.749146C10.2101 0.749146 2.73668 6.55766 0.62678 14.8745C0.494191 15.3976 0.810568 15.9292 1.3336 16.0619C1.85663 16.1948 2.38825 15.8782 2.52094 15.3551C4.4108 7.90593 11.1052 2.7033 18.8006 2.7033C28.0607 2.7033 35.5945 10.2375 35.5945 19.4983C35.5945 21.658 35.1935 23.7501 34.4014 25.7274L31.7768 25.5508C32.6384 23.7112 33.1209 21.6599 33.1209 19.498C33.1209 11.6014 26.6966 5.17716 18.8001 5.17716C10.9036 5.17716 4.47919 11.6014 4.47919 19.498C4.47919 27.3945 10.9035 33.8188 18.8 33.8188C20.9205 33.8188 22.9347 33.3549 24.747 32.5242L24.9234 35.1417C22.9747 35.9054 20.9181 36.2921 18.8005 36.2921C11.1023 36.2921 4.40718 31.0875 2.51938 23.6355C2.38688 23.1124 1.85516 22.7959 1.33233 22.9283C0.8092 23.0608 0.492628 23.5923 0.625217 24.1153C2.73287 32.4355 10.2069 38.2464 18.8006 38.2464C20.9567 38.2464 23.0562 37.886 25.0605 37.1753L25.2049 39.3171C25.2209 39.553 25.3217 39.7751 25.4889 39.9423L35.1031 49.5565C35.8983 50.3517 36.9427 50.7492 37.9873 50.7492C39.0319 50.7492 40.0763 50.3517 40.8716 49.5565L48.7559 41.6722C50.3462 40.0817 50.3462 37.494 48.7559 35.9036ZM6.43335 19.498C6.43335 12.6789 11.981 7.13131 18.8 7.13131C25.619 7.13131 31.1668 12.6789 31.1668 19.498C31.1668 22.5077 30.0854 25.2694 28.2916 27.4161L27.2697 26.3942C26.888 26.0126 26.2695 26.0126 25.8878 26.3942C25.5063 26.7757 25.5063 27.3944 25.8878 27.7759L26.9249 28.813C24.7502 30.7122 21.9072 31.8645 18.8 31.8645C11.9811 31.8646 6.43335 26.317 6.43335 19.498ZM47.374 40.2902L39.4897 48.1745C38.6612 49.003 37.3134 49.003 36.485 48.1745L27.13 38.8196L26.6631 31.8886L28.332 30.2198L28.9992 30.887C29.19 31.0779 29.4401 31.1732 29.6901 31.1732C29.9401 31.1732 30.1902 31.0778 30.381 30.887C30.7625 30.5055 30.7625 29.8868 30.381 29.5053L29.7137 28.838L31.0884 27.4634L38.0192 27.9305L47.374 37.2854C48.2025 38.114 48.2025 39.4619 47.374 40.2902Z" fill="#171D24"/>
<path d="M36.9526 37.1269C38.4472 35.6323 38.4472 33.2003 36.9526 31.7056C35.4751 30.2283 33.0088 30.2279 31.5314 31.7056L31.0095 32.2274C29.5149 33.722 29.5149 36.1541 31.0095 37.6486C32.4899 39.1231 34.9512 39.1285 36.4307 37.6486L36.9526 37.1269ZM35.5708 35.7452L35.049 36.2669C34.3223 36.9936 33.1186 36.9876 32.3913 36.2669C31.6586 35.5341 31.6586 34.3419 32.3912 33.6092L32.9131 33.0874C33.6374 32.3632 34.8464 32.3632 35.5707 33.0874C36.3034 33.8202 36.3034 35.0124 35.5708 35.7452Z" fill="#171D24"/>
<path d="M39.2506 37.8379C39.4527 38.3308 40.0362 38.569 40.5268 38.3665C41.019 38.1631 41.2591 37.5824 41.0554 37.0904C40.8517 36.5985 40.271 36.3582 39.7792 36.5618C39.2885 36.765 39.0461 37.3471 39.2506 37.8379Z" fill="#171D24"/>
<path d="M40.9099 43.2167C40.7499 42.8325 40.3512 42.5854 39.9356 42.6164C39.5275 42.6467 39.1764 42.9369 39.0666 43.3303C38.8305 44.1757 39.7957 44.8821 40.5317 44.4147C40.9282 44.1629 41.0875 43.65 40.9099 43.2167Z" fill="#171D24"/>
<path d="M43.1877 39.522H36.9156C36.376 39.522 35.9385 39.9595 35.9385 40.4991C35.9385 41.0388 36.376 41.4762 36.9156 41.4762H43.1877C43.7273 41.4762 44.1648 41.0388 44.1648 40.4991C44.1648 39.9595 43.7274 39.522 43.1877 39.522Z" fill="#171D24"/>
<path d="M0.837873 20.4567C1.69536 20.6308 2.32635 19.6202 1.81602 18.921C1.28606 18.1947 0.0950026 18.5529 0.0524021 19.4504C0.0297339 19.9291 0.36917 20.3615 0.837873 20.4567Z" fill="#171D24"/>
</g>
<defs>
<clipPath id="clip0">
<rect width="50" height="50" fill="white" transform="translate(0 0.749146)"/>
</clipPath>
</defs>
</svg>
