<svg width="30" height="31" viewBox="0 0 30 31" fill="none" xmlns="http://www.w3.org/2000/svg">
<g clip-path="url(#clip0)">
<path d="M15 29.8237C23.0416 29.8237 29.5605 23.3048 29.5605 15.2632C29.5605 7.22162 23.0416 0.702637 15 0.702637C6.95843 0.702637 0.439453 7.22162 0.439453 15.2632C0.439453 23.3048 6.95843 29.8237 15 29.8237Z" fill="#4B7FEF"/>
<path d="M16.4091 28.4147C8.36748 28.4147 1.84852 21.8956 1.84852 13.8541C1.84852 10.192 3.2035 6.84834 5.43557 4.28967C2.37568 6.95885 0.439453 10.8837 0.439453 15.2632C0.439453 23.3047 6.95842 29.8237 15 29.8237C19.3795 29.8237 23.3043 27.8875 25.9736 24.8275C23.4148 27.0596 20.0712 28.4147 16.4091 28.4147Z" fill="#3B5998"/>
<path d="M20.6363 6.33899H17.8181C14.9647 6.33899 12.6515 8.65215 12.6515 11.5056V15.2632H9.36361C9.10421 15.2632 8.89392 15.4735 8.89392 15.7329V18.551C8.89392 18.8104 9.10421 19.0207 9.36361 19.0207H12.6515V27.4504L14.9999 29.8237C15.7998 29.8237 16.5837 29.7566 17.3484 29.6326V19.0207H19.7999C20.0154 19.0207 20.2032 18.874 20.2556 18.6649L20.9602 15.8468C21.0342 15.5503 20.81 15.2632 20.5045 15.2632H17.3485V11.5056C17.3485 10.7274 17.9794 10.0965 18.7576 10.0965H20.6364C20.8958 10.0965 21.1061 9.88626 21.1061 9.62686V6.80868C21.106 6.54922 20.8956 6.33899 20.6363 6.33899Z" fill="white"/>
<path d="M17.3034 28.3493C16.3753 28.4388 15.4325 28.4376 14.4772 28.3356C14.2399 28.3103 14.0605 28.1045 14.0605 27.8658V19.0207C14.0605 18.2425 13.4296 17.6117 12.6514 17.6117H10.7726C10.5132 17.6117 10.3029 17.4014 10.3029 17.142V15.2632H9.36355C9.10415 15.2632 8.89386 15.4735 8.89386 15.7329V18.5511C8.89386 18.8104 9.10415 19.0207 9.36355 19.0207H12.6514V29.6326C13.4162 29.7567 14.2 29.8237 14.9999 29.8237C15.7998 29.8237 16.5836 29.7566 17.3484 29.6326V28.345L17.3034 28.3493Z" fill="#E3F5FF"/>
<path d="M25.6066 4.65654C22.7735 1.82348 19.0066 0.263184 15 0.263184C10.9934 0.263184 7.22654 1.82348 4.39336 4.65654C1.56029 7.48973 0 11.2565 0 15.2632C0 19.2698 1.56029 23.0366 4.39336 25.8698C7.22654 28.7029 10.9934 30.2632 15 30.2632C19.0066 30.2632 22.7735 28.7029 25.6066 25.8698C28.4397 23.0366 30 19.2698 30 15.2632C30 11.2565 28.4397 7.48973 25.6066 4.65654ZM24.9851 25.2483C22.9876 27.2458 20.4971 28.5711 17.7879 29.1106V19.4602H19.7999C20.2179 19.4602 20.5806 19.177 20.682 18.7715L21.3865 15.9534C21.4549 15.6798 21.3946 15.3955 21.2211 15.1734C21.0476 14.9512 20.7864 14.8237 20.5045 14.8237H17.3486C17.1059 14.8237 16.9091 15.0205 16.9091 15.2632C16.9091 15.5059 17.1059 15.7026 17.3486 15.7026H20.5045C20.5089 15.7026 20.5192 15.7026 20.5284 15.7143C20.5375 15.7259 20.5349 15.736 20.5339 15.7403L19.8294 18.5584C19.826 18.5719 19.8139 18.5813 19.8 18.5813H17.3486C17.1059 18.5813 16.9091 18.7781 16.9091 19.0208V29.2562C16.2813 29.3404 15.6441 29.3843 15 29.3843C11.2281 29.3843 7.68199 27.9154 5.01486 25.2483C2.34773 22.5812 0.878906 19.0351 0.878906 15.2632C0.878906 11.4913 2.34773 7.94518 5.01486 5.27805C7.68199 2.61092 11.2281 1.14209 15 1.14209C18.7719 1.14209 22.318 2.61092 24.9851 5.27805C27.6523 7.94518 29.1211 11.4913 29.1211 15.2632C29.1211 19.0351 27.6523 22.5812 24.9851 25.2483Z" fill="#171D24"/>
<path d="M20.6362 5.89954H17.8181C14.7268 5.89954 12.212 8.41444 12.212 11.5057V14.8238H9.36355C8.86222 14.8238 8.45441 15.2316 8.45441 15.7329V18.5511C8.45441 19.0524 8.86222 19.4602 9.36355 19.4602H12.212V27.4753C12.212 27.718 12.4087 27.9148 12.6514 27.9148C12.8941 27.9148 13.0909 27.718 13.0909 27.4753V19.0208C13.0909 18.7781 12.8941 18.5813 12.6514 18.5813H9.36355C9.34685 18.5813 9.33331 18.5678 9.33331 18.5511V15.7329C9.33331 15.7162 9.34685 15.7027 9.36355 15.7027H12.6514C12.8941 15.7027 13.0909 15.5059 13.0909 15.2632V11.5057C13.0909 8.89907 15.2115 6.77844 17.8181 6.77844H20.6362C20.6529 6.77844 20.6665 6.79198 20.6665 6.80868V9.62686C20.6665 9.64356 20.6529 9.65709 20.6362 9.65709H18.7575C17.7382 9.65709 16.909 10.4863 16.909 11.5056V13.3844C16.909 13.6271 17.1057 13.8238 17.3484 13.8238C17.5911 13.8238 17.7879 13.6271 17.7879 13.3844V11.5056C17.7879 10.9709 18.2228 10.536 18.7575 10.536H20.6362C21.1376 10.536 21.5454 10.1282 21.5454 9.62686V6.80868C21.5454 6.30741 21.1376 5.89954 20.6362 5.89954Z" fill="#171D24"/>
</g>
<defs>
<clipPath id="clip0">
<rect width="30" height="30" fill="white" transform="translate(0 0.263184)"/>
</clipPath>
</defs>
</svg>
