<svg width="30" height="31" viewBox="0 0 30 31" fill="none" xmlns="http://www.w3.org/2000/svg">
<g clip-path="url(#clip0)">
<path d="M15 29.7896C23.0227 29.7896 29.5263 23.2859 29.5263 15.2633C29.5263 7.2406 23.0227 0.736938 15 0.736938C6.97735 0.736938 0.473694 7.2406 0.473694 15.2633C0.473694 23.2859 6.97735 29.7896 15 29.7896Z" fill="#78CAEB"/>
<path d="M14.9998 0.736938C14.3577 0.736938 13.7253 0.779126 13.1051 0.859927C20.2325 1.7884 25.7367 7.8828 25.7367 15.2633C25.7367 22.6437 20.2324 28.7381 13.1051 29.6666C13.7253 29.7474 14.3577 29.7896 14.9998 29.7896C23.0226 29.7896 29.5262 23.2859 29.5262 15.2633C29.5262 7.24061 23.0226 0.736938 14.9998 0.736938Z" fill="#00ACEE"/>
<path d="M12.1734 23.5053C10.8393 23.5053 9.53187 23.2653 8.28745 22.792L7.05429 22.323C6.91941 22.2717 6.9381 22.0753 7.08025 22.0504L8.37974 21.8222C9.58366 21.6107 10.7221 21.1206 11.6979 20.3967C11.8009 20.3204 11.7594 20.1597 11.6325 20.1411C10.4963 19.9744 9.4762 19.2873 8.9038 18.2792L8.61206 17.7653C8.55974 17.6732 8.62308 17.5583 8.72878 17.5533L9.319 17.5251C9.32093 17.525 9.32292 17.5249 9.32491 17.5248C9.47316 17.5174 9.50849 17.3156 9.37378 17.2533C8.29261 16.7529 7.50939 15.7477 7.30812 14.5442L7.21818 14.0063C7.20142 13.9063 7.29194 13.8215 7.39068 13.8446L7.92171 13.969C8.20437 14.0352 8.49652 14.0688 8.79019 14.0688C8.79364 14.0688 8.79716 14.0688 8.80062 14.0688C7.66823 13.3435 6.99558 12.1177 6.99558 10.7686C6.99558 10.433 7.03771 10.1011 7.12079 9.7819L7.27958 9.17211C7.30718 9.06618 7.43913 9.02997 7.51694 9.1069L7.96507 9.54993C9.14855 10.7201 10.6017 11.6209 12.1677 12.1551C12.5823 12.2865 13.8398 12.6433 14.2752 12.645L14.2859 12.6451C14.2875 12.6451 14.4131 12.6497 14.4946 12.6535C14.4941 12.6306 14.4937 12.6076 14.4937 12.5846C14.4937 10.2134 16.4228 8.2843 18.794 8.2843C19.9262 8.2843 20.9893 8.71807 21.7974 9.5078C21.8293 9.53897 21.8737 9.5542 21.9179 9.54752C22.3334 9.48448 22.7468 9.38504 23.1445 9.2518L24.4702 8.8076C24.6091 8.76108 24.719 8.92977 24.6203 9.03799L23.6784 10.0712C23.5529 10.2089 23.4181 10.337 23.2747 10.4548C23.1612 10.5482 23.2456 10.7317 23.39 10.7046C23.5184 10.6806 23.6461 10.6534 23.7724 10.623L24.9885 10.3312C25.1269 10.2981 25.2227 10.4661 25.1237 10.5682L24.253 11.466C23.9005 11.8295 23.5097 12.1631 23.0913 12.4576L23.092 12.4781C23.0933 12.5135 23.0943 12.5488 23.0943 12.5844V12.6273C23.0698 18.6263 18.1706 23.5053 12.1734 23.5053Z" fill="#FCFCFC"/>
<path d="M25.6066 4.6566C22.7735 1.82342 19.0066 0.263184 15 0.263184C10.9934 0.263184 7.22654 1.82342 4.39342 4.6566C1.56029 7.48979 0 11.2565 0 15.2632C0 19.2698 1.56023 23.0366 4.39342 25.8698C7.2266 28.7029 10.9934 30.2632 15 30.2632C19.0066 30.2632 22.7735 28.7029 25.6066 25.8698C28.4397 23.0366 30 19.2698 30 15.2632C30 11.2566 28.4398 7.48973 25.6066 4.6566ZM15 29.3158C7.25133 29.3158 0.947344 23.0119 0.947344 15.2632C0.947344 7.51451 7.25133 1.21053 15 1.21053C22.7487 1.21053 29.0527 7.51451 29.0527 15.2632C29.0527 23.0119 22.7487 29.3158 15 29.3158Z" fill="#171D24"/>
<path d="M25.5675 9.77821C25.425 9.65493 25.2184 9.6339 25.0475 9.71317C24.8024 9.82685 24.552 9.92669 24.2972 10.0124C24.5499 9.66765 24.7517 9.28456 24.8941 8.87382C24.9528 8.70442 24.9236 8.51194 24.8022 8.38005C24.6502 8.21517 24.4083 8.18048 24.2184 8.28864C23.5261 8.68315 22.7795 8.9511 21.9959 9.08657C21.1194 8.28214 19.9919 7.84204 18.7942 7.84204C16.3149 7.84204 14.2738 9.75466 14.0687 12.1818C13.5565 12.1019 12.5544 11.8161 12.3148 11.7378C10.5815 11.1474 9.02019 10.108 7.79869 8.73149C7.72626 8.64987 7.63087 8.58923 7.52359 8.56954C7.30796 8.53017 7.10341 8.63903 7.01119 8.82378C6.70761 9.43216 6.55363 10.0864 6.55363 10.7682C6.55363 11.7112 6.84882 12.5999 7.38056 13.3305C7.21486 13.2994 7.03849 13.3576 6.92283 13.4999C6.85632 13.5816 6.82304 13.6855 6.81911 13.7908C6.81736 13.8389 6.81578 13.8871 6.81578 13.9357C6.81578 15.214 7.40113 16.3759 8.34718 17.1342C8.28185 17.1784 8.22683 17.2395 8.1888 17.3148C8.13238 17.4263 8.12611 17.5575 8.16337 17.6768C8.57658 18.9986 9.60314 20.0052 10.8758 20.4178C9.72308 21.1196 8.38972 21.498 7.02742 21.498C6.90712 21.498 6.78331 21.4949 6.65951 21.4888C6.42244 21.478 6.2098 21.6434 6.16902 21.884C6.13574 22.0802 6.2371 22.2764 6.40849 22.3775C8.14978 23.4046 10.1429 23.9474 12.1735 23.9474C14.597 23.9474 16.9054 23.1926 18.8302 21.7955C19.0676 21.6231 19.0938 21.2786 18.8864 21.0712L18.8862 21.071C18.7191 20.9039 18.4562 20.8859 18.2648 21.0245C16.5495 22.2666 14.4441 23 12.1735 23C10.9009 23 9.64445 22.7675 8.46712 22.3197C9.89113 22.0696 11.2371 21.452 12.3583 20.5201C12.4937 20.4075 12.5651 20.2294 12.531 20.0566C12.4874 19.8359 12.2982 19.6799 12.0794 19.6737C10.9259 19.641 9.89617 19.0037 9.34316 18.0296C9.60689 18.0169 9.87085 17.9808 10.1307 17.9217C10.3288 17.8766 10.4892 17.7183 10.515 17.5166C10.546 17.2739 10.3899 17.0523 10.1584 16.9953C8.92111 16.6906 8.01115 15.6849 7.80648 14.4608C8.16917 14.5458 8.54617 14.5834 8.92251 14.5719C9.15472 14.5649 9.35124 14.3897 9.37908 14.152C9.40099 13.9647 9.30156 13.7834 9.1406 13.6852C8.11351 13.0593 7.50085 11.9701 7.50085 10.7683C7.50085 10.4745 7.53736 10.1872 7.60978 9.90899C8.8515 11.1368 10.3586 12.0724 12.0093 12.6347C12.0245 12.6398 13.6554 13.1476 14.2732 13.1501C14.3135 13.1511 14.5061 13.1596 14.5064 13.1596C14.7049 13.1676 14.8974 13.0472 14.9724 12.8475C14.9939 12.7902 15.0018 12.7286 15.0003 12.6674C14.9997 12.6398 14.999 12.6122 14.999 12.5844C14.999 10.4919 16.7014 8.78938 18.794 8.78938C19.8187 8.78938 20.7791 9.19204 21.4986 9.92306C21.6027 10.0289 21.7495 10.0811 21.8966 10.0607C22.3787 9.99384 22.8491 9.88345 23.3051 9.73069C23.0624 9.99694 22.7762 10.225 22.4553 10.4048C22.239 10.5259 22.1472 10.789 22.2492 11.015L22.2562 11.0305C22.3396 11.2152 22.531 11.3261 22.7329 11.307C23.1247 11.2697 23.5111 11.2051 23.8903 11.1142C23.5548 11.4601 23.186 11.7744 22.7859 12.0547C22.6553 12.1462 22.5802 12.2977 22.5857 12.4569L22.5867 12.4869C22.5878 12.5193 22.589 12.5517 22.589 12.5844V12.6272C22.5781 15.2809 21.5659 17.7046 19.9132 19.5409C19.7443 19.7285 19.7549 20.0165 19.9333 20.195C20.1274 20.3891 20.4443 20.3796 20.628 20.1756C22.4849 18.1126 23.5122 15.4775 23.5361 12.6813C24.3812 12.0518 25.0944 11.2823 25.6588 10.3907C25.783 10.1948 25.7481 9.93442 25.5675 9.77821Z" fill="#171D24"/>
</g>
<defs>
<clipPath id="clip0">
<rect width="30" height="30" fill="white" transform="translate(0 0.263184)"/>
</clipPath>
</defs>
</svg>
