<svg width="30" height="31" viewBox="0 0 30 31" fill="none" xmlns="http://www.w3.org/2000/svg">
<g clip-path="url(#clip0)">
<path d="M15 29.6711C23.0227 29.6711 29.5263 23.1674 29.5263 15.1447C29.5263 7.12207 23.0227 0.618408 15 0.618408C6.97735 0.618408 0.473694 7.12207 0.473694 15.1447C0.473694 23.1674 6.97735 29.6711 15 29.6711Z" fill="#FF0000"/>
<path d="M15 0.618408C14.3578 0.618408 13.7255 0.660596 13.1053 0.741396C20.2327 1.66987 25.7369 7.76427 25.7369 15.1447C25.7369 22.5252 20.2326 28.6196 13.1053 29.5481C13.7255 29.6289 14.3578 29.6711 15 29.6711C23.0227 29.6711 29.5264 23.1674 29.5264 15.1447C29.5264 7.12208 23.0227 0.618408 15 0.618408Z" fill="#CC0000"/>
<path d="M14.9999 23.3845C11.9458 23.3845 8.86301 23.2107 5.83723 22.8678C5.26055 22.8025 4.79954 22.358 4.71634 21.7869C4.07292 17.3796 4.07292 12.9101 4.71628 8.50265C4.79966 7.93154 5.26061 7.48699 5.83735 7.42177C8.86296 7.07894 11.9457 6.90515 15 6.90515C18.0543 6.90515 21.1371 7.07894 24.1627 7.42177C24.7394 7.4871 25.2004 7.9316 25.2836 8.50265C25.927 12.91 25.927 17.3795 25.2837 21.787C25.2003 22.3581 24.7393 22.8026 24.1627 22.8678C21.1369 23.2106 18.0541 23.3845 14.9999 23.3845Z" fill="white"/>
<path d="M12.2321 11.0013L19.6356 14.89C19.8408 14.9978 19.8408 15.2916 19.6356 15.3995L12.2321 19.2881C12.0405 19.3887 11.8105 19.2498 11.8105 19.0334V11.256C11.8105 11.0396 12.0405 10.9006 12.2321 11.0013Z" fill="#FF0000"/>
<path d="M25.6066 4.53819C22.7735 1.70501 19.0066 0.144775 15 0.144775C10.9934 0.144775 7.22654 1.70501 4.39348 4.53819C1.56023 7.37132 0 11.1381 0 15.1448C0 19.1514 1.56023 22.9182 4.39348 25.7514C7.22654 28.5845 10.9934 30.1448 15 30.1448C19.0066 30.1448 22.7735 28.5845 25.6066 25.7514C28.4398 22.9182 30 19.1514 30 15.1448C30 11.1382 28.4398 7.37132 25.6066 4.53819ZM15 29.1974C7.25133 29.1974 0.947344 22.8934 0.947344 15.1448C0.947344 7.3961 7.25133 1.09212 15 1.09212C22.7487 1.09212 29.0527 7.3961 29.0527 15.1448C29.0527 22.8934 22.7487 29.1974 15 29.1974Z" fill="#171D24"/>
<path d="M25.7211 8.43865C25.6088 7.66914 24.9884 7.07026 24.2125 6.98242C18.0995 6.28985 11.9005 6.2899 5.78755 6.98242C5.01159 7.07032 4.39126 7.66914 4.27882 8.43871C3.62931 12.8885 3.62931 17.401 4.27882 21.8509C4.3912 22.6204 5.01159 23.2193 5.78749 23.3071C8.84404 23.6534 11.922 23.8266 15 23.8266C16.3102 23.8266 17.6205 23.7948 18.9291 23.732C19.1811 23.7198 19.3791 23.5109 19.3791 23.2585C19.3791 22.9876 19.1522 22.7729 18.8816 22.7858C14.5503 22.9934 10.2005 22.8537 5.89407 22.3657C5.54527 22.3263 5.26642 22.0582 5.21626 21.714C4.57999 17.3549 4.57999 12.9345 5.2162 8.57553C5.26648 8.23123 5.54527 7.96323 5.89413 7.92373C8.91517 7.58149 11.9575 7.41033 14.9999 7.41033C18.0423 7.41033 21.0847 7.58143 24.1058 7.92373C24.4546 7.96323 24.7334 8.23129 24.7836 8.57553C25.4199 12.9346 25.4199 17.355 24.7836 21.714C24.7334 22.0582 24.4546 22.3263 24.1058 22.3657C24.1058 22.3657 24.1058 22.3657 24.1057 22.3657C23.1317 22.4761 22.1552 22.5686 21.1774 22.6433C20.9303 22.6622 20.739 22.8673 20.739 23.1152V23.1156C20.739 23.3908 20.973 23.6091 21.2474 23.5881C22.2375 23.5125 23.226 23.4188 24.2124 23.3071C24.9883 23.2192 25.6086 22.6203 25.7211 21.8508C26.3707 17.401 26.3707 12.8885 25.7211 8.43865Z" fill="#171D24"/>
<path d="M20.2728 14.7254L12.0623 10.4128C11.9155 10.3356 11.739 10.3409 11.5971 10.4267C11.4551 10.5125 11.3684 10.6662 11.3684 10.8321V19.4573C11.3684 19.6232 11.4551 19.7769 11.5971 19.8627C11.6723 19.9081 11.7571 19.931 11.8421 19.931C11.9176 19.931 11.9933 19.9129 12.0623 19.8766L20.2728 15.564C20.4287 15.4822 20.5263 15.3207 20.5263 15.1447C20.5263 14.9687 20.4287 14.8072 20.2728 14.7254ZM12.3158 18.6735V11.616L19.0339 15.1447L12.3158 18.6735Z" fill="#171D24"/>
</g>
<defs>
<clipPath id="clip0">
<rect width="30" height="30" fill="white" transform="translate(0 0.144775)"/>
</clipPath>
</defs>
</svg>
