<svg width="80" height="81" viewBox="0 0 80 81" fill="none" xmlns="http://www.w3.org/2000/svg">
<g clip-path="url(#clip0)">
<path d="M70.6201 28.7043C71.2673 28.7043 71.792 28.1797 71.792 27.5323V16.2115C71.792 13.8969 69.9877 11.9915 67.6841 11.8738C53.7859 11.1661 46.316 5.48228 43.1005 2.15729C42.2821 1.31084 41.1809 0.844727 39.9999 0.844727C38.8189 0.844727 37.7178 1.31084 36.8996 2.15713C33.6839 5.48212 26.214 11.166 12.3154 11.8738C10.0122 11.9915 8.20789 13.8967 8.20789 16.2115V48.885C8.20789 58.295 13.2708 67.0638 21.4211 71.7696L34.6794 79.4229C36.3206 80.371 38.16 80.8449 40.0001 80.8449C41.8397 80.8449 43.6798 80.371 45.3205 79.4231L58.5791 71.7698C66.7291 67.0639 71.7922 58.2951 71.7922 48.8852V33.0016C71.7922 32.3543 71.2674 31.8297 70.6202 31.8297C69.973 31.8297 69.4483 32.3543 69.4483 33.0016V48.8852C69.4483 57.4604 64.8343 65.4515 57.4071 69.74L44.1484 77.3935C41.5897 78.8715 38.4103 78.8714 35.8513 77.3933L22.5929 69.74C15.1657 65.4515 10.5517 57.4604 10.5517 48.8852V16.2115C10.5517 15.1458 11.379 14.2686 12.4348 14.2147C27.1362 13.4661 35.1286 7.35986 38.5846 3.78658C38.9572 3.40109 39.4599 3.18874 39.9999 3.18874C40.54 3.18874 41.0426 3.40109 41.4155 3.78673C44.8711 7.35986 52.8635 13.4661 67.5648 14.2147C68.6209 14.2688 69.4481 15.1458 69.4481 16.2115V27.5323C69.4481 28.1797 69.9728 28.7043 70.6201 28.7043Z" fill="#80A3FF"/>
<path d="M15.6942 31.8293C15.047 31.8293 14.5222 32.3539 14.5222 33.0012V48.8847C14.5222 56.0457 18.3751 62.7196 24.5774 66.3019L37.8363 73.9556C38.4944 74.3351 39.2426 74.5357 40 74.5357C40.7573 74.5357 41.5055 74.3351 42.1641 73.9552L55.4228 66.3018C61.625 62.7196 65.4778 56.0457 65.4778 48.8847V20.5304C65.4778 19.1469 64.4454 17.9745 63.0771 17.8034C52.5658 16.4813 45.6511 12.488 41.6999 9.36969C40.699 8.58232 39.301 8.58232 38.2989 9.37079C34.3491 12.488 27.4342 16.4813 16.9241 17.8032C15.5549 17.9745 14.5224 19.1469 14.5224 20.5304V27.5322C14.5224 28.1796 15.0471 28.7042 15.6943 28.7042C16.3415 28.7042 16.8663 28.1796 16.8663 27.5322V20.5304C16.8663 20.3263 17.016 20.1538 17.2156 20.1289C28.2618 18.7395 35.5674 14.5124 39.7496 11.212C39.8968 11.0959 40.1028 11.0957 40.2492 11.2109C44.4327 14.5124 51.7383 18.7396 62.7855 20.1291C62.9841 20.1538 63.134 20.3264 63.134 20.5304V48.8847C63.134 55.2113 59.7301 61.1075 54.2509 64.2722L40.993 71.9253C40.3878 72.2744 39.6121 72.2741 39.0079 71.9256L25.7496 64.2723C20.2703 61.1075 16.8663 55.2114 16.8663 48.8847V33.0012C16.8661 32.3539 16.3415 31.8293 15.6942 31.8293Z" fill="#80A3FF"/>
<path d="M25.7938 38.0948C26.7456 38.0948 27.6402 38.4653 28.313 39.1381L34.4367 45.2603C34.8946 45.7181 35.6363 45.7178 36.094 45.2603L42.8021 38.5522C43.2598 38.0943 43.2598 37.3524 42.8021 36.8948C42.3444 36.4372 41.6024 36.4372 41.1448 36.8948L35.2654 42.7744L29.9704 37.4809C28.8551 36.3654 27.3719 35.7511 25.794 35.7511C24.2161 35.7511 22.7329 36.3655 21.6175 37.4807C20.5014 38.597 19.8867 40.0807 19.8867 41.6586C19.8867 43.2369 20.5016 44.7203 21.6175 45.8353L31.0875 55.3053C32.2022 56.4219 33.6859 57.0368 35.2655 57.0368C36.844 57.0368 38.3272 56.4217 39.4412 55.3061L58.3822 36.3647C59.4986 35.2492 60.1135 33.7659 60.1135 32.1878C60.1135 30.6098 59.4988 29.1261 58.3826 28.01C57.2673 26.8946 55.7841 26.2805 54.2062 26.2805C52.6283 26.2805 51.1451 26.8948 50.0298 28.01L45.0124 33.0272C44.5547 33.4851 44.5547 34.227 45.0124 34.6846C45.47 35.1422 46.2121 35.1422 46.6696 34.6846L51.687 29.6672C52.3597 28.9945 53.2543 28.6242 54.2062 28.6242C55.158 28.6242 56.0525 28.9945 56.7254 29.6674C57.3988 30.3409 57.7698 31.2359 57.7698 32.1878C57.7698 33.1396 57.399 34.034 56.7254 34.707L37.7831 53.6494C37.1112 54.3224 36.2171 54.6931 35.2655 54.6931C34.3128 54.6931 33.4181 54.3224 32.7455 53.6486L23.2745 44.1776C22.6013 43.5049 22.2305 42.6103 22.2305 41.6586C22.2305 40.7066 22.6015 39.8116 23.275 39.1381C23.9475 38.4653 24.8421 38.0948 25.7938 38.0948Z" fill="#80A3FF"/>
</g>
<defs>
<clipPath id="clip0">
<rect width="80" height="80" fill="white" transform="translate(0 0.844727)"/>
</clipPath>
</defs>
</svg>
