<svg width="80" height="81" viewBox="0 0 80 81" fill="none" xmlns="http://www.w3.org/2000/svg">
<g clip-path="url(#clip0)">
<path d="M78.4375 80.8447H68.7955C67.9325 80.8447 67.233 80.1452 67.233 79.2822V69.6401C67.233 68.7772 67.9325 68.0776 68.7955 68.0776H78.4375C79.3005 68.0776 80 68.7772 80 69.6401V79.2822C80 80.1452 79.3005 80.8447 78.4375 80.8447ZM70.358 77.7197H76.875V71.2026H70.358V77.7197Z" fill="#80A3FF"/>
<path d="M78.4375 0.844727H68.7955C67.9325 0.844727 67.233 1.54426 67.233 2.40723V5.66348H12.7627V2.40723C12.7627 1.54426 12.0631 0.844727 11.2002 0.844727H1.5625C0.699531 0.844727 0 1.54426 0 2.40723V12.0449C0 12.9079 0.699531 13.6074 1.5625 13.6074H4.81875V68.0777H1.5625C0.699531 68.0777 0 68.7772 0 69.6402V79.2822C0 80.1452 0.699531 80.8447 1.5625 80.8447H11.2002C12.0631 80.8447 12.7627 80.1452 12.7627 79.2822V76.0214H68.7955C69.6584 76.0214 70.358 75.3219 70.358 74.4589C70.358 73.596 69.6584 72.8964 68.7955 72.8964H12.7627V69.6402C12.7627 68.7772 12.0631 68.0777 11.2002 68.0777H7.94375V13.6074H11.2C12.063 13.6074 12.7625 12.9079 12.7625 12.0449V8.78848H67.2328V12.0447C67.2328 12.9077 67.9323 13.6072 68.7953 13.6072H72.0516V69.64C72.0516 70.503 72.7511 71.2025 73.6141 71.2025C74.477 71.2025 75.1766 70.503 75.1766 69.64V13.6074H78.4375C79.3005 13.6074 80 12.9079 80 12.0449V2.40723C80 1.54426 79.3005 0.844727 78.4375 0.844727V0.844727ZM9.63766 77.7197H3.125V71.2027H9.63766V77.7197ZM9.63766 10.4824H3.125V3.96973H9.63766V10.4824ZM76.875 10.4824H70.358V3.96973H76.875V10.4824Z" fill="#80A3FF"/>
<path d="M14.3678 64.9143C14.3678 65.7772 15.0674 66.4768 15.9303 66.4768H30.71C31.573 66.4768 32.2725 65.7772 32.2725 64.9143V16.7749C32.2725 15.9119 31.573 15.2124 30.71 15.2124H15.9303C15.0674 15.2124 14.3678 15.9119 14.3678 16.7749V33.8268C14.3678 34.6897 15.0674 35.3893 15.9303 35.3893C16.7933 35.3893 17.4928 34.6897 17.4928 33.8268V18.3374H29.1475V63.3518H17.4928V47.858C17.4928 46.9951 16.7933 46.2955 15.9303 46.2955C15.0674 46.2955 14.3678 46.9951 14.3678 47.858V64.9143Z" fill="#80A3FF"/>
<path d="M65.6322 16.7749C65.6322 15.9119 64.9326 15.2124 64.0697 15.2124H38.5229C37.66 15.2124 36.9604 15.9119 36.9604 16.7749V34.0615C36.9604 34.9244 37.66 35.624 38.5229 35.624H64.0697C64.9326 35.624 65.6322 34.9244 65.6322 34.0615V16.7749ZM62.5072 32.499H40.0854V18.3374H62.5072V32.499Z" fill="#80A3FF"/>
<path d="M65.6322 41.5823C65.6322 40.7193 64.9326 40.0198 64.0697 40.0198H38.5229C37.66 40.0198 36.9604 40.7193 36.9604 41.5823V49.4881C36.9604 50.351 37.66 51.0506 38.5229 51.0506H64.0697C64.9326 51.0506 65.6322 50.351 65.6322 49.4881V41.5823ZM62.5072 47.9256H40.0854V43.1448H62.5072V47.9256Z" fill="#80A3FF"/>
<path d="M64.0697 55.4458H38.5229C37.66 55.4458 36.9604 56.1453 36.9604 57.0083V64.9142C36.9604 65.7772 37.66 66.4767 38.5229 66.4767H64.0697C64.9326 66.4767 65.6322 65.7772 65.6322 64.9142V57.0083C65.6322 56.1453 64.9326 55.4458 64.0697 55.4458ZM62.5072 63.3517H40.0854V58.5708H62.5072V63.3517Z" fill="#80A3FF"/>
<path d="M15.9303 42.4092C16.7933 42.4092 17.4928 41.7053 17.4928 40.8423C17.4928 39.9793 16.7933 39.2798 15.9303 39.2798C15.0674 39.2798 14.3678 39.9793 14.3678 40.8423V40.8512C14.3678 41.714 15.0674 42.4092 15.9303 42.4092Z" fill="#80A3FF"/>
</g>
<defs>
<clipPath id="clip0">
<rect width="80" height="80" fill="white" transform="translate(0 0.844727)"/>
</clipPath>
</defs>
</svg>
