<svg width="50" height="34" viewBox="0 0 50 34" fill="none" xmlns="http://www.w3.org/2000/svg">
<path d="M29.6189 6.93923H17.1385V1.24043H23.1665C23.1665 1.24043 29.4223 0.618771 29.6189 6.93923Z" fill="#E1D3CE"/>
<path d="M22.97 1.25415C20.0534 1.25415 17.69 3.20374 17.69 5.60969V31.4987C17.69 31.9985 17.0775 32.2394 16.7369 31.8737L15.1229 30.1401C14.8492 29.8461 14.363 29.9349 14.2108 30.3064L13.5206 31.9919C13.3579 32.389 12.8234 32.4554 12.5686 32.1101L9.78127 28.3342C9.5976 28.0854 9.21612 28.1175 9.07647 28.3934L7.16334 32.1733C6.98774 32.5203 6.51722 32.5805 6.25985 32.2889L4.30662 30.0766C4.09456 29.8364 3.72299 29.8275 3.49963 30.0571L1.68202 31.9259C1.33758 32.28 0.737244 32.0362 0.737244 31.5423V5.60969C0.737244 3.20384 3.10075 1.25415 6.01731 1.25415H22.97Z" fill="#F9F3F1"/>
<path d="M49.2632 7.47038V28.7842C49.2632 29.252 48.8839 29.6313 48.4161 29.6313H17.6899V6.62329H48.4161C48.8839 6.62329 49.2632 7.00261 49.2632 7.47038Z" fill="#FE646F"/>
<path d="M20.6379 6.62329V10.56L19.2021 13.2133L20.6379 15.6701V29.6313H17.6898V6.62329H20.6379Z" fill="#FD4755"/>
<path d="M17.6899 10.5667H49.2632V15.6069H17.6899V10.5667Z" fill="#F9F3F1"/>
<path d="M8.96525 1.25391C6.04858 1.25391 3.68517 3.57211 3.68517 6.43178V29.9312C3.61737 29.9587 3.55447 30.001 3.49944 30.057L1.68144 31.9261C1.33749 32.2799 0.737061 32.0361 0.737061 31.5418V5.60925C0.737061 3.20359 3.10046 1.25391 6.01713 1.25391H8.96525Z" fill="#E1D3CE"/>
<path d="M17.6898 10.5669H20.6379V15.6072H17.6898V10.5669Z" fill="#E1D3CE"/>
<path d="M43.9693 25.9394H38.1651C37.7055 25.9394 37.3329 25.5669 37.3329 25.1072V22.2255C37.3329 21.7659 37.7055 21.3933 38.1651 21.3933H43.9693C44.4289 21.3933 44.8015 21.7659 44.8015 22.2255V25.1072C44.8015 25.5669 44.4289 25.9394 43.9693 25.9394Z" fill="#FFD064"/>
<path d="M49.2631 22.4016C48.8559 22.4016 48.526 22.7316 48.526 23.1386V28.7685C48.526 28.8293 48.4766 28.8786 48.416 28.8786H27.6534C27.2463 28.8786 26.9164 29.2086 26.9164 29.6156C26.9164 30.0227 27.2463 30.3527 27.6534 30.3527H48.416C49.2895 30.3527 50.0001 29.6421 50.0001 28.7685V23.1386C50.0001 22.7316 49.6701 22.4016 49.2631 22.4016Z" fill="#171D24"/>
<path d="M50 7.45478C50 6.58135 49.2894 5.87066 48.4159 5.87066H30.0701C29.7435 2.85111 27.4128 0.501953 24.5935 0.501953H22.97C22.9688 0.501953 22.9675 0.50215 22.9662 0.50215H6.017C2.69929 0.50215 0 2.78664 0 5.59452V31.5271C0 32.0541 0.315546 32.5225 0.803754 32.7203C1.29186 32.918 1.84414 32.8015 2.20971 32.4243L3.88758 30.7002L5.70794 32.7624C5.95421 33.0406 6.30552 33.1965 6.67158 33.1965C6.72612 33.1965 6.78096 33.1931 6.83589 33.186C7.25924 33.1317 7.62726 32.8719 7.82056 32.4907L9.49833 29.1765L11.9758 32.5325C12.2519 32.9064 12.7105 33.103 13.1709 33.0453C13.6319 32.9877 14.0272 32.6845 14.202 32.2555L14.7821 30.8403L16.1974 32.3607C16.5608 32.7502 17.1157 32.876 17.6116 32.6806C18.1067 32.4855 18.4267 32.0156 18.4267 31.4836V30.3525H24.3121C24.7192 30.3525 25.0491 30.0225 25.0491 29.6155C25.0491 29.2084 24.7192 28.8784 24.3121 28.8784H18.4267V26.1848C18.4267 25.7778 18.0968 25.4478 17.6897 25.4478C17.2825 25.4478 16.9526 25.7778 16.9526 26.1848V31.0085L15.6617 29.6217C15.3607 29.2991 14.9224 29.1538 14.4882 29.2332C14.0548 29.3124 13.6961 29.6033 13.529 30.0111L12.964 31.3892L10.3736 27.8802C10.134 27.5564 9.75167 27.3834 9.35024 27.4171C8.94861 27.4511 8.60033 27.6862 8.41873 28.0455L6.62982 31.5792L4.8581 29.5722C4.62127 29.3047 4.28056 29.1466 3.92335 29.1385C3.56496 29.1322 3.21904 29.2728 2.97131 29.5281L1.47406 31.0667V5.59452C1.47406 3.59934 3.51199 1.97621 6.017 1.97621H18.7397C17.6368 2.89975 16.9525 4.18081 16.9525 5.59452V22.8439C16.9525 23.251 17.2824 23.581 17.6896 23.581C18.0967 23.581 18.4266 23.251 18.4266 22.8439V16.329H48.5259V19.7976C48.5259 20.2046 48.8558 20.5346 49.263 20.5346C49.6701 20.5346 50 20.2046 50 19.7976V7.45478ZM48.5259 7.45478V9.81494H18.4267V7.34472H48.4159C48.4765 7.34472 48.5259 7.39415 48.5259 7.45478ZM22.9697 1.97621C22.971 1.97621 22.9723 1.97601 22.9736 1.97601H24.5935C26.6064 1.97601 28.2802 3.66656 28.5862 5.87066H18.4267V5.59452C18.4267 3.59944 20.4647 1.97621 22.9697 1.97621ZM18.4267 14.8549V11.289H48.5259V14.8549H18.4267Z" fill="#171D24"/>
<path d="M43.9693 26.6766C44.8347 26.6766 45.5386 25.9727 45.5386 25.1075V22.2257C45.5386 21.3604 44.8347 20.6565 43.9693 20.6565H38.1652C37.2999 20.6565 36.596 21.3605 36.596 22.2257V25.1075C36.596 25.9727 37.2999 26.6766 38.1652 26.6766H43.9693ZM38.07 25.1075V22.2257C38.07 22.1732 38.1127 22.1306 38.1651 22.1306H43.9692C44.0217 22.1306 44.0645 22.1733 44.0645 22.2257V25.1075C44.0645 25.1599 44.0217 25.2026 43.9692 25.2026H38.1651C38.1127 25.2026 38.07 25.1599 38.07 25.1075Z" fill="#171D24"/>
</svg>
