<svg width="50" height="51" viewBox="0 0 50 51" fill="none" xmlns="http://www.w3.org/2000/svg">
<g clip-path="url(#clip0)">
<path d="M34.0545 44.3839L34.0472 48.0663C34.0455 48.8391 33.418 49.4643 32.646 49.4626L28.1697 49.4545C27.3969 49.4528 26.7717 48.8253 26.7734 48.0525L26.7798 44.3702L30.0881 43.3962L34.0545 44.3839Z" fill="#F9F3F1"/>
<path d="M30.4149 49.4589L28.1693 49.455C27.3973 49.453 26.7721 48.8258 26.773 48.0528L26.7799 44.3708L29.7153 44.3767L29.7085 48.1937C29.7075 48.7358 29.9922 49.2084 30.4149 49.4589Z" fill="#E1D3CE"/>
<path d="M13.6901 44.1913L13.6827 47.8737C13.6811 48.6465 13.0536 49.2716 12.2816 49.27L7.80525 49.2619C7.03245 49.2602 6.40731 48.6327 6.40897 47.8599L6.41543 44.1775L9.83372 43.6896L13.6901 44.1913Z" fill="#F9F3F1"/>
<path d="M9.91689 49.266L7.80535 49.2621C7.03235 49.2601 6.40711 48.6329 6.40906 47.8599L6.41591 44.1779L9.35134 44.1838L9.34449 48.0703C9.34351 48.5615 9.56856 48.9969 9.91689 49.266Z" fill="#E1D3CE"/>
<path d="M40.275 15.8634L40.2271 40.13C40.2231 42.3762 38.4878 44.2123 36.2867 44.3825H36.2809C36.2398 44.3864 36.1977 44.3884 36.1556 44.3903C36.0871 44.3933 36.0167 44.3952 35.9462 44.3952L16.5939 44.3571L5.08998 44.3346C2.73029 44.3297 0.820801 42.4133 0.825693 40.0536L0.87266 15.7861C0.877552 13.4812 2.70583 11.607 4.99017 11.5248C5.04399 11.5228 5.09976 11.5219 5.15456 11.5219L36.0098 11.5815C38.3704 11.5864 40.2799 13.5037 40.275 15.8634Z" fill="#F9F3F1"/>
<path d="M41.3876 16.4858C45.6342 16.4858 49.0768 13.0242 49.0768 8.75402C49.0768 4.48386 45.6342 1.02222 41.3876 1.02222C37.141 1.02222 33.6984 4.48386 33.6984 8.75402C33.6984 13.0242 37.141 16.4858 41.3876 16.4858Z" fill="#6CF5C2"/>
<path d="M6.20646 20.8367C6.56126 18.9622 8.20832 17.548 10.1851 17.5513L30.956 17.5919C33.1885 17.596 34.9938 19.4096 34.9898 21.6413L34.9639 34.8623C34.9598 37.0939 33.1463 38.9001 30.9146 38.8961L10.1437 38.8555C8.13699 38.8514 6.47437 37.3854 6.16263 35.4671" fill="#E1D3CE"/>
<path d="M31.5228 28.2465C31.531 24.1386 28.2401 20.8019 24.1725 20.7937C20.1048 20.7856 16.8006 24.1091 16.7924 28.2171C16.7842 32.325 20.0751 35.6617 24.1427 35.6699C28.2104 35.678 31.5145 32.3545 31.5228 28.2465Z" fill="#F3EAE6"/>
<path d="M24.1681 32.4392C26.5735 32.4392 28.5234 30.5112 28.5234 28.1328C28.5234 25.7545 26.5735 23.8265 24.1681 23.8265C21.7628 23.8265 19.8129 25.7545 19.8129 28.1328C19.8129 30.5112 21.7628 32.4392 24.1681 32.4392Z" fill="#CDBFBA"/>
<path d="M6.30539 44.3365L5.09012 44.3346C2.73005 44.3297 0.821045 42.4138 0.825937 40.0537L0.872904 15.7866C0.877796 13.4813 2.70558 11.6066 4.99032 11.5244C5.04414 11.5224 5.09991 11.5215 5.1547 11.5215L6.46097 11.5234C4.90715 12.1751 3.81224 13.7338 3.80832 15.5547L3.76136 40.3375C3.75744 42.1222 4.80343 43.6584 6.30539 44.3365Z" fill="#E1D3CE"/>
<path d="M42.8572 16.3444C42.3797 16.4383 41.8866 16.4862 41.3817 16.4862C37.1351 16.4823 33.6948 13.0185 33.6987 8.74846C33.7017 4.47742 37.1469 1.01852 41.3934 1.02243C41.8934 1.02243 42.3827 1.07136 42.8553 1.16333C39.3132 1.8512 36.6371 4.98427 36.6342 8.74846C36.6302 12.5166 39.3093 15.6565 42.8572 16.3444Z" fill="#00E499"/>
<path d="M12.2261 38.859L10.1439 38.855C8.13706 38.8511 6.47464 37.3854 6.16251 35.4666L6.20654 20.8364C6.56172 18.9617 8.20849 17.5478 10.185 17.5517L12.2721 17.5556C10.687 17.8942 9.44528 19.1681 9.14196 20.7797L9.09793 35.5351C9.36407 37.1868 10.6155 38.5067 12.2261 38.859Z" fill="#CDBFBA"/>
<path d="M6.93299 24.6726L5.42184 24.6697C4.9872 24.6688 4.63563 24.3159 4.63641 23.8812L4.64082 21.6207C4.6417 21.186 4.99463 20.8345 5.42927 20.8352L6.94043 20.8382C7.37506 20.8391 7.72663 21.1921 7.72585 21.6266L7.72144 23.8872C7.72066 24.3218 7.36763 24.6734 6.93299 24.6726Z" fill="#FAF8F8"/>
<path d="M6.93299 35.4689L5.42184 35.466C4.9872 35.4651 4.63563 35.1121 4.63641 34.6775L4.64082 32.417C4.6417 31.9823 4.99463 31.6307 5.42927 31.6316L6.94043 31.6345C7.37506 31.6354 7.72663 31.9883 7.72585 32.423L7.72144 34.6835C7.72066 35.1181 7.36763 35.4697 6.93299 35.4689Z" fill="#FAF8F8"/>
<path d="M24.1727 20.0597C24.1672 20.0597 24.1623 20.0597 24.1567 20.0597C19.6995 20.0597 16.0685 23.7145 16.0596 28.2138C16.0508 32.7188 19.676 36.3909 24.1408 36.3996H24.1567C28.614 36.3996 32.245 32.7449 32.2538 28.2455C32.2626 23.7407 28.6375 20.0685 24.1727 20.0597ZM24.1566 34.932C24.1524 34.932 24.1478 34.932 24.1436 34.932C20.4882 34.9249 17.5201 31.9125 17.5274 28.2168C17.5345 24.5254 20.5072 21.5274 24.1568 21.5274H24.1698C27.8252 21.5346 30.7933 24.547 30.7861 28.2427C30.7789 31.9341 27.8062 34.9322 24.1566 34.932Z" fill="#171D24"/>
<path d="M3.91209 32.4138L3.90769 34.6734C3.90583 35.637 4.76434 36.1384 5.58489 36.1974C6.18283 38.1898 8.01131 39.5818 10.1462 39.586L30.9116 39.6261H30.92C33.5488 39.6261 35.6901 37.4902 35.6947 34.8616L35.7182 24.5133C35.7191 24.108 35.3913 23.7786 34.986 23.7778C34.9855 23.7778 34.9849 23.7778 34.9843 23.7778C34.5797 23.7778 34.2514 24.1053 34.2504 24.51L34.227 34.8587C34.2238 36.6794 32.7409 38.1585 30.9201 38.1585C30.9182 38.1585 30.9162 38.1585 30.9142 38.1585L10.1491 38.1184C8.82256 38.1158 7.66698 37.34 7.14409 36.1847C7.8844 36.0841 8.45808 35.4502 8.45955 34.6824L8.46395 32.4228C8.46473 32.0166 8.3073 31.6343 8.0207 31.3465C7.66473 31.0374 7.27667 30.8881 6.85642 30.8989L6.86728 25.4065L6.93577 25.4066H6.9388C7.77599 25.4066 8.45788 24.7264 8.45955 23.8888L8.46395 21.6292C8.46542 20.8822 7.92471 20.2595 7.21375 20.1311C7.75827 19.0255 8.89644 18.2877 10.1807 18.2877H10.1872L30.9524 18.3279C32.5824 18.331 33.9532 19.4994 34.2118 21.1059C34.2698 21.4666 34.5814 21.7234 34.9355 21.7234C34.9742 21.7234 35.0135 21.7203 35.0529 21.714C35.4531 21.6496 35.7252 21.273 35.6608 20.8729C35.2875 18.5524 33.3086 16.8648 30.9553 16.8602L10.1902 16.8201C10.1869 16.8201 10.1839 16.8201 10.1806 16.8201C8.09604 16.8201 6.27755 18.1678 5.64428 20.1031C4.76033 20.0959 3.91405 20.611 3.91209 21.6205L3.90769 23.8801C3.90612 24.7099 4.57305 25.3869 5.39957 25.4025L5.38871 30.8985C4.57207 30.9218 3.91375 31.5912 3.91209 32.4138ZM6.98088 32.3823C6.99634 32.3978 6.99634 32.4145 6.99634 32.4198L6.99193 34.6794C6.99184 34.7087 6.96806 34.7325 6.9388 34.7325C6.9388 34.7325 6.9388 34.7325 6.93871 34.7325L5.42833 34.7295C5.39604 34.7264 5.37833 34.7087 5.3754 34.6764L5.3798 32.4168C5.3799 32.3875 5.40368 32.3638 5.43293 32.3638H5.43303L6.9435 32.3667C6.94888 32.3666 6.96542 32.3667 6.98088 32.3823ZM5.3755 23.8827L5.3799 21.6231C5.39037 21.5877 5.40808 21.57 5.43313 21.57L6.9435 21.573C6.97276 21.573 6.99653 21.5968 6.99643 21.6261L6.99203 23.8857C6.99193 23.9149 6.96816 23.9387 6.9389 23.9387C6.9389 23.9387 6.9389 23.9387 6.9388 23.9387L5.42843 23.9358C5.39917 23.9358 5.3754 23.912 5.3755 23.8827Z" fill="#171D24"/>
<path d="M41.3894 0.196533C36.6955 0.196533 32.8767 4.01532 32.8767 8.70925C32.8767 9.44673 32.9711 10.1625 33.1481 10.8453L5.16106 10.7914C5.15754 10.7914 5.15411 10.7914 5.15059 10.7914C2.39521 10.7914 0.15059 13.0303 0.144915 15.7871L0.0978502 40.0482C0.0951104 41.3852 0.61331 42.6432 1.55695 43.5905C2.50049 44.5376 3.75646 45.0607 5.09354 45.0635L5.44599 45.0641L5.44022 48.014C5.43777 49.19 6.39247 50.1486 7.56869 50.151L12.0435 50.1592H12.0481C13.2218 50.1592 14.1782 49.2053 14.1806 48.0308L14.1864 45.0813L25.8438 45.1042L25.8387 48.0513C25.8374 48.621 26.0581 49.1571 26.4602 49.5607C26.8621 49.9642 27.3973 50.1871 27.9671 50.1884L32.4421 50.1965H32.4467C33.0144 50.1965 33.5484 49.9759 33.9509 49.5749C34.3543 49.173 34.577 48.6378 34.5783 48.0683L34.5842 45.1215L35.942 45.1241H35.9506C37.2845 45.1241 38.5391 44.606 39.4842 43.6646C40.4317 42.7209 40.9547 41.4646 40.9569 40.1276L40.9716 32.9279C40.9725 32.5227 40.6445 32.1934 40.2393 32.1926C40.2387 32.1926 40.2383 32.1926 40.2378 32.1926C39.8332 32.1926 39.5048 32.5202 39.5039 32.925L39.4892 40.1249C39.4877 41.07 39.118 41.9578 38.4484 42.6247C37.7803 43.2902 36.8934 43.6564 35.9507 43.6564C35.9487 43.6564 35.9467 43.6564 35.9446 43.6564L5.09638 43.5958C4.15127 43.5938 3.2636 43.224 2.59658 42.5546C1.92975 41.8851 1.56351 40.996 1.56546 40.0511L1.61243 15.79C1.61644 13.8413 3.20274 12.2591 5.15049 12.2591H5.15793L33.6787 12.3139C34.7843 14.6695 36.9381 16.439 39.5357 17.0181L39.5303 29.5015C39.5301 29.9068 39.8585 30.2355 40.2639 30.2357H40.2642C40.6694 30.2357 40.9978 29.9073 40.998 29.5021L41.0035 17.2128C41.1315 17.2185 41.2601 17.2219 41.3894 17.2219C46.0834 17.2219 49.9022 13.4031 49.9022 8.70916C49.9022 4.01522 46.0834 0.196533 41.3894 0.196533V0.196533ZM12.7129 48.0278C12.7121 48.3941 12.414 48.6914 12.0478 48.6914C12.0474 48.6914 12.0469 48.6914 12.0464 48.6914L7.57153 48.6833C7.20489 48.6825 6.90714 48.3836 6.90793 48.017L6.9137 45.067L12.7187 45.0784L12.7129 48.0278ZM33.1106 48.0652C33.1102 48.2429 33.0407 48.4098 32.9149 48.5353C32.7895 48.6601 32.6234 48.7289 32.4464 48.7289C32.4459 48.7289 32.4454 48.7289 32.4449 48.7289L27.9701 48.7208C27.6034 48.72 27.3057 48.4211 27.3065 48.0543L27.3116 45.1072L33.1164 45.1186L33.1106 48.0652ZM41.3894 15.7543C37.5048 15.7543 34.3444 12.5939 34.3444 8.70925C34.3444 4.82462 37.5048 1.66424 41.3894 1.66424C45.2741 1.66424 48.4344 4.82462 48.4344 8.70925C48.4344 12.5939 45.2741 15.7543 41.3894 15.7543Z" fill="#171D24"/>
<path d="M45.5086 5.29188C45.1886 5.04345 44.7275 5.10167 44.479 5.42182L40.6029 10.4176L38.2557 7.9138C37.9785 7.6181 37.5142 7.60303 37.2183 7.88033C36.9227 8.15754 36.9076 8.62202 37.1848 8.91761L40.1203 12.0487C40.2594 12.1971 40.4532 12.2807 40.6557 12.2807C40.667 12.2807 40.6785 12.2804 40.6899 12.2799C40.9044 12.27 41.1038 12.1664 41.2355 11.9968L45.6387 6.32163C45.887 6.00137 45.8288 5.54032 45.5086 5.29188Z" fill="#171D24"/>
<path d="M24.1567 23.1418C21.3511 23.1418 19.0686 25.4243 19.0686 28.2298C19.0686 31.0354 21.3511 33.3179 24.1567 33.3179C26.9623 33.3179 29.2447 31.0354 29.2447 28.2298C29.2447 25.4243 26.9623 23.1418 24.1567 23.1418ZM24.1567 31.8502C22.1604 31.8502 20.5363 30.2261 20.5363 28.2298C20.5363 26.2336 22.1604 24.6095 24.1567 24.6095C26.153 24.6095 27.777 26.2336 27.777 28.2298C27.777 30.2261 26.153 31.8502 24.1567 31.8502Z" fill="#171D24"/>
</g>
<defs>
<clipPath id="clip0">
<rect width="50" height="50" fill="white" transform="translate(0 0.196533)"/>
</clipPath>
</defs>
</svg>
