<svg width="80" height="81" viewBox="0 0 80 81" fill="none" xmlns="http://www.w3.org/2000/svg">
<g clip-path="url(#clip0)">
<path d="M38.7537 55.9897C38.1064 55.9897 37.5817 55.465 37.5817 54.8179V51.6633C37.5817 51.016 38.1064 50.4915 38.7537 50.4915C39.4011 50.4915 39.9258 51.0161 39.9258 51.6633V54.8179C39.9258 55.4652 39.4011 55.9897 38.7537 55.9897Z" fill="#80A3FF"/>
<path d="M62.6506 43.5043C67.5903 43.1902 72.1127 40.9713 75.3864 37.2539C82.1372 29.5864 81.3917 17.8514 73.7253 11.0949C70.3984 8.16348 66.1261 6.52129 61.6991 6.47129C61.6272 6.46973 61.5569 6.46973 61.4866 6.46973C57.1798 6.46973 52.9997 7.9666 49.6931 10.698C49.1947 11.1105 49.1244 11.8496 49.5353 12.348C49.9478 12.848 50.687 12.9183 51.1855 12.5058C57.3439 7.41957 66.1716 7.56504 72.1769 12.8527C78.873 18.7546 79.523 29.0066 73.627 35.7054C70.7673 38.9524 66.8169 40.8916 62.5023 41.165C60.3663 41.2994 58.2675 41.0197 56.2986 40.3541C55.1953 39.9822 54.1327 39.4885 53.128 38.8807C52.3028 38.3822 51.5169 37.8057 50.7792 37.1557C49.24 35.801 48.0133 34.2133 47.1131 32.4883C46.5662 31.4446 46.1395 30.3507 45.8364 29.2272C44.7097 25.0614 45.263 20.4877 47.6569 16.5735C47.9944 16.0204 47.8194 15.3 47.2678 14.9625C46.7163 14.625 45.9942 14.7985 45.6567 15.35C43.1939 19.3783 42.433 24.0146 43.2392 28.3741C41.7719 28.0116 40.2702 27.8304 38.77 27.8304C33.6287 27.8304 28.5095 29.9524 24.8512 34.1057C21.2336 38.2152 19.7678 43.4905 20.3664 48.5422L13.05 50.8002C12.5562 49.7564 11.4967 49.0299 10.2669 49.0299H3.07687C1.37984 49.0294 0 50.4124 0 52.1108V69.7538C0 71.4507 1.37984 72.8305 3.07687 72.8305H10.2667C11.6122 72.8305 12.7577 71.9618 13.1748 70.7569L22.5978 72.393C22.665 72.4039 22.7322 72.4102 22.7994 72.4102C23.3587 72.4102 23.8542 72.0086 23.9527 71.4383C24.0636 70.8008 23.6355 70.193 22.9978 70.0835L13.3467 68.4085V53.1625L20.7912 50.8639L22.6117 50.3014C22.7539 50.2577 22.8945 50.2139 23.0336 50.1718C29.3186 48.2591 32.2894 47.931 36.4584 47.931H40.2573C40.7277 48.0154 41.1466 48.1575 41.5169 48.3435C42.6608 48.9122 43.3264 49.895 43.5186 50.9046C43.5748 51.1968 43.5905 51.4921 43.567 51.7796C43.4545 53.1671 42.3778 54.6516 39.6963 54.6516H36.7381C34.3894 54.5 32.8923 56.1594 32.6267 57.8877C32.3705 59.5549 33.2752 61.6269 35.8708 62.241C35.8958 62.2472 35.9208 62.2519 35.9458 62.2566L37.2913 62.4816L45.0797 63.7847L45.3687 63.8332C45.4031 63.8394 45.4375 63.8441 45.4719 63.8457C46.0281 63.8894 46.5658 63.9535 47.0861 64.016C48.6941 64.2066 50.213 64.3879 52.0383 63.9613L68.8636 60.0314C68.8683 60.0299 68.8745 60.0283 68.8808 60.0268C70.8466 59.5346 71.8452 60.4424 72.1233 61.4549C72.4186 62.5314 71.953 63.9254 70.2325 64.4394L43.8389 72.3304C40.9042 73.2069 38.4742 72.8194 37.5664 72.6116C37.5461 72.6069 37.5258 72.6022 37.5055 72.5991L28.3309 71.0085C27.6934 70.8991 27.087 71.3257 26.9761 71.9632C26.8652 72.6007 27.2933 73.2069 27.9309 73.3179L37.0758 74.9038C37.657 75.035 38.7244 75.2194 40.1011 75.2194C41.3575 75.2194 42.8717 75.0663 44.5109 74.5757L70.903 66.6847C73.9564 65.7722 74.9753 62.9893 74.3847 60.8344C73.8159 58.7639 71.6766 56.9155 68.3216 57.7499L51.5056 61.6782C50.618 61.886 49.793 61.9063 48.9444 61.8485C50.307 60.95 51.5572 59.8624 52.6652 58.6046C55.9373 54.8904 57.5672 50.123 57.2531 45.1805C57.2063 44.443 57.1172 43.7149 56.9859 42.9975C58.433 43.3569 59.93 43.5413 61.452 43.5413C61.8491 43.5418 62.2491 43.5293 62.6506 43.5043ZM11.0028 69.7538C11.0028 70.1507 10.6653 70.4866 10.2669 70.4866H3.07687C2.68 70.4866 2.34391 70.1507 2.34391 69.7538V52.1108C2.34391 51.7046 2.67203 51.3733 3.07687 51.3733H10.2667C10.6652 51.3733 11.0027 51.7108 11.0027 52.1108V69.7538H11.0028ZM50.9056 57.0564C49.2164 58.9754 47.1458 60.4379 44.8425 61.3691L36.3744 59.9519C35.3523 59.6988 34.818 59.0629 34.943 58.2455C35.0477 57.5674 35.6041 56.9205 36.6119 56.9924C36.6416 56.9939 36.6697 56.9955 36.6978 56.9955H39.6966C43.7017 56.9955 45.7003 54.4704 45.9034 51.9686C46.0659 49.9857 45.147 47.806 43.1281 46.5496C42.4312 45.7152 41.3858 45.1839 40.22 45.1839H37.3181C36.5023 45.1839 35.8367 44.5183 35.8367 43.7011C35.8367 42.8839 36.5023 42.2199 37.3181 42.2199H42.8516C43.4984 42.2199 44.0236 41.6949 44.0236 41.048C44.0236 40.4011 43.4986 39.8761 42.8516 39.8761H39.9302V37.8933C39.9302 37.246 39.4055 36.7214 38.7581 36.7214C38.1108 36.7214 37.5861 37.2461 37.5861 37.8933V39.8761H37.3181C35.2086 39.8761 33.4927 41.5918 33.4927 43.7013C33.4927 44.406 33.6848 45.0685 34.0192 45.6357C30.7767 45.7779 27.7686 46.295 22.6477 47.8405C22.2523 43.5591 23.5509 39.1291 26.6106 35.6555H26.6091C31.0455 30.6194 37.94 29.0021 43.9344 31.0179C44.9517 33.9805 46.7331 36.715 49.2303 38.9135C50.7883 40.2869 52.5306 41.3699 54.3934 42.1402C54.6684 43.173 54.845 44.2388 54.9137 45.3294C55.1889 49.6468 53.7653 53.811 50.9056 57.0564Z" fill="#80A3FF"/>
<path d="M62.918 29.1449H57.3853C56.738 29.1449 56.2133 29.6696 56.2133 30.3168C56.2133 30.964 56.738 31.4887 57.3853 31.4887H60.3019V33.4669C60.3019 34.1143 60.8266 34.6388 61.4739 34.6388C62.1213 34.6388 62.6459 34.1141 62.6459 33.4669V31.4887H62.918C65.0275 31.4887 66.7434 29.7704 66.7434 27.6583C66.7434 25.5487 65.0353 23.8326 62.9356 23.8326H60.0386C59.2219 23.8326 58.5572 23.1677 58.5572 22.3505C58.5572 21.5333 59.2217 20.8687 60.0386 20.8687H65.5714C66.2188 20.8687 66.7434 20.344 66.7434 19.6968C66.7434 19.0496 66.2188 18.5249 65.5714 18.5249H62.6503V16.5466C62.6503 15.8993 62.1256 15.3748 61.4783 15.3748C60.8309 15.3748 60.3062 15.8994 60.3062 16.5466V18.5249H60.0386C57.9292 18.5249 56.2133 20.2412 56.2133 22.3507C56.2133 24.4604 57.9294 26.1765 60.0386 26.1765H62.9356C63.7291 26.1765 64.3994 26.8552 64.3994 27.6585C64.3994 28.478 63.7348 29.1449 62.918 29.1449Z" fill="#80A3FF"/>
</g>
<defs>
<clipPath id="clip0">
<rect width="80" height="80" fill="white" transform="translate(0 0.844727)"/>
</clipPath>
</defs>
</svg>
