<svg width="61" height="61" viewBox="0 0 61 61" fill="none" xmlns="http://www.w3.org/2000/svg">
<path d="M29.0254 6.28858H35.0254C35.5777 6.28858 36.0254 5.84086 36.0254 5.28858C36.0254 4.73629 35.5777 4.28857 35.0254 4.28857H29.0254C28.4731 4.28857 28.0254 4.73629 28.0254 5.28858C28.0254 5.84086 28.4731 6.28858 29.0254 6.28858Z" fill="#9199A1"/>
<path d="M39.0254 6.28858H41.0254C41.5777 6.28858 42.0254 5.84086 42.0254 5.28858C42.0254 4.73629 41.5777 4.28857 41.0254 4.28857H39.0254C38.4731 4.28857 38.0254 4.73629 38.0254 5.28858C38.0254 5.84086 38.4731 6.28858 39.0254 6.28858Z" fill="#9199A1"/>
<path d="M9.02539 20.2886H18.0254C18.5777 20.2886 19.0254 19.8409 19.0254 19.2886C19.0254 18.7363 18.5777 18.2886 18.0254 18.2886H9.02539C8.47311 18.2886 8.02539 18.7363 8.02539 19.2886C8.02539 19.8409 8.47311 20.2886 9.02539 20.2886Z" fill="#9199A1"/>
<path d="M23.0254 20.2886H31.0254C31.5777 20.2886 32.0254 19.8409 32.0254 19.2886C32.0254 18.7363 31.5777 18.2886 31.0254 18.2886H23.0254C22.4731 18.2886 22.0254 18.7363 22.0254 19.2886C22.0254 19.8409 22.4731 20.2886 23.0254 20.2886Z" fill="#9199A1"/>
<path d="M9.02539 25.2886H24.0254C24.5777 25.2886 25.0254 24.8409 25.0254 24.2886C25.0254 23.7363 24.5777 23.2886 24.0254 23.2886H9.02539C8.47311 23.2886 8.02539 23.7363 8.02539 24.2886C8.02539 24.8409 8.47311 25.2886 9.02539 25.2886Z" fill="#9199A1"/>
<path d="M18.0254 28.2886H9.02539C8.47311 28.2886 8.02539 28.7363 8.02539 29.2886C8.02539 29.8408 8.47311 30.2886 9.02539 30.2886H18.0254C18.5777 30.2886 19.0254 29.8408 19.0254 29.2886C19.0254 28.7363 18.5777 28.2886 18.0254 28.2886Z" fill="#9199A1"/>
<path d="M56.0144 46.6636C56.5177 45.3918 56.7759 44.0363 56.7754 42.6686C56.748 38.2143 54.1039 34.1925 50.0254 32.4016V24.2886H52.9944C53.7563 24.2887 54.4521 23.856 54.7889 23.1725C55.1256 22.489 55.0448 21.6736 54.5804 21.0696L46.6104 10.7096C46.4512 10.5095 46.252 10.345 46.0254 10.2266V5.28857C46.0221 2.52852 43.7854 0.29188 41.0254 0.288574H14.0254C13.7602 0.288631 13.5059 0.394025 13.3184 0.581574L0.318391 13.5816C0.130841 13.7691 0.0254473 14.0234 0.0253906 14.2886V51.2886C0.0286967 54.0486 2.26534 56.2853 5.02539 56.2886H19.8374C21.1395 58.7713 23.7221 60.3158 26.5254 60.2886H52.5254C56.5906 60.3572 59.945 57.1236 60.0254 53.0586C60.0026 50.3407 58.4513 47.8673 56.0144 46.6636ZM52.9944 22.2886H50.0254C48.9208 22.2886 48.0254 23.184 48.0254 24.2886V45.2886H42.0254V24.2886C42.0254 23.184 41.13 22.2886 40.0254 22.2886H37.0564L45.0254 11.9286L52.9944 22.2886ZM13.0254 3.70257V10.2886C13.0254 11.9454 11.6822 13.2886 10.0254 13.2886H3.43939L13.0254 3.70257ZM2.02539 51.2886V15.2886H10.0254C12.7854 15.2853 15.0221 13.0486 15.0254 10.2886V2.28857H41.0254C42.6822 2.28857 44.0254 3.63172 44.0254 5.28857V10.2266C43.7988 10.345 43.5995 10.5095 43.4404 10.7096L35.4714 21.0686C35.0065 21.6725 34.9252 22.4881 35.2618 23.1718C35.5984 23.8556 36.2943 24.2886 37.0564 24.2886H40.0254V32.3246C37.9965 33.2138 36.2593 34.657 35.0134 36.4886C33.7356 35.7999 32.3069 35.4392 30.8554 35.4386C26.2051 35.3599 22.3679 39.0586 22.2754 43.7086C22.2768 44.7515 22.4806 45.7843 22.8754 46.7496C20.5329 47.9882 19.0556 50.409 19.0254 53.0586C19.0263 53.4711 19.0638 53.8827 19.1374 54.2886H5.02539C3.36854 54.2886 2.02539 52.9454 2.02539 51.2886ZM52.5254 58.2886H26.5254C24.2862 58.3065 22.2565 56.9742 21.3824 54.9126C21.1443 54.3236 21.0231 53.6939 21.0254 53.0586C21.0465 50.8439 22.4682 48.8856 24.5674 48.1796C24.8447 48.0788 25.0634 47.8606 25.1648 47.5835C25.2662 47.3064 25.2401 46.9986 25.0934 46.7426C24.5582 45.821 24.276 44.7743 24.2754 43.7086C24.3671 40.1628 27.3094 37.3592 30.8554 37.4386C32.2577 37.4388 33.6258 37.8722 34.7724 38.6796C35.0059 38.8403 35.2961 38.8957 35.5724 38.8326C35.8489 38.7679 36.0849 38.5886 36.2214 38.3396C37.1058 36.7442 38.4249 35.4327 40.0254 34.5576V45.2886C40.0254 46.3931 40.9208 47.2886 42.0254 47.2886H48.0254C49.13 47.2886 50.0254 46.3931 50.0254 45.2886V34.6426C52.9403 36.2655 54.7553 39.3324 54.7754 42.6686C54.7727 44.084 54.4359 45.4788 53.7924 46.7396C53.6612 46.9988 53.6492 47.3023 53.7596 47.5711C53.87 47.8399 54.0918 48.0474 54.3674 48.1396C56.5172 48.8227 57.9899 50.8032 58.0254 53.0586C57.9452 56.0191 55.4862 58.3574 52.5254 58.2886Z" fill="#9199A1"/>
</svg>
